%TF.GenerationSoftware,KiCad,Pcbnew,(6.0.0)*%
%TF.CreationDate,2022-02-12T07:25:13+01:00*%
%TF.ProjectId,Tranzistorski_pretvara_,5472616e-7a69-4737-946f-72736b695f70,rev?*%
%TF.SameCoordinates,Original*%
%TF.FileFunction,Copper,L2,Bot*%
%TF.FilePolarity,Positive*%
%FSLAX46Y46*%
G04 Gerber Fmt 4.6, Leading zero omitted, Abs format (unit mm)*
G04 Created by KiCad (PCBNEW (6.0.0)) date 2022-02-12 07:25:13*
%MOMM*%
%LPD*%
G01*
G04 APERTURE LIST*
%TA.AperFunction,ComponentPad*%
%ADD10O,1.700000X1.700000*%
%TD*%
%TA.AperFunction,ComponentPad*%
%ADD11C,1.700000*%
%TD*%
%TA.AperFunction,ComponentPad*%
%ADD12C,1.600000*%
%TD*%
%TA.AperFunction,ComponentPad*%
%ADD13O,1.600000X1.600000*%
%TD*%
%TA.AperFunction,ComponentPad*%
%ADD14R,2.600000X2.600000*%
%TD*%
%TA.AperFunction,ComponentPad*%
%ADD15C,2.600000*%
%TD*%
%TA.AperFunction,ComponentPad*%
%ADD16O,5.000000X3.000000*%
%TD*%
%TA.AperFunction,ComponentPad*%
%ADD17O,3.000000X2.000000*%
%TD*%
%TA.AperFunction,ComponentPad*%
%ADD18R,1.600000X1.600000*%
%TD*%
%TA.AperFunction,ComponentPad*%
%ADD19R,3.200000X3.200000*%
%TD*%
%TA.AperFunction,ComponentPad*%
%ADD20O,3.200000X3.200000*%
%TD*%
%TA.AperFunction,ComponentPad*%
%ADD21R,1.905000X2.000000*%
%TD*%
%TA.AperFunction,ComponentPad*%
%ADD22O,1.905000X2.000000*%
%TD*%
%TA.AperFunction,ComponentPad*%
%ADD23C,7.000000*%
%TD*%
%TA.AperFunction,ComponentPad*%
%ADD24R,2.400000X2.400000*%
%TD*%
%TA.AperFunction,ComponentPad*%
%ADD25C,2.400000*%
%TD*%
%TA.AperFunction,ComponentPad*%
%ADD26R,1.700000X1.700000*%
%TD*%
%TA.AperFunction,ComponentPad*%
%ADD27R,2.400000X1.600000*%
%TD*%
%TA.AperFunction,ComponentPad*%
%ADD28O,2.400000X1.600000*%
%TD*%
%TA.AperFunction,Conductor*%
%ADD29C,0.762000*%
%TD*%
%TA.AperFunction,Conductor*%
%ADD30C,1.270000*%
%TD*%
G04 APERTURE END LIST*
D10*
%TO.P,J7,1,Pin_1*%
%TO.N,/CT*%
X136000000Y-126340000D03*
D11*
X136000000Y-123800000D03*
%TD*%
D12*
%TO.P,R7,1*%
%TO.N,Net-(Q1-Pad1)*%
X143500000Y-65920000D03*
D13*
%TO.P,R7,2*%
%TO.N,Net-(R6-Pad1)*%
X143500000Y-76080000D03*
%TD*%
D12*
%TO.P,R5,1*%
%TO.N,VDD*%
X137000000Y-65920000D03*
D13*
%TO.P,R5,2*%
%TO.N,Net-(R5-Pad2)*%
X137000000Y-76080000D03*
%TD*%
D12*
%TO.P,C4,1*%
%TO.N,Net-(C4-Pad1)*%
X133600000Y-109500000D03*
%TO.P,C4,2*%
%TO.N,GND*%
X133600000Y-114500000D03*
%TD*%
D14*
%TO.P,J2,1,Pin_1*%
%TO.N,GND*%
X102945000Y-114750000D03*
D15*
%TO.P,J2,2,Pin_2*%
X102945000Y-119750000D03*
%TD*%
D12*
%TO.P,C1,1*%
%TO.N,Net-(C1-Pad1)*%
X113750000Y-121750000D03*
%TO.P,C1,2*%
%TO.N,GND*%
X113750000Y-126750000D03*
%TD*%
D14*
%TO.P,J5,1,Pin_1*%
%TO.N,GND*%
X180000000Y-121000000D03*
D15*
%TO.P,J5,2,Pin_2*%
%TO.N,Net-(D2-Pad2)*%
X180000000Y-116000000D03*
%TO.P,J5,3,Pin_3*%
%TO.N,VDD*%
X180000000Y-111000000D03*
%TD*%
D16*
%TO.P,RV1,*%
%TO.N,*%
X107000000Y-89450000D03*
X107000000Y-99050000D03*
D17*
%TO.P,RV1,1,1*%
%TO.N,Net-(R2-Pad2)*%
X100000000Y-91750000D03*
%TO.P,RV1,2,2*%
%TO.N,Net-(RV1-Pad2)*%
X100000000Y-94250000D03*
%TO.P,RV1,3,3*%
%TO.N,Net-(R1-Pad1)*%
X100000000Y-96750000D03*
%TD*%
D12*
%TO.P,R4,1*%
%TO.N,VDD*%
X130400000Y-65920000D03*
D13*
%TO.P,R4,2*%
%TO.N,Net-(J6-Pad1)*%
X130400000Y-76080000D03*
%TD*%
D11*
%TO.P,J6,1,Pin_1*%
%TO.N,Net-(J6-Pad1)*%
X144000000Y-123730000D03*
D10*
X144000000Y-126270000D03*
%TD*%
D12*
%TO.P,R2,1*%
%TO.N,/+5V_REF*%
X110937000Y-82750000D03*
D13*
%TO.P,R2,2*%
%TO.N,Net-(R2-Pad2)*%
X100777000Y-82750000D03*
%TD*%
D18*
%TO.P,U2,1*%
%TO.N,Net-(R5-Pad2)*%
X143700000Y-109725000D03*
D13*
%TO.P,U2,2*%
%TO.N,Net-(J6-Pad1)*%
X143700000Y-112265000D03*
%TO.P,U2,3*%
%TO.N,Net-(R6-Pad1)*%
X151320000Y-112265000D03*
%TO.P,U2,4*%
%TO.N,/+5V_REF*%
X151320000Y-109725000D03*
%TD*%
D12*
%TO.P,C6,1*%
%TO.N,VDD*%
X138750000Y-89500000D03*
%TO.P,C6,2*%
%TO.N,GND*%
X138750000Y-94500000D03*
%TD*%
%TO.P,R3,1*%
%TO.N,Net-(R3-Pad1)*%
X118750000Y-100980000D03*
D13*
%TO.P,R3,2*%
%TO.N,GND*%
X118750000Y-90820000D03*
%TD*%
D19*
%TO.P,D2,1,K*%
%TO.N,VDD*%
X168190000Y-107780000D03*
D20*
%TO.P,D2,2,A*%
%TO.N,Net-(D2-Pad2)*%
X168190000Y-123020000D03*
%TD*%
D10*
%TO.P,J8,1,Pin_1*%
%TO.N,GND*%
X152000000Y-126290000D03*
D11*
X152000000Y-123750000D03*
%TD*%
D12*
%TO.P,R6,1*%
%TO.N,Net-(R6-Pad1)*%
X152580000Y-116750000D03*
D13*
%TO.P,R6,2*%
%TO.N,GND*%
X142420000Y-116750000D03*
%TD*%
D11*
%TO.P,J4,1,Pin_1*%
%TO.N,Net-(D2-Pad2)*%
X160000000Y-123750000D03*
D10*
X160000000Y-126290000D03*
%TD*%
D21*
%TO.P,Q1,1,G*%
%TO.N,Net-(Q1-Pad1)*%
X165500000Y-76950000D03*
D22*
%TO.P,Q1,2,D*%
%TO.N,Net-(D2-Pad2)*%
X162960000Y-76950000D03*
D23*
X162960000Y-91840000D03*
D22*
%TO.P,Q1,3,S*%
%TO.N,GND*%
X160420000Y-76950000D03*
%TD*%
D14*
%TO.P,J1,1,Pin_1*%
%TO.N,VDD*%
X103250000Y-68500007D03*
D15*
%TO.P,J1,2,Pin_2*%
X103250000Y-73500007D03*
%TD*%
D12*
%TO.P,R1,1*%
%TO.N,Net-(R1-Pad1)*%
X100777000Y-105750000D03*
D13*
%TO.P,R1,2*%
%TO.N,GND*%
X110937000Y-105750000D03*
%TD*%
D24*
%TO.P,C5,1*%
%TO.N,VDD*%
X118400000Y-68684785D03*
D25*
%TO.P,C5,2*%
%TO.N,GND*%
X118400000Y-73684785D03*
%TD*%
D12*
%TO.P,C2,1*%
%TO.N,/CT*%
X121750000Y-121750000D03*
%TO.P,C2,2*%
%TO.N,GND*%
X121750000Y-126750000D03*
%TD*%
%TO.P,C3,1*%
%TO.N,Net-(C3-Pad1)*%
X129750000Y-121750000D03*
%TO.P,C3,2*%
%TO.N,GND*%
X129750000Y-126750000D03*
%TD*%
D26*
%TO.P,J3,1,Pin_1*%
%TO.N,Net-(C3-Pad1)*%
X124275000Y-113500000D03*
D10*
%TO.P,J3,2,Pin_2*%
%TO.N,/CT*%
X121735000Y-113500000D03*
%TO.P,J3,3,Pin_3*%
%TO.N,Net-(C1-Pad1)*%
X119195000Y-113500000D03*
%TD*%
D27*
%TO.P,U1,1,INV._INPUT*%
%TO.N,Net-(C4-Pad1)*%
X126000000Y-87000000D03*
D28*
%TO.P,U1,2,NON_INV._INPUT*%
%TO.N,Net-(RV1-Pad2)*%
X126000000Y-89540000D03*
%TO.P,U1,3,OSC./SYNC.*%
%TO.N,unconnected-(U1-Pad3)*%
X126000000Y-92080000D03*
%TO.P,U1,4,C.L.(+)SENSE*%
%TO.N,unconnected-(U1-Pad4)*%
X126000000Y-94620000D03*
%TO.P,U1,5,C.L.(-)SENSE*%
%TO.N,unconnected-(U1-Pad5)*%
X126000000Y-97160000D03*
%TO.P,U1,6,RT*%
%TO.N,Net-(R3-Pad1)*%
X126000000Y-99700000D03*
%TO.P,U1,7,CT*%
%TO.N,/CT*%
X126000000Y-102240000D03*
%TO.P,U1,8,GROUND*%
%TO.N,GND*%
X126000000Y-104780000D03*
%TO.P,U1,9,COMPENSATION*%
%TO.N,Net-(C4-Pad1)*%
X133620000Y-104780000D03*
%TO.P,U1,10,SHUTDOWN*%
%TO.N,unconnected-(U1-Pad10)*%
X133620000Y-102240000D03*
%TO.P,U1,11,EMITTER_A*%
%TO.N,GND*%
X133620000Y-99700000D03*
%TO.P,U1,12,COLLECTOR_A*%
%TO.N,Net-(J6-Pad1)*%
X133620000Y-97160000D03*
%TO.P,U1,13,COLLECTOR_B*%
X133620000Y-94620000D03*
%TO.P,U1,14,EMITTER_B*%
%TO.N,GND*%
X133620000Y-92080000D03*
%TO.P,U1,15,+Vi*%
%TO.N,VDD*%
X133620000Y-89540000D03*
%TO.P,U1,16,+5V_REF*%
%TO.N,/+5V_REF*%
X133620000Y-87000000D03*
%TD*%
D29*
%TO.N,Net-(J6-Pad1)*%
X130400000Y-93400000D02*
X131620000Y-94620000D01*
X131620000Y-94620000D02*
X133620000Y-94620000D01*
X130400000Y-76080000D02*
X130400000Y-93400000D01*
%TO.N,Net-(Q1-Pad1)*%
X165500000Y-74000000D02*
X159920000Y-68420000D01*
X165500000Y-76950000D02*
X165500000Y-74000000D01*
X157420000Y-65920000D02*
X159920000Y-68420000D01*
X143500000Y-65920000D02*
X157420000Y-65920000D01*
D30*
%TO.N,/+5V_REF*%
X144800000Y-88800000D02*
X144800000Y-103205000D01*
X133620000Y-87000000D02*
X143000000Y-87000000D01*
X144800000Y-103205000D02*
X151320000Y-109725000D01*
X143000000Y-87000000D02*
X144800000Y-88800000D01*
%TD*%
%TA.AperFunction,Conductor*%
%TO.N,GND*%
G36*
X131904763Y-55294564D02*
G01*
X180664678Y-55299533D01*
X180732796Y-55319542D01*
X180779283Y-55373202D01*
X180789380Y-55443477D01*
X180776427Y-55483713D01*
X180596212Y-55829903D01*
X180424785Y-56243765D01*
X180290080Y-56670993D01*
X180193123Y-57108336D01*
X180134653Y-57552465D01*
X180134533Y-57555214D01*
X180134532Y-57555225D01*
X180115929Y-57981312D01*
X180115113Y-58000000D01*
X180115233Y-58002748D01*
X180134531Y-58444738D01*
X180134653Y-58447535D01*
X180193123Y-58891664D01*
X180290080Y-59329007D01*
X180424785Y-59756235D01*
X180596212Y-60170097D01*
X180803057Y-60567443D01*
X181043747Y-60945250D01*
X181045416Y-60947425D01*
X181314573Y-61298198D01*
X181316448Y-61300642D01*
X181619087Y-61630913D01*
X181949358Y-61933552D01*
X182304750Y-62206253D01*
X182682556Y-62446943D01*
X183079903Y-62653788D01*
X183493765Y-62825215D01*
X183496385Y-62826041D01*
X183496393Y-62826044D01*
X183918363Y-62959091D01*
X183918368Y-62959092D01*
X183920993Y-62959920D01*
X184358336Y-63056877D01*
X184361055Y-63057235D01*
X184361061Y-63057236D01*
X184528199Y-63079240D01*
X184802465Y-63115347D01*
X184805214Y-63115467D01*
X184805225Y-63115468D01*
X185231312Y-63134071D01*
X185240175Y-63134458D01*
X185247252Y-63134767D01*
X185250000Y-63134887D01*
X185252748Y-63134767D01*
X185259826Y-63134458D01*
X185268688Y-63134071D01*
X185694775Y-63115468D01*
X185694786Y-63115467D01*
X185697535Y-63115347D01*
X185971801Y-63079240D01*
X186138939Y-63057236D01*
X186138945Y-63057235D01*
X186141664Y-63056877D01*
X186579007Y-62959920D01*
X186581632Y-62959092D01*
X186581637Y-62959091D01*
X187003607Y-62826044D01*
X187003615Y-62826041D01*
X187006235Y-62825215D01*
X187420097Y-62653788D01*
X187552618Y-62584802D01*
X187765820Y-62473817D01*
X187835480Y-62460104D01*
X187901495Y-62486229D01*
X187942906Y-62543898D01*
X187950000Y-62585580D01*
X187950000Y-125914420D01*
X187929998Y-125982541D01*
X187876342Y-126029034D01*
X187806068Y-126039138D01*
X187765820Y-126026183D01*
X187539027Y-125908123D01*
X187420097Y-125846212D01*
X187006235Y-125674785D01*
X187003615Y-125673959D01*
X187003607Y-125673956D01*
X186581637Y-125540909D01*
X186581632Y-125540908D01*
X186579007Y-125540080D01*
X186141664Y-125443123D01*
X186138945Y-125442765D01*
X186138939Y-125442764D01*
X185966048Y-125420003D01*
X185697535Y-125384653D01*
X185694786Y-125384533D01*
X185694775Y-125384532D01*
X185252748Y-125365233D01*
X185250000Y-125365113D01*
X185247252Y-125365233D01*
X184805225Y-125384532D01*
X184805214Y-125384533D01*
X184802465Y-125384653D01*
X184533952Y-125420003D01*
X184361061Y-125442764D01*
X184361055Y-125442765D01*
X184358336Y-125443123D01*
X183920993Y-125540080D01*
X183918368Y-125540908D01*
X183918363Y-125540909D01*
X183496393Y-125673956D01*
X183496385Y-125673959D01*
X183493765Y-125674785D01*
X183079903Y-125846212D01*
X182682557Y-126053057D01*
X182304750Y-126293747D01*
X182302575Y-126295416D01*
X181972105Y-126548994D01*
X181949358Y-126566448D01*
X181619087Y-126869087D01*
X181316448Y-127199358D01*
X181314782Y-127201530D01*
X181314778Y-127201534D01*
X181264622Y-127266899D01*
X181043747Y-127554750D01*
X180803057Y-127932557D01*
X180596212Y-128329903D01*
X180424785Y-128743765D01*
X180290080Y-129170993D01*
X180193123Y-129608336D01*
X180192765Y-129611055D01*
X180192764Y-129611061D01*
X180191909Y-129617558D01*
X180134653Y-130052465D01*
X180134533Y-130055214D01*
X180134532Y-130055225D01*
X180134330Y-130059854D01*
X180115113Y-130500000D01*
X180115233Y-130502748D01*
X180134451Y-130942906D01*
X180134653Y-130947535D01*
X180135014Y-130950274D01*
X180192263Y-131385129D01*
X180193123Y-131391664D01*
X180290080Y-131829007D01*
X180424785Y-132256235D01*
X180596212Y-132670097D01*
X180776184Y-133015820D01*
X180789897Y-133085479D01*
X180763772Y-133151495D01*
X180706104Y-133192906D01*
X180664421Y-133200000D01*
X102375398Y-133200000D01*
X102307277Y-133179998D01*
X102260784Y-133126342D01*
X102250680Y-133056068D01*
X102263635Y-133015820D01*
X102325925Y-132896163D01*
X102455291Y-132647653D01*
X102624945Y-132238071D01*
X102754773Y-131826314D01*
X102757428Y-131817892D01*
X102757429Y-131817887D01*
X102758257Y-131815262D01*
X102854210Y-131382442D01*
X102912076Y-130942906D01*
X102931414Y-130500000D01*
X102912076Y-130057094D01*
X102854210Y-129617558D01*
X102758257Y-129184738D01*
X102757428Y-129182108D01*
X102625774Y-128764557D01*
X102625771Y-128764549D01*
X102624945Y-128761929D01*
X102455291Y-128352347D01*
X102443608Y-128329903D01*
X102359193Y-128167745D01*
X102250584Y-127959110D01*
X102012384Y-127585210D01*
X101806502Y-127316899D01*
X101744167Y-127235662D01*
X101744162Y-127235656D01*
X101742503Y-127233494D01*
X101442995Y-126906638D01*
X101116139Y-126607130D01*
X101113977Y-126605471D01*
X101113971Y-126605466D01*
X100994514Y-126513804D01*
X100768008Y-126340000D01*
X134344396Y-126340000D01*
X134364779Y-126598994D01*
X134365933Y-126603801D01*
X134365934Y-126603807D01*
X134404220Y-126763276D01*
X134425427Y-126851610D01*
X134427320Y-126856181D01*
X134427321Y-126856183D01*
X134502241Y-127037054D01*
X134524846Y-127091628D01*
X134660588Y-127313140D01*
X134829311Y-127510689D01*
X135026860Y-127679412D01*
X135248372Y-127815154D01*
X135252942Y-127817047D01*
X135252946Y-127817049D01*
X135465812Y-127905221D01*
X135488390Y-127914573D01*
X135573495Y-127935005D01*
X135736193Y-127974066D01*
X135736199Y-127974067D01*
X135741006Y-127975221D01*
X136000000Y-127995604D01*
X136258994Y-127975221D01*
X136263801Y-127974067D01*
X136263807Y-127974066D01*
X136426505Y-127935005D01*
X136511610Y-127914573D01*
X136534188Y-127905221D01*
X136747054Y-127817049D01*
X136747058Y-127817047D01*
X136751628Y-127815154D01*
X136973140Y-127679412D01*
X137170689Y-127510689D01*
X137339412Y-127313140D01*
X137475154Y-127091628D01*
X137497760Y-127037054D01*
X137572679Y-126856183D01*
X137572680Y-126856181D01*
X137574573Y-126851610D01*
X137595780Y-126763276D01*
X137634066Y-126603807D01*
X137634067Y-126603801D01*
X137635221Y-126598994D01*
X137655604Y-126340000D01*
X137650095Y-126270000D01*
X142344396Y-126270000D01*
X142364779Y-126528994D01*
X142365933Y-126533801D01*
X142365934Y-126533807D01*
X142382740Y-126603807D01*
X142425427Y-126781610D01*
X142427320Y-126786181D01*
X142427321Y-126786183D01*
X142476449Y-126904787D01*
X142524846Y-127021628D01*
X142660588Y-127243140D01*
X142829311Y-127440689D01*
X143026860Y-127609412D01*
X143248372Y-127745154D01*
X143252942Y-127747047D01*
X143252946Y-127747049D01*
X143411123Y-127812568D01*
X143488390Y-127844573D01*
X143563807Y-127862679D01*
X143736193Y-127904066D01*
X143736199Y-127904067D01*
X143741006Y-127905221D01*
X144000000Y-127925604D01*
X144258994Y-127905221D01*
X144263801Y-127904067D01*
X144263807Y-127904066D01*
X144436193Y-127862679D01*
X144511610Y-127844573D01*
X144588877Y-127812568D01*
X144747054Y-127747049D01*
X144747058Y-127747047D01*
X144751628Y-127745154D01*
X144973140Y-127609412D01*
X145170689Y-127440689D01*
X145339412Y-127243140D01*
X145475154Y-127021628D01*
X145523552Y-126904787D01*
X145572679Y-126786183D01*
X145572680Y-126786181D01*
X145574573Y-126781610D01*
X145617260Y-126603807D01*
X145634066Y-126533807D01*
X145634067Y-126533801D01*
X145635221Y-126528994D01*
X145654030Y-126290000D01*
X158344396Y-126290000D01*
X158364779Y-126548994D01*
X158365933Y-126553801D01*
X158365934Y-126553807D01*
X158404220Y-126713276D01*
X158425427Y-126801610D01*
X158427320Y-126806181D01*
X158427321Y-126806183D01*
X158518310Y-127025848D01*
X158524846Y-127041628D01*
X158660588Y-127263140D01*
X158829311Y-127460689D01*
X159026860Y-127629412D01*
X159248372Y-127765154D01*
X159252942Y-127767047D01*
X159252946Y-127767049D01*
X159442894Y-127845728D01*
X159488390Y-127864573D01*
X159576724Y-127885780D01*
X159736193Y-127924066D01*
X159736199Y-127924067D01*
X159741006Y-127925221D01*
X160000000Y-127945604D01*
X160258994Y-127925221D01*
X160263801Y-127924067D01*
X160263807Y-127924066D01*
X160423276Y-127885780D01*
X160511610Y-127864573D01*
X160557106Y-127845728D01*
X160747054Y-127767049D01*
X160747058Y-127767047D01*
X160751628Y-127765154D01*
X160973140Y-127629412D01*
X161170689Y-127460689D01*
X161339412Y-127263140D01*
X161475154Y-127041628D01*
X161481691Y-127025848D01*
X161572679Y-126806183D01*
X161572680Y-126806181D01*
X161574573Y-126801610D01*
X161595780Y-126713276D01*
X161634066Y-126553807D01*
X161634067Y-126553801D01*
X161635221Y-126548994D01*
X161655604Y-126290000D01*
X161635221Y-126031006D01*
X161634067Y-126026199D01*
X161634066Y-126026193D01*
X161595780Y-125866724D01*
X161574573Y-125778390D01*
X161552329Y-125724688D01*
X161477049Y-125542946D01*
X161477047Y-125542942D01*
X161475154Y-125538372D01*
X161339412Y-125316860D01*
X161170689Y-125119311D01*
X161166933Y-125116103D01*
X161166928Y-125116098D01*
X161166592Y-125115811D01*
X161166500Y-125115670D01*
X161163425Y-125112595D01*
X161164071Y-125111949D01*
X161127783Y-125056361D01*
X161127275Y-124985366D01*
X161164095Y-124928075D01*
X161163425Y-124927405D01*
X161166504Y-124924326D01*
X161166592Y-124924189D01*
X161166928Y-124923902D01*
X161166933Y-124923897D01*
X161170689Y-124920689D01*
X161185027Y-124903902D01*
X161300307Y-124768926D01*
X161339412Y-124723140D01*
X161475154Y-124501628D01*
X161481691Y-124485848D01*
X161572679Y-124266183D01*
X161572680Y-124266181D01*
X161574573Y-124261610D01*
X161624402Y-124054060D01*
X161634066Y-124013807D01*
X161634067Y-124013801D01*
X161635221Y-124008994D01*
X161655604Y-123750000D01*
X161635221Y-123491006D01*
X161634067Y-123486199D01*
X161634066Y-123486193D01*
X161575728Y-123243202D01*
X161574573Y-123238390D01*
X161549509Y-123177880D01*
X161484113Y-123020000D01*
X165784754Y-123020000D01*
X165803720Y-123321457D01*
X165860319Y-123618160D01*
X165953659Y-123905430D01*
X165955346Y-123909016D01*
X165955348Y-123909020D01*
X166080579Y-124175150D01*
X166080583Y-124175157D01*
X166082267Y-124178736D01*
X166244115Y-124433768D01*
X166436651Y-124666504D01*
X166656838Y-124873274D01*
X166660040Y-124875601D01*
X166660042Y-124875602D01*
X166781215Y-124963639D01*
X166901205Y-125050816D01*
X166904674Y-125052723D01*
X166904677Y-125052725D01*
X167110379Y-125165811D01*
X167165896Y-125196332D01*
X167169565Y-125197785D01*
X167169570Y-125197787D01*
X167443068Y-125306072D01*
X167446738Y-125307525D01*
X167739302Y-125382642D01*
X168038973Y-125420500D01*
X168341027Y-125420500D01*
X168640698Y-125382642D01*
X168933262Y-125307525D01*
X168936932Y-125306072D01*
X169210430Y-125197787D01*
X169210435Y-125197785D01*
X169214104Y-125196332D01*
X169269621Y-125165811D01*
X169475323Y-125052725D01*
X169475326Y-125052723D01*
X169478795Y-125050816D01*
X169598785Y-124963639D01*
X169719958Y-124875602D01*
X169719960Y-124875601D01*
X169723162Y-124873274D01*
X169943349Y-124666504D01*
X170135885Y-124433768D01*
X170297733Y-124178736D01*
X170299417Y-124175157D01*
X170299421Y-124175150D01*
X170424652Y-123909020D01*
X170424654Y-123909016D01*
X170426341Y-123905430D01*
X170519681Y-123618160D01*
X170576280Y-123321457D01*
X170595246Y-123020000D01*
X170576280Y-122718543D01*
X170519681Y-122421840D01*
X170436157Y-122164779D01*
X170427567Y-122138343D01*
X170427567Y-122138342D01*
X170426341Y-122134570D01*
X170417028Y-122114779D01*
X170299421Y-121864850D01*
X170299417Y-121864843D01*
X170297733Y-121861264D01*
X170135885Y-121606232D01*
X169943349Y-121373496D01*
X169723162Y-121166726D01*
X169478795Y-120989184D01*
X169214104Y-120843668D01*
X169210435Y-120842215D01*
X169210430Y-120842213D01*
X168936932Y-120733928D01*
X168936931Y-120733928D01*
X168933262Y-120732475D01*
X168640698Y-120657358D01*
X168341027Y-120619500D01*
X168038973Y-120619500D01*
X167739302Y-120657358D01*
X167446738Y-120732475D01*
X167443069Y-120733928D01*
X167443068Y-120733928D01*
X167169570Y-120842213D01*
X167169565Y-120842215D01*
X167165896Y-120843668D01*
X166901205Y-120989184D01*
X166656838Y-121166726D01*
X166436651Y-121373496D01*
X166244115Y-121606232D01*
X166082267Y-121861264D01*
X166080583Y-121864843D01*
X166080579Y-121864850D01*
X165962972Y-122114779D01*
X165953659Y-122134570D01*
X165952433Y-122138342D01*
X165952433Y-122138343D01*
X165943843Y-122164779D01*
X165860319Y-122421840D01*
X165803720Y-122718543D01*
X165784754Y-123020000D01*
X161484113Y-123020000D01*
X161477049Y-123002946D01*
X161477047Y-123002942D01*
X161475154Y-122998372D01*
X161339412Y-122776860D01*
X161170689Y-122579311D01*
X160973140Y-122410588D01*
X160751628Y-122274846D01*
X160747058Y-122272953D01*
X160747054Y-122272951D01*
X160516183Y-122177321D01*
X160516181Y-122177320D01*
X160511610Y-122175427D01*
X160423276Y-122154220D01*
X160263807Y-122115934D01*
X160263801Y-122115933D01*
X160258994Y-122114779D01*
X160000000Y-122094396D01*
X159741006Y-122114779D01*
X159736199Y-122115933D01*
X159736193Y-122115934D01*
X159576724Y-122154220D01*
X159488390Y-122175427D01*
X159483819Y-122177320D01*
X159483817Y-122177321D01*
X159252946Y-122272951D01*
X159252942Y-122272953D01*
X159248372Y-122274846D01*
X159026860Y-122410588D01*
X158829311Y-122579311D01*
X158660588Y-122776860D01*
X158524846Y-122998372D01*
X158522953Y-123002942D01*
X158522951Y-123002946D01*
X158450491Y-123177880D01*
X158425427Y-123238390D01*
X158424272Y-123243202D01*
X158365934Y-123486193D01*
X158365933Y-123486199D01*
X158364779Y-123491006D01*
X158344396Y-123750000D01*
X158364779Y-124008994D01*
X158365933Y-124013801D01*
X158365934Y-124013807D01*
X158375598Y-124054060D01*
X158425427Y-124261610D01*
X158427320Y-124266181D01*
X158427321Y-124266183D01*
X158518310Y-124485848D01*
X158524846Y-124501628D01*
X158660588Y-124723140D01*
X158699693Y-124768926D01*
X158814974Y-124903902D01*
X158829311Y-124920689D01*
X158833067Y-124923897D01*
X158833072Y-124923902D01*
X158833408Y-124924189D01*
X158833500Y-124924330D01*
X158836575Y-124927405D01*
X158835929Y-124928051D01*
X158872217Y-124983639D01*
X158872725Y-125054634D01*
X158835905Y-125111925D01*
X158836575Y-125112595D01*
X158833496Y-125115674D01*
X158833408Y-125115811D01*
X158833072Y-125116098D01*
X158833067Y-125116103D01*
X158829311Y-125119311D01*
X158660588Y-125316860D01*
X158524846Y-125538372D01*
X158522953Y-125542942D01*
X158522951Y-125542946D01*
X158447671Y-125724688D01*
X158425427Y-125778390D01*
X158404220Y-125866724D01*
X158365934Y-126026193D01*
X158365933Y-126026199D01*
X158364779Y-126031006D01*
X158344396Y-126290000D01*
X145654030Y-126290000D01*
X145655604Y-126270000D01*
X145635221Y-126011006D01*
X145634067Y-126006199D01*
X145634066Y-126006193D01*
X145580530Y-125783202D01*
X145574573Y-125758390D01*
X145572679Y-125753817D01*
X145477049Y-125522946D01*
X145477047Y-125522942D01*
X145475154Y-125518372D01*
X145339412Y-125296860D01*
X145187771Y-125119311D01*
X145173897Y-125103067D01*
X145170689Y-125099311D01*
X145166933Y-125096103D01*
X145166928Y-125096098D01*
X145166592Y-125095811D01*
X145166500Y-125095670D01*
X145163425Y-125092595D01*
X145164071Y-125091949D01*
X145127783Y-125036361D01*
X145127275Y-124965366D01*
X145164095Y-124908075D01*
X145163425Y-124907405D01*
X145166504Y-124904326D01*
X145166592Y-124904189D01*
X145166928Y-124903902D01*
X145166933Y-124903897D01*
X145170689Y-124900689D01*
X145339412Y-124703140D01*
X145475154Y-124481628D01*
X145493716Y-124436817D01*
X145572679Y-124246183D01*
X145572680Y-124246181D01*
X145574573Y-124241610D01*
X145617260Y-124063807D01*
X145634066Y-123993807D01*
X145634067Y-123993801D01*
X145635221Y-123988994D01*
X145655604Y-123730000D01*
X145635221Y-123471006D01*
X145634067Y-123466199D01*
X145634066Y-123466193D01*
X145588891Y-123278028D01*
X145574573Y-123218390D01*
X145559649Y-123182361D01*
X145477049Y-122982946D01*
X145477047Y-122982942D01*
X145475154Y-122978372D01*
X145339412Y-122756860D01*
X145170689Y-122559311D01*
X144973140Y-122390588D01*
X144751628Y-122254846D01*
X144747058Y-122252953D01*
X144747054Y-122252951D01*
X144516183Y-122157321D01*
X144516181Y-122157320D01*
X144511610Y-122155427D01*
X144423276Y-122134220D01*
X144263807Y-122095934D01*
X144263801Y-122095933D01*
X144258994Y-122094779D01*
X144000000Y-122074396D01*
X143741006Y-122094779D01*
X143736199Y-122095933D01*
X143736193Y-122095934D01*
X143576724Y-122134220D01*
X143488390Y-122155427D01*
X143483819Y-122157320D01*
X143483817Y-122157321D01*
X143252946Y-122252951D01*
X143252942Y-122252953D01*
X143248372Y-122254846D01*
X143026860Y-122390588D01*
X142829311Y-122559311D01*
X142660588Y-122756860D01*
X142524846Y-122978372D01*
X142522953Y-122982942D01*
X142522951Y-122982946D01*
X142440351Y-123182361D01*
X142425427Y-123218390D01*
X142411109Y-123278028D01*
X142365934Y-123466193D01*
X142365933Y-123466199D01*
X142364779Y-123471006D01*
X142344396Y-123730000D01*
X142364779Y-123988994D01*
X142365933Y-123993801D01*
X142365934Y-123993807D01*
X142382740Y-124063807D01*
X142425427Y-124241610D01*
X142427320Y-124246181D01*
X142427321Y-124246183D01*
X142506285Y-124436817D01*
X142524846Y-124481628D01*
X142660588Y-124703140D01*
X142829311Y-124900689D01*
X142833067Y-124903897D01*
X142833072Y-124903902D01*
X142833408Y-124904189D01*
X142833500Y-124904330D01*
X142836575Y-124907405D01*
X142835929Y-124908051D01*
X142872217Y-124963639D01*
X142872725Y-125034634D01*
X142835905Y-125091925D01*
X142836575Y-125092595D01*
X142833496Y-125095674D01*
X142833408Y-125095811D01*
X142833072Y-125096098D01*
X142833067Y-125096103D01*
X142829311Y-125099311D01*
X142826103Y-125103067D01*
X142812229Y-125119311D01*
X142660588Y-125296860D01*
X142524846Y-125518372D01*
X142522953Y-125522942D01*
X142522951Y-125522946D01*
X142427321Y-125753817D01*
X142425427Y-125758390D01*
X142419470Y-125783202D01*
X142365934Y-126006193D01*
X142365933Y-126006199D01*
X142364779Y-126011006D01*
X142344396Y-126270000D01*
X137650095Y-126270000D01*
X137635221Y-126081006D01*
X137634067Y-126076199D01*
X137634066Y-126076193D01*
X137590154Y-125893289D01*
X137574573Y-125828390D01*
X137572679Y-125823817D01*
X137477049Y-125592946D01*
X137477047Y-125592942D01*
X137475154Y-125588372D01*
X137339412Y-125366860D01*
X137170689Y-125169311D01*
X137166933Y-125166103D01*
X137166928Y-125166098D01*
X137166592Y-125165811D01*
X137166500Y-125165670D01*
X137163425Y-125162595D01*
X137164071Y-125161949D01*
X137127783Y-125106361D01*
X137127275Y-125035366D01*
X137164095Y-124978075D01*
X137163425Y-124977405D01*
X137166504Y-124974326D01*
X137166592Y-124974189D01*
X137166928Y-124973902D01*
X137166933Y-124973897D01*
X137170689Y-124970689D01*
X137339412Y-124773140D01*
X137475154Y-124551628D01*
X137497760Y-124497054D01*
X137572679Y-124316183D01*
X137572680Y-124316181D01*
X137574573Y-124311610D01*
X137605670Y-124182083D01*
X137634066Y-124063807D01*
X137634067Y-124063801D01*
X137635221Y-124058994D01*
X137655604Y-123800000D01*
X137635221Y-123541006D01*
X137634067Y-123536199D01*
X137634066Y-123536193D01*
X137595780Y-123376724D01*
X137574573Y-123288390D01*
X137570281Y-123278028D01*
X137477049Y-123052946D01*
X137477047Y-123052942D01*
X137475154Y-123048372D01*
X137339412Y-122826860D01*
X137170689Y-122629311D01*
X136973140Y-122460588D01*
X136751628Y-122324846D01*
X136747058Y-122322953D01*
X136747054Y-122322951D01*
X136516183Y-122227321D01*
X136516181Y-122227320D01*
X136511610Y-122225427D01*
X136423276Y-122204220D01*
X136263807Y-122165934D01*
X136263801Y-122165933D01*
X136258994Y-122164779D01*
X136000000Y-122144396D01*
X135741006Y-122164779D01*
X135736199Y-122165933D01*
X135736193Y-122165934D01*
X135576724Y-122204220D01*
X135488390Y-122225427D01*
X135483819Y-122227320D01*
X135483817Y-122227321D01*
X135252946Y-122322951D01*
X135252942Y-122322953D01*
X135248372Y-122324846D01*
X135026860Y-122460588D01*
X134829311Y-122629311D01*
X134660588Y-122826860D01*
X134524846Y-123048372D01*
X134522953Y-123052942D01*
X134522951Y-123052946D01*
X134429719Y-123278028D01*
X134425427Y-123288390D01*
X134404220Y-123376724D01*
X134365934Y-123536193D01*
X134365933Y-123536199D01*
X134364779Y-123541006D01*
X134344396Y-123800000D01*
X134364779Y-124058994D01*
X134365933Y-124063801D01*
X134365934Y-124063807D01*
X134394330Y-124182083D01*
X134425427Y-124311610D01*
X134427320Y-124316181D01*
X134427321Y-124316183D01*
X134502241Y-124497054D01*
X134524846Y-124551628D01*
X134660588Y-124773140D01*
X134829311Y-124970689D01*
X134833067Y-124973897D01*
X134833072Y-124973902D01*
X134833408Y-124974189D01*
X134833500Y-124974330D01*
X134836575Y-124977405D01*
X134835929Y-124978051D01*
X134872217Y-125033639D01*
X134872725Y-125104634D01*
X134835905Y-125161925D01*
X134836575Y-125162595D01*
X134833496Y-125165674D01*
X134833408Y-125165811D01*
X134833072Y-125166098D01*
X134833067Y-125166103D01*
X134829311Y-125169311D01*
X134660588Y-125366860D01*
X134524846Y-125588372D01*
X134522953Y-125592942D01*
X134522951Y-125592946D01*
X134427321Y-125823817D01*
X134425427Y-125828390D01*
X134409846Y-125893289D01*
X134365934Y-126076193D01*
X134365933Y-126076199D01*
X134364779Y-126081006D01*
X134344396Y-126340000D01*
X100768008Y-126340000D01*
X100764423Y-126337249D01*
X100390524Y-126099049D01*
X99997286Y-125894342D01*
X99587704Y-125724688D01*
X99585084Y-125723862D01*
X99585076Y-125723859D01*
X99167525Y-125592205D01*
X99167520Y-125592204D01*
X99164895Y-125591376D01*
X98732075Y-125495423D01*
X98729356Y-125495065D01*
X98729350Y-125495064D01*
X98564619Y-125473377D01*
X98292539Y-125437557D01*
X98289790Y-125437437D01*
X98289779Y-125437436D01*
X97852381Y-125418339D01*
X97849633Y-125418219D01*
X97846885Y-125418339D01*
X97409487Y-125437436D01*
X97409476Y-125437437D01*
X97406727Y-125437557D01*
X97134647Y-125473377D01*
X96969916Y-125495064D01*
X96969910Y-125495065D01*
X96967191Y-125495423D01*
X96534371Y-125591376D01*
X96531746Y-125592204D01*
X96531741Y-125592205D01*
X96114190Y-125723859D01*
X96114182Y-125723862D01*
X96111562Y-125724688D01*
X95701980Y-125894342D01*
X95699540Y-125895612D01*
X95699534Y-125895615D01*
X95532552Y-125982541D01*
X95308743Y-126099049D01*
X95306430Y-126100523D01*
X95306424Y-126100526D01*
X95235332Y-126145817D01*
X95167133Y-126165548D01*
X95099092Y-126145276D01*
X95052812Y-126091436D01*
X95041633Y-126039533D01*
X95041633Y-126039138D01*
X95042162Y-121750000D01*
X112144551Y-121750000D01*
X112164317Y-122001148D01*
X112165471Y-122005955D01*
X112165472Y-122005961D01*
X112197254Y-122138343D01*
X112223127Y-122246111D01*
X112225020Y-122250682D01*
X112225021Y-122250684D01*
X112281902Y-122388006D01*
X112319534Y-122478859D01*
X112451164Y-122693659D01*
X112454376Y-122697419D01*
X112454379Y-122697424D01*
X112599256Y-122867052D01*
X112614776Y-122885224D01*
X112618538Y-122888437D01*
X112802576Y-123045621D01*
X112802581Y-123045624D01*
X112806341Y-123048836D01*
X113021141Y-123180466D01*
X113025711Y-123182359D01*
X113025715Y-123182361D01*
X113249316Y-123274979D01*
X113253889Y-123276873D01*
X113321905Y-123293202D01*
X113494039Y-123334528D01*
X113494045Y-123334529D01*
X113498852Y-123335683D01*
X113750000Y-123355449D01*
X114001148Y-123335683D01*
X114005955Y-123334529D01*
X114005961Y-123334528D01*
X114178095Y-123293202D01*
X114246111Y-123276873D01*
X114250684Y-123274979D01*
X114474285Y-123182361D01*
X114474289Y-123182359D01*
X114478859Y-123180466D01*
X114693659Y-123048836D01*
X114697419Y-123045624D01*
X114697424Y-123045621D01*
X114881462Y-122888437D01*
X114885224Y-122885224D01*
X114900744Y-122867052D01*
X115045621Y-122697424D01*
X115045624Y-122697419D01*
X115048836Y-122693659D01*
X115180466Y-122478859D01*
X115218099Y-122388006D01*
X115274979Y-122250684D01*
X115274980Y-122250682D01*
X115276873Y-122246111D01*
X115302746Y-122138343D01*
X115334528Y-122005961D01*
X115334529Y-122005955D01*
X115335683Y-122001148D01*
X115355449Y-121750000D01*
X120144551Y-121750000D01*
X120164317Y-122001148D01*
X120165471Y-122005955D01*
X120165472Y-122005961D01*
X120197254Y-122138343D01*
X120223127Y-122246111D01*
X120225020Y-122250682D01*
X120225021Y-122250684D01*
X120281902Y-122388006D01*
X120319534Y-122478859D01*
X120451164Y-122693659D01*
X120454376Y-122697419D01*
X120454379Y-122697424D01*
X120599256Y-122867052D01*
X120614776Y-122885224D01*
X120618538Y-122888437D01*
X120802576Y-123045621D01*
X120802581Y-123045624D01*
X120806341Y-123048836D01*
X121021141Y-123180466D01*
X121025711Y-123182359D01*
X121025715Y-123182361D01*
X121249316Y-123274979D01*
X121253889Y-123276873D01*
X121321905Y-123293202D01*
X121494039Y-123334528D01*
X121494045Y-123334529D01*
X121498852Y-123335683D01*
X121750000Y-123355449D01*
X122001148Y-123335683D01*
X122005955Y-123334529D01*
X122005961Y-123334528D01*
X122178095Y-123293202D01*
X122246111Y-123276873D01*
X122250684Y-123274979D01*
X122474285Y-123182361D01*
X122474289Y-123182359D01*
X122478859Y-123180466D01*
X122693659Y-123048836D01*
X122697419Y-123045624D01*
X122697424Y-123045621D01*
X122881462Y-122888437D01*
X122885224Y-122885224D01*
X122900744Y-122867052D01*
X123045621Y-122697424D01*
X123045624Y-122697419D01*
X123048836Y-122693659D01*
X123180466Y-122478859D01*
X123218099Y-122388006D01*
X123274979Y-122250684D01*
X123274980Y-122250682D01*
X123276873Y-122246111D01*
X123302746Y-122138343D01*
X123334528Y-122005961D01*
X123334529Y-122005955D01*
X123335683Y-122001148D01*
X123355449Y-121750000D01*
X128144551Y-121750000D01*
X128164317Y-122001148D01*
X128165471Y-122005955D01*
X128165472Y-122005961D01*
X128197254Y-122138343D01*
X128223127Y-122246111D01*
X128225020Y-122250682D01*
X128225021Y-122250684D01*
X128281902Y-122388006D01*
X128319534Y-122478859D01*
X128451164Y-122693659D01*
X128454376Y-122697419D01*
X128454379Y-122697424D01*
X128599256Y-122867052D01*
X128614776Y-122885224D01*
X128618538Y-122888437D01*
X128802576Y-123045621D01*
X128802581Y-123045624D01*
X128806341Y-123048836D01*
X129021141Y-123180466D01*
X129025711Y-123182359D01*
X129025715Y-123182361D01*
X129249316Y-123274979D01*
X129253889Y-123276873D01*
X129321905Y-123293202D01*
X129494039Y-123334528D01*
X129494045Y-123334529D01*
X129498852Y-123335683D01*
X129750000Y-123355449D01*
X130001148Y-123335683D01*
X130005955Y-123334529D01*
X130005961Y-123334528D01*
X130178095Y-123293202D01*
X130246111Y-123276873D01*
X130250684Y-123274979D01*
X130474285Y-123182361D01*
X130474289Y-123182359D01*
X130478859Y-123180466D01*
X130693659Y-123048836D01*
X130697419Y-123045624D01*
X130697424Y-123045621D01*
X130881462Y-122888437D01*
X130885224Y-122885224D01*
X130900744Y-122867052D01*
X131045621Y-122697424D01*
X131045624Y-122697419D01*
X131048836Y-122693659D01*
X131180466Y-122478859D01*
X131218099Y-122388006D01*
X131274979Y-122250684D01*
X131274980Y-122250682D01*
X131276873Y-122246111D01*
X131302746Y-122138343D01*
X131334528Y-122005961D01*
X131334529Y-122005955D01*
X131335683Y-122001148D01*
X131355449Y-121750000D01*
X131335683Y-121498852D01*
X131276873Y-121253889D01*
X131180466Y-121021141D01*
X131048836Y-120806341D01*
X131045624Y-120802581D01*
X131045621Y-120802576D01*
X130888437Y-120618538D01*
X130885224Y-120614776D01*
X130867052Y-120599256D01*
X130697424Y-120454379D01*
X130697419Y-120454376D01*
X130693659Y-120451164D01*
X130478859Y-120319534D01*
X130474289Y-120317641D01*
X130474285Y-120317639D01*
X130250684Y-120225021D01*
X130250682Y-120225020D01*
X130246111Y-120223127D01*
X130161711Y-120202865D01*
X130005961Y-120165472D01*
X130005955Y-120165471D01*
X130001148Y-120164317D01*
X129750000Y-120144551D01*
X129498852Y-120164317D01*
X129494045Y-120165471D01*
X129494039Y-120165472D01*
X129338289Y-120202865D01*
X129253889Y-120223127D01*
X129249318Y-120225020D01*
X129249316Y-120225021D01*
X129025715Y-120317639D01*
X129025711Y-120317641D01*
X129021141Y-120319534D01*
X128806341Y-120451164D01*
X128802581Y-120454376D01*
X128802576Y-120454379D01*
X128632948Y-120599256D01*
X128614776Y-120614776D01*
X128611563Y-120618538D01*
X128454379Y-120802576D01*
X128454376Y-120802581D01*
X128451164Y-120806341D01*
X128319534Y-121021141D01*
X128223127Y-121253889D01*
X128164317Y-121498852D01*
X128144551Y-121750000D01*
X123355449Y-121750000D01*
X123335683Y-121498852D01*
X123276873Y-121253889D01*
X123180466Y-121021141D01*
X123048836Y-120806341D01*
X123045624Y-120802581D01*
X123045621Y-120802576D01*
X122888437Y-120618538D01*
X122885224Y-120614776D01*
X122867052Y-120599256D01*
X122697424Y-120454379D01*
X122697419Y-120454376D01*
X122693659Y-120451164D01*
X122478859Y-120319534D01*
X122474289Y-120317641D01*
X122474285Y-120317639D01*
X122250684Y-120225021D01*
X122250682Y-120225020D01*
X122246111Y-120223127D01*
X122161711Y-120202865D01*
X122005961Y-120165472D01*
X122005955Y-120165471D01*
X122001148Y-120164317D01*
X121750000Y-120144551D01*
X121498852Y-120164317D01*
X121494045Y-120165471D01*
X121494039Y-120165472D01*
X121338289Y-120202865D01*
X121253889Y-120223127D01*
X121249318Y-120225020D01*
X121249316Y-120225021D01*
X121025715Y-120317639D01*
X121025711Y-120317641D01*
X121021141Y-120319534D01*
X120806341Y-120451164D01*
X120802581Y-120454376D01*
X120802576Y-120454379D01*
X120632948Y-120599256D01*
X120614776Y-120614776D01*
X120611563Y-120618538D01*
X120454379Y-120802576D01*
X120454376Y-120802581D01*
X120451164Y-120806341D01*
X120319534Y-121021141D01*
X120223127Y-121253889D01*
X120164317Y-121498852D01*
X120144551Y-121750000D01*
X115355449Y-121750000D01*
X115335683Y-121498852D01*
X115276873Y-121253889D01*
X115180466Y-121021141D01*
X115048836Y-120806341D01*
X115045624Y-120802581D01*
X115045621Y-120802576D01*
X114888437Y-120618538D01*
X114885224Y-120614776D01*
X114867052Y-120599256D01*
X114697424Y-120454379D01*
X114697419Y-120454376D01*
X114693659Y-120451164D01*
X114478859Y-120319534D01*
X114474289Y-120317641D01*
X114474285Y-120317639D01*
X114250684Y-120225021D01*
X114250682Y-120225020D01*
X114246111Y-120223127D01*
X114161711Y-120202865D01*
X114005961Y-120165472D01*
X114005955Y-120165471D01*
X114001148Y-120164317D01*
X113750000Y-120144551D01*
X113498852Y-120164317D01*
X113494045Y-120165471D01*
X113494039Y-120165472D01*
X113338289Y-120202865D01*
X113253889Y-120223127D01*
X113249318Y-120225020D01*
X113249316Y-120225021D01*
X113025715Y-120317639D01*
X113025711Y-120317641D01*
X113021141Y-120319534D01*
X112806341Y-120451164D01*
X112802581Y-120454376D01*
X112802576Y-120454379D01*
X112632948Y-120599256D01*
X112614776Y-120614776D01*
X112611563Y-120618538D01*
X112454379Y-120802576D01*
X112454376Y-120802581D01*
X112451164Y-120806341D01*
X112319534Y-121021141D01*
X112223127Y-121253889D01*
X112164317Y-121498852D01*
X112144551Y-121750000D01*
X95042162Y-121750000D01*
X95042779Y-116750000D01*
X150974551Y-116750000D01*
X150994317Y-117001148D01*
X150995471Y-117005955D01*
X150995472Y-117005961D01*
X151012113Y-117075275D01*
X151053127Y-117246111D01*
X151055020Y-117250682D01*
X151055021Y-117250684D01*
X151079982Y-117310944D01*
X151149534Y-117478859D01*
X151281164Y-117693659D01*
X151284376Y-117697419D01*
X151284379Y-117697424D01*
X151417447Y-117853226D01*
X151444776Y-117885224D01*
X151448538Y-117888437D01*
X151632576Y-118045621D01*
X151632581Y-118045624D01*
X151636341Y-118048836D01*
X151851141Y-118180466D01*
X151855711Y-118182359D01*
X151855715Y-118182361D01*
X152079316Y-118274979D01*
X152083889Y-118276873D01*
X152168289Y-118297135D01*
X152324039Y-118334528D01*
X152324045Y-118334529D01*
X152328852Y-118335683D01*
X152580000Y-118355449D01*
X152831148Y-118335683D01*
X152835955Y-118334529D01*
X152835961Y-118334528D01*
X152991711Y-118297135D01*
X153076111Y-118276873D01*
X153080684Y-118274979D01*
X153304285Y-118182361D01*
X153304289Y-118182359D01*
X153308859Y-118180466D01*
X153523659Y-118048836D01*
X153527419Y-118045624D01*
X153527424Y-118045621D01*
X153711462Y-117888437D01*
X153715224Y-117885224D01*
X153742553Y-117853226D01*
X153875621Y-117697424D01*
X153875624Y-117697419D01*
X153878836Y-117693659D01*
X154010466Y-117478859D01*
X154080019Y-117310944D01*
X154104979Y-117250684D01*
X154104980Y-117250682D01*
X154106873Y-117246111D01*
X154147887Y-117075275D01*
X154164528Y-117005961D01*
X154164529Y-117005955D01*
X154165683Y-117001148D01*
X154185449Y-116750000D01*
X154165683Y-116498852D01*
X154106873Y-116253889D01*
X154010466Y-116021141D01*
X153984000Y-115977953D01*
X177894707Y-115977953D01*
X177911194Y-116263878D01*
X177912019Y-116268083D01*
X177912020Y-116268091D01*
X177943853Y-116430342D01*
X177966332Y-116544920D01*
X177967719Y-116548970D01*
X177967720Y-116548975D01*
X178057713Y-116811822D01*
X178059102Y-116815878D01*
X178187787Y-117071740D01*
X178190213Y-117075269D01*
X178190216Y-117075275D01*
X178228920Y-117131589D01*
X178350006Y-117307770D01*
X178352893Y-117310943D01*
X178352894Y-117310944D01*
X178539876Y-117516435D01*
X178542756Y-117519600D01*
X178762472Y-117703311D01*
X179005088Y-117855503D01*
X179008990Y-117857265D01*
X179008994Y-117857267D01*
X179262202Y-117971595D01*
X179262206Y-117971597D01*
X179266114Y-117973361D01*
X179270233Y-117974581D01*
X179536606Y-118053485D01*
X179536611Y-118053486D01*
X179540719Y-118054703D01*
X179544953Y-118055351D01*
X179544958Y-118055352D01*
X179792214Y-118093187D01*
X179823824Y-118098024D01*
X179969589Y-118100314D01*
X180105898Y-118102456D01*
X180105904Y-118102456D01*
X180110189Y-118102523D01*
X180114441Y-118102008D01*
X180114449Y-118102008D01*
X180334221Y-118075411D01*
X180394514Y-118068115D01*
X180398662Y-118067027D01*
X180398666Y-118067026D01*
X180667388Y-117996528D01*
X180671539Y-117995439D01*
X180675500Y-117993799D01*
X180675504Y-117993797D01*
X180818370Y-117934620D01*
X180936138Y-117885839D01*
X180943629Y-117881462D01*
X181179717Y-117743503D01*
X181179718Y-117743503D01*
X181183415Y-117741342D01*
X181249606Y-117689442D01*
X181405421Y-117567267D01*
X181408793Y-117564623D01*
X181455491Y-117516435D01*
X181605119Y-117362030D01*
X181608102Y-117358952D01*
X181610635Y-117355504D01*
X181610639Y-117355499D01*
X181775117Y-117131589D01*
X181777655Y-117128134D01*
X181806355Y-117075275D01*
X181912263Y-116880217D01*
X181912264Y-116880215D01*
X181914313Y-116876441D01*
X182015548Y-116608530D01*
X182079487Y-116329358D01*
X182104946Y-116044092D01*
X182105187Y-116021141D01*
X182105382Y-116002484D01*
X182105382Y-116002483D01*
X182105408Y-116000000D01*
X182092493Y-115810558D01*
X182086220Y-115718540D01*
X182086219Y-115718534D01*
X182085928Y-115714263D01*
X182027850Y-115433814D01*
X181932248Y-115163842D01*
X181800891Y-114909342D01*
X181798428Y-114905837D01*
X181638673Y-114678529D01*
X181638668Y-114678523D01*
X181636209Y-114675024D01*
X181441251Y-114465224D01*
X181437935Y-114462510D01*
X181437932Y-114462507D01*
X181222941Y-114286539D01*
X181219623Y-114283823D01*
X180975427Y-114134180D01*
X180957419Y-114126275D01*
X180717110Y-114020786D01*
X180717106Y-114020785D01*
X180713182Y-114019062D01*
X180437739Y-113940600D01*
X180227881Y-113910733D01*
X180158448Y-113900851D01*
X180158446Y-113900851D01*
X180154196Y-113900246D01*
X180002333Y-113899451D01*
X179872086Y-113898769D01*
X179872080Y-113898769D01*
X179867800Y-113898747D01*
X179863556Y-113899306D01*
X179863552Y-113899306D01*
X179739031Y-113915699D01*
X179583851Y-113936129D01*
X179579711Y-113937262D01*
X179579709Y-113937262D01*
X179563209Y-113941776D01*
X179307602Y-114011702D01*
X179293102Y-114017887D01*
X179048117Y-114122382D01*
X179048113Y-114122384D01*
X179044165Y-114124068D01*
X178798415Y-114271146D01*
X178574900Y-114450215D01*
X178377755Y-114657962D01*
X178210629Y-114890543D01*
X178076614Y-115143653D01*
X178067747Y-115167883D01*
X178011305Y-115322120D01*
X177978190Y-115412610D01*
X177917178Y-115692436D01*
X177894707Y-115977953D01*
X153984000Y-115977953D01*
X153878836Y-115806341D01*
X153875624Y-115802581D01*
X153875621Y-115802576D01*
X153718437Y-115618538D01*
X153715224Y-115614776D01*
X153697052Y-115599256D01*
X153527424Y-115454379D01*
X153527419Y-115454376D01*
X153523659Y-115451164D01*
X153308859Y-115319534D01*
X153304289Y-115317641D01*
X153304285Y-115317639D01*
X153080684Y-115225021D01*
X153080682Y-115225020D01*
X153076111Y-115223127D01*
X152991711Y-115202865D01*
X152835961Y-115165472D01*
X152835955Y-115165471D01*
X152831148Y-115164317D01*
X152580000Y-115144551D01*
X152328852Y-115164317D01*
X152324045Y-115165471D01*
X152324039Y-115165472D01*
X152168289Y-115202865D01*
X152083889Y-115223127D01*
X152079318Y-115225020D01*
X152079316Y-115225021D01*
X151855715Y-115317639D01*
X151855711Y-115317641D01*
X151851141Y-115319534D01*
X151636341Y-115451164D01*
X151632581Y-115454376D01*
X151632576Y-115454379D01*
X151462948Y-115599256D01*
X151444776Y-115614776D01*
X151441563Y-115618538D01*
X151284379Y-115802576D01*
X151284376Y-115802581D01*
X151281164Y-115806341D01*
X151149534Y-116021141D01*
X151053127Y-116253889D01*
X150994317Y-116498852D01*
X150974551Y-116750000D01*
X95042779Y-116750000D01*
X95043180Y-113500000D01*
X117539396Y-113500000D01*
X117559779Y-113758994D01*
X117560933Y-113763801D01*
X117560934Y-113763807D01*
X117581885Y-113851071D01*
X117620427Y-114011610D01*
X117622320Y-114016181D01*
X117622321Y-114016183D01*
X117670482Y-114132452D01*
X117719846Y-114251628D01*
X117855588Y-114473140D01*
X118024311Y-114670689D01*
X118221860Y-114839412D01*
X118443372Y-114975154D01*
X118447942Y-114977047D01*
X118447946Y-114977049D01*
X118587203Y-115034731D01*
X118683390Y-115074573D01*
X118771724Y-115095780D01*
X118931193Y-115134066D01*
X118931199Y-115134067D01*
X118936006Y-115135221D01*
X119195000Y-115155604D01*
X119453994Y-115135221D01*
X119458801Y-115134067D01*
X119458807Y-115134066D01*
X119618276Y-115095780D01*
X119706610Y-115074573D01*
X119802797Y-115034731D01*
X119942054Y-114977049D01*
X119942058Y-114977047D01*
X119946628Y-114975154D01*
X120168140Y-114839412D01*
X120365689Y-114670689D01*
X120368897Y-114666933D01*
X120368902Y-114666928D01*
X120369189Y-114666592D01*
X120369330Y-114666500D01*
X120372405Y-114663425D01*
X120373051Y-114664071D01*
X120428639Y-114627783D01*
X120499634Y-114627275D01*
X120556925Y-114664095D01*
X120557595Y-114663425D01*
X120560674Y-114666504D01*
X120560811Y-114666592D01*
X120561098Y-114666928D01*
X120561103Y-114666933D01*
X120564311Y-114670689D01*
X120761860Y-114839412D01*
X120983372Y-114975154D01*
X120987942Y-114977047D01*
X120987946Y-114977049D01*
X121127203Y-115034731D01*
X121223390Y-115074573D01*
X121311724Y-115095780D01*
X121471193Y-115134066D01*
X121471199Y-115134067D01*
X121476006Y-115135221D01*
X121735000Y-115155604D01*
X121993994Y-115135221D01*
X121998801Y-115134067D01*
X121998807Y-115134066D01*
X122158276Y-115095780D01*
X122246610Y-115074573D01*
X122342797Y-115034731D01*
X122482054Y-114977049D01*
X122482058Y-114977047D01*
X122486628Y-114975154D01*
X122669135Y-114863314D01*
X122737669Y-114844776D01*
X122805346Y-114866233D01*
X122833439Y-114892135D01*
X122855380Y-114919620D01*
X122995734Y-115031664D01*
X123157423Y-115109827D01*
X123164284Y-115111411D01*
X123327212Y-115149026D01*
X123327215Y-115149026D01*
X123332411Y-115150226D01*
X123337163Y-115150500D01*
X123338987Y-115150500D01*
X124283037Y-115150499D01*
X125212836Y-115150499D01*
X125217589Y-115150226D01*
X125392577Y-115109827D01*
X125554266Y-115031664D01*
X125694620Y-114919620D01*
X125806664Y-114779266D01*
X125884827Y-114617577D01*
X125919275Y-114468367D01*
X125924026Y-114447788D01*
X125924026Y-114447785D01*
X125925226Y-114442589D01*
X125925500Y-114437837D01*
X125925500Y-113500000D01*
X125925499Y-112563957D01*
X125925499Y-112562164D01*
X125925226Y-112557411D01*
X125884827Y-112382423D01*
X125828063Y-112265000D01*
X142094551Y-112265000D01*
X142114317Y-112516148D01*
X142115471Y-112520955D01*
X142115472Y-112520961D01*
X142126589Y-112567267D01*
X142173127Y-112761111D01*
X142175020Y-112765682D01*
X142175021Y-112765684D01*
X142267269Y-112988390D01*
X142269534Y-112993859D01*
X142401164Y-113208659D01*
X142404376Y-113212419D01*
X142404379Y-113212424D01*
X142549256Y-113382052D01*
X142564776Y-113400224D01*
X142568538Y-113403437D01*
X142752576Y-113560621D01*
X142752581Y-113560624D01*
X142756341Y-113563836D01*
X142971141Y-113695466D01*
X142975711Y-113697359D01*
X142975715Y-113697361D01*
X143136131Y-113763807D01*
X143203889Y-113791873D01*
X143288289Y-113812135D01*
X143444039Y-113849528D01*
X143444045Y-113849529D01*
X143448852Y-113850683D01*
X143700000Y-113870449D01*
X143951148Y-113850683D01*
X143955955Y-113849529D01*
X143955961Y-113849528D01*
X144111711Y-113812135D01*
X144196111Y-113791873D01*
X144263869Y-113763807D01*
X144424285Y-113697361D01*
X144424289Y-113697359D01*
X144428859Y-113695466D01*
X144643659Y-113563836D01*
X144647419Y-113560624D01*
X144647424Y-113560621D01*
X144831462Y-113403437D01*
X144835224Y-113400224D01*
X144850744Y-113382052D01*
X144995621Y-113212424D01*
X144995624Y-113212419D01*
X144998836Y-113208659D01*
X145130466Y-112993859D01*
X145132732Y-112988390D01*
X145224979Y-112765684D01*
X145224980Y-112765682D01*
X145226873Y-112761111D01*
X145273411Y-112567267D01*
X145284528Y-112520961D01*
X145284529Y-112520955D01*
X145285683Y-112516148D01*
X145305449Y-112265000D01*
X145285683Y-112013852D01*
X145275812Y-111972733D01*
X145228028Y-111773701D01*
X145226873Y-111768889D01*
X145224979Y-111764316D01*
X145132361Y-111540715D01*
X145132359Y-111540711D01*
X145130466Y-111536141D01*
X144998836Y-111321341D01*
X144995620Y-111317576D01*
X144992714Y-111313576D01*
X144994040Y-111312613D01*
X144967951Y-111254362D01*
X144978568Y-111184164D01*
X145014187Y-111138872D01*
X145064117Y-111099013D01*
X145069620Y-111094620D01*
X145162755Y-110977953D01*
X145177267Y-110959774D01*
X145181664Y-110954266D01*
X145194420Y-110927880D01*
X145256761Y-110798919D01*
X145259827Y-110792577D01*
X145278876Y-110710066D01*
X145299026Y-110622788D01*
X145299026Y-110622785D01*
X145300226Y-110617589D01*
X145300500Y-110612837D01*
X145300500Y-109725000D01*
X145300499Y-108838957D01*
X145300499Y-108837164D01*
X145300226Y-108832411D01*
X145259827Y-108657423D01*
X145181664Y-108495734D01*
X145069620Y-108355380D01*
X144929266Y-108243336D01*
X144865998Y-108212751D01*
X144773919Y-108168239D01*
X144773920Y-108168239D01*
X144767577Y-108165173D01*
X144760716Y-108163589D01*
X144597788Y-108125974D01*
X144597785Y-108125974D01*
X144592589Y-108124774D01*
X144587837Y-108124500D01*
X144586013Y-108124500D01*
X143692391Y-108124501D01*
X142812164Y-108124501D01*
X142807411Y-108124774D01*
X142632423Y-108165173D01*
X142626080Y-108168239D01*
X142626081Y-108168239D01*
X142534003Y-108212751D01*
X142470734Y-108243336D01*
X142330380Y-108355380D01*
X142218336Y-108495734D01*
X142140173Y-108657423D01*
X142138589Y-108664284D01*
X142112434Y-108777576D01*
X142099774Y-108832411D01*
X142099500Y-108837163D01*
X142099500Y-108838987D01*
X142099501Y-109729930D01*
X142099501Y-110612836D01*
X142099774Y-110617589D01*
X142140173Y-110792577D01*
X142143239Y-110798919D01*
X142205581Y-110927880D01*
X142218336Y-110954266D01*
X142222733Y-110959774D01*
X142237245Y-110977953D01*
X142330380Y-111094620D01*
X142335883Y-111099013D01*
X142385813Y-111138872D01*
X142426572Y-111197003D01*
X142429432Y-111267942D01*
X142406282Y-111312847D01*
X142407286Y-111313576D01*
X142404380Y-111317576D01*
X142401164Y-111321341D01*
X142269534Y-111536141D01*
X142267641Y-111540711D01*
X142267639Y-111540715D01*
X142175021Y-111764316D01*
X142173127Y-111768889D01*
X142171972Y-111773701D01*
X142124189Y-111972733D01*
X142114317Y-112013852D01*
X142094551Y-112265000D01*
X125828063Y-112265000D01*
X125806664Y-112220734D01*
X125694620Y-112080380D01*
X125554266Y-111968336D01*
X125392577Y-111890173D01*
X125333097Y-111876441D01*
X125222788Y-111850974D01*
X125222785Y-111850974D01*
X125217589Y-111849774D01*
X125212837Y-111849500D01*
X125211013Y-111849500D01*
X124266963Y-111849501D01*
X123337164Y-111849501D01*
X123332411Y-111849774D01*
X123157423Y-111890173D01*
X122995734Y-111968336D01*
X122855380Y-112080380D01*
X122833441Y-112107863D01*
X122775309Y-112148621D01*
X122704370Y-112151481D01*
X122669135Y-112136686D01*
X122660818Y-112131589D01*
X122486628Y-112024846D01*
X122482058Y-112022953D01*
X122482054Y-112022951D01*
X122251183Y-111927321D01*
X122251181Y-111927320D01*
X122246610Y-111925427D01*
X122158276Y-111904220D01*
X121998807Y-111865934D01*
X121998801Y-111865933D01*
X121993994Y-111864779D01*
X121735000Y-111844396D01*
X121476006Y-111864779D01*
X121471199Y-111865933D01*
X121471193Y-111865934D01*
X121311724Y-111904220D01*
X121223390Y-111925427D01*
X121218819Y-111927320D01*
X121218817Y-111927321D01*
X120987946Y-112022951D01*
X120987942Y-112022953D01*
X120983372Y-112024846D01*
X120761860Y-112160588D01*
X120564311Y-112329311D01*
X120561103Y-112333067D01*
X120561098Y-112333072D01*
X120560811Y-112333408D01*
X120560670Y-112333500D01*
X120557595Y-112336575D01*
X120556949Y-112335929D01*
X120501361Y-112372217D01*
X120430366Y-112372725D01*
X120373075Y-112335905D01*
X120372405Y-112336575D01*
X120369326Y-112333496D01*
X120369189Y-112333408D01*
X120368902Y-112333072D01*
X120368897Y-112333067D01*
X120365689Y-112329311D01*
X120168140Y-112160588D01*
X119946628Y-112024846D01*
X119942058Y-112022953D01*
X119942054Y-112022951D01*
X119711183Y-111927321D01*
X119711181Y-111927320D01*
X119706610Y-111925427D01*
X119618276Y-111904220D01*
X119458807Y-111865934D01*
X119458801Y-111865933D01*
X119453994Y-111864779D01*
X119195000Y-111844396D01*
X118936006Y-111864779D01*
X118931199Y-111865933D01*
X118931193Y-111865934D01*
X118771724Y-111904220D01*
X118683390Y-111925427D01*
X118678819Y-111927320D01*
X118678817Y-111927321D01*
X118447946Y-112022951D01*
X118447942Y-112022953D01*
X118443372Y-112024846D01*
X118221860Y-112160588D01*
X118024311Y-112329311D01*
X117855588Y-112526860D01*
X117719846Y-112748372D01*
X117717953Y-112752942D01*
X117717951Y-112752946D01*
X117674740Y-112857267D01*
X117620427Y-112988390D01*
X117619272Y-112993202D01*
X117560934Y-113236193D01*
X117560933Y-113236199D01*
X117559779Y-113241006D01*
X117539396Y-113500000D01*
X95043180Y-113500000D01*
X95043674Y-109500000D01*
X131994551Y-109500000D01*
X132014317Y-109751148D01*
X132015471Y-109755955D01*
X132015472Y-109755961D01*
X132048696Y-109894347D01*
X132073127Y-109996111D01*
X132075020Y-110000682D01*
X132075021Y-110000684D01*
X132166325Y-110221111D01*
X132169534Y-110228859D01*
X132301164Y-110443659D01*
X132304376Y-110447419D01*
X132304379Y-110447424D01*
X132444098Y-110611013D01*
X132464776Y-110635224D01*
X132468538Y-110638437D01*
X132652576Y-110795621D01*
X132652581Y-110795624D01*
X132656341Y-110798836D01*
X132871141Y-110930466D01*
X132875711Y-110932359D01*
X132875715Y-110932361D01*
X133099316Y-111024979D01*
X133103889Y-111026873D01*
X133165307Y-111041618D01*
X133344039Y-111084528D01*
X133344045Y-111084529D01*
X133348852Y-111085683D01*
X133600000Y-111105449D01*
X133851148Y-111085683D01*
X133855955Y-111084529D01*
X133855961Y-111084528D01*
X134034693Y-111041618D01*
X134096111Y-111026873D01*
X134100684Y-111024979D01*
X134324285Y-110932361D01*
X134324289Y-110932359D01*
X134328859Y-110930466D01*
X134543659Y-110798836D01*
X134547419Y-110795624D01*
X134547424Y-110795621D01*
X134731462Y-110638437D01*
X134735224Y-110635224D01*
X134755902Y-110611013D01*
X134895621Y-110447424D01*
X134895624Y-110447419D01*
X134898836Y-110443659D01*
X135030466Y-110228859D01*
X135033676Y-110221111D01*
X135124979Y-110000684D01*
X135124980Y-110000682D01*
X135126873Y-109996111D01*
X135151304Y-109894347D01*
X135184528Y-109755961D01*
X135184529Y-109755955D01*
X135185683Y-109751148D01*
X135205449Y-109500000D01*
X135185683Y-109248852D01*
X135180891Y-109228889D01*
X135147135Y-109088289D01*
X135126873Y-109003889D01*
X135100408Y-108939996D01*
X135032361Y-108775715D01*
X135032359Y-108775711D01*
X135030466Y-108771141D01*
X134898836Y-108556341D01*
X134895624Y-108552581D01*
X134895621Y-108552576D01*
X134738437Y-108368538D01*
X134735224Y-108364776D01*
X134652981Y-108294534D01*
X134547424Y-108204379D01*
X134547419Y-108204376D01*
X134543659Y-108201164D01*
X134328859Y-108069534D01*
X134324289Y-108067641D01*
X134324285Y-108067639D01*
X134100684Y-107975021D01*
X134100682Y-107975020D01*
X134096111Y-107973127D01*
X134011711Y-107952865D01*
X133855961Y-107915472D01*
X133855955Y-107915471D01*
X133851148Y-107914317D01*
X133600000Y-107894551D01*
X133348852Y-107914317D01*
X133344045Y-107915471D01*
X133344039Y-107915472D01*
X133188289Y-107952865D01*
X133103889Y-107973127D01*
X133099318Y-107975020D01*
X133099316Y-107975021D01*
X132875715Y-108067639D01*
X132875711Y-108067641D01*
X132871141Y-108069534D01*
X132656341Y-108201164D01*
X132652581Y-108204376D01*
X132652576Y-108204379D01*
X132547019Y-108294534D01*
X132464776Y-108364776D01*
X132461563Y-108368538D01*
X132304379Y-108552576D01*
X132304376Y-108552581D01*
X132301164Y-108556341D01*
X132169534Y-108771141D01*
X132167641Y-108775711D01*
X132167639Y-108775715D01*
X132099592Y-108939996D01*
X132073127Y-109003889D01*
X132052865Y-109088289D01*
X132019110Y-109228889D01*
X132014317Y-109248852D01*
X131994551Y-109500000D01*
X95043674Y-109500000D01*
X95044137Y-105750000D01*
X99171551Y-105750000D01*
X99191317Y-106001148D01*
X99192471Y-106005955D01*
X99192472Y-106005961D01*
X99229865Y-106161711D01*
X99250127Y-106246111D01*
X99252020Y-106250682D01*
X99252021Y-106250684D01*
X99305793Y-106380500D01*
X99346534Y-106478859D01*
X99478164Y-106693659D01*
X99481376Y-106697419D01*
X99481379Y-106697424D01*
X99626256Y-106867052D01*
X99641776Y-106885224D01*
X99645538Y-106888437D01*
X99829576Y-107045621D01*
X99829581Y-107045624D01*
X99833341Y-107048836D01*
X100048141Y-107180466D01*
X100052711Y-107182359D01*
X100052715Y-107182361D01*
X100276316Y-107274979D01*
X100280889Y-107276873D01*
X100365289Y-107297135D01*
X100521039Y-107334528D01*
X100521045Y-107334529D01*
X100525852Y-107335683D01*
X100777000Y-107355449D01*
X101028148Y-107335683D01*
X101032955Y-107334529D01*
X101032961Y-107334528D01*
X101188711Y-107297135D01*
X101273111Y-107276873D01*
X101277684Y-107274979D01*
X101501285Y-107182361D01*
X101501289Y-107182359D01*
X101505859Y-107180466D01*
X101720659Y-107048836D01*
X101724419Y-107045624D01*
X101724424Y-107045621D01*
X101908462Y-106888437D01*
X101912224Y-106885224D01*
X101927744Y-106867052D01*
X102072621Y-106697424D01*
X102072624Y-106697419D01*
X102075836Y-106693659D01*
X102207466Y-106478859D01*
X102248208Y-106380500D01*
X102301979Y-106250684D01*
X102301980Y-106250682D01*
X102303873Y-106246111D01*
X102324135Y-106161711D01*
X102361528Y-106005961D01*
X102361529Y-106005955D01*
X102362683Y-106001148D01*
X102382449Y-105750000D01*
X102362683Y-105498852D01*
X102303873Y-105253889D01*
X102211611Y-105031148D01*
X102209361Y-105025715D01*
X102209359Y-105025711D01*
X102207466Y-105021141D01*
X102075836Y-104806341D01*
X102072624Y-104802581D01*
X102072621Y-104802576D01*
X102053339Y-104780000D01*
X131614551Y-104780000D01*
X131634317Y-105031148D01*
X131693127Y-105276111D01*
X131695020Y-105280682D01*
X131695021Y-105280684D01*
X131787433Y-105503786D01*
X131789534Y-105508859D01*
X131921164Y-105723659D01*
X131924376Y-105727419D01*
X131924379Y-105727424D01*
X132069256Y-105897052D01*
X132084776Y-105915224D01*
X132088538Y-105918437D01*
X132272576Y-106075621D01*
X132272581Y-106075624D01*
X132276341Y-106078836D01*
X132491141Y-106210466D01*
X132495711Y-106212359D01*
X132495715Y-106212361D01*
X132719316Y-106304979D01*
X132723889Y-106306873D01*
X132808289Y-106327135D01*
X132964039Y-106364528D01*
X132964045Y-106364529D01*
X132968852Y-106365683D01*
X133057149Y-106372632D01*
X133154661Y-106380307D01*
X133154670Y-106380307D01*
X133157118Y-106380500D01*
X134082882Y-106380500D01*
X134085330Y-106380307D01*
X134085339Y-106380307D01*
X134182851Y-106372632D01*
X134271148Y-106365683D01*
X134275955Y-106364529D01*
X134275961Y-106364528D01*
X134431711Y-106327135D01*
X134516111Y-106306873D01*
X134520684Y-106304979D01*
X134744285Y-106212361D01*
X134744289Y-106212359D01*
X134748859Y-106210466D01*
X134963659Y-106078836D01*
X134967419Y-106075624D01*
X134967424Y-106075621D01*
X135151462Y-105918437D01*
X135155224Y-105915224D01*
X135170744Y-105897052D01*
X135315621Y-105727424D01*
X135315624Y-105727419D01*
X135318836Y-105723659D01*
X135450466Y-105508859D01*
X135452568Y-105503786D01*
X135544979Y-105280684D01*
X135544980Y-105280682D01*
X135546873Y-105276111D01*
X135605683Y-105031148D01*
X135625449Y-104780000D01*
X135605683Y-104528852D01*
X135546873Y-104283889D01*
X135544979Y-104279316D01*
X135452361Y-104055715D01*
X135452359Y-104055711D01*
X135450466Y-104051141D01*
X135318836Y-103836341D01*
X135315624Y-103832581D01*
X135315621Y-103832576D01*
X135158442Y-103648543D01*
X135158437Y-103648538D01*
X135155224Y-103644776D01*
X135142727Y-103634102D01*
X135109602Y-103605811D01*
X135070793Y-103546360D01*
X135070287Y-103475366D01*
X135109602Y-103414189D01*
X135151460Y-103378439D01*
X135151462Y-103378437D01*
X135155224Y-103375224D01*
X135158437Y-103371462D01*
X135158442Y-103371457D01*
X135315621Y-103187424D01*
X135315624Y-103187419D01*
X135318836Y-103183659D01*
X135450466Y-102968859D01*
X135546873Y-102736111D01*
X135577054Y-102610397D01*
X135604528Y-102495961D01*
X135604529Y-102495955D01*
X135605683Y-102491148D01*
X135625449Y-102240000D01*
X135605683Y-101988852D01*
X135589020Y-101919442D01*
X135548028Y-101748701D01*
X135546873Y-101743889D01*
X135450466Y-101511141D01*
X135318836Y-101296341D01*
X135315624Y-101292581D01*
X135315621Y-101292576D01*
X135158437Y-101108538D01*
X135155224Y-101104776D01*
X135037973Y-101004634D01*
X134967424Y-100944379D01*
X134967419Y-100944376D01*
X134963659Y-100941164D01*
X134748859Y-100809534D01*
X134744289Y-100807641D01*
X134744285Y-100807639D01*
X134520684Y-100715021D01*
X134520682Y-100715020D01*
X134516111Y-100713127D01*
X134431711Y-100692865D01*
X134275961Y-100655472D01*
X134275955Y-100655471D01*
X134271148Y-100654317D01*
X134182851Y-100647368D01*
X134085339Y-100639693D01*
X134085330Y-100639693D01*
X134082882Y-100639500D01*
X133157118Y-100639500D01*
X133154670Y-100639693D01*
X133154661Y-100639693D01*
X133057149Y-100647368D01*
X132968852Y-100654317D01*
X132964045Y-100655471D01*
X132964039Y-100655472D01*
X132808289Y-100692865D01*
X132723889Y-100713127D01*
X132719318Y-100715020D01*
X132719316Y-100715021D01*
X132495715Y-100807639D01*
X132495711Y-100807641D01*
X132491141Y-100809534D01*
X132276341Y-100941164D01*
X132272581Y-100944376D01*
X132272576Y-100944379D01*
X132202027Y-101004634D01*
X132084776Y-101104776D01*
X132081563Y-101108538D01*
X131924379Y-101292576D01*
X131924376Y-101292581D01*
X131921164Y-101296341D01*
X131789534Y-101511141D01*
X131693127Y-101743889D01*
X131691972Y-101748701D01*
X131650981Y-101919442D01*
X131634317Y-101988852D01*
X131614551Y-102240000D01*
X131634317Y-102491148D01*
X131635471Y-102495955D01*
X131635472Y-102495961D01*
X131662946Y-102610397D01*
X131693127Y-102736111D01*
X131789534Y-102968859D01*
X131921164Y-103183659D01*
X131924376Y-103187419D01*
X131924379Y-103187424D01*
X132081558Y-103371457D01*
X132081563Y-103371462D01*
X132084776Y-103375224D01*
X132088538Y-103378437D01*
X132088540Y-103378439D01*
X132130398Y-103414189D01*
X132169207Y-103473640D01*
X132169713Y-103544634D01*
X132130398Y-103605811D01*
X132097274Y-103634102D01*
X132084776Y-103644776D01*
X132081563Y-103648538D01*
X132081558Y-103648543D01*
X131924379Y-103832576D01*
X131924376Y-103832581D01*
X131921164Y-103836341D01*
X131789534Y-104051141D01*
X131787641Y-104055711D01*
X131787639Y-104055715D01*
X131695021Y-104279316D01*
X131693127Y-104283889D01*
X131634317Y-104528852D01*
X131614551Y-104780000D01*
X102053339Y-104780000D01*
X101915437Y-104618538D01*
X101912224Y-104614776D01*
X101805985Y-104524039D01*
X101724424Y-104454379D01*
X101724419Y-104454376D01*
X101720659Y-104451164D01*
X101505859Y-104319534D01*
X101501289Y-104317641D01*
X101501285Y-104317639D01*
X101277684Y-104225021D01*
X101277682Y-104225020D01*
X101273111Y-104223127D01*
X101188711Y-104202865D01*
X101032961Y-104165472D01*
X101032955Y-104165471D01*
X101028148Y-104164317D01*
X100777000Y-104144551D01*
X100525852Y-104164317D01*
X100521045Y-104165471D01*
X100521039Y-104165472D01*
X100365289Y-104202865D01*
X100280889Y-104223127D01*
X100276318Y-104225020D01*
X100276316Y-104225021D01*
X100052715Y-104317639D01*
X100052711Y-104317641D01*
X100048141Y-104319534D01*
X99833341Y-104451164D01*
X99829581Y-104454376D01*
X99829576Y-104454379D01*
X99748015Y-104524039D01*
X99641776Y-104614776D01*
X99638563Y-104618538D01*
X99481379Y-104802576D01*
X99481376Y-104802581D01*
X99478164Y-104806341D01*
X99346534Y-105021141D01*
X99344641Y-105025711D01*
X99344639Y-105025715D01*
X99342389Y-105031148D01*
X99250127Y-105253889D01*
X99191317Y-105498852D01*
X99171551Y-105750000D01*
X95044137Y-105750000D01*
X95044964Y-99050000D01*
X103694564Y-99050000D01*
X103694834Y-99054119D01*
X103704966Y-99208701D01*
X103714287Y-99350920D01*
X103715089Y-99354953D01*
X103715090Y-99354959D01*
X103772314Y-99642641D01*
X103773120Y-99646691D01*
X103870055Y-99932252D01*
X103881747Y-99955961D01*
X104000176Y-100196111D01*
X104003434Y-100202718D01*
X104170975Y-100453461D01*
X104173689Y-100456555D01*
X104173693Y-100456561D01*
X104334297Y-100639693D01*
X104369811Y-100680189D01*
X104372900Y-100682898D01*
X104593439Y-100876307D01*
X104593445Y-100876311D01*
X104596539Y-100879025D01*
X104599965Y-100881314D01*
X104599970Y-100881318D01*
X104747659Y-100980000D01*
X104847282Y-101046566D01*
X104850981Y-101048390D01*
X104850986Y-101048393D01*
X104958801Y-101101561D01*
X105117748Y-101179945D01*
X105121653Y-101181271D01*
X105121654Y-101181271D01*
X105399396Y-101275552D01*
X105399400Y-101275553D01*
X105403309Y-101276880D01*
X105407353Y-101277684D01*
X105407359Y-101277686D01*
X105695041Y-101334910D01*
X105695047Y-101334911D01*
X105699080Y-101335713D01*
X105703185Y-101335982D01*
X105703192Y-101335983D01*
X105922641Y-101350366D01*
X105922650Y-101350366D01*
X105924690Y-101350500D01*
X108075310Y-101350500D01*
X108077350Y-101350366D01*
X108077359Y-101350366D01*
X108296808Y-101335983D01*
X108296815Y-101335982D01*
X108300920Y-101335713D01*
X108304953Y-101334911D01*
X108304959Y-101334910D01*
X108592641Y-101277686D01*
X108592647Y-101277684D01*
X108596691Y-101276880D01*
X108600600Y-101275553D01*
X108600604Y-101275552D01*
X108878346Y-101181271D01*
X108878347Y-101181271D01*
X108882252Y-101179945D01*
X109041199Y-101101561D01*
X109149014Y-101048393D01*
X109149019Y-101048390D01*
X109152718Y-101046566D01*
X109252341Y-100980000D01*
X117144551Y-100980000D01*
X117164317Y-101231148D01*
X117165471Y-101235955D01*
X117165472Y-101235961D01*
X117192971Y-101350500D01*
X117223127Y-101476111D01*
X117319534Y-101708859D01*
X117451164Y-101923659D01*
X117454376Y-101927419D01*
X117454379Y-101927424D01*
X117502733Y-101984039D01*
X117614776Y-102115224D01*
X117618538Y-102118437D01*
X117802576Y-102275621D01*
X117802581Y-102275624D01*
X117806341Y-102278836D01*
X118021141Y-102410466D01*
X118025711Y-102412359D01*
X118025715Y-102412361D01*
X118249316Y-102504979D01*
X118253889Y-102506873D01*
X118338289Y-102527135D01*
X118494039Y-102564528D01*
X118494045Y-102564529D01*
X118498852Y-102565683D01*
X118750000Y-102585449D01*
X119001148Y-102565683D01*
X119005955Y-102564529D01*
X119005961Y-102564528D01*
X119161711Y-102527135D01*
X119246111Y-102506873D01*
X119250684Y-102504979D01*
X119474285Y-102412361D01*
X119474289Y-102412359D01*
X119478859Y-102410466D01*
X119693659Y-102278836D01*
X119697419Y-102275624D01*
X119697424Y-102275621D01*
X119739131Y-102240000D01*
X123994551Y-102240000D01*
X124014317Y-102491148D01*
X124015471Y-102495955D01*
X124015472Y-102495961D01*
X124042946Y-102610397D01*
X124073127Y-102736111D01*
X124169534Y-102968859D01*
X124301164Y-103183659D01*
X124304376Y-103187419D01*
X124304379Y-103187424D01*
X124386764Y-103283884D01*
X124464776Y-103375224D01*
X124468538Y-103378437D01*
X124652576Y-103535621D01*
X124652581Y-103535624D01*
X124656341Y-103538836D01*
X124871141Y-103670466D01*
X124875711Y-103672359D01*
X124875715Y-103672361D01*
X125099316Y-103764979D01*
X125103889Y-103766873D01*
X125188289Y-103787135D01*
X125344039Y-103824528D01*
X125344045Y-103824529D01*
X125348852Y-103825683D01*
X125436435Y-103832576D01*
X125534661Y-103840307D01*
X125534670Y-103840307D01*
X125537118Y-103840500D01*
X126462882Y-103840500D01*
X126465330Y-103840307D01*
X126465339Y-103840307D01*
X126563565Y-103832576D01*
X126651148Y-103825683D01*
X126655955Y-103824529D01*
X126655961Y-103824528D01*
X126811711Y-103787135D01*
X126896111Y-103766873D01*
X126900684Y-103764979D01*
X127124285Y-103672361D01*
X127124289Y-103672359D01*
X127128859Y-103670466D01*
X127343659Y-103538836D01*
X127347419Y-103535624D01*
X127347424Y-103535621D01*
X127531462Y-103378437D01*
X127535224Y-103375224D01*
X127613236Y-103283884D01*
X127695621Y-103187424D01*
X127695624Y-103187419D01*
X127698836Y-103183659D01*
X127830466Y-102968859D01*
X127926873Y-102736111D01*
X127957054Y-102610397D01*
X127984528Y-102495961D01*
X127984529Y-102495955D01*
X127985683Y-102491148D01*
X128005449Y-102240000D01*
X127985683Y-101988852D01*
X127969020Y-101919442D01*
X127928028Y-101748701D01*
X127926873Y-101743889D01*
X127830466Y-101511141D01*
X127698836Y-101296341D01*
X127695624Y-101292581D01*
X127695621Y-101292576D01*
X127538442Y-101108543D01*
X127538437Y-101108538D01*
X127535224Y-101104776D01*
X127489602Y-101065811D01*
X127450793Y-101006360D01*
X127450287Y-100935366D01*
X127489602Y-100874189D01*
X127531460Y-100838439D01*
X127531462Y-100838437D01*
X127535224Y-100835224D01*
X127538437Y-100831462D01*
X127538442Y-100831457D01*
X127695621Y-100647424D01*
X127695624Y-100647419D01*
X127698836Y-100643659D01*
X127830466Y-100428859D01*
X127902185Y-100255715D01*
X127924979Y-100200684D01*
X127924980Y-100200682D01*
X127926873Y-100196111D01*
X127985683Y-99951148D01*
X128005449Y-99700000D01*
X127985683Y-99448852D01*
X127972591Y-99394317D01*
X127928028Y-99208701D01*
X127926873Y-99203889D01*
X127924979Y-99199316D01*
X127832361Y-98975715D01*
X127832359Y-98975711D01*
X127830466Y-98971141D01*
X127698836Y-98756341D01*
X127695624Y-98752581D01*
X127695621Y-98752576D01*
X127538442Y-98568543D01*
X127538437Y-98568538D01*
X127535224Y-98564776D01*
X127518307Y-98550327D01*
X127489602Y-98525811D01*
X127450793Y-98466360D01*
X127450287Y-98395366D01*
X127489602Y-98334189D01*
X127531460Y-98298439D01*
X127531462Y-98298437D01*
X127535224Y-98295224D01*
X127538437Y-98291462D01*
X127538442Y-98291457D01*
X127695621Y-98107424D01*
X127695624Y-98107419D01*
X127698836Y-98103659D01*
X127830466Y-97888859D01*
X127833127Y-97882436D01*
X127924979Y-97660684D01*
X127924980Y-97660682D01*
X127926873Y-97656111D01*
X127947135Y-97571711D01*
X127984528Y-97415961D01*
X127984529Y-97415955D01*
X127985683Y-97411148D01*
X128005449Y-97160000D01*
X127985683Y-96908852D01*
X127976608Y-96871048D01*
X127928028Y-96668701D01*
X127926873Y-96663889D01*
X127914965Y-96635140D01*
X127832361Y-96435715D01*
X127832359Y-96435711D01*
X127830466Y-96431141D01*
X127698836Y-96216341D01*
X127695624Y-96212581D01*
X127695621Y-96212576D01*
X127538442Y-96028543D01*
X127538437Y-96028538D01*
X127535224Y-96024776D01*
X127489602Y-95985811D01*
X127450793Y-95926360D01*
X127450287Y-95855366D01*
X127489602Y-95794189D01*
X127531460Y-95758439D01*
X127531462Y-95758437D01*
X127535224Y-95755224D01*
X127538437Y-95751462D01*
X127538442Y-95751457D01*
X127695621Y-95567424D01*
X127695624Y-95567419D01*
X127698836Y-95563659D01*
X127830466Y-95348859D01*
X127904461Y-95170220D01*
X127924979Y-95120684D01*
X127924980Y-95120682D01*
X127926873Y-95116111D01*
X127971420Y-94930559D01*
X127984528Y-94875961D01*
X127984529Y-94875955D01*
X127985683Y-94871148D01*
X128005449Y-94620000D01*
X127985683Y-94368852D01*
X127983613Y-94360226D01*
X127943697Y-94193965D01*
X127926873Y-94123889D01*
X127913928Y-94092636D01*
X127832361Y-93895715D01*
X127832359Y-93895711D01*
X127830466Y-93891141D01*
X127698836Y-93676341D01*
X127695624Y-93672581D01*
X127695621Y-93672576D01*
X127538442Y-93488543D01*
X127538437Y-93488538D01*
X127535224Y-93484776D01*
X127489602Y-93445811D01*
X127450793Y-93386360D01*
X127450287Y-93315366D01*
X127489602Y-93254189D01*
X127531460Y-93218439D01*
X127531462Y-93218437D01*
X127535224Y-93215224D01*
X127538437Y-93211462D01*
X127538442Y-93211457D01*
X127695621Y-93027424D01*
X127695624Y-93027419D01*
X127698836Y-93023659D01*
X127830466Y-92808859D01*
X127889481Y-92666385D01*
X127924979Y-92580684D01*
X127924980Y-92580682D01*
X127926873Y-92576111D01*
X127962822Y-92426371D01*
X127984528Y-92335961D01*
X127984529Y-92335955D01*
X127985683Y-92331148D01*
X128005449Y-92080000D01*
X127985683Y-91828852D01*
X127966873Y-91750500D01*
X127947135Y-91668289D01*
X127926873Y-91583889D01*
X127924484Y-91578121D01*
X127832361Y-91355715D01*
X127832359Y-91355711D01*
X127830466Y-91351141D01*
X127698836Y-91136341D01*
X127695624Y-91132581D01*
X127695621Y-91132576D01*
X127538442Y-90948543D01*
X127538437Y-90948538D01*
X127535224Y-90944776D01*
X127515442Y-90927880D01*
X127489602Y-90905811D01*
X127450793Y-90846360D01*
X127450287Y-90775366D01*
X127489602Y-90714189D01*
X127531460Y-90678439D01*
X127531462Y-90678437D01*
X127535224Y-90675224D01*
X127538437Y-90671462D01*
X127538442Y-90671457D01*
X127695621Y-90487424D01*
X127695624Y-90487419D01*
X127698836Y-90483659D01*
X127830466Y-90268859D01*
X127835783Y-90256024D01*
X127924979Y-90040684D01*
X127924980Y-90040682D01*
X127926873Y-90036111D01*
X127985683Y-89791148D01*
X128005449Y-89540000D01*
X127985683Y-89288852D01*
X127977265Y-89253786D01*
X127928028Y-89048701D01*
X127926873Y-89043889D01*
X127910305Y-89003889D01*
X127832361Y-88815715D01*
X127832359Y-88815711D01*
X127830466Y-88811141D01*
X127698836Y-88596341D01*
X127695620Y-88592576D01*
X127692714Y-88588576D01*
X127694040Y-88587613D01*
X127667951Y-88529362D01*
X127678568Y-88459164D01*
X127714187Y-88413872D01*
X127764117Y-88374013D01*
X127769620Y-88369620D01*
X127881664Y-88229266D01*
X127959827Y-88067577D01*
X127984154Y-87962206D01*
X127999026Y-87897788D01*
X127999026Y-87897785D01*
X128000226Y-87892589D01*
X128000500Y-87887837D01*
X128000500Y-87000000D01*
X128000499Y-86113957D01*
X128000499Y-86112164D01*
X128000226Y-86107411D01*
X127959827Y-85932423D01*
X127891940Y-85791991D01*
X127884731Y-85777078D01*
X127884730Y-85777077D01*
X127881664Y-85770734D01*
X127769620Y-85630380D01*
X127629266Y-85518336D01*
X127467577Y-85440173D01*
X127460716Y-85438589D01*
X127297788Y-85400974D01*
X127297785Y-85400974D01*
X127292589Y-85399774D01*
X127287837Y-85399500D01*
X127286013Y-85399500D01*
X125988963Y-85399501D01*
X124712164Y-85399501D01*
X124707411Y-85399774D01*
X124532423Y-85440173D01*
X124370734Y-85518336D01*
X124230380Y-85630380D01*
X124118336Y-85770734D01*
X124115270Y-85777077D01*
X124115269Y-85777078D01*
X124108060Y-85791991D01*
X124040173Y-85932423D01*
X124038589Y-85939284D01*
X124006167Y-86079721D01*
X123999774Y-86107411D01*
X123999500Y-86112163D01*
X123999500Y-86113987D01*
X123999501Y-87007600D01*
X123999501Y-87887836D01*
X123999774Y-87892589D01*
X124040173Y-88067577D01*
X124118336Y-88229266D01*
X124230380Y-88369620D01*
X124235883Y-88374013D01*
X124285813Y-88413872D01*
X124326572Y-88472003D01*
X124329432Y-88542942D01*
X124306282Y-88587847D01*
X124307286Y-88588576D01*
X124304380Y-88592576D01*
X124301164Y-88596341D01*
X124169534Y-88811141D01*
X124167641Y-88815711D01*
X124167639Y-88815715D01*
X124089695Y-89003889D01*
X124073127Y-89043889D01*
X124071972Y-89048701D01*
X124022736Y-89253786D01*
X124014317Y-89288852D01*
X123994551Y-89540000D01*
X124014317Y-89791148D01*
X124073127Y-90036111D01*
X124075020Y-90040682D01*
X124075021Y-90040684D01*
X124164218Y-90256024D01*
X124169534Y-90268859D01*
X124301164Y-90483659D01*
X124304376Y-90487419D01*
X124304379Y-90487424D01*
X124461558Y-90671457D01*
X124461563Y-90671462D01*
X124464776Y-90675224D01*
X124468538Y-90678437D01*
X124468540Y-90678439D01*
X124510398Y-90714189D01*
X124549207Y-90773640D01*
X124549713Y-90844634D01*
X124510398Y-90905811D01*
X124484559Y-90927880D01*
X124464776Y-90944776D01*
X124461563Y-90948538D01*
X124461558Y-90948543D01*
X124304379Y-91132576D01*
X124304376Y-91132581D01*
X124301164Y-91136341D01*
X124169534Y-91351141D01*
X124167641Y-91355711D01*
X124167639Y-91355715D01*
X124075516Y-91578121D01*
X124073127Y-91583889D01*
X124052865Y-91668289D01*
X124033128Y-91750500D01*
X124014317Y-91828852D01*
X123994551Y-92080000D01*
X124014317Y-92331148D01*
X124015471Y-92335955D01*
X124015472Y-92335961D01*
X124037178Y-92426371D01*
X124073127Y-92576111D01*
X124075020Y-92580682D01*
X124075021Y-92580684D01*
X124110520Y-92666385D01*
X124169534Y-92808859D01*
X124301164Y-93023659D01*
X124304376Y-93027419D01*
X124304379Y-93027424D01*
X124461558Y-93211457D01*
X124461563Y-93211462D01*
X124464776Y-93215224D01*
X124468538Y-93218437D01*
X124468540Y-93218439D01*
X124510398Y-93254189D01*
X124549207Y-93313640D01*
X124549713Y-93384634D01*
X124510398Y-93445811D01*
X124464776Y-93484776D01*
X124461563Y-93488538D01*
X124461558Y-93488543D01*
X124304379Y-93672576D01*
X124304376Y-93672581D01*
X124301164Y-93676341D01*
X124169534Y-93891141D01*
X124167641Y-93895711D01*
X124167639Y-93895715D01*
X124086072Y-94092636D01*
X124073127Y-94123889D01*
X124056303Y-94193965D01*
X124016388Y-94360226D01*
X124014317Y-94368852D01*
X123994551Y-94620000D01*
X124014317Y-94871148D01*
X124015471Y-94875955D01*
X124015472Y-94875961D01*
X124028580Y-94930559D01*
X124073127Y-95116111D01*
X124075020Y-95120682D01*
X124075021Y-95120684D01*
X124095540Y-95170220D01*
X124169534Y-95348859D01*
X124301164Y-95563659D01*
X124304376Y-95567419D01*
X124304379Y-95567424D01*
X124461558Y-95751457D01*
X124461563Y-95751462D01*
X124464776Y-95755224D01*
X124468538Y-95758437D01*
X124468540Y-95758439D01*
X124510398Y-95794189D01*
X124549207Y-95853640D01*
X124549713Y-95924634D01*
X124510398Y-95985811D01*
X124464776Y-96024776D01*
X124461563Y-96028538D01*
X124461558Y-96028543D01*
X124304379Y-96212576D01*
X124304376Y-96212581D01*
X124301164Y-96216341D01*
X124169534Y-96431141D01*
X124167641Y-96435711D01*
X124167639Y-96435715D01*
X124085035Y-96635140D01*
X124073127Y-96663889D01*
X124071972Y-96668701D01*
X124023393Y-96871048D01*
X124014317Y-96908852D01*
X123994551Y-97160000D01*
X124014317Y-97411148D01*
X124015471Y-97415955D01*
X124015472Y-97415961D01*
X124052865Y-97571711D01*
X124073127Y-97656111D01*
X124075020Y-97660682D01*
X124075021Y-97660684D01*
X124166874Y-97882436D01*
X124169534Y-97888859D01*
X124301164Y-98103659D01*
X124304376Y-98107419D01*
X124304379Y-98107424D01*
X124461558Y-98291457D01*
X124461563Y-98291462D01*
X124464776Y-98295224D01*
X124468538Y-98298437D01*
X124468540Y-98298439D01*
X124510398Y-98334189D01*
X124549207Y-98393640D01*
X124549713Y-98464634D01*
X124510398Y-98525811D01*
X124481694Y-98550327D01*
X124464776Y-98564776D01*
X124461563Y-98568538D01*
X124461558Y-98568543D01*
X124304379Y-98752576D01*
X124304376Y-98752581D01*
X124301164Y-98756341D01*
X124169534Y-98971141D01*
X124167641Y-98975711D01*
X124167639Y-98975715D01*
X124075021Y-99199316D01*
X124073127Y-99203889D01*
X124071972Y-99208701D01*
X124027410Y-99394317D01*
X124014317Y-99448852D01*
X123994551Y-99700000D01*
X124014317Y-99951148D01*
X124073127Y-100196111D01*
X124075020Y-100200682D01*
X124075021Y-100200684D01*
X124097816Y-100255715D01*
X124169534Y-100428859D01*
X124301164Y-100643659D01*
X124304376Y-100647419D01*
X124304379Y-100647424D01*
X124461558Y-100831457D01*
X124461563Y-100831462D01*
X124464776Y-100835224D01*
X124468538Y-100838437D01*
X124468540Y-100838439D01*
X124510398Y-100874189D01*
X124549207Y-100933640D01*
X124549713Y-101004634D01*
X124510398Y-101065811D01*
X124464776Y-101104776D01*
X124461563Y-101108538D01*
X124461558Y-101108543D01*
X124304379Y-101292576D01*
X124304376Y-101292581D01*
X124301164Y-101296341D01*
X124169534Y-101511141D01*
X124073127Y-101743889D01*
X124071972Y-101748701D01*
X124030981Y-101919442D01*
X124014317Y-101988852D01*
X123994551Y-102240000D01*
X119739131Y-102240000D01*
X119881462Y-102118437D01*
X119885224Y-102115224D01*
X119997267Y-101984039D01*
X120045621Y-101927424D01*
X120045624Y-101927419D01*
X120048836Y-101923659D01*
X120180466Y-101708859D01*
X120276873Y-101476111D01*
X120307029Y-101350500D01*
X120334528Y-101235961D01*
X120334529Y-101235955D01*
X120335683Y-101231148D01*
X120355449Y-100980000D01*
X120335683Y-100728852D01*
X120332363Y-100715021D01*
X120278028Y-100488701D01*
X120276873Y-100483889D01*
X120274979Y-100479316D01*
X120182361Y-100255715D01*
X120182359Y-100255711D01*
X120180466Y-100251141D01*
X120048836Y-100036341D01*
X120045624Y-100032581D01*
X120045621Y-100032576D01*
X119888437Y-99848538D01*
X119885224Y-99844776D01*
X119867052Y-99829256D01*
X119697424Y-99684379D01*
X119697419Y-99684376D01*
X119693659Y-99681164D01*
X119478859Y-99549534D01*
X119474289Y-99547641D01*
X119474285Y-99547639D01*
X119250684Y-99455021D01*
X119250682Y-99455020D01*
X119246111Y-99453127D01*
X119161711Y-99432865D01*
X119005961Y-99395472D01*
X119005955Y-99395471D01*
X119001148Y-99394317D01*
X118750000Y-99374551D01*
X118498852Y-99394317D01*
X118494045Y-99395471D01*
X118494039Y-99395472D01*
X118338289Y-99432865D01*
X118253889Y-99453127D01*
X118249318Y-99455020D01*
X118249316Y-99455021D01*
X118025715Y-99547639D01*
X118025711Y-99547641D01*
X118021141Y-99549534D01*
X117806341Y-99681164D01*
X117802581Y-99684376D01*
X117802576Y-99684379D01*
X117632948Y-99829256D01*
X117614776Y-99844776D01*
X117611563Y-99848538D01*
X117454379Y-100032576D01*
X117454376Y-100032581D01*
X117451164Y-100036341D01*
X117319534Y-100251141D01*
X117317641Y-100255711D01*
X117317639Y-100255715D01*
X117225021Y-100479316D01*
X117223127Y-100483889D01*
X117221972Y-100488701D01*
X117167638Y-100715021D01*
X117164317Y-100728852D01*
X117144551Y-100980000D01*
X109252341Y-100980000D01*
X109400030Y-100881318D01*
X109400035Y-100881314D01*
X109403461Y-100879025D01*
X109406555Y-100876311D01*
X109406561Y-100876307D01*
X109627100Y-100682898D01*
X109630189Y-100680189D01*
X109665703Y-100639693D01*
X109826307Y-100456561D01*
X109826311Y-100456555D01*
X109829025Y-100453461D01*
X109996566Y-100202718D01*
X109999825Y-100196111D01*
X110118253Y-99955961D01*
X110129945Y-99932252D01*
X110226880Y-99646691D01*
X110227686Y-99642641D01*
X110284910Y-99354959D01*
X110284911Y-99354953D01*
X110285713Y-99350920D01*
X110295035Y-99208701D01*
X110305166Y-99054119D01*
X110305436Y-99050000D01*
X110299991Y-98966921D01*
X110285983Y-98753192D01*
X110285982Y-98753185D01*
X110285713Y-98749080D01*
X110273340Y-98686873D01*
X110227686Y-98457359D01*
X110227684Y-98457353D01*
X110226880Y-98453309D01*
X110211522Y-98408064D01*
X110131271Y-98171654D01*
X110131271Y-98171653D01*
X110129945Y-98167748D01*
X109996566Y-97897282D01*
X109956643Y-97837533D01*
X109831318Y-97649970D01*
X109831314Y-97649965D01*
X109829025Y-97646539D01*
X109826311Y-97643445D01*
X109826307Y-97643439D01*
X109632898Y-97422900D01*
X109630189Y-97419811D01*
X109592286Y-97386571D01*
X109406561Y-97223693D01*
X109406555Y-97223689D01*
X109403461Y-97220975D01*
X109400035Y-97218686D01*
X109400030Y-97218682D01*
X109156151Y-97055728D01*
X109152718Y-97053434D01*
X109149019Y-97051610D01*
X109149014Y-97051607D01*
X109010166Y-96983135D01*
X108882252Y-96920055D01*
X108844866Y-96907364D01*
X108600604Y-96824448D01*
X108600600Y-96824447D01*
X108596691Y-96823120D01*
X108592647Y-96822316D01*
X108592641Y-96822314D01*
X108304959Y-96765090D01*
X108304953Y-96765089D01*
X108300920Y-96764287D01*
X108296815Y-96764018D01*
X108296808Y-96764017D01*
X108077359Y-96749634D01*
X108077350Y-96749634D01*
X108075310Y-96749500D01*
X105924690Y-96749500D01*
X105922650Y-96749634D01*
X105922641Y-96749634D01*
X105703192Y-96764017D01*
X105703185Y-96764018D01*
X105699080Y-96764287D01*
X105695047Y-96765089D01*
X105695041Y-96765090D01*
X105407359Y-96822314D01*
X105407353Y-96822316D01*
X105403309Y-96823120D01*
X105399400Y-96824447D01*
X105399396Y-96824448D01*
X105155134Y-96907364D01*
X105117748Y-96920055D01*
X104989834Y-96983135D01*
X104850986Y-97051607D01*
X104850981Y-97051610D01*
X104847282Y-97053434D01*
X104843849Y-97055728D01*
X104599970Y-97218682D01*
X104599965Y-97218686D01*
X104596539Y-97220975D01*
X104593445Y-97223689D01*
X104593439Y-97223693D01*
X104407714Y-97386571D01*
X104369811Y-97419811D01*
X104367102Y-97422900D01*
X104173693Y-97643439D01*
X104173689Y-97643445D01*
X104170975Y-97646539D01*
X104168686Y-97649965D01*
X104168682Y-97649970D01*
X104043357Y-97837533D01*
X104003434Y-97897282D01*
X103870055Y-98167748D01*
X103868729Y-98171653D01*
X103868729Y-98171654D01*
X103788479Y-98408064D01*
X103773120Y-98453309D01*
X103772316Y-98457353D01*
X103772314Y-98457359D01*
X103726661Y-98686873D01*
X103714287Y-98749080D01*
X103714018Y-98753185D01*
X103714017Y-98753192D01*
X103700009Y-98966921D01*
X103694564Y-99050000D01*
X95044964Y-99050000D01*
X95045234Y-96860226D01*
X97697819Y-96860226D01*
X97733907Y-97125395D01*
X97808792Y-97382317D01*
X97920831Y-97625348D01*
X97953072Y-97674524D01*
X98064996Y-97845236D01*
X98065000Y-97845241D01*
X98067562Y-97849149D01*
X98245760Y-98048803D01*
X98451512Y-98219925D01*
X98455505Y-98222348D01*
X98676306Y-98356334D01*
X98676310Y-98356336D01*
X98680298Y-98358756D01*
X98684606Y-98360563D01*
X98684607Y-98360563D01*
X98922776Y-98460436D01*
X98922781Y-98460438D01*
X98927091Y-98462245D01*
X98931623Y-98463396D01*
X98931626Y-98463397D01*
X99181933Y-98526967D01*
X99181936Y-98526968D01*
X99186470Y-98528119D01*
X99191126Y-98528588D01*
X99191127Y-98528588D01*
X99405602Y-98550184D01*
X99405603Y-98550184D01*
X99408741Y-98550500D01*
X100567944Y-98550500D01*
X100570267Y-98550327D01*
X100570277Y-98550327D01*
X100762212Y-98536064D01*
X100762216Y-98536063D01*
X100766877Y-98535717D01*
X100771441Y-98534684D01*
X100771443Y-98534684D01*
X100910765Y-98503158D01*
X101027891Y-98476655D01*
X101054365Y-98466360D01*
X101272956Y-98381355D01*
X101272958Y-98381354D01*
X101277309Y-98379662D01*
X101318125Y-98356334D01*
X101366497Y-98328687D01*
X101509650Y-98246868D01*
X101719811Y-98081190D01*
X101903175Y-97886269D01*
X102055714Y-97666385D01*
X102057781Y-97662194D01*
X102172011Y-97430559D01*
X102172012Y-97430556D01*
X102174076Y-97426371D01*
X102255662Y-97171497D01*
X102298678Y-96907364D01*
X102300429Y-96773569D01*
X102302120Y-96644451D01*
X102302120Y-96644448D01*
X102302181Y-96639774D01*
X102266093Y-96374605D01*
X102191208Y-96117683D01*
X102079169Y-95874652D01*
X102013032Y-95773777D01*
X101935004Y-95654764D01*
X101935000Y-95654759D01*
X101932438Y-95650851D01*
X101873893Y-95585257D01*
X101843457Y-95521120D01*
X101852528Y-95450705D01*
X101876123Y-95415026D01*
X101876393Y-95414739D01*
X101903175Y-95386269D01*
X102055714Y-95166385D01*
X102078045Y-95121102D01*
X102172011Y-94930559D01*
X102172012Y-94930556D01*
X102174076Y-94926371D01*
X102179573Y-94909200D01*
X102254239Y-94675942D01*
X102255662Y-94671497D01*
X102298678Y-94407364D01*
X102302181Y-94139774D01*
X102266093Y-93874605D01*
X102258297Y-93847856D01*
X102208305Y-93676341D01*
X102191208Y-93617683D01*
X102079169Y-93374652D01*
X101974643Y-93215224D01*
X101935004Y-93154764D01*
X101935000Y-93154759D01*
X101932438Y-93150851D01*
X101873893Y-93085257D01*
X101843457Y-93021120D01*
X101852528Y-92950705D01*
X101876123Y-92915026D01*
X101880280Y-92910607D01*
X101903175Y-92886269D01*
X102055714Y-92666385D01*
X102097977Y-92580684D01*
X102172011Y-92430559D01*
X102172012Y-92430556D01*
X102174076Y-92426371D01*
X102255662Y-92171497D01*
X102298678Y-91907364D01*
X102300429Y-91773569D01*
X102302120Y-91644451D01*
X102302120Y-91644448D01*
X102302181Y-91639774D01*
X102266093Y-91374605D01*
X102191208Y-91117683D01*
X102079169Y-90874652D01*
X102014074Y-90775366D01*
X101935004Y-90654764D01*
X101935000Y-90654759D01*
X101932438Y-90650851D01*
X101786574Y-90487424D01*
X101757357Y-90454689D01*
X101757355Y-90454687D01*
X101754240Y-90451197D01*
X101548488Y-90280075D01*
X101456549Y-90224285D01*
X101323694Y-90143666D01*
X101323690Y-90143664D01*
X101319702Y-90141244D01*
X101265810Y-90118645D01*
X101077224Y-90039564D01*
X101077219Y-90039562D01*
X101072909Y-90037755D01*
X101068377Y-90036604D01*
X101068374Y-90036603D01*
X100818067Y-89973033D01*
X100818064Y-89973032D01*
X100813530Y-89971881D01*
X100808874Y-89971412D01*
X100808873Y-89971412D01*
X100594398Y-89949816D01*
X100594397Y-89949816D01*
X100591259Y-89949500D01*
X99432056Y-89949500D01*
X99429733Y-89949673D01*
X99429723Y-89949673D01*
X99237788Y-89963936D01*
X99237784Y-89963937D01*
X99233123Y-89964283D01*
X99228559Y-89965316D01*
X99228557Y-89965316D01*
X99092465Y-89996111D01*
X98972109Y-90023345D01*
X98967757Y-90025037D01*
X98967755Y-90025038D01*
X98727044Y-90118645D01*
X98727042Y-90118646D01*
X98722691Y-90120338D01*
X98718637Y-90122655D01*
X98718635Y-90122656D01*
X98636270Y-90169732D01*
X98490350Y-90253132D01*
X98280189Y-90418810D01*
X98096825Y-90613731D01*
X97944286Y-90833615D01*
X97942220Y-90837804D01*
X97942219Y-90837806D01*
X97829256Y-91066873D01*
X97825924Y-91073629D01*
X97824502Y-91078072D01*
X97824501Y-91078074D01*
X97815738Y-91105449D01*
X97744338Y-91328503D01*
X97740651Y-91351141D01*
X97702747Y-91583889D01*
X97701322Y-91592636D01*
X97701261Y-91597313D01*
X97699460Y-91734910D01*
X97697819Y-91860226D01*
X97733907Y-92125395D01*
X97808792Y-92382317D01*
X97920831Y-92625348D01*
X97953072Y-92674524D01*
X98064996Y-92845236D01*
X98065000Y-92845241D01*
X98067562Y-92849149D01*
X98126107Y-92914743D01*
X98156543Y-92978880D01*
X98147472Y-93049295D01*
X98123877Y-93084974D01*
X98096825Y-93113731D01*
X97944286Y-93333615D01*
X97942220Y-93337804D01*
X97942219Y-93337806D01*
X97850639Y-93523513D01*
X97825924Y-93573629D01*
X97744338Y-93828503D01*
X97743588Y-93833109D01*
X97708139Y-94050780D01*
X97701322Y-94092636D01*
X97697819Y-94360226D01*
X97733907Y-94625395D01*
X97808792Y-94882317D01*
X97920831Y-95125348D01*
X97953072Y-95174524D01*
X98064996Y-95345236D01*
X98065000Y-95345241D01*
X98067562Y-95349149D01*
X98126107Y-95414743D01*
X98156543Y-95478880D01*
X98147472Y-95549295D01*
X98123877Y-95584974D01*
X98096825Y-95613731D01*
X97944286Y-95833615D01*
X97942220Y-95837804D01*
X97942219Y-95837806D01*
X97850016Y-96024776D01*
X97825924Y-96073629D01*
X97744338Y-96328503D01*
X97701322Y-96592636D01*
X97701261Y-96597313D01*
X97699269Y-96749500D01*
X97697819Y-96860226D01*
X95045234Y-96860226D01*
X95046149Y-89450000D01*
X103694564Y-89450000D01*
X103694834Y-89454119D01*
X103713979Y-89746214D01*
X103714287Y-89750920D01*
X103715089Y-89754953D01*
X103715090Y-89754959D01*
X103771702Y-90039564D01*
X103773120Y-90046691D01*
X103774447Y-90050600D01*
X103774448Y-90050604D01*
X103833405Y-90224285D01*
X103870055Y-90332252D01*
X103871879Y-90335950D01*
X103955984Y-90506498D01*
X104003434Y-90602718D01*
X104005728Y-90606151D01*
X104161203Y-90838836D01*
X104170975Y-90853461D01*
X104173689Y-90856555D01*
X104173693Y-90856561D01*
X104321393Y-91024979D01*
X104369811Y-91080189D01*
X104372900Y-91082898D01*
X104593439Y-91276307D01*
X104593445Y-91276311D01*
X104596539Y-91279025D01*
X104599965Y-91281314D01*
X104599970Y-91281318D01*
X104746515Y-91379236D01*
X104847282Y-91446566D01*
X104850981Y-91448390D01*
X104850986Y-91448393D01*
X104945042Y-91494776D01*
X105117748Y-91579945D01*
X105121653Y-91581271D01*
X105121654Y-91581271D01*
X105399396Y-91675552D01*
X105399400Y-91675553D01*
X105403309Y-91676880D01*
X105407353Y-91677684D01*
X105407359Y-91677686D01*
X105695041Y-91734910D01*
X105695047Y-91734911D01*
X105699080Y-91735713D01*
X105703185Y-91735982D01*
X105703192Y-91735983D01*
X105922641Y-91750366D01*
X105922650Y-91750366D01*
X105924690Y-91750500D01*
X108075310Y-91750500D01*
X108077350Y-91750366D01*
X108077359Y-91750366D01*
X108296808Y-91735983D01*
X108296815Y-91735982D01*
X108300920Y-91735713D01*
X108304953Y-91734911D01*
X108304959Y-91734910D01*
X108592641Y-91677686D01*
X108592647Y-91677684D01*
X108596691Y-91676880D01*
X108600600Y-91675553D01*
X108600604Y-91675552D01*
X108878346Y-91581271D01*
X108878347Y-91581271D01*
X108882252Y-91579945D01*
X109054958Y-91494776D01*
X109149014Y-91448393D01*
X109149019Y-91448390D01*
X109152718Y-91446566D01*
X109253485Y-91379236D01*
X109400030Y-91281318D01*
X109400035Y-91281314D01*
X109403461Y-91279025D01*
X109406555Y-91276311D01*
X109406561Y-91276307D01*
X109627100Y-91082898D01*
X109630189Y-91080189D01*
X109678607Y-91024979D01*
X109826307Y-90856561D01*
X109826311Y-90856555D01*
X109829025Y-90853461D01*
X109838798Y-90838836D01*
X109994272Y-90606151D01*
X109996566Y-90602718D01*
X110044017Y-90506498D01*
X110128121Y-90335950D01*
X110129945Y-90332252D01*
X110166595Y-90224285D01*
X110225552Y-90050604D01*
X110225553Y-90050600D01*
X110226880Y-90046691D01*
X110228298Y-90039564D01*
X110284910Y-89754959D01*
X110284911Y-89754953D01*
X110285713Y-89750920D01*
X110286022Y-89746214D01*
X110305166Y-89454119D01*
X110305436Y-89450000D01*
X110299386Y-89357698D01*
X110285983Y-89153192D01*
X110285982Y-89153185D01*
X110285713Y-89149080D01*
X110274121Y-89090800D01*
X110227686Y-88857359D01*
X110227684Y-88857353D01*
X110226880Y-88853309D01*
X110211134Y-88806921D01*
X110131271Y-88571654D01*
X110131271Y-88571653D01*
X110129945Y-88567748D01*
X110047991Y-88401561D01*
X109998393Y-88300986D01*
X109998390Y-88300981D01*
X109996566Y-88297282D01*
X109928766Y-88195812D01*
X109831318Y-88049970D01*
X109831314Y-88049965D01*
X109829025Y-88046539D01*
X109826311Y-88043445D01*
X109826307Y-88043439D01*
X109632898Y-87822900D01*
X109630189Y-87819811D01*
X109551003Y-87750366D01*
X109406561Y-87623693D01*
X109406555Y-87623689D01*
X109403461Y-87620975D01*
X109400035Y-87618686D01*
X109400030Y-87618682D01*
X109156151Y-87455728D01*
X109152718Y-87453434D01*
X109149019Y-87451610D01*
X109149014Y-87451607D01*
X109010166Y-87383135D01*
X108882252Y-87320055D01*
X108679259Y-87251148D01*
X108600604Y-87224448D01*
X108600600Y-87224447D01*
X108596691Y-87223120D01*
X108592647Y-87222316D01*
X108592641Y-87222314D01*
X108304959Y-87165090D01*
X108304953Y-87165089D01*
X108300920Y-87164287D01*
X108296815Y-87164018D01*
X108296808Y-87164017D01*
X108077359Y-87149634D01*
X108077350Y-87149634D01*
X108075310Y-87149500D01*
X105924690Y-87149500D01*
X105922650Y-87149634D01*
X105922641Y-87149634D01*
X105703192Y-87164017D01*
X105703185Y-87164018D01*
X105699080Y-87164287D01*
X105695047Y-87165089D01*
X105695041Y-87165090D01*
X105407359Y-87222314D01*
X105407353Y-87222316D01*
X105403309Y-87223120D01*
X105399400Y-87224447D01*
X105399396Y-87224448D01*
X105320741Y-87251148D01*
X105117748Y-87320055D01*
X104989834Y-87383135D01*
X104850986Y-87451607D01*
X104850981Y-87451610D01*
X104847282Y-87453434D01*
X104843849Y-87455728D01*
X104599970Y-87618682D01*
X104599965Y-87618686D01*
X104596539Y-87620975D01*
X104593445Y-87623689D01*
X104593439Y-87623693D01*
X104448997Y-87750366D01*
X104369811Y-87819811D01*
X104367102Y-87822900D01*
X104173693Y-88043439D01*
X104173689Y-88043445D01*
X104170975Y-88046539D01*
X104168686Y-88049965D01*
X104168682Y-88049970D01*
X104071234Y-88195812D01*
X104003434Y-88297282D01*
X104001610Y-88300981D01*
X104001607Y-88300986D01*
X103952009Y-88401561D01*
X103870055Y-88567748D01*
X103868729Y-88571653D01*
X103868729Y-88571654D01*
X103788867Y-88806921D01*
X103773120Y-88853309D01*
X103772316Y-88857353D01*
X103772314Y-88857359D01*
X103725880Y-89090800D01*
X103714287Y-89149080D01*
X103714018Y-89153185D01*
X103714017Y-89153192D01*
X103700614Y-89357698D01*
X103694564Y-89450000D01*
X95046149Y-89450000D01*
X95046976Y-82750000D01*
X99171551Y-82750000D01*
X99191317Y-83001148D01*
X99250127Y-83246111D01*
X99346534Y-83478859D01*
X99478164Y-83693659D01*
X99481376Y-83697419D01*
X99481379Y-83697424D01*
X99626256Y-83867052D01*
X99641776Y-83885224D01*
X99645538Y-83888437D01*
X99829576Y-84045621D01*
X99829581Y-84045624D01*
X99833341Y-84048836D01*
X100048141Y-84180466D01*
X100052711Y-84182359D01*
X100052715Y-84182361D01*
X100276316Y-84274979D01*
X100280889Y-84276873D01*
X100365289Y-84297135D01*
X100521039Y-84334528D01*
X100521045Y-84334529D01*
X100525852Y-84335683D01*
X100777000Y-84355449D01*
X101028148Y-84335683D01*
X101032955Y-84334529D01*
X101032961Y-84334528D01*
X101188711Y-84297135D01*
X101273111Y-84276873D01*
X101277684Y-84274979D01*
X101501285Y-84182361D01*
X101501289Y-84182359D01*
X101505859Y-84180466D01*
X101720659Y-84048836D01*
X101724419Y-84045624D01*
X101724424Y-84045621D01*
X101908462Y-83888437D01*
X101912224Y-83885224D01*
X101927744Y-83867052D01*
X102072621Y-83697424D01*
X102072624Y-83697419D01*
X102075836Y-83693659D01*
X102207466Y-83478859D01*
X102303873Y-83246111D01*
X102362683Y-83001148D01*
X102382449Y-82750000D01*
X109331551Y-82750000D01*
X109351317Y-83001148D01*
X109410127Y-83246111D01*
X109506534Y-83478859D01*
X109638164Y-83693659D01*
X109641376Y-83697419D01*
X109641379Y-83697424D01*
X109786256Y-83867052D01*
X109801776Y-83885224D01*
X109805538Y-83888437D01*
X109989576Y-84045621D01*
X109989581Y-84045624D01*
X109993341Y-84048836D01*
X110208141Y-84180466D01*
X110212711Y-84182359D01*
X110212715Y-84182361D01*
X110436316Y-84274979D01*
X110440889Y-84276873D01*
X110525289Y-84297135D01*
X110681039Y-84334528D01*
X110681045Y-84334529D01*
X110685852Y-84335683D01*
X110937000Y-84355449D01*
X111188148Y-84335683D01*
X111192955Y-84334529D01*
X111192961Y-84334528D01*
X111348711Y-84297135D01*
X111433111Y-84276873D01*
X111437684Y-84274979D01*
X111661285Y-84182361D01*
X111661289Y-84182359D01*
X111665859Y-84180466D01*
X111880659Y-84048836D01*
X111884419Y-84045624D01*
X111884424Y-84045621D01*
X112068462Y-83888437D01*
X112072224Y-83885224D01*
X112087744Y-83867052D01*
X112232621Y-83697424D01*
X112232624Y-83697419D01*
X112235836Y-83693659D01*
X112367466Y-83478859D01*
X112463873Y-83246111D01*
X112522683Y-83001148D01*
X112542449Y-82750000D01*
X112522683Y-82498852D01*
X112463873Y-82253889D01*
X112367466Y-82021141D01*
X112235836Y-81806341D01*
X112232624Y-81802581D01*
X112232621Y-81802576D01*
X112075437Y-81618538D01*
X112072224Y-81614776D01*
X112054052Y-81599256D01*
X111884424Y-81454379D01*
X111884419Y-81454376D01*
X111880659Y-81451164D01*
X111665859Y-81319534D01*
X111661289Y-81317641D01*
X111661285Y-81317639D01*
X111437684Y-81225021D01*
X111437682Y-81225020D01*
X111433111Y-81223127D01*
X111348711Y-81202865D01*
X111192961Y-81165472D01*
X111192955Y-81165471D01*
X111188148Y-81164317D01*
X110937000Y-81144551D01*
X110685852Y-81164317D01*
X110681045Y-81165471D01*
X110681039Y-81165472D01*
X110525289Y-81202865D01*
X110440889Y-81223127D01*
X110436318Y-81225020D01*
X110436316Y-81225021D01*
X110212715Y-81317639D01*
X110212711Y-81317641D01*
X110208141Y-81319534D01*
X109993341Y-81451164D01*
X109989581Y-81454376D01*
X109989576Y-81454379D01*
X109819948Y-81599256D01*
X109801776Y-81614776D01*
X109798563Y-81618538D01*
X109641379Y-81802576D01*
X109641376Y-81802581D01*
X109638164Y-81806341D01*
X109506534Y-82021141D01*
X109410127Y-82253889D01*
X109351317Y-82498852D01*
X109331551Y-82750000D01*
X102382449Y-82750000D01*
X102362683Y-82498852D01*
X102303873Y-82253889D01*
X102207466Y-82021141D01*
X102075836Y-81806341D01*
X102072624Y-81802581D01*
X102072621Y-81802576D01*
X101915437Y-81618538D01*
X101912224Y-81614776D01*
X101894052Y-81599256D01*
X101724424Y-81454379D01*
X101724419Y-81454376D01*
X101720659Y-81451164D01*
X101505859Y-81319534D01*
X101501289Y-81317641D01*
X101501285Y-81317639D01*
X101277684Y-81225021D01*
X101277682Y-81225020D01*
X101273111Y-81223127D01*
X101188711Y-81202865D01*
X101032961Y-81165472D01*
X101032955Y-81165471D01*
X101028148Y-81164317D01*
X100777000Y-81144551D01*
X100525852Y-81164317D01*
X100521045Y-81165471D01*
X100521039Y-81165472D01*
X100365289Y-81202865D01*
X100280889Y-81223127D01*
X100276318Y-81225020D01*
X100276316Y-81225021D01*
X100052715Y-81317639D01*
X100052711Y-81317641D01*
X100048141Y-81319534D01*
X99833341Y-81451164D01*
X99829581Y-81454376D01*
X99829576Y-81454379D01*
X99659948Y-81599256D01*
X99641776Y-81614776D01*
X99638563Y-81618538D01*
X99481379Y-81802576D01*
X99481376Y-81802581D01*
X99478164Y-81806341D01*
X99346534Y-82021141D01*
X99250127Y-82253889D01*
X99191317Y-82498852D01*
X99171551Y-82750000D01*
X95046976Y-82750000D01*
X95047799Y-76080000D01*
X128794551Y-76080000D01*
X128814317Y-76331148D01*
X128815471Y-76335955D01*
X128815472Y-76335961D01*
X128852865Y-76491711D01*
X128873127Y-76576111D01*
X128875020Y-76580682D01*
X128875021Y-76580684D01*
X128883809Y-76601899D01*
X128969534Y-76808859D01*
X129101164Y-77023659D01*
X129104376Y-77027419D01*
X129104379Y-77027424D01*
X129188311Y-77125695D01*
X129217342Y-77190484D01*
X129218500Y-77207525D01*
X129218500Y-93355915D01*
X129218230Y-93364154D01*
X129213845Y-93431061D01*
X129215591Y-93445811D01*
X129224596Y-93521903D01*
X129224940Y-93525182D01*
X129233307Y-93616234D01*
X129234876Y-93621795D01*
X129235008Y-93622510D01*
X129238539Y-93640263D01*
X129238688Y-93640966D01*
X129239367Y-93646700D01*
X129241079Y-93652214D01*
X129241080Y-93652218D01*
X129266488Y-93734042D01*
X129267425Y-93737206D01*
X129292249Y-93825226D01*
X129294807Y-93830413D01*
X129295070Y-93831098D01*
X129301755Y-93847856D01*
X129302048Y-93848563D01*
X129303760Y-93854077D01*
X129306451Y-93859191D01*
X129306451Y-93859192D01*
X129346350Y-93935030D01*
X129347839Y-93937953D01*
X129388290Y-94019977D01*
X129391747Y-94024607D01*
X129392091Y-94025168D01*
X129401871Y-94040668D01*
X129402177Y-94041140D01*
X129404865Y-94046248D01*
X129408438Y-94050780D01*
X129461491Y-94118077D01*
X129463488Y-94120679D01*
X129518213Y-94193965D01*
X129580680Y-94251709D01*
X129584246Y-94255139D01*
X130753361Y-95424254D01*
X130758998Y-95430271D01*
X130803225Y-95480702D01*
X130875131Y-95537388D01*
X130877543Y-95539341D01*
X130947924Y-95597877D01*
X130952960Y-95600697D01*
X130953460Y-95601041D01*
X130968683Y-95611213D01*
X130969216Y-95611559D01*
X130973752Y-95615135D01*
X131054669Y-95657708D01*
X131057565Y-95659281D01*
X131132342Y-95701157D01*
X131132346Y-95701159D01*
X131137382Y-95703979D01*
X131142851Y-95705836D01*
X131143470Y-95706111D01*
X131160164Y-95713283D01*
X131160811Y-95713551D01*
X131165922Y-95716240D01*
X131171439Y-95717953D01*
X131171446Y-95717956D01*
X131253285Y-95743368D01*
X131256422Y-95744387D01*
X131277250Y-95751457D01*
X131343003Y-95773777D01*
X131348727Y-95774607D01*
X131349444Y-95774779D01*
X131367156Y-95778787D01*
X131367788Y-95778921D01*
X131373300Y-95780633D01*
X131464139Y-95791384D01*
X131467397Y-95791813D01*
X131483392Y-95794132D01*
X131552188Y-95804108D01*
X131552192Y-95804108D01*
X131557901Y-95804936D01*
X131642885Y-95801597D01*
X131647832Y-95801500D01*
X132004660Y-95801500D01*
X132072781Y-95821502D01*
X132119274Y-95875158D01*
X132129378Y-95945432D01*
X132099884Y-96010012D01*
X132091914Y-96017927D01*
X132092044Y-96018057D01*
X132088540Y-96021561D01*
X132084776Y-96024776D01*
X132081563Y-96028538D01*
X132081558Y-96028543D01*
X131924379Y-96212576D01*
X131924376Y-96212581D01*
X131921164Y-96216341D01*
X131789534Y-96431141D01*
X131787641Y-96435711D01*
X131787639Y-96435715D01*
X131705035Y-96635140D01*
X131693127Y-96663889D01*
X131691972Y-96668701D01*
X131643393Y-96871048D01*
X131634317Y-96908852D01*
X131614551Y-97160000D01*
X131634317Y-97411148D01*
X131635471Y-97415955D01*
X131635472Y-97415961D01*
X131672865Y-97571711D01*
X131693127Y-97656111D01*
X131695020Y-97660682D01*
X131695021Y-97660684D01*
X131786874Y-97882436D01*
X131789534Y-97888859D01*
X131921164Y-98103659D01*
X131924376Y-98107419D01*
X131924379Y-98107424D01*
X132041006Y-98243976D01*
X132084776Y-98295224D01*
X132088538Y-98298437D01*
X132272576Y-98455621D01*
X132272581Y-98455624D01*
X132276341Y-98458836D01*
X132491141Y-98590466D01*
X132495711Y-98592359D01*
X132495715Y-98592361D01*
X132719316Y-98684979D01*
X132723889Y-98686873D01*
X132808289Y-98707135D01*
X132964039Y-98744528D01*
X132964045Y-98744529D01*
X132968852Y-98745683D01*
X133056435Y-98752576D01*
X133154661Y-98760307D01*
X133154670Y-98760307D01*
X133157118Y-98760500D01*
X134082882Y-98760500D01*
X134085330Y-98760307D01*
X134085339Y-98760307D01*
X134183565Y-98752576D01*
X134271148Y-98745683D01*
X134275955Y-98744529D01*
X134275961Y-98744528D01*
X134431711Y-98707135D01*
X134516111Y-98686873D01*
X134520684Y-98684979D01*
X134744285Y-98592361D01*
X134744289Y-98592359D01*
X134748859Y-98590466D01*
X134963659Y-98458836D01*
X134967419Y-98455624D01*
X134967424Y-98455621D01*
X135151462Y-98298437D01*
X135155224Y-98295224D01*
X135198994Y-98243976D01*
X135315621Y-98107424D01*
X135315624Y-98107419D01*
X135318836Y-98103659D01*
X135450466Y-97888859D01*
X135453127Y-97882436D01*
X135544979Y-97660684D01*
X135544980Y-97660682D01*
X135546873Y-97656111D01*
X135567135Y-97571711D01*
X135604528Y-97415961D01*
X135604529Y-97415955D01*
X135605683Y-97411148D01*
X135625449Y-97160000D01*
X135605683Y-96908852D01*
X135596608Y-96871048D01*
X135548028Y-96668701D01*
X135546873Y-96663889D01*
X135534965Y-96635140D01*
X135452361Y-96435715D01*
X135452359Y-96435711D01*
X135450466Y-96431141D01*
X135318836Y-96216341D01*
X135315624Y-96212581D01*
X135315621Y-96212576D01*
X135158442Y-96028543D01*
X135158437Y-96028538D01*
X135155224Y-96024776D01*
X135109602Y-95985811D01*
X135070793Y-95926360D01*
X135070287Y-95855366D01*
X135109602Y-95794189D01*
X135151460Y-95758439D01*
X135151462Y-95758437D01*
X135155224Y-95755224D01*
X135158437Y-95751462D01*
X135158442Y-95751457D01*
X135315621Y-95567424D01*
X135315624Y-95567419D01*
X135318836Y-95563659D01*
X135450466Y-95348859D01*
X135524461Y-95170220D01*
X135544979Y-95120684D01*
X135544980Y-95120682D01*
X135546873Y-95116111D01*
X135591420Y-94930559D01*
X135604528Y-94875961D01*
X135604529Y-94875955D01*
X135605683Y-94871148D01*
X135625449Y-94620000D01*
X135605683Y-94368852D01*
X135603613Y-94360226D01*
X135563697Y-94193965D01*
X135546873Y-94123889D01*
X135533928Y-94092636D01*
X135452361Y-93895715D01*
X135452359Y-93895711D01*
X135450466Y-93891141D01*
X135318836Y-93676341D01*
X135315624Y-93672581D01*
X135315621Y-93672576D01*
X135158437Y-93488538D01*
X135155224Y-93484776D01*
X135028421Y-93376476D01*
X134967424Y-93324379D01*
X134967419Y-93324376D01*
X134963659Y-93321164D01*
X134748859Y-93189534D01*
X134744289Y-93187641D01*
X134744285Y-93187639D01*
X134520684Y-93095021D01*
X134520682Y-93095020D01*
X134516111Y-93093127D01*
X134431711Y-93072865D01*
X134275961Y-93035472D01*
X134275955Y-93035471D01*
X134271148Y-93034317D01*
X134182851Y-93027368D01*
X134085339Y-93019693D01*
X134085330Y-93019693D01*
X134082882Y-93019500D01*
X133157118Y-93019500D01*
X133154670Y-93019693D01*
X133154661Y-93019693D01*
X133057149Y-93027368D01*
X132968852Y-93034317D01*
X132964045Y-93035471D01*
X132964039Y-93035472D01*
X132808289Y-93072865D01*
X132723889Y-93093127D01*
X132719318Y-93095020D01*
X132719316Y-93095021D01*
X132495715Y-93187639D01*
X132495711Y-93187641D01*
X132491141Y-93189534D01*
X132276341Y-93321164D01*
X132272581Y-93324376D01*
X132272576Y-93324379D01*
X132211579Y-93376476D01*
X132146790Y-93405507D01*
X132076590Y-93394902D01*
X132040654Y-93369760D01*
X131618405Y-92947511D01*
X131584379Y-92885199D01*
X131581500Y-92858416D01*
X131581500Y-90376141D01*
X131601502Y-90308020D01*
X131655158Y-90261527D01*
X131725432Y-90251423D01*
X131790012Y-90280917D01*
X131814932Y-90310305D01*
X131921164Y-90483659D01*
X131924376Y-90487419D01*
X131924379Y-90487424D01*
X132069256Y-90657052D01*
X132084776Y-90675224D01*
X132088538Y-90678437D01*
X132272576Y-90835621D01*
X132272581Y-90835624D01*
X132276341Y-90838836D01*
X132491141Y-90970466D01*
X132495711Y-90972359D01*
X132495715Y-90972361D01*
X132719316Y-91064979D01*
X132723889Y-91066873D01*
X132797428Y-91084528D01*
X132964039Y-91124528D01*
X132964045Y-91124529D01*
X132968852Y-91125683D01*
X133056435Y-91132576D01*
X133154661Y-91140307D01*
X133154670Y-91140307D01*
X133157118Y-91140500D01*
X134082882Y-91140500D01*
X134085330Y-91140307D01*
X134085339Y-91140307D01*
X134183565Y-91132576D01*
X134271148Y-91125683D01*
X134275955Y-91124529D01*
X134275961Y-91124528D01*
X134442572Y-91084528D01*
X134516111Y-91066873D01*
X134520684Y-91064979D01*
X134744285Y-90972361D01*
X134744289Y-90972359D01*
X134748859Y-90970466D01*
X134963659Y-90838836D01*
X134967419Y-90835624D01*
X134967424Y-90835621D01*
X135151462Y-90678437D01*
X135155224Y-90675224D01*
X135170744Y-90657052D01*
X135315621Y-90487424D01*
X135315624Y-90487419D01*
X135318836Y-90483659D01*
X135450466Y-90268859D01*
X135455783Y-90256024D01*
X135544979Y-90040684D01*
X135544980Y-90040682D01*
X135546873Y-90036111D01*
X135605683Y-89791148D01*
X135625449Y-89540000D01*
X135605683Y-89288852D01*
X135597265Y-89253786D01*
X135548028Y-89048701D01*
X135546873Y-89043889D01*
X135530305Y-89003889D01*
X135452361Y-88815715D01*
X135452359Y-88815711D01*
X135450466Y-88811141D01*
X135337829Y-88627334D01*
X135319291Y-88558802D01*
X135340747Y-88491125D01*
X135395386Y-88445792D01*
X135445262Y-88435500D01*
X137300226Y-88435500D01*
X137368347Y-88455502D01*
X137414840Y-88509158D01*
X137424944Y-88579432D01*
X137407658Y-88627335D01*
X137322125Y-88766911D01*
X137322119Y-88766922D01*
X137319534Y-88771141D01*
X137317641Y-88775711D01*
X137317639Y-88775715D01*
X137225021Y-88999316D01*
X137223127Y-89003889D01*
X137221972Y-89008701D01*
X137189240Y-89145041D01*
X137164317Y-89248852D01*
X137144551Y-89500000D01*
X137164317Y-89751148D01*
X137165471Y-89755955D01*
X137165472Y-89755961D01*
X137202865Y-89911711D01*
X137223127Y-89996111D01*
X137225020Y-90000682D01*
X137225021Y-90000684D01*
X137245699Y-90050604D01*
X137319534Y-90228859D01*
X137451164Y-90443659D01*
X137454376Y-90447419D01*
X137454379Y-90447424D01*
X137583850Y-90599014D01*
X137614776Y-90635224D01*
X137618538Y-90638437D01*
X137802576Y-90795621D01*
X137802581Y-90795624D01*
X137806341Y-90798836D01*
X138021141Y-90930466D01*
X138025711Y-90932359D01*
X138025715Y-90932361D01*
X138249316Y-91024979D01*
X138253889Y-91026873D01*
X138338289Y-91047135D01*
X138494039Y-91084528D01*
X138494045Y-91084529D01*
X138498852Y-91085683D01*
X138750000Y-91105449D01*
X139001148Y-91085683D01*
X139005955Y-91084529D01*
X139005961Y-91084528D01*
X139161711Y-91047135D01*
X139246111Y-91026873D01*
X139250684Y-91024979D01*
X139474285Y-90932361D01*
X139474289Y-90932359D01*
X139478859Y-90930466D01*
X139693659Y-90798836D01*
X139697419Y-90795624D01*
X139697424Y-90795621D01*
X139881462Y-90638437D01*
X139885224Y-90635224D01*
X139916150Y-90599014D01*
X140045621Y-90447424D01*
X140045624Y-90447419D01*
X140048836Y-90443659D01*
X140180466Y-90228859D01*
X140254302Y-90050604D01*
X140274979Y-90000684D01*
X140274980Y-90000682D01*
X140276873Y-89996111D01*
X140297135Y-89911711D01*
X140334528Y-89755961D01*
X140334529Y-89755955D01*
X140335683Y-89751148D01*
X140355449Y-89500000D01*
X140335683Y-89248852D01*
X140310761Y-89145041D01*
X140278028Y-89008701D01*
X140276873Y-89003889D01*
X140274979Y-88999316D01*
X140182361Y-88775715D01*
X140182359Y-88775711D01*
X140180466Y-88771141D01*
X140177881Y-88766922D01*
X140177875Y-88766911D01*
X140092342Y-88627335D01*
X140073803Y-88558802D01*
X140095259Y-88491125D01*
X140149898Y-88445792D01*
X140199774Y-88435500D01*
X142353207Y-88435500D01*
X142421328Y-88455502D01*
X142442302Y-88472405D01*
X143327595Y-89357698D01*
X143361621Y-89420010D01*
X143364500Y-89446793D01*
X143364500Y-103093895D01*
X143363243Y-103111648D01*
X143362115Y-103119574D01*
X143362232Y-103124737D01*
X143362232Y-103124739D01*
X143364468Y-103223269D01*
X143364500Y-103226127D01*
X143364500Y-103264842D01*
X143365453Y-103276434D01*
X143365843Y-103283872D01*
X143367470Y-103355565D01*
X143368429Y-103360638D01*
X143368429Y-103360642D01*
X143374191Y-103391136D01*
X143375958Y-103404206D01*
X143378922Y-103440258D01*
X143380183Y-103445277D01*
X143380183Y-103445279D01*
X143396382Y-103509770D01*
X143397987Y-103517070D01*
X143411297Y-103587512D01*
X143413075Y-103592369D01*
X143413077Y-103592378D01*
X143423733Y-103621495D01*
X143427612Y-103634102D01*
X143436427Y-103669198D01*
X143438486Y-103673934D01*
X143438488Y-103673939D01*
X143465019Y-103734956D01*
X143467793Y-103741892D01*
X143492420Y-103809187D01*
X143505653Y-103832576D01*
X143510232Y-103840670D01*
X143516116Y-103852472D01*
X143528489Y-103880928D01*
X143528496Y-103880940D01*
X143530553Y-103885672D01*
X143569496Y-103945869D01*
X143573361Y-103952251D01*
X143606107Y-104010130D01*
X143606111Y-104010135D01*
X143608657Y-104014636D01*
X143611902Y-104018657D01*
X143611907Y-104018665D01*
X143631378Y-104042794D01*
X143639104Y-104053466D01*
X143658770Y-104083865D01*
X143662249Y-104087688D01*
X143662251Y-104087691D01*
X143707019Y-104136889D01*
X143711863Y-104142541D01*
X143730355Y-104165458D01*
X143757770Y-104192873D01*
X143761868Y-104197168D01*
X143817636Y-104258456D01*
X143821687Y-104261655D01*
X143821691Y-104261659D01*
X143839044Y-104275363D01*
X143850047Y-104285150D01*
X149780437Y-110215540D01*
X149807751Y-110256417D01*
X149886869Y-110447424D01*
X149889534Y-110453859D01*
X150021164Y-110668659D01*
X150024376Y-110672419D01*
X150024379Y-110672424D01*
X150181558Y-110856457D01*
X150181563Y-110856462D01*
X150184776Y-110860224D01*
X150188538Y-110863437D01*
X150188540Y-110863439D01*
X150230398Y-110899189D01*
X150269207Y-110958640D01*
X150269713Y-111029634D01*
X150230398Y-111090811D01*
X150184776Y-111129776D01*
X150181563Y-111133538D01*
X150181558Y-111133543D01*
X150024379Y-111317576D01*
X150024376Y-111317581D01*
X150021164Y-111321341D01*
X149889534Y-111536141D01*
X149887641Y-111540711D01*
X149887639Y-111540715D01*
X149795021Y-111764316D01*
X149793127Y-111768889D01*
X149791972Y-111773701D01*
X149744189Y-111972733D01*
X149734317Y-112013852D01*
X149714551Y-112265000D01*
X149734317Y-112516148D01*
X149735471Y-112520955D01*
X149735472Y-112520961D01*
X149746589Y-112567267D01*
X149793127Y-112761111D01*
X149795020Y-112765682D01*
X149795021Y-112765684D01*
X149887269Y-112988390D01*
X149889534Y-112993859D01*
X150021164Y-113208659D01*
X150024376Y-113212419D01*
X150024379Y-113212424D01*
X150169256Y-113382052D01*
X150184776Y-113400224D01*
X150188538Y-113403437D01*
X150372576Y-113560621D01*
X150372581Y-113560624D01*
X150376341Y-113563836D01*
X150591141Y-113695466D01*
X150595711Y-113697359D01*
X150595715Y-113697361D01*
X150756131Y-113763807D01*
X150823889Y-113791873D01*
X150908289Y-113812135D01*
X151064039Y-113849528D01*
X151064045Y-113849529D01*
X151068852Y-113850683D01*
X151320000Y-113870449D01*
X151571148Y-113850683D01*
X151575955Y-113849529D01*
X151575961Y-113849528D01*
X151731711Y-113812135D01*
X151816111Y-113791873D01*
X151883869Y-113763807D01*
X152044285Y-113697361D01*
X152044289Y-113697359D01*
X152048859Y-113695466D01*
X152263659Y-113563836D01*
X152267419Y-113560624D01*
X152267424Y-113560621D01*
X152451462Y-113403437D01*
X152455224Y-113400224D01*
X152470744Y-113382052D01*
X152615621Y-113212424D01*
X152615624Y-113212419D01*
X152618836Y-113208659D01*
X152750466Y-112993859D01*
X152752732Y-112988390D01*
X152844979Y-112765684D01*
X152844980Y-112765682D01*
X152846873Y-112761111D01*
X152893411Y-112567267D01*
X152904528Y-112520961D01*
X152904529Y-112520955D01*
X152905683Y-112516148D01*
X152925449Y-112265000D01*
X152905683Y-112013852D01*
X152895812Y-111972733D01*
X152848028Y-111773701D01*
X152846873Y-111768889D01*
X152844979Y-111764316D01*
X152752361Y-111540715D01*
X152752359Y-111540711D01*
X152750466Y-111536141D01*
X152618836Y-111321341D01*
X152615624Y-111317581D01*
X152615621Y-111317576D01*
X152458442Y-111133543D01*
X152458437Y-111133538D01*
X152455224Y-111129776D01*
X152409602Y-111090811D01*
X152370793Y-111031360D01*
X152370412Y-110977953D01*
X177894707Y-110977953D01*
X177911194Y-111263878D01*
X177912019Y-111268083D01*
X177912020Y-111268091D01*
X177943853Y-111430342D01*
X177966332Y-111544920D01*
X177967719Y-111548970D01*
X177967720Y-111548975D01*
X178057713Y-111811822D01*
X178059102Y-111815878D01*
X178187787Y-112071740D01*
X178190213Y-112075269D01*
X178190216Y-112075275D01*
X178251057Y-112163799D01*
X178350006Y-112307770D01*
X178542756Y-112519600D01*
X178762472Y-112703311D01*
X179005088Y-112855503D01*
X179008990Y-112857265D01*
X179008994Y-112857267D01*
X179262202Y-112971595D01*
X179262206Y-112971597D01*
X179266114Y-112973361D01*
X179270233Y-112974581D01*
X179536606Y-113053485D01*
X179536611Y-113053486D01*
X179540719Y-113054703D01*
X179544953Y-113055351D01*
X179544958Y-113055352D01*
X179792214Y-113093187D01*
X179823824Y-113098024D01*
X179969589Y-113100314D01*
X180105898Y-113102456D01*
X180105904Y-113102456D01*
X180110189Y-113102523D01*
X180114441Y-113102008D01*
X180114449Y-113102008D01*
X180334221Y-113075411D01*
X180394514Y-113068115D01*
X180398662Y-113067027D01*
X180398666Y-113067026D01*
X180667388Y-112996528D01*
X180671539Y-112995439D01*
X180675500Y-112993799D01*
X180675504Y-112993797D01*
X180818370Y-112934620D01*
X180936138Y-112885839D01*
X180985034Y-112857267D01*
X181179717Y-112743503D01*
X181179718Y-112743503D01*
X181183415Y-112741342D01*
X181408793Y-112564623D01*
X181451105Y-112520961D01*
X181605119Y-112362030D01*
X181608102Y-112358952D01*
X181610635Y-112355504D01*
X181610639Y-112355499D01*
X181775117Y-112131589D01*
X181777655Y-112128134D01*
X181788661Y-112107863D01*
X181912263Y-111880217D01*
X181912264Y-111880215D01*
X181914313Y-111876441D01*
X182015548Y-111608530D01*
X182079487Y-111329358D01*
X182104946Y-111044092D01*
X182105098Y-111029634D01*
X182105382Y-111002484D01*
X182105382Y-111002483D01*
X182105408Y-111000000D01*
X182091870Y-110801420D01*
X182086220Y-110718540D01*
X182086219Y-110718534D01*
X182085928Y-110714263D01*
X182027850Y-110433814D01*
X181932248Y-110163842D01*
X181835372Y-109976148D01*
X181802856Y-109913149D01*
X181802856Y-109913148D01*
X181800891Y-109909342D01*
X181798428Y-109905837D01*
X181638673Y-109678529D01*
X181638668Y-109678523D01*
X181636209Y-109675024D01*
X181452926Y-109477788D01*
X181444172Y-109468367D01*
X181444169Y-109468364D01*
X181441251Y-109465224D01*
X181437935Y-109462510D01*
X181437932Y-109462507D01*
X181222941Y-109286539D01*
X181219623Y-109283823D01*
X180975427Y-109134180D01*
X180957419Y-109126275D01*
X180717110Y-109020786D01*
X180717106Y-109020785D01*
X180713182Y-109019062D01*
X180437739Y-108940600D01*
X180227881Y-108910733D01*
X180158448Y-108900851D01*
X180158446Y-108900851D01*
X180154196Y-108900246D01*
X180002333Y-108899451D01*
X179872086Y-108898769D01*
X179872080Y-108898769D01*
X179867800Y-108898747D01*
X179863556Y-108899306D01*
X179863552Y-108899306D01*
X179739031Y-108915699D01*
X179583851Y-108936129D01*
X179579711Y-108937262D01*
X179579709Y-108937262D01*
X179563209Y-108941776D01*
X179307602Y-109011702D01*
X179303654Y-109013386D01*
X179048117Y-109122382D01*
X179048113Y-109122384D01*
X179044165Y-109124068D01*
X178798415Y-109271146D01*
X178574900Y-109450215D01*
X178433809Y-109598893D01*
X178381592Y-109653919D01*
X178377755Y-109657962D01*
X178210629Y-109890543D01*
X178076614Y-110143653D01*
X177978190Y-110412610D01*
X177917178Y-110692436D01*
X177908601Y-110801420D01*
X177897071Y-110947922D01*
X177894707Y-110977953D01*
X152370412Y-110977953D01*
X152370287Y-110960366D01*
X152409602Y-110899189D01*
X152451460Y-110863439D01*
X152451462Y-110863437D01*
X152455224Y-110860224D01*
X152458437Y-110856462D01*
X152458442Y-110856457D01*
X152615621Y-110672424D01*
X152615624Y-110672419D01*
X152618836Y-110668659D01*
X152750466Y-110453859D01*
X152753132Y-110447424D01*
X152844979Y-110225684D01*
X152844980Y-110225682D01*
X152846873Y-110221111D01*
X152886208Y-110057267D01*
X152904528Y-109980961D01*
X152904529Y-109980955D01*
X152905683Y-109976148D01*
X152925449Y-109725000D01*
X152905683Y-109473852D01*
X152904367Y-109468367D01*
X152857018Y-109271146D01*
X152846873Y-109228889D01*
X152808573Y-109136424D01*
X152752361Y-109000715D01*
X152752359Y-109000711D01*
X152750466Y-108996141D01*
X152618836Y-108781341D01*
X152615624Y-108777581D01*
X152615621Y-108777576D01*
X152458437Y-108593538D01*
X152455224Y-108589776D01*
X152416077Y-108556341D01*
X152267424Y-108429379D01*
X152267419Y-108429376D01*
X152263659Y-108426164D01*
X152048859Y-108294534D01*
X152044289Y-108292641D01*
X152044285Y-108292639D01*
X151851417Y-108212751D01*
X151810540Y-108185437D01*
X149717266Y-106092163D01*
X165789500Y-106092163D01*
X165789501Y-109467836D01*
X165789774Y-109472589D01*
X165830173Y-109647577D01*
X165835193Y-109657962D01*
X165882568Y-109755961D01*
X165908336Y-109809266D01*
X166020380Y-109949620D01*
X166160734Y-110061664D01*
X166322423Y-110139827D01*
X166329284Y-110141411D01*
X166492212Y-110179026D01*
X166492215Y-110179026D01*
X166497411Y-110180226D01*
X166502163Y-110180500D01*
X166503987Y-110180500D01*
X168204465Y-110180499D01*
X169877836Y-110180499D01*
X169882589Y-110180226D01*
X170057577Y-110139827D01*
X170219266Y-110061664D01*
X170359620Y-109949620D01*
X170471664Y-109809266D01*
X170497433Y-109755961D01*
X170544807Y-109657962D01*
X170549827Y-109647577D01*
X170585036Y-109495070D01*
X170589026Y-109477788D01*
X170589026Y-109477785D01*
X170590226Y-109472589D01*
X170590500Y-109467837D01*
X170590499Y-106092164D01*
X170590226Y-106087411D01*
X170549827Y-105912423D01*
X170471664Y-105750734D01*
X170359620Y-105610380D01*
X170219266Y-105498336D01*
X170210378Y-105494039D01*
X170063919Y-105423239D01*
X170063920Y-105423239D01*
X170057577Y-105420173D01*
X170050716Y-105418589D01*
X169887788Y-105380974D01*
X169887785Y-105380974D01*
X169882589Y-105379774D01*
X169877837Y-105379500D01*
X169876013Y-105379500D01*
X168175535Y-105379501D01*
X166502164Y-105379501D01*
X166497411Y-105379774D01*
X166322423Y-105420173D01*
X166316080Y-105423239D01*
X166316081Y-105423239D01*
X166169623Y-105494039D01*
X166160734Y-105498336D01*
X166020380Y-105610380D01*
X165908336Y-105750734D01*
X165830173Y-105912423D01*
X165828589Y-105919284D01*
X165791754Y-106078836D01*
X165789774Y-106087411D01*
X165789500Y-106092163D01*
X149717266Y-106092163D01*
X146272405Y-102647302D01*
X146238379Y-102584990D01*
X146235500Y-102558207D01*
X146235500Y-92000000D01*
X156591936Y-92000000D01*
X156611690Y-92502771D01*
X156611979Y-92505216D01*
X156611980Y-92505224D01*
X156630559Y-92662194D01*
X156670830Y-93002442D01*
X156677400Y-93035472D01*
X156766772Y-93484776D01*
X156768991Y-93495933D01*
X156769661Y-93498309D01*
X156769664Y-93498321D01*
X156893657Y-93937966D01*
X156905569Y-93980201D01*
X157079721Y-94452260D01*
X157080751Y-94454495D01*
X157080753Y-94454499D01*
X157182840Y-94675942D01*
X157290373Y-94909200D01*
X157291571Y-94911339D01*
X157291576Y-94911349D01*
X157432056Y-95162194D01*
X157536227Y-95348204D01*
X157537599Y-95350257D01*
X157537600Y-95350259D01*
X157808189Y-95755224D01*
X157815767Y-95766566D01*
X157897894Y-95870743D01*
X158096113Y-96122182D01*
X158127270Y-96161705D01*
X158128947Y-96163519D01*
X158128952Y-96163525D01*
X158380562Y-96435715D01*
X158468814Y-96531186D01*
X158470613Y-96532849D01*
X158819709Y-96855549D01*
X158838295Y-96872730D01*
X159233434Y-97184233D01*
X159235495Y-97185610D01*
X159235499Y-97185613D01*
X159649741Y-97462400D01*
X159651796Y-97463773D01*
X159653944Y-97464976D01*
X159653949Y-97464979D01*
X160088651Y-97708424D01*
X160088661Y-97708429D01*
X160090800Y-97709627D01*
X160093041Y-97710660D01*
X160497856Y-97897282D01*
X160547740Y-97920279D01*
X161019799Y-98094431D01*
X161022183Y-98095103D01*
X161022188Y-98095105D01*
X161501679Y-98230336D01*
X161501691Y-98230339D01*
X161504067Y-98231009D01*
X161506487Y-98231490D01*
X161506498Y-98231493D01*
X161807961Y-98291457D01*
X161997558Y-98329170D01*
X162193708Y-98352386D01*
X162494776Y-98388020D01*
X162494784Y-98388021D01*
X162497229Y-98388310D01*
X163000000Y-98408064D01*
X163502771Y-98388310D01*
X163505216Y-98388021D01*
X163505224Y-98388020D01*
X163806292Y-98352386D01*
X164002442Y-98329170D01*
X164192039Y-98291457D01*
X164493502Y-98231493D01*
X164493513Y-98231490D01*
X164495933Y-98231009D01*
X164498309Y-98230339D01*
X164498321Y-98230336D01*
X164977812Y-98095105D01*
X164977817Y-98095103D01*
X164980201Y-98094431D01*
X165452260Y-97920279D01*
X165502145Y-97897282D01*
X165906959Y-97710660D01*
X165909200Y-97709627D01*
X165911339Y-97708429D01*
X165911349Y-97708424D01*
X166346051Y-97464979D01*
X166346056Y-97464976D01*
X166348204Y-97463773D01*
X166350259Y-97462400D01*
X166764501Y-97185613D01*
X166764505Y-97185610D01*
X166766566Y-97184233D01*
X167161705Y-96872730D01*
X167180292Y-96855549D01*
X167529387Y-96532849D01*
X167531186Y-96531186D01*
X167619438Y-96435715D01*
X167871048Y-96163525D01*
X167871053Y-96163519D01*
X167872730Y-96161705D01*
X167903888Y-96122182D01*
X168102106Y-95870743D01*
X168184233Y-95766566D01*
X168191812Y-95755224D01*
X168462400Y-95350259D01*
X168462401Y-95350257D01*
X168463773Y-95348204D01*
X168567944Y-95162194D01*
X168708424Y-94911349D01*
X168708429Y-94911339D01*
X168709627Y-94909200D01*
X168817160Y-94675942D01*
X168919247Y-94454499D01*
X168919249Y-94454495D01*
X168920279Y-94452260D01*
X169094431Y-93980201D01*
X169106343Y-93937966D01*
X169230336Y-93498321D01*
X169230339Y-93498309D01*
X169231009Y-93495933D01*
X169233229Y-93484776D01*
X169322600Y-93035472D01*
X169329170Y-93002442D01*
X169369441Y-92662194D01*
X169388020Y-92505224D01*
X169388021Y-92505216D01*
X169388310Y-92502771D01*
X169408064Y-92000000D01*
X169388310Y-91497229D01*
X169373797Y-91374605D01*
X169345150Y-91132576D01*
X169329170Y-90997558D01*
X169289002Y-90795621D01*
X169231493Y-90506498D01*
X169231490Y-90506487D01*
X169231009Y-90504067D01*
X169226316Y-90487424D01*
X169095105Y-90022188D01*
X169095103Y-90022183D01*
X169094431Y-90019799D01*
X168920279Y-89547740D01*
X168900544Y-89504930D01*
X168710660Y-89093041D01*
X168709627Y-89090800D01*
X168686051Y-89048701D01*
X168464979Y-88653949D01*
X168464976Y-88653944D01*
X168463773Y-88651796D01*
X168462400Y-88649741D01*
X168185613Y-88235499D01*
X168185610Y-88235495D01*
X168184233Y-88233434D01*
X167958761Y-87947424D01*
X167874266Y-87840243D01*
X167874262Y-87840238D01*
X167872730Y-87838295D01*
X167853140Y-87817102D01*
X167532849Y-87470613D01*
X167531186Y-87468814D01*
X167265395Y-87223120D01*
X167163525Y-87128952D01*
X167163519Y-87128947D01*
X167161705Y-87127270D01*
X166766566Y-86815767D01*
X166666421Y-86748852D01*
X166350259Y-86537600D01*
X166350257Y-86537599D01*
X166348204Y-86536227D01*
X166346051Y-86535021D01*
X165911349Y-86291576D01*
X165911339Y-86291571D01*
X165909200Y-86290373D01*
X165526524Y-86113957D01*
X165454499Y-86080753D01*
X165454495Y-86080751D01*
X165452260Y-86079721D01*
X164980201Y-85905569D01*
X164977817Y-85904897D01*
X164977812Y-85904895D01*
X164498321Y-85769664D01*
X164498309Y-85769661D01*
X164495933Y-85768991D01*
X164493513Y-85768510D01*
X164493502Y-85768507D01*
X164141951Y-85698580D01*
X164002442Y-85670830D01*
X163799388Y-85646797D01*
X163505224Y-85611980D01*
X163505216Y-85611979D01*
X163502771Y-85611690D01*
X163000000Y-85591936D01*
X162497229Y-85611690D01*
X162494784Y-85611979D01*
X162494776Y-85611980D01*
X162200612Y-85646797D01*
X161997558Y-85670830D01*
X161858049Y-85698580D01*
X161506498Y-85768507D01*
X161506487Y-85768510D01*
X161504067Y-85768991D01*
X161501691Y-85769661D01*
X161501679Y-85769664D01*
X161022188Y-85904895D01*
X161022183Y-85904897D01*
X161019799Y-85905569D01*
X160547740Y-86079721D01*
X160545505Y-86080751D01*
X160545501Y-86080753D01*
X160473476Y-86113957D01*
X160090800Y-86290373D01*
X160088661Y-86291571D01*
X160088651Y-86291576D01*
X159653949Y-86535021D01*
X159651796Y-86536227D01*
X159649743Y-86537599D01*
X159649741Y-86537600D01*
X159333580Y-86748852D01*
X159233434Y-86815767D01*
X158838295Y-87127270D01*
X158836481Y-87128947D01*
X158836475Y-87128952D01*
X158734605Y-87223120D01*
X158468814Y-87468814D01*
X158467151Y-87470613D01*
X158146861Y-87817102D01*
X158127270Y-87838295D01*
X158125738Y-87840238D01*
X158125734Y-87840243D01*
X158041239Y-87947424D01*
X157815767Y-88233434D01*
X157814390Y-88235495D01*
X157814387Y-88235499D01*
X157537600Y-88649741D01*
X157536227Y-88651796D01*
X157535024Y-88653944D01*
X157535021Y-88653949D01*
X157313950Y-89048701D01*
X157290373Y-89090800D01*
X157289340Y-89093041D01*
X157099457Y-89504930D01*
X157079721Y-89547740D01*
X156905569Y-90019799D01*
X156904897Y-90022183D01*
X156904895Y-90022188D01*
X156773685Y-90487424D01*
X156768991Y-90504067D01*
X156768510Y-90506487D01*
X156768507Y-90506498D01*
X156710998Y-90795621D01*
X156670830Y-90997558D01*
X156654850Y-91132576D01*
X156626204Y-91374605D01*
X156611690Y-91497229D01*
X156591936Y-92000000D01*
X146235500Y-92000000D01*
X146235500Y-88911097D01*
X146236757Y-88893344D01*
X146237156Y-88890543D01*
X146237156Y-88890538D01*
X146237884Y-88885425D01*
X146237067Y-88849396D01*
X146235532Y-88781774D01*
X146235500Y-88778916D01*
X146235500Y-88740158D01*
X146234547Y-88728563D01*
X146234156Y-88721109D01*
X146232646Y-88654597D01*
X146232529Y-88649435D01*
X146231571Y-88644363D01*
X146231570Y-88644357D01*
X146225810Y-88613875D01*
X146224043Y-88600806D01*
X146223037Y-88588576D01*
X146221078Y-88564742D01*
X146218968Y-88556341D01*
X146203613Y-88495209D01*
X146202008Y-88487908D01*
X146189662Y-88422567D01*
X146189662Y-88422565D01*
X146188702Y-88417487D01*
X146176268Y-88383510D01*
X146172389Y-88370902D01*
X146164834Y-88340821D01*
X146164833Y-88340817D01*
X146163573Y-88335802D01*
X146134986Y-88270057D01*
X146132212Y-88263122D01*
X146121423Y-88233640D01*
X146107580Y-88195812D01*
X146089755Y-88164307D01*
X146083884Y-88152529D01*
X146069447Y-88119328D01*
X146066642Y-88114992D01*
X146066636Y-88114981D01*
X146030505Y-88059133D01*
X146026644Y-88052759D01*
X145991343Y-87990364D01*
X145988096Y-87986340D01*
X145988092Y-87986334D01*
X145968622Y-87962206D01*
X145960896Y-87951534D01*
X145941230Y-87921135D01*
X145892975Y-87868104D01*
X145888137Y-87862459D01*
X145869645Y-87839542D01*
X145842230Y-87812127D01*
X145838132Y-87807832D01*
X145785842Y-87750366D01*
X145785840Y-87750365D01*
X145782364Y-87746544D01*
X145778313Y-87743345D01*
X145778309Y-87743341D01*
X145760956Y-87729637D01*
X145749953Y-87719850D01*
X144093620Y-86063517D01*
X144081955Y-86050075D01*
X144080247Y-86047800D01*
X144080242Y-86047794D01*
X144077143Y-86043667D01*
X144002147Y-85971999D01*
X144000103Y-85970000D01*
X143972737Y-85942634D01*
X143963853Y-85935100D01*
X143958323Y-85930119D01*
X143906486Y-85880583D01*
X143898451Y-85875102D01*
X143876580Y-85860182D01*
X143866090Y-85852191D01*
X143842445Y-85832139D01*
X143838501Y-85828794D01*
X143777009Y-85791991D01*
X143770712Y-85787964D01*
X143715750Y-85750472D01*
X143711484Y-85747562D01*
X143706800Y-85745388D01*
X143706797Y-85745386D01*
X143678659Y-85732325D01*
X143667004Y-85726154D01*
X143640393Y-85710227D01*
X143640387Y-85710224D01*
X143635954Y-85707571D01*
X143569258Y-85681299D01*
X143562392Y-85678356D01*
X143502069Y-85650354D01*
X143502055Y-85650349D01*
X143497374Y-85648176D01*
X143462492Y-85638502D01*
X143450003Y-85634323D01*
X143421143Y-85622954D01*
X143421132Y-85622951D01*
X143416327Y-85621058D01*
X143346232Y-85606031D01*
X143338974Y-85604248D01*
X143313352Y-85597142D01*
X143269908Y-85585094D01*
X143264776Y-85584546D01*
X143264773Y-85584545D01*
X143247913Y-85582743D01*
X143233925Y-85581248D01*
X143220903Y-85579162D01*
X143190581Y-85572661D01*
X143190569Y-85572659D01*
X143185520Y-85571577D01*
X143180361Y-85571334D01*
X143180355Y-85571333D01*
X143113921Y-85568201D01*
X143106464Y-85567627D01*
X143101696Y-85567117D01*
X143077207Y-85564500D01*
X143038411Y-85564500D01*
X143032476Y-85564360D01*
X142954890Y-85560701D01*
X142954886Y-85560701D01*
X142949730Y-85560458D01*
X142944599Y-85561061D01*
X142944592Y-85561061D01*
X142922644Y-85563639D01*
X142907943Y-85564500D01*
X134761769Y-85564500D01*
X134713551Y-85554909D01*
X134520684Y-85475021D01*
X134520682Y-85475020D01*
X134516111Y-85473127D01*
X134378847Y-85440173D01*
X134275961Y-85415472D01*
X134275955Y-85415471D01*
X134271148Y-85414317D01*
X134182851Y-85407368D01*
X134085339Y-85399693D01*
X134085330Y-85399693D01*
X134082882Y-85399500D01*
X133157118Y-85399500D01*
X133154670Y-85399693D01*
X133154661Y-85399693D01*
X133057149Y-85407368D01*
X132968852Y-85414317D01*
X132964045Y-85415471D01*
X132964039Y-85415472D01*
X132861153Y-85440173D01*
X132723889Y-85473127D01*
X132719318Y-85475020D01*
X132719316Y-85475021D01*
X132495715Y-85567639D01*
X132495711Y-85567641D01*
X132491141Y-85569534D01*
X132276341Y-85701164D01*
X132272581Y-85704376D01*
X132272576Y-85704379D01*
X132122989Y-85832139D01*
X132084776Y-85864776D01*
X132081563Y-85868538D01*
X131924379Y-86052576D01*
X131924376Y-86052581D01*
X131921164Y-86056341D01*
X131855277Y-86163859D01*
X131814933Y-86229694D01*
X131762285Y-86277325D01*
X131692244Y-86288932D01*
X131627046Y-86260829D01*
X131587392Y-86201938D01*
X131581500Y-86163859D01*
X131581500Y-77207525D01*
X131601502Y-77139404D01*
X131611689Y-77125695D01*
X131695621Y-77027424D01*
X131695624Y-77027419D01*
X131698836Y-77023659D01*
X131830466Y-76808859D01*
X131916192Y-76601899D01*
X131924979Y-76580684D01*
X131924980Y-76580682D01*
X131926873Y-76576111D01*
X131947135Y-76491711D01*
X131984528Y-76335961D01*
X131984529Y-76335955D01*
X131985683Y-76331148D01*
X132005449Y-76080000D01*
X135394551Y-76080000D01*
X135414317Y-76331148D01*
X135415471Y-76335955D01*
X135415472Y-76335961D01*
X135452865Y-76491711D01*
X135473127Y-76576111D01*
X135475020Y-76580682D01*
X135475021Y-76580684D01*
X135483809Y-76601899D01*
X135569534Y-76808859D01*
X135701164Y-77023659D01*
X135704376Y-77027419D01*
X135704379Y-77027424D01*
X135818500Y-77161042D01*
X135864776Y-77215224D01*
X135868538Y-77218437D01*
X136052576Y-77375621D01*
X136052581Y-77375624D01*
X136056341Y-77378836D01*
X136271141Y-77510466D01*
X136275711Y-77512359D01*
X136275715Y-77512361D01*
X136499316Y-77604979D01*
X136503889Y-77606873D01*
X136588289Y-77627135D01*
X136744039Y-77664528D01*
X136744045Y-77664529D01*
X136748852Y-77665683D01*
X137000000Y-77685449D01*
X137251148Y-77665683D01*
X137255955Y-77664529D01*
X137255961Y-77664528D01*
X137411711Y-77627135D01*
X137496111Y-77606873D01*
X137500684Y-77604979D01*
X137724285Y-77512361D01*
X137724289Y-77512359D01*
X137728859Y-77510466D01*
X137943659Y-77378836D01*
X137947419Y-77375624D01*
X137947424Y-77375621D01*
X138131462Y-77218437D01*
X138135224Y-77215224D01*
X138181500Y-77161042D01*
X138295621Y-77027424D01*
X138295624Y-77027419D01*
X138298836Y-77023659D01*
X138430466Y-76808859D01*
X138516192Y-76601899D01*
X138524979Y-76580684D01*
X138524980Y-76580682D01*
X138526873Y-76576111D01*
X138547135Y-76491711D01*
X138584528Y-76335961D01*
X138584529Y-76335955D01*
X138585683Y-76331148D01*
X138605449Y-76080000D01*
X141894551Y-76080000D01*
X141914317Y-76331148D01*
X141915471Y-76335955D01*
X141915472Y-76335961D01*
X141952865Y-76491711D01*
X141973127Y-76576111D01*
X141975020Y-76580682D01*
X141975021Y-76580684D01*
X141983809Y-76601899D01*
X142069534Y-76808859D01*
X142201164Y-77023659D01*
X142204376Y-77027419D01*
X142204379Y-77027424D01*
X142318500Y-77161042D01*
X142364776Y-77215224D01*
X142368538Y-77218437D01*
X142552576Y-77375621D01*
X142552581Y-77375624D01*
X142556341Y-77378836D01*
X142771141Y-77510466D01*
X142775711Y-77512359D01*
X142775715Y-77512361D01*
X142999316Y-77604979D01*
X143003889Y-77606873D01*
X143088289Y-77627135D01*
X143244039Y-77664528D01*
X143244045Y-77664529D01*
X143248852Y-77665683D01*
X143500000Y-77685449D01*
X143751148Y-77665683D01*
X143755955Y-77664529D01*
X143755961Y-77664528D01*
X143911711Y-77627135D01*
X143996111Y-77606873D01*
X144000684Y-77604979D01*
X144224285Y-77512361D01*
X144224289Y-77512359D01*
X144228859Y-77510466D01*
X144443659Y-77378836D01*
X144447419Y-77375624D01*
X144447424Y-77375621D01*
X144631462Y-77218437D01*
X144635224Y-77215224D01*
X144681500Y-77161042D01*
X144795621Y-77027424D01*
X144795624Y-77027419D01*
X144798836Y-77023659D01*
X144930466Y-76808859D01*
X145016192Y-76601899D01*
X145024979Y-76580684D01*
X145024980Y-76580682D01*
X145026873Y-76576111D01*
X145047135Y-76491711D01*
X145084528Y-76335961D01*
X145084529Y-76335955D01*
X145085683Y-76331148D01*
X145105449Y-76080000D01*
X145085683Y-75828852D01*
X145026873Y-75583889D01*
X145003341Y-75527078D01*
X144932361Y-75355715D01*
X144932359Y-75355711D01*
X144930466Y-75351141D01*
X144798836Y-75136341D01*
X144795624Y-75132581D01*
X144795621Y-75132576D01*
X144638437Y-74948538D01*
X144635224Y-74944776D01*
X144538349Y-74862037D01*
X144447424Y-74784379D01*
X144447419Y-74784376D01*
X144443659Y-74781164D01*
X144228859Y-74649534D01*
X144224289Y-74647641D01*
X144224285Y-74647639D01*
X144000684Y-74555021D01*
X144000682Y-74555020D01*
X143996111Y-74553127D01*
X143911711Y-74532865D01*
X143755961Y-74495472D01*
X143755955Y-74495471D01*
X143751148Y-74494317D01*
X143500000Y-74474551D01*
X143248852Y-74494317D01*
X143244045Y-74495471D01*
X143244039Y-74495472D01*
X143088289Y-74532865D01*
X143003889Y-74553127D01*
X142999318Y-74555020D01*
X142999316Y-74555021D01*
X142775715Y-74647639D01*
X142775711Y-74647641D01*
X142771141Y-74649534D01*
X142556341Y-74781164D01*
X142552581Y-74784376D01*
X142552576Y-74784379D01*
X142461651Y-74862037D01*
X142364776Y-74944776D01*
X142361563Y-74948538D01*
X142204379Y-75132576D01*
X142204376Y-75132581D01*
X142201164Y-75136341D01*
X142069534Y-75351141D01*
X142067641Y-75355711D01*
X142067639Y-75355715D01*
X141996659Y-75527078D01*
X141973127Y-75583889D01*
X141914317Y-75828852D01*
X141894551Y-76080000D01*
X138605449Y-76080000D01*
X138585683Y-75828852D01*
X138526873Y-75583889D01*
X138503341Y-75527078D01*
X138432361Y-75355715D01*
X138432359Y-75355711D01*
X138430466Y-75351141D01*
X138298836Y-75136341D01*
X138295624Y-75132581D01*
X138295621Y-75132576D01*
X138138437Y-74948538D01*
X138135224Y-74944776D01*
X138038349Y-74862037D01*
X137947424Y-74784379D01*
X137947419Y-74784376D01*
X137943659Y-74781164D01*
X137728859Y-74649534D01*
X137724289Y-74647641D01*
X137724285Y-74647639D01*
X137500684Y-74555021D01*
X137500682Y-74555020D01*
X137496111Y-74553127D01*
X137411711Y-74532865D01*
X137255961Y-74495472D01*
X137255955Y-74495471D01*
X137251148Y-74494317D01*
X137000000Y-74474551D01*
X136748852Y-74494317D01*
X136744045Y-74495471D01*
X136744039Y-74495472D01*
X136588289Y-74532865D01*
X136503889Y-74553127D01*
X136499318Y-74555020D01*
X136499316Y-74555021D01*
X136275715Y-74647639D01*
X136275711Y-74647641D01*
X136271141Y-74649534D01*
X136056341Y-74781164D01*
X136052581Y-74784376D01*
X136052576Y-74784379D01*
X135961651Y-74862037D01*
X135864776Y-74944776D01*
X135861563Y-74948538D01*
X135704379Y-75132576D01*
X135704376Y-75132581D01*
X135701164Y-75136341D01*
X135569534Y-75351141D01*
X135567641Y-75355711D01*
X135567639Y-75355715D01*
X135496659Y-75527078D01*
X135473127Y-75583889D01*
X135414317Y-75828852D01*
X135394551Y-76080000D01*
X132005449Y-76080000D01*
X131985683Y-75828852D01*
X131926873Y-75583889D01*
X131903341Y-75527078D01*
X131832361Y-75355715D01*
X131832359Y-75355711D01*
X131830466Y-75351141D01*
X131698836Y-75136341D01*
X131695624Y-75132581D01*
X131695621Y-75132576D01*
X131538437Y-74948538D01*
X131535224Y-74944776D01*
X131438349Y-74862037D01*
X131347424Y-74784379D01*
X131347419Y-74784376D01*
X131343659Y-74781164D01*
X131128859Y-74649534D01*
X131124289Y-74647641D01*
X131124285Y-74647639D01*
X130900684Y-74555021D01*
X130900682Y-74555020D01*
X130896111Y-74553127D01*
X130811711Y-74532865D01*
X130655961Y-74495472D01*
X130655955Y-74495471D01*
X130651148Y-74494317D01*
X130400000Y-74474551D01*
X130148852Y-74494317D01*
X130144045Y-74495471D01*
X130144039Y-74495472D01*
X129988289Y-74532865D01*
X129903889Y-74553127D01*
X129899318Y-74555020D01*
X129899316Y-74555021D01*
X129675715Y-74647639D01*
X129675711Y-74647641D01*
X129671141Y-74649534D01*
X129456341Y-74781164D01*
X129452581Y-74784376D01*
X129452576Y-74784379D01*
X129361651Y-74862037D01*
X129264776Y-74944776D01*
X129261563Y-74948538D01*
X129104379Y-75132576D01*
X129104376Y-75132581D01*
X129101164Y-75136341D01*
X128969534Y-75351141D01*
X128967641Y-75355711D01*
X128967639Y-75355715D01*
X128896659Y-75527078D01*
X128873127Y-75583889D01*
X128814317Y-75828852D01*
X128794551Y-76080000D01*
X95047799Y-76080000D01*
X95048120Y-73477960D01*
X101144707Y-73477960D01*
X101161194Y-73763885D01*
X101162019Y-73768090D01*
X101162020Y-73768098D01*
X101182953Y-73874791D01*
X101216332Y-74044927D01*
X101217719Y-74048977D01*
X101217720Y-74048982D01*
X101239484Y-74112549D01*
X101309102Y-74315885D01*
X101437787Y-74571747D01*
X101440213Y-74575276D01*
X101440216Y-74575282D01*
X101579939Y-74778580D01*
X101600006Y-74807777D01*
X101792756Y-75019607D01*
X102012472Y-75203318D01*
X102255088Y-75355510D01*
X102258990Y-75357272D01*
X102258994Y-75357274D01*
X102512202Y-75471602D01*
X102512206Y-75471604D01*
X102516114Y-75473368D01*
X102520233Y-75474588D01*
X102786606Y-75553492D01*
X102786611Y-75553493D01*
X102790719Y-75554710D01*
X102794953Y-75555358D01*
X102794958Y-75555359D01*
X102951520Y-75579316D01*
X103073824Y-75598031D01*
X103219589Y-75600321D01*
X103355898Y-75602463D01*
X103355904Y-75602463D01*
X103360189Y-75602530D01*
X103364441Y-75602015D01*
X103364449Y-75602015D01*
X103584221Y-75575418D01*
X103644514Y-75568122D01*
X103648662Y-75567034D01*
X103648666Y-75567033D01*
X103917388Y-75496535D01*
X103921539Y-75495446D01*
X103925500Y-75493806D01*
X103925504Y-75493804D01*
X104068370Y-75434627D01*
X104186138Y-75385846D01*
X104235034Y-75357274D01*
X104429717Y-75243510D01*
X104429718Y-75243510D01*
X104433415Y-75241349D01*
X104561959Y-75140558D01*
X104655421Y-75067274D01*
X104658793Y-75064630D01*
X104705491Y-75016442D01*
X104855119Y-74862037D01*
X104858102Y-74858959D01*
X104860635Y-74855511D01*
X104860639Y-74855506D01*
X105025117Y-74631596D01*
X105027655Y-74628141D01*
X105056355Y-74575282D01*
X105162263Y-74380224D01*
X105162264Y-74380222D01*
X105164313Y-74376448D01*
X105265548Y-74108537D01*
X105318332Y-73878072D01*
X105328530Y-73833545D01*
X105328531Y-73833540D01*
X105329487Y-73829365D01*
X105354946Y-73544099D01*
X105355408Y-73500007D01*
X105352821Y-73462061D01*
X105336220Y-73218547D01*
X105336219Y-73218541D01*
X105335928Y-73214270D01*
X105277850Y-72933821D01*
X105182248Y-72663849D01*
X105050891Y-72409349D01*
X105048428Y-72405844D01*
X104888673Y-72178536D01*
X104888668Y-72178530D01*
X104886209Y-72175031D01*
X104691251Y-71965231D01*
X104687935Y-71962517D01*
X104687932Y-71962514D01*
X104472941Y-71786546D01*
X104469623Y-71783830D01*
X104225427Y-71634187D01*
X104207419Y-71626282D01*
X103967110Y-71520793D01*
X103967106Y-71520792D01*
X103963182Y-71519069D01*
X103687739Y-71440607D01*
X103477881Y-71410740D01*
X103408448Y-71400858D01*
X103408446Y-71400858D01*
X103404196Y-71400253D01*
X103252333Y-71399458D01*
X103122086Y-71398776D01*
X103122080Y-71398776D01*
X103117800Y-71398754D01*
X103113556Y-71399313D01*
X103113552Y-71399313D01*
X102989031Y-71415706D01*
X102833851Y-71436136D01*
X102829711Y-71437269D01*
X102829709Y-71437269D01*
X102813209Y-71441783D01*
X102557602Y-71511709D01*
X102553654Y-71513393D01*
X102298117Y-71622389D01*
X102298113Y-71622391D01*
X102294165Y-71624075D01*
X102048415Y-71771153D01*
X101824900Y-71950222D01*
X101627755Y-72157969D01*
X101460629Y-72390550D01*
X101326614Y-72643660D01*
X101228190Y-72912617D01*
X101167178Y-73192443D01*
X101144707Y-73477960D01*
X95048120Y-73477960D01*
X95048906Y-67112170D01*
X101149500Y-67112170D01*
X101149501Y-69887843D01*
X101149774Y-69892596D01*
X101190173Y-70067584D01*
X101268336Y-70229273D01*
X101380380Y-70369627D01*
X101520734Y-70481671D01*
X101682423Y-70559834D01*
X101689284Y-70561418D01*
X101852212Y-70599033D01*
X101852215Y-70599033D01*
X101857411Y-70600233D01*
X101862163Y-70600507D01*
X101863987Y-70600507D01*
X103261894Y-70600506D01*
X104637836Y-70600506D01*
X104642589Y-70600233D01*
X104817577Y-70559834D01*
X104979266Y-70481671D01*
X105119620Y-70369627D01*
X105231664Y-70229273D01*
X105309827Y-70067584D01*
X105350226Y-69892596D01*
X105350500Y-69887844D01*
X105350499Y-67396948D01*
X116399500Y-67396948D01*
X116399501Y-69972621D01*
X116399774Y-69977374D01*
X116440173Y-70152362D01*
X116518336Y-70314051D01*
X116630380Y-70454405D01*
X116770734Y-70566449D01*
X116932423Y-70644612D01*
X116939284Y-70646196D01*
X117102212Y-70683811D01*
X117102215Y-70683811D01*
X117107411Y-70685011D01*
X117112163Y-70685285D01*
X117113987Y-70685285D01*
X118411037Y-70685284D01*
X119687836Y-70685284D01*
X119692589Y-70685011D01*
X119867577Y-70644612D01*
X120029266Y-70566449D01*
X120169620Y-70454405D01*
X120281664Y-70314051D01*
X120359827Y-70152362D01*
X120377935Y-70073926D01*
X120399026Y-69982573D01*
X120399026Y-69982570D01*
X120400226Y-69977374D01*
X120400500Y-69972622D01*
X120400499Y-67396949D01*
X120400226Y-67392196D01*
X120359827Y-67217208D01*
X120309917Y-67113964D01*
X120284731Y-67061863D01*
X120284730Y-67061862D01*
X120281664Y-67055519D01*
X120169620Y-66915165D01*
X120029266Y-66803121D01*
X119867577Y-66724958D01*
X119860716Y-66723374D01*
X119697788Y-66685759D01*
X119697785Y-66685759D01*
X119692589Y-66684559D01*
X119687837Y-66684285D01*
X119686013Y-66684285D01*
X118388963Y-66684286D01*
X117112164Y-66684286D01*
X117107411Y-66684559D01*
X116932423Y-66724958D01*
X116770734Y-66803121D01*
X116630380Y-66915165D01*
X116518336Y-67055519D01*
X116515270Y-67061862D01*
X116515269Y-67061863D01*
X116490083Y-67113964D01*
X116440173Y-67217208D01*
X116438589Y-67224069D01*
X116408971Y-67352361D01*
X116399774Y-67392196D01*
X116399500Y-67396948D01*
X105350499Y-67396948D01*
X105350499Y-67112171D01*
X105350226Y-67107418D01*
X105309827Y-66932430D01*
X105247317Y-66803121D01*
X105234731Y-66777085D01*
X105234730Y-66777084D01*
X105231664Y-66770741D01*
X105119620Y-66630387D01*
X104979266Y-66518343D01*
X104817577Y-66440180D01*
X104810716Y-66438596D01*
X104647788Y-66400981D01*
X104647785Y-66400981D01*
X104642589Y-66399781D01*
X104637837Y-66399507D01*
X104636013Y-66399507D01*
X103238106Y-66399508D01*
X101862164Y-66399508D01*
X101857411Y-66399781D01*
X101682423Y-66440180D01*
X101520734Y-66518343D01*
X101380380Y-66630387D01*
X101268336Y-66770741D01*
X101265270Y-66777084D01*
X101265269Y-66777085D01*
X101252683Y-66803121D01*
X101190173Y-66932430D01*
X101149774Y-67107418D01*
X101149500Y-67112170D01*
X95048906Y-67112170D01*
X95049053Y-65920000D01*
X128794551Y-65920000D01*
X128814317Y-66171148D01*
X128873127Y-66416111D01*
X128875020Y-66420682D01*
X128875021Y-66420684D01*
X128961883Y-66630387D01*
X128969534Y-66648859D01*
X129101164Y-66863659D01*
X129104376Y-66867419D01*
X129104379Y-66867424D01*
X129249256Y-67037052D01*
X129264776Y-67055224D01*
X129268538Y-67058437D01*
X129452576Y-67215621D01*
X129452581Y-67215624D01*
X129456341Y-67218836D01*
X129671141Y-67350466D01*
X129675711Y-67352359D01*
X129675715Y-67352361D01*
X129787762Y-67398772D01*
X129903889Y-67446873D01*
X129988289Y-67467135D01*
X130144039Y-67504528D01*
X130144045Y-67504529D01*
X130148852Y-67505683D01*
X130400000Y-67525449D01*
X130651148Y-67505683D01*
X130655955Y-67504529D01*
X130655961Y-67504528D01*
X130811711Y-67467135D01*
X130896111Y-67446873D01*
X131012238Y-67398772D01*
X131124285Y-67352361D01*
X131124289Y-67352359D01*
X131128859Y-67350466D01*
X131343659Y-67218836D01*
X131347419Y-67215624D01*
X131347424Y-67215621D01*
X131531462Y-67058437D01*
X131535224Y-67055224D01*
X131550744Y-67037052D01*
X131695621Y-66867424D01*
X131695624Y-66867419D01*
X131698836Y-66863659D01*
X131830466Y-66648859D01*
X131838118Y-66630387D01*
X131924979Y-66420684D01*
X131924980Y-66420682D01*
X131926873Y-66416111D01*
X131985683Y-66171148D01*
X132005449Y-65920000D01*
X135394551Y-65920000D01*
X135414317Y-66171148D01*
X135473127Y-66416111D01*
X135475020Y-66420682D01*
X135475021Y-66420684D01*
X135561883Y-66630387D01*
X135569534Y-66648859D01*
X135701164Y-66863659D01*
X135704376Y-66867419D01*
X135704379Y-66867424D01*
X135849256Y-67037052D01*
X135864776Y-67055224D01*
X135868538Y-67058437D01*
X136052576Y-67215621D01*
X136052581Y-67215624D01*
X136056341Y-67218836D01*
X136271141Y-67350466D01*
X136275711Y-67352359D01*
X136275715Y-67352361D01*
X136387762Y-67398772D01*
X136503889Y-67446873D01*
X136588289Y-67467135D01*
X136744039Y-67504528D01*
X136744045Y-67504529D01*
X136748852Y-67505683D01*
X137000000Y-67525449D01*
X137251148Y-67505683D01*
X137255955Y-67504529D01*
X137255961Y-67504528D01*
X137411711Y-67467135D01*
X137496111Y-67446873D01*
X137612238Y-67398772D01*
X137724285Y-67352361D01*
X137724289Y-67352359D01*
X137728859Y-67350466D01*
X137943659Y-67218836D01*
X137947419Y-67215624D01*
X137947424Y-67215621D01*
X138131462Y-67058437D01*
X138135224Y-67055224D01*
X138150744Y-67037052D01*
X138295621Y-66867424D01*
X138295624Y-66867419D01*
X138298836Y-66863659D01*
X138430466Y-66648859D01*
X138438118Y-66630387D01*
X138524979Y-66420684D01*
X138524980Y-66420682D01*
X138526873Y-66416111D01*
X138585683Y-66171148D01*
X138605449Y-65920000D01*
X141894551Y-65920000D01*
X141914317Y-66171148D01*
X141973127Y-66416111D01*
X141975020Y-66420682D01*
X141975021Y-66420684D01*
X142061883Y-66630387D01*
X142069534Y-66648859D01*
X142201164Y-66863659D01*
X142204376Y-66867419D01*
X142204379Y-66867424D01*
X142349256Y-67037052D01*
X142364776Y-67055224D01*
X142368538Y-67058437D01*
X142552576Y-67215621D01*
X142552581Y-67215624D01*
X142556341Y-67218836D01*
X142771141Y-67350466D01*
X142775711Y-67352359D01*
X142775715Y-67352361D01*
X142887762Y-67398772D01*
X143003889Y-67446873D01*
X143088289Y-67467135D01*
X143244039Y-67504528D01*
X143244045Y-67504529D01*
X143248852Y-67505683D01*
X143500000Y-67525449D01*
X143751148Y-67505683D01*
X143755955Y-67504529D01*
X143755961Y-67504528D01*
X143911711Y-67467135D01*
X143996111Y-67446873D01*
X144112238Y-67398772D01*
X144224285Y-67352361D01*
X144224289Y-67352359D01*
X144228859Y-67350466D01*
X144443659Y-67218836D01*
X144447419Y-67215624D01*
X144447424Y-67215621D01*
X144545695Y-67131689D01*
X144610484Y-67102658D01*
X144627525Y-67101500D01*
X156878417Y-67101500D01*
X156946538Y-67121502D01*
X156967512Y-67138405D01*
X164281595Y-74452488D01*
X164315621Y-74514800D01*
X164318500Y-74541583D01*
X164318500Y-75092485D01*
X164298498Y-75160606D01*
X164247340Y-75205924D01*
X164179521Y-75238709D01*
X164143939Y-75255910D01*
X164118234Y-75268336D01*
X164112726Y-75272733D01*
X163986667Y-75373365D01*
X163920950Y-75400233D01*
X163852356Y-75387531D01*
X163852209Y-75387829D01*
X163851153Y-75387308D01*
X163851152Y-75387308D01*
X163758151Y-75341445D01*
X163622715Y-75274655D01*
X163622712Y-75274654D01*
X163618527Y-75272590D01*
X163595657Y-75265269D01*
X163565991Y-75255773D01*
X163370377Y-75193156D01*
X163365770Y-75192406D01*
X163365767Y-75192405D01*
X163117823Y-75152025D01*
X163117824Y-75152025D01*
X163113212Y-75151274D01*
X162986874Y-75149620D01*
X162857359Y-75147925D01*
X162857356Y-75147925D01*
X162852682Y-75147864D01*
X162594509Y-75183000D01*
X162344365Y-75255910D01*
X162107746Y-75364993D01*
X162103841Y-75367553D01*
X162103836Y-75367556D01*
X161893762Y-75505286D01*
X161893757Y-75505290D01*
X161889849Y-75507852D01*
X161695462Y-75681350D01*
X161528854Y-75881674D01*
X161393686Y-76104423D01*
X161292928Y-76344705D01*
X161228792Y-76597241D01*
X161207000Y-76813652D01*
X161207000Y-77063640D01*
X161207173Y-77065965D01*
X161207173Y-77065971D01*
X161218265Y-77215224D01*
X161221394Y-77257336D01*
X161222423Y-77261884D01*
X161222424Y-77261890D01*
X161264369Y-77447255D01*
X161278898Y-77511465D01*
X161280590Y-77515817D01*
X161280591Y-77515819D01*
X161346557Y-77685449D01*
X161373332Y-77754302D01*
X161502622Y-77980514D01*
X161663929Y-78185130D01*
X161853708Y-78363657D01*
X161857551Y-78366323D01*
X162063953Y-78509509D01*
X162063958Y-78509512D01*
X162067791Y-78512171D01*
X162071973Y-78514234D01*
X162071981Y-78514238D01*
X162297285Y-78625345D01*
X162297288Y-78625346D01*
X162301473Y-78627410D01*
X162305916Y-78628832D01*
X162305918Y-78628833D01*
X162347455Y-78642129D01*
X162549623Y-78706844D01*
X162554230Y-78707594D01*
X162554233Y-78707595D01*
X162615851Y-78717630D01*
X162806788Y-78748726D01*
X162933126Y-78750380D01*
X163062641Y-78752075D01*
X163062644Y-78752075D01*
X163067318Y-78752136D01*
X163325491Y-78717000D01*
X163575635Y-78644090D01*
X163812254Y-78535007D01*
X163837430Y-78518501D01*
X163905363Y-78497878D01*
X163973663Y-78517257D01*
X163985122Y-78525402D01*
X164118234Y-78631664D01*
X164124577Y-78634730D01*
X164124578Y-78634731D01*
X164205440Y-78673821D01*
X164279923Y-78709827D01*
X164286784Y-78711411D01*
X164449712Y-78749026D01*
X164449715Y-78749026D01*
X164454911Y-78750226D01*
X164459663Y-78750500D01*
X164461487Y-78750500D01*
X165508916Y-78750499D01*
X166540336Y-78750499D01*
X166545089Y-78750226D01*
X166720077Y-78709827D01*
X166794560Y-78673821D01*
X166875422Y-78634731D01*
X166875423Y-78634730D01*
X166881766Y-78631664D01*
X167022120Y-78519620D01*
X167134164Y-78379266D01*
X167143259Y-78360453D01*
X167209261Y-78223919D01*
X167212327Y-78217577D01*
X167252726Y-78042589D01*
X167253000Y-78037837D01*
X167252999Y-75862164D01*
X167252726Y-75857411D01*
X167212327Y-75682423D01*
X167164694Y-75583889D01*
X167137231Y-75527078D01*
X167137230Y-75527077D01*
X167134164Y-75520734D01*
X167022120Y-75380380D01*
X166881766Y-75268336D01*
X166856062Y-75255910D01*
X166820479Y-75238709D01*
X166752660Y-75205924D01*
X166700036Y-75158269D01*
X166681500Y-75092485D01*
X166681500Y-74044098D01*
X166681770Y-74035857D01*
X166685778Y-73974705D01*
X166686156Y-73968939D01*
X166675400Y-73878066D01*
X166675057Y-73874791D01*
X166667222Y-73789518D01*
X166667221Y-73789513D01*
X166666693Y-73783766D01*
X166665125Y-73778205D01*
X166664992Y-73777490D01*
X166661465Y-73759756D01*
X166661312Y-73759035D01*
X166660633Y-73753300D01*
X166633511Y-73665953D01*
X166632574Y-73662790D01*
X166609319Y-73580335D01*
X166607751Y-73574774D01*
X166605199Y-73569600D01*
X166604962Y-73568981D01*
X166598195Y-73552021D01*
X166597954Y-73551439D01*
X166596241Y-73545923D01*
X166553636Y-73464943D01*
X166552167Y-73462061D01*
X166514265Y-73385204D01*
X166511710Y-73380023D01*
X166508255Y-73375396D01*
X166507902Y-73374820D01*
X166498129Y-73359332D01*
X166497823Y-73358860D01*
X166495135Y-73353752D01*
X166438487Y-73281895D01*
X166436491Y-73279293D01*
X166385240Y-73210659D01*
X166385239Y-73210658D01*
X166381787Y-73206035D01*
X166319333Y-73148303D01*
X166315767Y-73144873D01*
X160716492Y-67545599D01*
X158286639Y-65115746D01*
X158281002Y-65109729D01*
X158236775Y-65059298D01*
X158164869Y-65002612D01*
X158162457Y-65000659D01*
X158092076Y-64942123D01*
X158087040Y-64939303D01*
X158086540Y-64938959D01*
X158071347Y-64928807D01*
X158070787Y-64928444D01*
X158066248Y-64924865D01*
X158061140Y-64922177D01*
X158061136Y-64922175D01*
X157985301Y-64882277D01*
X157982402Y-64880703D01*
X157969529Y-64873494D01*
X157902618Y-64836022D01*
X157897143Y-64834163D01*
X157896452Y-64833856D01*
X157879780Y-64826694D01*
X157879189Y-64826449D01*
X157874078Y-64823760D01*
X157868567Y-64822049D01*
X157868565Y-64822048D01*
X157786734Y-64796639D01*
X157783598Y-64795620D01*
X157742187Y-64781563D01*
X157696997Y-64766223D01*
X157691273Y-64765393D01*
X157690556Y-64765221D01*
X157672844Y-64761213D01*
X157672212Y-64761079D01*
X157666700Y-64759367D01*
X157622153Y-64754095D01*
X157575865Y-64748616D01*
X157572595Y-64748185D01*
X157538304Y-64743213D01*
X157482100Y-64735064D01*
X157397116Y-64738403D01*
X157392169Y-64738500D01*
X144627525Y-64738500D01*
X144559404Y-64718498D01*
X144545695Y-64708311D01*
X144447424Y-64624379D01*
X144447419Y-64624376D01*
X144443659Y-64621164D01*
X144228859Y-64489534D01*
X144224289Y-64487641D01*
X144224285Y-64487639D01*
X144000684Y-64395021D01*
X144000682Y-64395020D01*
X143996111Y-64393127D01*
X143911711Y-64372865D01*
X143755961Y-64335472D01*
X143755955Y-64335471D01*
X143751148Y-64334317D01*
X143500000Y-64314551D01*
X143248852Y-64334317D01*
X143244045Y-64335471D01*
X143244039Y-64335472D01*
X143088289Y-64372865D01*
X143003889Y-64393127D01*
X142999318Y-64395020D01*
X142999316Y-64395021D01*
X142775715Y-64487639D01*
X142775711Y-64487641D01*
X142771141Y-64489534D01*
X142556341Y-64621164D01*
X142552581Y-64624376D01*
X142552576Y-64624379D01*
X142407339Y-64748424D01*
X142364776Y-64784776D01*
X142361563Y-64788538D01*
X142204379Y-64972576D01*
X142204376Y-64972581D01*
X142201164Y-64976341D01*
X142069534Y-65191141D01*
X141973127Y-65423889D01*
X141914317Y-65668852D01*
X141894551Y-65920000D01*
X138605449Y-65920000D01*
X138585683Y-65668852D01*
X138526873Y-65423889D01*
X138430466Y-65191141D01*
X138298836Y-64976341D01*
X138295624Y-64972581D01*
X138295621Y-64972576D01*
X138138437Y-64788538D01*
X138135224Y-64784776D01*
X138092661Y-64748424D01*
X137947424Y-64624379D01*
X137947419Y-64624376D01*
X137943659Y-64621164D01*
X137728859Y-64489534D01*
X137724289Y-64487641D01*
X137724285Y-64487639D01*
X137500684Y-64395021D01*
X137500682Y-64395020D01*
X137496111Y-64393127D01*
X137411711Y-64372865D01*
X137255961Y-64335472D01*
X137255955Y-64335471D01*
X137251148Y-64334317D01*
X137000000Y-64314551D01*
X136748852Y-64334317D01*
X136744045Y-64335471D01*
X136744039Y-64335472D01*
X136588289Y-64372865D01*
X136503889Y-64393127D01*
X136499318Y-64395020D01*
X136499316Y-64395021D01*
X136275715Y-64487639D01*
X136275711Y-64487641D01*
X136271141Y-64489534D01*
X136056341Y-64621164D01*
X136052581Y-64624376D01*
X136052576Y-64624379D01*
X135907339Y-64748424D01*
X135864776Y-64784776D01*
X135861563Y-64788538D01*
X135704379Y-64972576D01*
X135704376Y-64972581D01*
X135701164Y-64976341D01*
X135569534Y-65191141D01*
X135473127Y-65423889D01*
X135414317Y-65668852D01*
X135394551Y-65920000D01*
X132005449Y-65920000D01*
X131985683Y-65668852D01*
X131926873Y-65423889D01*
X131830466Y-65191141D01*
X131698836Y-64976341D01*
X131695624Y-64972581D01*
X131695621Y-64972576D01*
X131538437Y-64788538D01*
X131535224Y-64784776D01*
X131492661Y-64748424D01*
X131347424Y-64624379D01*
X131347419Y-64624376D01*
X131343659Y-64621164D01*
X131128859Y-64489534D01*
X131124289Y-64487641D01*
X131124285Y-64487639D01*
X130900684Y-64395021D01*
X130900682Y-64395020D01*
X130896111Y-64393127D01*
X130811711Y-64372865D01*
X130655961Y-64335472D01*
X130655955Y-64335471D01*
X130651148Y-64334317D01*
X130400000Y-64314551D01*
X130148852Y-64334317D01*
X130144045Y-64335471D01*
X130144039Y-64335472D01*
X129988289Y-64372865D01*
X129903889Y-64393127D01*
X129899318Y-64395020D01*
X129899316Y-64395021D01*
X129675715Y-64487639D01*
X129675711Y-64487641D01*
X129671141Y-64489534D01*
X129456341Y-64621164D01*
X129452581Y-64624376D01*
X129452576Y-64624379D01*
X129307339Y-64748424D01*
X129264776Y-64784776D01*
X129261563Y-64788538D01*
X129104379Y-64972576D01*
X129104376Y-64972581D01*
X129101164Y-64976341D01*
X128969534Y-65191141D01*
X128873127Y-65423889D01*
X128814317Y-65668852D01*
X128794551Y-65920000D01*
X95049053Y-65920000D01*
X95049465Y-62584800D01*
X95069475Y-62516684D01*
X95123137Y-62470198D01*
X95193412Y-62460103D01*
X95233645Y-62473055D01*
X95369734Y-62543898D01*
X95580084Y-62653399D01*
X95993912Y-62824812D01*
X95996532Y-62825638D01*
X95996540Y-62825641D01*
X96418474Y-62958677D01*
X96418479Y-62958678D01*
X96421104Y-62959506D01*
X96858411Y-63056454D01*
X96861131Y-63056812D01*
X96861136Y-63056813D01*
X97027275Y-63078685D01*
X97302502Y-63114920D01*
X97305251Y-63115040D01*
X97305262Y-63115041D01*
X97747252Y-63134338D01*
X97750000Y-63134458D01*
X97752748Y-63134338D01*
X98194738Y-63115041D01*
X98194749Y-63115040D01*
X98197498Y-63114920D01*
X98472725Y-63078685D01*
X98638864Y-63056813D01*
X98638869Y-63056812D01*
X98641589Y-63056454D01*
X99078896Y-62959506D01*
X99081521Y-62958678D01*
X99081526Y-62958677D01*
X99503460Y-62825641D01*
X99503468Y-62825638D01*
X99506088Y-62824812D01*
X99919916Y-62653399D01*
X100317229Y-62446571D01*
X100695004Y-62205902D01*
X101047761Y-61935222D01*
X101048198Y-61934887D01*
X101048204Y-61934882D01*
X101050366Y-61933223D01*
X101380610Y-61630610D01*
X101683223Y-61300366D01*
X101955902Y-60945004D01*
X102196571Y-60567229D01*
X102403399Y-60169916D01*
X102574812Y-59756088D01*
X102709506Y-59328896D01*
X102806454Y-58891589D01*
X102864920Y-58447498D01*
X102884458Y-58000000D01*
X102864920Y-57552502D01*
X102806454Y-57108411D01*
X102709506Y-56671104D01*
X102574812Y-56243912D01*
X102403399Y-55830084D01*
X102218934Y-55475730D01*
X102205221Y-55406071D01*
X102231346Y-55340055D01*
X102289014Y-55298644D01*
X102330710Y-55291550D01*
X131904763Y-55294564D01*
G37*
%TD.AperFunction*%
%TD*%
M02*
