%TF.GenerationSoftware,KiCad,Pcbnew,(6.0.1)*%
%TF.CreationDate,2022-03-15T09:43:43+01:00*%
%TF.ProjectId,Tranzistorski_pretvara_,5472616e-7a69-4737-946f-72736b695f70,rev?*%
%TF.SameCoordinates,Original*%
%TF.FileFunction,Legend,Top*%
%TF.FilePolarity,Positive*%
%FSLAX46Y46*%
G04 Gerber Fmt 4.6, Leading zero omitted, Abs format (unit mm)*
G04 Created by KiCad (PCBNEW (6.0.1)) date 2022-03-15 09:43:43*
%MOMM*%
%LPD*%
G01*
G04 APERTURE LIST*
%ADD10C,0.150000*%
%ADD11C,0.254000*%
%ADD12C,0.500000*%
%ADD13C,0.300000*%
%ADD14C,0.120000*%
%ADD15C,0.200000*%
G04 APERTURE END LIST*
D10*
X95900185Y-145200000D02*
G75*
G03*
X95900185Y-145200000I-3400368J0D01*
G01*
X188649634Y-59600000D02*
G75*
G03*
X188649634Y-59600000I-3400368J0D01*
G01*
X188650185Y-145200000D02*
G75*
G03*
X188650185Y-145200000I-3400368J0D01*
G01*
X95800001Y-59600000D02*
G75*
G03*
X95800001Y-59600000I-3400368J0D01*
G01*
D11*
X169535714Y-144678571D02*
X169892857Y-145678571D01*
X170250000Y-144678571D01*
X170750000Y-144321428D02*
X170821428Y-144250000D01*
X170964285Y-144178571D01*
X171321428Y-144178571D01*
X171464285Y-144250000D01*
X171535714Y-144321428D01*
X171607142Y-144464285D01*
X171607142Y-144607142D01*
X171535714Y-144821428D01*
X170678571Y-145678571D01*
X171607142Y-145678571D01*
X172250000Y-145678571D02*
X172250000Y-144678571D01*
X172250000Y-144964285D02*
X172321428Y-144821428D01*
X172392857Y-144750000D01*
X172535714Y-144678571D01*
X172678571Y-144678571D01*
X173750000Y-145607142D02*
X173607142Y-145678571D01*
X173321428Y-145678571D01*
X173178571Y-145607142D01*
X173107142Y-145464285D01*
X173107142Y-144892857D01*
X173178571Y-144750000D01*
X173321428Y-144678571D01*
X173607142Y-144678571D01*
X173750000Y-144750000D01*
X173821428Y-144892857D01*
X173821428Y-145035714D01*
X173107142Y-145178571D01*
X174321428Y-144678571D02*
X174678571Y-145678571D01*
X175035714Y-144678571D01*
X176392857Y-145678571D02*
X175535714Y-145678571D01*
X175964285Y-145678571D02*
X175964285Y-144178571D01*
X175821428Y-144392857D01*
X175678571Y-144535714D01*
X175535714Y-144607142D01*
D12*
X90200000Y-76957142D02*
X91200000Y-79957142D01*
X92200000Y-76957142D01*
X93200000Y-79957142D02*
X93200000Y-76957142D01*
X93914285Y-76957142D01*
X94342857Y-77100000D01*
X94628571Y-77385714D01*
X94771428Y-77671428D01*
X94914285Y-78242857D01*
X94914285Y-78671428D01*
X94771428Y-79242857D01*
X94628571Y-79528571D01*
X94342857Y-79814285D01*
X93914285Y-79957142D01*
X93200000Y-79957142D01*
X96200000Y-79957142D02*
X96200000Y-76957142D01*
X96914285Y-76957142D01*
X97342857Y-77100000D01*
X97628571Y-77385714D01*
X97771428Y-77671428D01*
X97914285Y-78242857D01*
X97914285Y-78671428D01*
X97771428Y-79242857D01*
X97628571Y-79528571D01*
X97342857Y-79814285D01*
X96914285Y-79957142D01*
X96200000Y-79957142D01*
X179600000Y-76957142D02*
X180600000Y-79957142D01*
X181600000Y-76957142D01*
X182600000Y-79957142D02*
X182600000Y-76957142D01*
X183314285Y-76957142D01*
X183742857Y-77100000D01*
X184028571Y-77385714D01*
X184171428Y-77671428D01*
X184314285Y-78242857D01*
X184314285Y-78671428D01*
X184171428Y-79242857D01*
X184028571Y-79528571D01*
X183742857Y-79814285D01*
X183314285Y-79957142D01*
X182600000Y-79957142D01*
X185600000Y-79957142D02*
X185600000Y-76957142D01*
X186314285Y-76957142D01*
X186742857Y-77100000D01*
X187028571Y-77385714D01*
X187171428Y-77671428D01*
X187314285Y-78242857D01*
X187314285Y-78671428D01*
X187171428Y-79242857D01*
X187028571Y-79528571D01*
X186742857Y-79814285D01*
X186314285Y-79957142D01*
X185600000Y-79957142D01*
D11*
X166378571Y-109328572D02*
X167450000Y-109328572D01*
X167664285Y-109400001D01*
X167807142Y-109542858D01*
X167878571Y-109757143D01*
X167878571Y-109900001D01*
X167878571Y-107900001D02*
X167878571Y-108614286D01*
X166378571Y-108614286D01*
X167735714Y-106542858D02*
X167807142Y-106614286D01*
X167878571Y-106828572D01*
X167878571Y-106971429D01*
X167807142Y-107185715D01*
X167664285Y-107328572D01*
X167521428Y-107400001D01*
X167235714Y-107471429D01*
X167021428Y-107471429D01*
X166735714Y-107400001D01*
X166592857Y-107328572D01*
X166450000Y-107185715D01*
X166378571Y-106971429D01*
X166378571Y-106828572D01*
X166450000Y-106614286D01*
X166521428Y-106542858D01*
X166378571Y-105471429D02*
X167450000Y-105471429D01*
X167664285Y-105542858D01*
X167807142Y-105685715D01*
X167878571Y-105900001D01*
X167878571Y-106042858D01*
X167878571Y-104042858D02*
X167878571Y-104757143D01*
X166378571Y-104757143D01*
X167735714Y-102685715D02*
X167807142Y-102757143D01*
X167878571Y-102971429D01*
X167878571Y-103114286D01*
X167807142Y-103328572D01*
X167664285Y-103471429D01*
X167521428Y-103542858D01*
X167235714Y-103614286D01*
X167021428Y-103614286D01*
X166735714Y-103542858D01*
X166592857Y-103471429D01*
X166450000Y-103328572D01*
X166378571Y-103114286D01*
X166378571Y-102971429D01*
X166450000Y-102757143D01*
X166521428Y-102685715D01*
X166378571Y-101614286D02*
X167450000Y-101614286D01*
X167664285Y-101685715D01*
X167807142Y-101828572D01*
X167878571Y-102042858D01*
X167878571Y-102185715D01*
X167878571Y-100185715D02*
X167878571Y-100900001D01*
X166378571Y-100900001D01*
X167735714Y-98828572D02*
X167807142Y-98900001D01*
X167878571Y-99114286D01*
X167878571Y-99257143D01*
X167807142Y-99471429D01*
X167664285Y-99614286D01*
X167521428Y-99685715D01*
X167235714Y-99757143D01*
X167021428Y-99757143D01*
X166735714Y-99685715D01*
X166592857Y-99614286D01*
X166450000Y-99471429D01*
X166378571Y-99257143D01*
X166378571Y-99114286D01*
X166450000Y-98900001D01*
X166521428Y-98828572D01*
X166378571Y-97757143D02*
X167450000Y-97757143D01*
X167664285Y-97828572D01*
X167807142Y-97971429D01*
X167878571Y-98185715D01*
X167878571Y-98328572D01*
X167878571Y-96328572D02*
X167878571Y-97042858D01*
X166378571Y-97042858D01*
X167735714Y-94971429D02*
X167807142Y-95042858D01*
X167878571Y-95257143D01*
X167878571Y-95400001D01*
X167807142Y-95614286D01*
X167664285Y-95757143D01*
X167521428Y-95828572D01*
X167235714Y-95900001D01*
X167021428Y-95900001D01*
X166735714Y-95828572D01*
X166592857Y-95757143D01*
X166450000Y-95614286D01*
X166378571Y-95400001D01*
X166378571Y-95257143D01*
X166450000Y-95042858D01*
X166521428Y-94971429D01*
D12*
X91714285Y-125100000D02*
X91428571Y-124957142D01*
X91000000Y-124957142D01*
X90571428Y-125100000D01*
X90285714Y-125385714D01*
X90142857Y-125671428D01*
X90000000Y-126242857D01*
X90000000Y-126671428D01*
X90142857Y-127242857D01*
X90285714Y-127528571D01*
X90571428Y-127814285D01*
X91000000Y-127957142D01*
X91285714Y-127957142D01*
X91714285Y-127814285D01*
X91857142Y-127671428D01*
X91857142Y-126671428D01*
X91285714Y-126671428D01*
X93142857Y-127957142D02*
X93142857Y-124957142D01*
X94857142Y-127957142D01*
X94857142Y-124957142D01*
X96285714Y-127957142D02*
X96285714Y-124957142D01*
X97000000Y-124957142D01*
X97428571Y-125100000D01*
X97714285Y-125385714D01*
X97857142Y-125671428D01*
X98000000Y-126242857D01*
X98000000Y-126671428D01*
X97857142Y-127242857D01*
X97714285Y-127528571D01*
X97428571Y-127814285D01*
X97000000Y-127957142D01*
X96285714Y-127957142D01*
D13*
X120050000Y-146378571D02*
X120050000Y-144878571D01*
X120621428Y-144878571D01*
X120764285Y-144950000D01*
X120835714Y-145021428D01*
X120907142Y-145164285D01*
X120907142Y-145378571D01*
X120835714Y-145521428D01*
X120764285Y-145592857D01*
X120621428Y-145664285D01*
X120050000Y-145664285D01*
X121835714Y-144878571D02*
X122121428Y-144878571D01*
X122264285Y-144950000D01*
X122407142Y-145092857D01*
X122478571Y-145378571D01*
X122478571Y-145878571D01*
X122407142Y-146164285D01*
X122264285Y-146307142D01*
X122121428Y-146378571D01*
X121835714Y-146378571D01*
X121692857Y-146307142D01*
X121550000Y-146164285D01*
X121478571Y-145878571D01*
X121478571Y-145378571D01*
X121550000Y-145092857D01*
X121692857Y-144950000D01*
X121835714Y-144878571D01*
X122907142Y-144878571D02*
X123764285Y-144878571D01*
X123335714Y-146378571D02*
X123335714Y-144878571D01*
X116964285Y-132928571D02*
X117107142Y-132928571D01*
X117250000Y-133000000D01*
X117321428Y-133071428D01*
X117392857Y-133214285D01*
X117464285Y-133500000D01*
X117464285Y-133857142D01*
X117392857Y-134142857D01*
X117321428Y-134285714D01*
X117250000Y-134357142D01*
X117107142Y-134428571D01*
X116964285Y-134428571D01*
X116821428Y-134357142D01*
X116750000Y-134285714D01*
X116678571Y-134142857D01*
X116607142Y-133857142D01*
X116607142Y-133500000D01*
X116678571Y-133214285D01*
X116750000Y-133071428D01*
X116821428Y-133000000D01*
X116964285Y-132928571D01*
X118107142Y-134285714D02*
X118178571Y-134357142D01*
X118107142Y-134428571D01*
X118035714Y-134357142D01*
X118107142Y-134285714D01*
X118107142Y-134428571D01*
X119464285Y-133428571D02*
X119464285Y-134428571D01*
X119107142Y-132857142D02*
X118750000Y-133928571D01*
X119678571Y-133928571D01*
X120107142Y-132928571D02*
X121107142Y-132928571D01*
X120464285Y-134428571D01*
X121678571Y-133428571D02*
X121678571Y-134928571D01*
X122392857Y-134214285D02*
X122464285Y-134357142D01*
X122607142Y-134428571D01*
X121678571Y-134214285D02*
X121750000Y-134357142D01*
X121892857Y-134428571D01*
X122178571Y-134428571D01*
X122321428Y-134357142D01*
X122392857Y-134214285D01*
X122392857Y-133428571D01*
X123750000Y-133642857D02*
X123250000Y-133642857D01*
X123250000Y-134428571D02*
X123250000Y-132928571D01*
X123964285Y-132928571D01*
X132792857Y-146135714D02*
X132721428Y-146207142D01*
X132507142Y-146278571D01*
X132364285Y-146278571D01*
X132150000Y-146207142D01*
X132007142Y-146064285D01*
X131935714Y-145921428D01*
X131864285Y-145635714D01*
X131864285Y-145421428D01*
X131935714Y-145135714D01*
X132007142Y-144992857D01*
X132150000Y-144850000D01*
X132364285Y-144778571D01*
X132507142Y-144778571D01*
X132721428Y-144850000D01*
X132792857Y-144921428D01*
X133221428Y-144778571D02*
X134078571Y-144778571D01*
X133650000Y-146278571D02*
X133650000Y-144778571D01*
X143071428Y-146135714D02*
X143000000Y-146207142D01*
X142785714Y-146278571D01*
X142642857Y-146278571D01*
X142428571Y-146207142D01*
X142285714Y-146064285D01*
X142214285Y-145921428D01*
X142142857Y-145635714D01*
X142142857Y-145421428D01*
X142214285Y-145135714D01*
X142285714Y-144992857D01*
X142428571Y-144850000D01*
X142642857Y-144778571D01*
X142785714Y-144778571D01*
X143000000Y-144850000D01*
X143071428Y-144921428D01*
X144000000Y-144778571D02*
X144285714Y-144778571D01*
X144428571Y-144850000D01*
X144571428Y-144992857D01*
X144642857Y-145278571D01*
X144642857Y-145778571D01*
X144571428Y-146064285D01*
X144428571Y-146207142D01*
X144285714Y-146278571D01*
X144000000Y-146278571D01*
X143857142Y-146207142D01*
X143714285Y-146064285D01*
X143642857Y-145778571D01*
X143642857Y-145278571D01*
X143714285Y-144992857D01*
X143857142Y-144850000D01*
X144000000Y-144778571D01*
X146000000Y-146278571D02*
X145285714Y-146278571D01*
X145285714Y-144778571D01*
X129250000Y-134428571D02*
X128392857Y-134428571D01*
X128821428Y-134428571D02*
X128821428Y-132928571D01*
X128678571Y-133142857D01*
X128535714Y-133285714D01*
X128392857Y-133357142D01*
X129892857Y-133428571D02*
X129892857Y-134928571D01*
X130607142Y-134214285D02*
X130678571Y-134357142D01*
X130821428Y-134428571D01*
X129892857Y-134214285D02*
X129964285Y-134357142D01*
X130107142Y-134428571D01*
X130392857Y-134428571D01*
X130535714Y-134357142D01*
X130607142Y-134214285D01*
X130607142Y-133428571D01*
X131964285Y-133642857D02*
X131464285Y-133642857D01*
X131464285Y-134428571D02*
X131464285Y-132928571D01*
X132178571Y-132928571D01*
X153857142Y-144850000D02*
X153714285Y-144778571D01*
X153500000Y-144778571D01*
X153285714Y-144850000D01*
X153142857Y-144992857D01*
X153071428Y-145135714D01*
X153000000Y-145421428D01*
X153000000Y-145635714D01*
X153071428Y-145921428D01*
X153142857Y-146064285D01*
X153285714Y-146207142D01*
X153500000Y-146278571D01*
X153642857Y-146278571D01*
X153857142Y-146207142D01*
X153928571Y-146135714D01*
X153928571Y-145635714D01*
X153642857Y-145635714D01*
X154571428Y-146278571D02*
X154571428Y-144778571D01*
X155428571Y-146278571D01*
X155428571Y-144778571D01*
X156142857Y-146278571D02*
X156142857Y-144778571D01*
X156500000Y-144778571D01*
X156714285Y-144850000D01*
X156857142Y-144992857D01*
X156928571Y-145135714D01*
X157000000Y-145421428D01*
X157000000Y-145635714D01*
X156928571Y-145921428D01*
X156857142Y-146064285D01*
X156714285Y-146207142D01*
X156500000Y-146278571D01*
X156142857Y-146278571D01*
D12*
X180400000Y-124957142D02*
X180971428Y-124957142D01*
X181257142Y-125100000D01*
X181542857Y-125385714D01*
X181685714Y-125957142D01*
X181685714Y-126957142D01*
X181542857Y-127528571D01*
X181257142Y-127814285D01*
X180971428Y-127957142D01*
X180400000Y-127957142D01*
X180114285Y-127814285D01*
X179828571Y-127528571D01*
X179685714Y-126957142D01*
X179685714Y-125957142D01*
X179828571Y-125385714D01*
X180114285Y-125100000D01*
X180400000Y-124957142D01*
X182971428Y-124957142D02*
X182971428Y-127385714D01*
X183114285Y-127671428D01*
X183257142Y-127814285D01*
X183542857Y-127957142D01*
X184114285Y-127957142D01*
X184400000Y-127814285D01*
X184542857Y-127671428D01*
X184685714Y-127385714D01*
X184685714Y-124957142D01*
X185685714Y-124957142D02*
X187400000Y-124957142D01*
X186542857Y-127957142D02*
X186542857Y-124957142D01*
D13*
X139250000Y-134428571D02*
X138392857Y-134428571D01*
X138821428Y-134428571D02*
X138821428Y-132928571D01*
X138678571Y-133142857D01*
X138535714Y-133285714D01*
X138392857Y-133357142D01*
X139892857Y-133428571D02*
X139892857Y-134928571D01*
X140607142Y-134214285D02*
X140678571Y-134357142D01*
X140821428Y-134428571D01*
X139892857Y-134214285D02*
X139964285Y-134357142D01*
X140107142Y-134428571D01*
X140392857Y-134428571D01*
X140535714Y-134357142D01*
X140607142Y-134214285D01*
X140607142Y-133428571D01*
X141964285Y-133642857D02*
X141464285Y-133642857D01*
X141464285Y-134428571D02*
X141464285Y-132928571D01*
X142178571Y-132928571D01*
D10*
%TO.C,R7*%
X137552380Y-104166666D02*
X137076190Y-104500000D01*
X137552380Y-104738095D02*
X136552380Y-104738095D01*
X136552380Y-104357142D01*
X136600000Y-104261904D01*
X136647619Y-104214285D01*
X136742857Y-104166666D01*
X136885714Y-104166666D01*
X136980952Y-104214285D01*
X137028571Y-104261904D01*
X137076190Y-104357142D01*
X137076190Y-104738095D01*
X136552380Y-103833333D02*
X136552380Y-103166666D01*
X137552380Y-103595238D01*
%TO.C,C4*%
X124276333Y-111377142D02*
X124228714Y-111424761D01*
X124085857Y-111472380D01*
X123990619Y-111472380D01*
X123847761Y-111424761D01*
X123752523Y-111329523D01*
X123704904Y-111234285D01*
X123657285Y-111043809D01*
X123657285Y-110900952D01*
X123704904Y-110710476D01*
X123752523Y-110615238D01*
X123847761Y-110520000D01*
X123990619Y-110472380D01*
X124085857Y-110472380D01*
X124228714Y-110520000D01*
X124276333Y-110567619D01*
X125133476Y-110805714D02*
X125133476Y-111472380D01*
X124895380Y-110424761D02*
X124657285Y-111139047D01*
X125276333Y-111139047D01*
%TO.C,B2*%
X100595238Y-134178571D02*
X100738095Y-134226190D01*
X100785714Y-134273809D01*
X100833333Y-134369047D01*
X100833333Y-134511904D01*
X100785714Y-134607142D01*
X100738095Y-134654761D01*
X100642857Y-134702380D01*
X100261904Y-134702380D01*
X100261904Y-133702380D01*
X100595238Y-133702380D01*
X100690476Y-133750000D01*
X100738095Y-133797619D01*
X100785714Y-133892857D01*
X100785714Y-133988095D01*
X100738095Y-134083333D01*
X100690476Y-134130952D01*
X100595238Y-134178571D01*
X100261904Y-134178571D01*
X101214285Y-133797619D02*
X101261904Y-133750000D01*
X101357142Y-133702380D01*
X101595238Y-133702380D01*
X101690476Y-133750000D01*
X101738095Y-133797619D01*
X101785714Y-133892857D01*
X101785714Y-133988095D01*
X101738095Y-134130952D01*
X101166666Y-134702380D01*
X101785714Y-134702380D01*
%TO.C,C1*%
X118007142Y-128316666D02*
X118054761Y-128364285D01*
X118102380Y-128507142D01*
X118102380Y-128602380D01*
X118054761Y-128745238D01*
X117959523Y-128840476D01*
X117864285Y-128888095D01*
X117673809Y-128935714D01*
X117530952Y-128935714D01*
X117340476Y-128888095D01*
X117245238Y-128840476D01*
X117150000Y-128745238D01*
X117102380Y-128602380D01*
X117102380Y-128507142D01*
X117150000Y-128364285D01*
X117197619Y-128316666D01*
X118102380Y-127364285D02*
X118102380Y-127935714D01*
X118102380Y-127650000D02*
X117102380Y-127650000D01*
X117245238Y-127745238D01*
X117340476Y-127840476D01*
X117388095Y-127935714D01*
%TO.C,B4*%
X176095238Y-135178571D02*
X176238095Y-135226190D01*
X176285714Y-135273809D01*
X176333333Y-135369047D01*
X176333333Y-135511904D01*
X176285714Y-135607142D01*
X176238095Y-135654761D01*
X176142857Y-135702380D01*
X175761904Y-135702380D01*
X175761904Y-134702380D01*
X176095238Y-134702380D01*
X176190476Y-134750000D01*
X176238095Y-134797619D01*
X176285714Y-134892857D01*
X176285714Y-134988095D01*
X176238095Y-135083333D01*
X176190476Y-135130952D01*
X176095238Y-135178571D01*
X175761904Y-135178571D01*
X177190476Y-135035714D02*
X177190476Y-135702380D01*
X176952380Y-134654761D02*
X176714285Y-135369047D01*
X177333333Y-135369047D01*
%TO.C,B3*%
X176095238Y-70113356D02*
X176238095Y-70160975D01*
X176285714Y-70208594D01*
X176333333Y-70303832D01*
X176333333Y-70446689D01*
X176285714Y-70541927D01*
X176238095Y-70589546D01*
X176142857Y-70637165D01*
X175761904Y-70637165D01*
X175761904Y-69637165D01*
X176095238Y-69637165D01*
X176190476Y-69684785D01*
X176238095Y-69732404D01*
X176285714Y-69827642D01*
X176285714Y-69922880D01*
X176238095Y-70018118D01*
X176190476Y-70065737D01*
X176095238Y-70113356D01*
X175761904Y-70113356D01*
X176666666Y-69637165D02*
X177285714Y-69637165D01*
X176952380Y-70018118D01*
X177095238Y-70018118D01*
X177190476Y-70065737D01*
X177238095Y-70113356D01*
X177285714Y-70208594D01*
X177285714Y-70446689D01*
X177238095Y-70541927D01*
X177190476Y-70589546D01*
X177095238Y-70637165D01*
X176809523Y-70637165D01*
X176714285Y-70589546D01*
X176666666Y-70541927D01*
%TO.C,R4*%
X137552380Y-91166666D02*
X137076190Y-91500000D01*
X137552380Y-91738095D02*
X136552380Y-91738095D01*
X136552380Y-91357142D01*
X136600000Y-91261904D01*
X136647619Y-91214285D01*
X136742857Y-91166666D01*
X136885714Y-91166666D01*
X136980952Y-91214285D01*
X137028571Y-91261904D01*
X137076190Y-91357142D01*
X137076190Y-91738095D01*
X136885714Y-90309523D02*
X137552380Y-90309523D01*
X136504761Y-90547619D02*
X137219047Y-90785714D01*
X137219047Y-90166666D01*
%TO.C,R2*%
X101333333Y-85602380D02*
X101000000Y-85126190D01*
X100761904Y-85602380D02*
X100761904Y-84602380D01*
X101142857Y-84602380D01*
X101238095Y-84650000D01*
X101285714Y-84697619D01*
X101333333Y-84792857D01*
X101333333Y-84935714D01*
X101285714Y-85030952D01*
X101238095Y-85078571D01*
X101142857Y-85126190D01*
X100761904Y-85126190D01*
X101714285Y-84697619D02*
X101761904Y-84650000D01*
X101857142Y-84602380D01*
X102095238Y-84602380D01*
X102190476Y-84650000D01*
X102238095Y-84697619D01*
X102285714Y-84792857D01*
X102285714Y-84888095D01*
X102238095Y-85030952D01*
X101666666Y-85602380D01*
X102285714Y-85602380D01*
%TO.C,C6*%
X133583333Y-94127142D02*
X133535714Y-94174761D01*
X133392857Y-94222380D01*
X133297619Y-94222380D01*
X133154761Y-94174761D01*
X133059523Y-94079523D01*
X133011904Y-93984285D01*
X132964285Y-93793809D01*
X132964285Y-93650952D01*
X133011904Y-93460476D01*
X133059523Y-93365238D01*
X133154761Y-93270000D01*
X133297619Y-93222380D01*
X133392857Y-93222380D01*
X133535714Y-93270000D01*
X133583333Y-93317619D01*
X134440476Y-93222380D02*
X134250000Y-93222380D01*
X134154761Y-93270000D01*
X134107142Y-93317619D01*
X134011904Y-93460476D01*
X133964285Y-93650952D01*
X133964285Y-94031904D01*
X134011904Y-94127142D01*
X134059523Y-94174761D01*
X134154761Y-94222380D01*
X134345238Y-94222380D01*
X134440476Y-94174761D01*
X134488095Y-94127142D01*
X134535714Y-94031904D01*
X134535714Y-93793809D01*
X134488095Y-93698571D01*
X134440476Y-93650952D01*
X134345238Y-93603333D01*
X134154761Y-93603333D01*
X134059523Y-93650952D01*
X134011904Y-93698571D01*
X133964285Y-93793809D01*
%TO.C,R3*%
X111252380Y-104166666D02*
X110776190Y-104500000D01*
X111252380Y-104738095D02*
X110252380Y-104738095D01*
X110252380Y-104357142D01*
X110300000Y-104261904D01*
X110347619Y-104214285D01*
X110442857Y-104166666D01*
X110585714Y-104166666D01*
X110680952Y-104214285D01*
X110728571Y-104261904D01*
X110776190Y-104357142D01*
X110776190Y-104738095D01*
X110252380Y-103833333D02*
X110252380Y-103214285D01*
X110633333Y-103547619D01*
X110633333Y-103404761D01*
X110680952Y-103309523D01*
X110728571Y-103261904D01*
X110823809Y-103214285D01*
X111061904Y-103214285D01*
X111157142Y-103261904D01*
X111204761Y-103309523D01*
X111252380Y-103404761D01*
X111252380Y-103690476D01*
X111204761Y-103785714D01*
X111157142Y-103833333D01*
%TO.C,D2*%
X177807380Y-103138095D02*
X176807380Y-103138095D01*
X176807380Y-102900000D01*
X176855000Y-102757142D01*
X176950238Y-102661904D01*
X177045476Y-102614285D01*
X177235952Y-102566666D01*
X177378809Y-102566666D01*
X177569285Y-102614285D01*
X177664523Y-102661904D01*
X177759761Y-102757142D01*
X177807380Y-102900000D01*
X177807380Y-103138095D01*
X176902619Y-102185714D02*
X176855000Y-102138095D01*
X176807380Y-102042857D01*
X176807380Y-101804761D01*
X176855000Y-101709523D01*
X176902619Y-101661904D01*
X176997857Y-101614285D01*
X177093095Y-101614285D01*
X177235952Y-101661904D01*
X177807380Y-102233333D01*
X177807380Y-101614285D01*
%TO.C,R6*%
X131652380Y-104166666D02*
X131176190Y-104500000D01*
X131652380Y-104738095D02*
X130652380Y-104738095D01*
X130652380Y-104357142D01*
X130700000Y-104261904D01*
X130747619Y-104214285D01*
X130842857Y-104166666D01*
X130985714Y-104166666D01*
X131080952Y-104214285D01*
X131128571Y-104261904D01*
X131176190Y-104357142D01*
X131176190Y-104738095D01*
X130652380Y-103309523D02*
X130652380Y-103500000D01*
X130700000Y-103595238D01*
X130747619Y-103642857D01*
X130890476Y-103738095D01*
X131080952Y-103785714D01*
X131461904Y-103785714D01*
X131557142Y-103738095D01*
X131604761Y-103690476D01*
X131652380Y-103595238D01*
X131652380Y-103404761D01*
X131604761Y-103309523D01*
X131557142Y-103261904D01*
X131461904Y-103214285D01*
X131223809Y-103214285D01*
X131128571Y-103261904D01*
X131080952Y-103309523D01*
X131033333Y-103404761D01*
X131033333Y-103595238D01*
X131080952Y-103690476D01*
X131128571Y-103738095D01*
X131223809Y-103785714D01*
%TO.C,Q1*%
X158864761Y-114957619D02*
X158769523Y-114910000D01*
X158674285Y-114814761D01*
X158531428Y-114671904D01*
X158436190Y-114624285D01*
X158340952Y-114624285D01*
X158388571Y-114862380D02*
X158293333Y-114814761D01*
X158198095Y-114719523D01*
X158150476Y-114529047D01*
X158150476Y-114195714D01*
X158198095Y-114005238D01*
X158293333Y-113910000D01*
X158388571Y-113862380D01*
X158579047Y-113862380D01*
X158674285Y-113910000D01*
X158769523Y-114005238D01*
X158817142Y-114195714D01*
X158817142Y-114529047D01*
X158769523Y-114719523D01*
X158674285Y-114814761D01*
X158579047Y-114862380D01*
X158388571Y-114862380D01*
X159769523Y-114862380D02*
X159198095Y-114862380D01*
X159483809Y-114862380D02*
X159483809Y-113862380D01*
X159388571Y-114005238D01*
X159293333Y-114100476D01*
X159198095Y-114148095D01*
%TO.C,B1*%
X100595238Y-69113356D02*
X100738095Y-69160975D01*
X100785714Y-69208594D01*
X100833333Y-69303832D01*
X100833333Y-69446689D01*
X100785714Y-69541927D01*
X100738095Y-69589546D01*
X100642857Y-69637165D01*
X100261904Y-69637165D01*
X100261904Y-68637165D01*
X100595238Y-68637165D01*
X100690476Y-68684785D01*
X100738095Y-68732404D01*
X100785714Y-68827642D01*
X100785714Y-68922880D01*
X100738095Y-69018118D01*
X100690476Y-69065737D01*
X100595238Y-69113356D01*
X100261904Y-69113356D01*
X101785714Y-69637165D02*
X101214285Y-69637165D01*
X101500000Y-69637165D02*
X101500000Y-68637165D01*
X101404761Y-68780023D01*
X101309523Y-68875261D01*
X101214285Y-68922880D01*
%TO.C,R1*%
X101333333Y-115602380D02*
X101000000Y-115126190D01*
X100761904Y-115602380D02*
X100761904Y-114602380D01*
X101142857Y-114602380D01*
X101238095Y-114650000D01*
X101285714Y-114697619D01*
X101333333Y-114792857D01*
X101333333Y-114935714D01*
X101285714Y-115030952D01*
X101238095Y-115078571D01*
X101142857Y-115126190D01*
X100761904Y-115126190D01*
X102285714Y-115602380D02*
X101714285Y-115602380D01*
X102000000Y-115602380D02*
X102000000Y-114602380D01*
X101904761Y-114745238D01*
X101809523Y-114840476D01*
X101714285Y-114888095D01*
%TO.C,C5*%
X124533333Y-61157142D02*
X124485714Y-61204761D01*
X124342857Y-61252380D01*
X124247619Y-61252380D01*
X124104761Y-61204761D01*
X124009523Y-61109523D01*
X123961904Y-61014285D01*
X123914285Y-60823809D01*
X123914285Y-60680952D01*
X123961904Y-60490476D01*
X124009523Y-60395238D01*
X124104761Y-60300000D01*
X124247619Y-60252380D01*
X124342857Y-60252380D01*
X124485714Y-60300000D01*
X124533333Y-60347619D01*
X125438095Y-60252380D02*
X124961904Y-60252380D01*
X124914285Y-60728571D01*
X124961904Y-60680952D01*
X125057142Y-60633333D01*
X125295238Y-60633333D01*
X125390476Y-60680952D01*
X125438095Y-60728571D01*
X125485714Y-60823809D01*
X125485714Y-61061904D01*
X125438095Y-61157142D01*
X125390476Y-61204761D01*
X125295238Y-61252380D01*
X125057142Y-61252380D01*
X124961904Y-61204761D01*
X124914285Y-61157142D01*
%TO.C,C2*%
X128007142Y-128316666D02*
X128054761Y-128364285D01*
X128102380Y-128507142D01*
X128102380Y-128602380D01*
X128054761Y-128745238D01*
X127959523Y-128840476D01*
X127864285Y-128888095D01*
X127673809Y-128935714D01*
X127530952Y-128935714D01*
X127340476Y-128888095D01*
X127245238Y-128840476D01*
X127150000Y-128745238D01*
X127102380Y-128602380D01*
X127102380Y-128507142D01*
X127150000Y-128364285D01*
X127197619Y-128316666D01*
X127197619Y-127935714D02*
X127150000Y-127888095D01*
X127102380Y-127792857D01*
X127102380Y-127554761D01*
X127150000Y-127459523D01*
X127197619Y-127411904D01*
X127292857Y-127364285D01*
X127388095Y-127364285D01*
X127530952Y-127411904D01*
X128102380Y-127983333D01*
X128102380Y-127364285D01*
%TO.C,C3*%
X138007142Y-128316666D02*
X138054761Y-128364285D01*
X138102380Y-128507142D01*
X138102380Y-128602380D01*
X138054761Y-128745238D01*
X137959523Y-128840476D01*
X137864285Y-128888095D01*
X137673809Y-128935714D01*
X137530952Y-128935714D01*
X137340476Y-128888095D01*
X137245238Y-128840476D01*
X137150000Y-128745238D01*
X137102380Y-128602380D01*
X137102380Y-128507142D01*
X137150000Y-128364285D01*
X137197619Y-128316666D01*
X137102380Y-127983333D02*
X137102380Y-127364285D01*
X137483333Y-127697619D01*
X137483333Y-127554761D01*
X137530952Y-127459523D01*
X137578571Y-127411904D01*
X137673809Y-127364285D01*
X137911904Y-127364285D01*
X138007142Y-127411904D01*
X138054761Y-127459523D01*
X138102380Y-127554761D01*
X138102380Y-127840476D01*
X138054761Y-127935714D01*
X138007142Y-127983333D01*
%TO.C,J5*%
X129866666Y-114822380D02*
X129866666Y-115536666D01*
X129819047Y-115679523D01*
X129723809Y-115774761D01*
X129580952Y-115822380D01*
X129485714Y-115822380D01*
X130819047Y-114822380D02*
X130342857Y-114822380D01*
X130295238Y-115298571D01*
X130342857Y-115250952D01*
X130438095Y-115203333D01*
X130676190Y-115203333D01*
X130771428Y-115250952D01*
X130819047Y-115298571D01*
X130866666Y-115393809D01*
X130866666Y-115631904D01*
X130819047Y-115727142D01*
X130771428Y-115774761D01*
X130676190Y-115822380D01*
X130438095Y-115822380D01*
X130342857Y-115774761D01*
X130295238Y-115727142D01*
%TO.C,U1*%
X123991095Y-103472380D02*
X123991095Y-104281904D01*
X124038714Y-104377142D01*
X124086333Y-104424761D01*
X124181571Y-104472380D01*
X124372047Y-104472380D01*
X124467285Y-104424761D01*
X124514904Y-104377142D01*
X124562523Y-104281904D01*
X124562523Y-103472380D01*
X125562523Y-104472380D02*
X124991095Y-104472380D01*
X125276809Y-104472380D02*
X125276809Y-103472380D01*
X125181571Y-103615238D01*
X125086333Y-103710476D01*
X124991095Y-103758095D01*
%TO.C,G\u002A\u002A\u002A*%
G36*
X135210191Y-60011498D02*
G01*
X135319728Y-59898212D01*
X135850191Y-59447170D01*
X136426331Y-59111137D01*
X137053168Y-58887863D01*
X137735723Y-58775097D01*
X137840659Y-58767724D01*
X138547889Y-58784117D01*
X139216647Y-58917033D01*
X139840827Y-59164176D01*
X140414323Y-59523250D01*
X140837377Y-59894444D01*
X141040556Y-60107620D01*
X141220665Y-60311522D01*
X141351777Y-60476092D01*
X141394098Y-60539806D01*
X141506289Y-60736919D01*
X140443521Y-60736919D01*
X140443521Y-61171638D01*
X140816137Y-61171638D01*
X141012452Y-61178687D01*
X141147043Y-61197009D01*
X141187674Y-61218215D01*
X141148722Y-61282575D01*
X141045342Y-61415719D01*
X140896211Y-61594122D01*
X140815058Y-61687563D01*
X140615146Y-61928825D01*
X140496612Y-62109155D01*
X140446949Y-62248936D01*
X140443521Y-62293064D01*
X140443521Y-62475795D01*
X142014498Y-62475795D01*
X141975201Y-62957090D01*
X141860341Y-63628854D01*
X141634767Y-64259042D01*
X141308306Y-64836032D01*
X140890784Y-65348203D01*
X140392026Y-65783934D01*
X139821858Y-66131602D01*
X139190107Y-66379588D01*
X139048689Y-66418382D01*
X138643333Y-66487570D01*
X138175994Y-66513583D01*
X137693678Y-66497633D01*
X137243390Y-66440931D01*
X136927471Y-66363728D01*
X136395352Y-66153867D01*
X135925745Y-65881627D01*
X135480433Y-65523084D01*
X135287873Y-65337398D01*
X134840038Y-64810046D01*
X134510058Y-64246953D01*
X134295438Y-63641539D01*
X134193681Y-62987224D01*
X134190731Y-62444743D01*
X134281203Y-61754165D01*
X134478794Y-61124016D01*
X134569352Y-60954279D01*
X136717360Y-60954279D01*
X136724880Y-61093446D01*
X136771314Y-61155293D01*
X136892470Y-61171152D01*
X136965771Y-61171638D01*
X137214181Y-61171638D01*
X137214181Y-62475795D01*
X137768760Y-62475795D01*
X137786459Y-61839242D01*
X137804157Y-61202689D01*
X138037042Y-61183415D01*
X138189702Y-61161683D01*
X138255015Y-61106477D01*
X138269792Y-60980984D01*
X138269927Y-60950530D01*
X138269927Y-60798437D01*
X138456235Y-60798437D01*
X138479187Y-60884884D01*
X138546826Y-61081522D01*
X138657327Y-61383374D01*
X138808864Y-61785461D01*
X138999612Y-62282808D01*
X139020183Y-62336064D01*
X139073834Y-62423022D01*
X139171513Y-62464498D01*
X139351373Y-62475696D01*
X139370713Y-62475739D01*
X139667238Y-62475684D01*
X139799948Y-62118649D01*
X139887001Y-61884881D01*
X139996423Y-61591647D01*
X140106999Y-61295788D01*
X140125675Y-61245877D01*
X140318691Y-60730139D01*
X140028657Y-60749055D01*
X139738622Y-60767971D01*
X139603633Y-61211079D01*
X139511254Y-61512261D01*
X139445311Y-61698268D01*
X139393814Y-61772035D01*
X139344770Y-61736496D01*
X139286190Y-61594588D01*
X139206080Y-61349245D01*
X139193929Y-61311369D01*
X139009366Y-60736919D01*
X138732801Y-60736919D01*
X138567142Y-60749258D01*
X138468377Y-60780443D01*
X138456235Y-60798437D01*
X138269927Y-60798437D01*
X138269927Y-60736919D01*
X136717360Y-60736919D01*
X136717360Y-60954279D01*
X134569352Y-60954279D01*
X134787219Y-60545919D01*
X135210191Y-60011498D01*
G37*
G36*
X143718270Y-63553390D02*
G01*
X143783199Y-63492572D01*
X143972213Y-63416167D01*
X144177909Y-63432436D01*
X144364942Y-63524766D01*
X144497966Y-63676541D01*
X144542299Y-63849384D01*
X144488997Y-64069739D01*
X144348268Y-64229760D01*
X144148873Y-64313010D01*
X143919574Y-64303050D01*
X143815869Y-64264541D01*
X143670349Y-64133476D01*
X143604466Y-63945050D01*
X143604604Y-63943198D01*
X143762712Y-63943198D01*
X143792862Y-64020506D01*
X143907837Y-64120500D01*
X144074158Y-64153826D01*
X144234369Y-64113719D01*
X144281467Y-64078044D01*
X144343686Y-63956970D01*
X144355991Y-63873105D01*
X144306059Y-63702832D01*
X144161729Y-63609631D01*
X144031725Y-63593643D01*
X143865932Y-63644649D01*
X143769452Y-63773334D01*
X143762712Y-63943198D01*
X143604604Y-63943198D01*
X143619885Y-63738582D01*
X143718270Y-63553390D01*
G37*
G36*
X145184642Y-63453346D02*
G01*
X145285943Y-63489233D01*
X145287688Y-63532555D01*
X145181117Y-63569821D01*
X145085697Y-63581866D01*
X144917903Y-63620488D01*
X144852228Y-63684279D01*
X144892796Y-63749125D01*
X145043726Y-63790910D01*
X145049863Y-63791542D01*
X145212655Y-63830349D01*
X145274465Y-63888639D01*
X145231741Y-63942055D01*
X145080931Y-63966240D01*
X145075347Y-63966259D01*
X144927051Y-63976036D01*
X144865311Y-64026192D01*
X144852816Y-64147965D01*
X144852812Y-64152567D01*
X144828411Y-64289021D01*
X144771769Y-64339420D01*
X144707727Y-64288024D01*
X144692251Y-64254293D01*
X144677663Y-64149192D01*
X144673763Y-63965708D01*
X144678675Y-63804049D01*
X144697555Y-63438386D01*
X144992543Y-63438386D01*
X145184642Y-63453346D01*
G37*
G36*
X146033862Y-63510697D02*
G01*
X146102300Y-63431935D01*
X146143714Y-63420310D01*
X146209634Y-63481073D01*
X146298743Y-63621115D01*
X146395291Y-63806585D01*
X146483527Y-64003632D01*
X146547704Y-64178406D01*
X146572071Y-64297056D01*
X146564484Y-64324677D01*
X146498547Y-64318396D01*
X146440032Y-64261149D01*
X146328742Y-64186188D01*
X146166977Y-64152623D01*
X146004028Y-64161783D01*
X145889188Y-64215001D01*
X145868913Y-64245721D01*
X145787829Y-64328305D01*
X145741482Y-64338875D01*
X145671703Y-64312584D01*
X145670498Y-64288921D01*
X145824246Y-63927654D01*
X145827867Y-63919879D01*
X146004624Y-63919879D01*
X146039673Y-63961175D01*
X146127249Y-63966259D01*
X146243379Y-63948906D01*
X146281174Y-63916026D01*
X146248077Y-63830272D01*
X146200442Y-63755385D01*
X146138271Y-63687295D01*
X146092140Y-63714633D01*
X146046516Y-63805618D01*
X146004624Y-63919879D01*
X145827867Y-63919879D01*
X145943272Y-63672091D01*
X146033862Y-63510697D01*
G37*
G36*
X146985730Y-63407335D02*
G01*
X147232204Y-63447238D01*
X147395171Y-63560023D01*
X147460504Y-63735301D01*
X147461125Y-63756895D01*
X147410903Y-63920750D01*
X147262222Y-64010645D01*
X147107140Y-64028362D01*
X146965580Y-64041692D01*
X146909919Y-64100420D01*
X146902201Y-64183619D01*
X146869809Y-64308488D01*
X146809047Y-64338875D01*
X146759911Y-64314477D01*
X146731068Y-64226306D01*
X146718027Y-64051903D01*
X146715893Y-63873105D01*
X146715893Y-63753025D01*
X146902201Y-63753025D01*
X146920100Y-63866582D01*
X146999536Y-63897901D01*
X147072983Y-63892756D01*
X147213412Y-63841298D01*
X147263611Y-63733374D01*
X147258708Y-63634938D01*
X147182952Y-63597734D01*
X147092828Y-63593643D01*
X146957920Y-63609242D01*
X146907583Y-63677170D01*
X146902201Y-63753025D01*
X146715893Y-63753025D01*
X146715893Y-63407335D01*
X146985730Y-63407335D01*
G37*
G36*
X147855167Y-63407335D02*
G01*
X148101641Y-63447238D01*
X148264609Y-63560023D01*
X148329942Y-63735301D01*
X148330563Y-63756895D01*
X148280341Y-63920750D01*
X148131660Y-64010645D01*
X147976577Y-64028362D01*
X147835018Y-64041692D01*
X147779357Y-64100420D01*
X147771638Y-64183619D01*
X147739247Y-64308488D01*
X147678484Y-64338875D01*
X147629348Y-64314477D01*
X147600506Y-64226306D01*
X147587465Y-64051903D01*
X147585330Y-63873105D01*
X147585330Y-63753025D01*
X147771638Y-63753025D01*
X147789538Y-63866582D01*
X147868974Y-63897901D01*
X147942421Y-63892756D01*
X148082849Y-63841298D01*
X148133048Y-63733374D01*
X148128145Y-63634938D01*
X148052389Y-63597734D01*
X147962266Y-63593643D01*
X147827358Y-63609242D01*
X147777021Y-63677170D01*
X147771638Y-63753025D01*
X147585330Y-63753025D01*
X147585330Y-63407335D01*
X147855167Y-63407335D01*
G37*
G36*
X148602012Y-63435951D02*
G01*
X148631053Y-63537394D01*
X148640892Y-63735055D01*
X148641076Y-63779951D01*
X148641076Y-64152567D01*
X148827384Y-64152567D01*
X148975295Y-64180340D01*
X149013692Y-64245721D01*
X148977119Y-64307120D01*
X148852761Y-64335088D01*
X148734230Y-64338875D01*
X148454768Y-64338875D01*
X148454768Y-63873105D01*
X148459648Y-63627424D01*
X148477282Y-63483212D01*
X148512162Y-63418007D01*
X148547922Y-63407335D01*
X148602012Y-63435951D01*
G37*
G36*
X149280188Y-63431734D02*
G01*
X149309030Y-63519904D01*
X149322071Y-63694307D01*
X149324206Y-63873105D01*
X149319326Y-64118786D01*
X149301692Y-64262998D01*
X149266811Y-64328203D01*
X149231052Y-64338875D01*
X149181915Y-64314477D01*
X149153073Y-64226306D01*
X149140032Y-64051903D01*
X149137898Y-63873105D01*
X149142777Y-63627424D01*
X149160411Y-63483212D01*
X149195292Y-63418007D01*
X149231052Y-63407335D01*
X149280188Y-63431734D01*
G37*
G36*
X150078400Y-63417307D02*
G01*
X150173773Y-63451835D01*
X150193643Y-63500489D01*
X150152624Y-63565262D01*
X150016649Y-63591952D01*
X149945233Y-63593643D01*
X149772505Y-63609025D01*
X149701330Y-63660016D01*
X149696822Y-63686797D01*
X149743956Y-63755695D01*
X149894385Y-63779783D01*
X149914181Y-63779951D01*
X150074944Y-63800151D01*
X150131148Y-63864621D01*
X150131541Y-63873105D01*
X150084407Y-63942003D01*
X149933977Y-63966091D01*
X149914181Y-63966259D01*
X149753419Y-63986459D01*
X149697215Y-64050929D01*
X149696822Y-64059413D01*
X149737841Y-64124186D01*
X149873816Y-64150877D01*
X149945233Y-64152567D01*
X150117960Y-64167949D01*
X150189135Y-64218940D01*
X150193643Y-64245721D01*
X150160402Y-64304302D01*
X150045310Y-64332914D01*
X149883130Y-64338875D01*
X149572616Y-64338875D01*
X149572616Y-63407335D01*
X149883130Y-63407335D01*
X150078400Y-63417307D01*
G37*
G36*
X150662236Y-63407335D02*
G01*
X150880781Y-63428658D01*
X151036487Y-63505719D01*
X151096955Y-63559769D01*
X151222404Y-63752972D01*
X151238845Y-63949365D01*
X151158803Y-64126503D01*
X150994801Y-64261941D01*
X150759364Y-64333232D01*
X150662236Y-64338875D01*
X150379951Y-64338875D01*
X150379951Y-63873105D01*
X150566260Y-63873105D01*
X150572029Y-64045104D01*
X150603274Y-64126580D01*
X150680902Y-64151134D01*
X150740147Y-64152567D01*
X150895318Y-64127402D01*
X150988558Y-64078044D01*
X151050777Y-63956970D01*
X151063081Y-63873105D01*
X151013090Y-63702766D01*
X150868852Y-63609505D01*
X150740147Y-63593643D01*
X150633126Y-63602915D01*
X150582429Y-63653131D01*
X150567151Y-63777890D01*
X150566260Y-63873105D01*
X150379951Y-63873105D01*
X150379951Y-63407335D01*
X150662236Y-63407335D01*
G37*
G36*
X152195096Y-63428790D02*
G01*
X152209789Y-63432287D01*
X152324951Y-63486884D01*
X152335499Y-63549096D01*
X152257376Y-63596653D01*
X152106522Y-63607284D01*
X152085996Y-63605222D01*
X151925952Y-63602278D01*
X151880753Y-63641268D01*
X151950037Y-63717721D01*
X152102736Y-63811002D01*
X152289630Y-63944186D01*
X152353052Y-64078467D01*
X152293733Y-64215682D01*
X152272750Y-64238183D01*
X152105219Y-64325459D01*
X151902120Y-64317741D01*
X151792788Y-64271798D01*
X151694083Y-64191592D01*
X151709987Y-64140666D01*
X151832830Y-64126494D01*
X151932519Y-64135602D01*
X152112029Y-64139452D01*
X152180255Y-64097731D01*
X152134692Y-64024817D01*
X151972835Y-63935089D01*
X151967817Y-63932980D01*
X151784444Y-63839166D01*
X151704257Y-63742347D01*
X151708294Y-63617012D01*
X151715290Y-63593232D01*
X151811137Y-63477823D01*
X151984125Y-63418761D01*
X152195096Y-63428790D01*
G37*
G36*
X153101413Y-63444991D02*
G01*
X153225054Y-63510683D01*
X153234994Y-63568459D01*
X153141537Y-63603419D01*
X152991219Y-63604297D01*
X152781087Y-63627182D01*
X152658620Y-63728030D01*
X152635473Y-63891842D01*
X152673618Y-64013040D01*
X152735160Y-64112275D01*
X152825328Y-64147120D01*
X152990181Y-64135345D01*
X152990509Y-64135301D01*
X153171079Y-64128067D01*
X153265038Y-64158657D01*
X153258888Y-64217237D01*
X153180395Y-64273657D01*
X152951500Y-64335667D01*
X152732624Y-64287082D01*
X152632210Y-64216771D01*
X152486903Y-64025506D01*
X152462108Y-63825503D01*
X152520424Y-63659749D01*
X152671965Y-63487492D01*
X152881700Y-63414921D01*
X153101413Y-63444991D01*
G37*
G36*
X153565274Y-63431734D02*
G01*
X153594116Y-63519904D01*
X153607157Y-63694307D01*
X153609291Y-63873105D01*
X153604412Y-64118786D01*
X153586778Y-64262998D01*
X153551897Y-64328203D01*
X153516137Y-64338875D01*
X153467001Y-64314477D01*
X153438159Y-64226306D01*
X153425118Y-64051903D01*
X153422983Y-63873105D01*
X153427863Y-63627424D01*
X153445497Y-63483212D01*
X153480378Y-63418007D01*
X153516137Y-63407335D01*
X153565274Y-63431734D01*
G37*
G36*
X154343148Y-63415698D02*
G01*
X154449197Y-63445044D01*
X154478729Y-63500489D01*
X154437710Y-63565262D01*
X154301734Y-63591952D01*
X154230318Y-63593643D01*
X154057591Y-63609025D01*
X153986416Y-63660016D01*
X153981907Y-63686797D01*
X154029042Y-63755695D01*
X154179471Y-63779783D01*
X154199267Y-63779951D01*
X154360030Y-63800151D01*
X154416233Y-63864621D01*
X154416626Y-63873105D01*
X154369492Y-63942003D01*
X154219063Y-63966091D01*
X154199267Y-63966259D01*
X154038504Y-63986459D01*
X153982300Y-64050929D01*
X153981907Y-64059413D01*
X154022927Y-64124186D01*
X154158902Y-64150877D01*
X154230318Y-64152567D01*
X154403046Y-64167949D01*
X154474221Y-64218940D01*
X154478729Y-64245721D01*
X154444475Y-64305190D01*
X154326518Y-64333634D01*
X154178566Y-64338875D01*
X153994593Y-64330953D01*
X153866473Y-64310828D01*
X153837001Y-64297473D01*
X153816175Y-64218660D01*
X153801306Y-64051734D01*
X153795600Y-63832759D01*
X153795599Y-63831703D01*
X153795599Y-63407335D01*
X154137164Y-63407335D01*
X154343148Y-63415698D01*
G37*
G36*
X155430366Y-63434615D02*
G01*
X155458364Y-63530712D01*
X155470734Y-63717010D01*
X155472372Y-63873105D01*
X155462836Y-64144351D01*
X155429286Y-64295859D01*
X155364306Y-64330983D01*
X155260482Y-64253077D01*
X155110398Y-64065494D01*
X155094758Y-64043887D01*
X154882396Y-63748900D01*
X154863468Y-64043887D01*
X154836323Y-64242053D01*
X154784625Y-64330927D01*
X154754788Y-64338875D01*
X154707043Y-64311595D01*
X154679045Y-64215498D01*
X154666675Y-64029201D01*
X154665037Y-63873105D01*
X154674573Y-63601859D01*
X154708123Y-63450351D01*
X154773103Y-63415227D01*
X154876927Y-63493133D01*
X155027011Y-63680716D01*
X155042651Y-63702323D01*
X155255013Y-63997310D01*
X155273941Y-63702323D01*
X155301086Y-63504157D01*
X155352784Y-63415283D01*
X155382621Y-63407335D01*
X155430366Y-63434615D01*
G37*
G36*
X156259929Y-63441924D02*
G01*
X156389238Y-63509332D01*
X156401710Y-63569987D01*
X156304612Y-63612151D01*
X156146757Y-63624694D01*
X155924661Y-63656332D01*
X155809135Y-63750460D01*
X155801152Y-63905905D01*
X155835079Y-64000362D01*
X155898541Y-64107672D01*
X155985508Y-64146714D01*
X156143178Y-64137228D01*
X156157758Y-64135300D01*
X156329916Y-64128708D01*
X156399451Y-64162334D01*
X156358441Y-64227421D01*
X156283790Y-64274588D01*
X156058166Y-64334226D01*
X155842548Y-64279199D01*
X155837606Y-64276356D01*
X155742799Y-64178979D01*
X155661211Y-64034473D01*
X155627724Y-63818155D01*
X155694684Y-63627273D01*
X155838346Y-63485326D01*
X156034968Y-63415813D01*
X156259929Y-63441924D01*
G37*
G36*
X157144483Y-63424271D02*
G01*
X157252346Y-63465324D01*
X157254877Y-63515863D01*
X157146407Y-63561256D01*
X157004613Y-63581866D01*
X156834751Y-63621416D01*
X156769447Y-63685040D01*
X156810128Y-63746392D01*
X156958219Y-63779127D01*
X156993888Y-63779951D01*
X157154651Y-63800151D01*
X157210854Y-63864621D01*
X157211247Y-63873105D01*
X157164113Y-63942003D01*
X157013684Y-63966091D01*
X156993888Y-63966259D01*
X156833125Y-63986459D01*
X156776921Y-64050929D01*
X156776528Y-64059413D01*
X156817548Y-64124186D01*
X156953523Y-64150877D01*
X157024939Y-64152567D01*
X157197667Y-64167949D01*
X157268842Y-64218940D01*
X157273350Y-64245721D01*
X157242685Y-64301899D01*
X157135084Y-64330821D01*
X156931785Y-64338875D01*
X156590220Y-64338875D01*
X156590220Y-63407335D01*
X156936960Y-63407335D01*
X157144483Y-63424271D01*
G37*
G36*
X157847188Y-63426605D02*
G01*
X157969733Y-63478762D01*
X158004727Y-63534853D01*
X157991171Y-63597630D01*
X157899022Y-63613642D01*
X157803424Y-63605687D01*
X157641610Y-63605131D01*
X157591546Y-63647924D01*
X157652637Y-63724446D01*
X157816749Y-63821413D01*
X158003814Y-63946492D01*
X158067219Y-64078237D01*
X158006769Y-64216175D01*
X157986197Y-64238183D01*
X157816220Y-64326272D01*
X157603637Y-64311337D01*
X157473236Y-64255819D01*
X157373745Y-64180737D01*
X157389464Y-64135190D01*
X157513978Y-64123526D01*
X157649882Y-64136128D01*
X157826219Y-64141288D01*
X157890844Y-64101600D01*
X157843189Y-64027662D01*
X157682684Y-63930071D01*
X157661492Y-63919929D01*
X157485934Y-63801374D01*
X157407553Y-63668696D01*
X157433134Y-63543639D01*
X157521063Y-63469811D01*
X157682227Y-63421550D01*
X157847188Y-63426605D01*
G37*
G36*
X144251304Y-61924822D02*
G01*
X144377802Y-61958929D01*
X144399313Y-62034567D01*
X144321232Y-62167113D01*
X144166905Y-62351589D01*
X143921012Y-62631051D01*
X144169553Y-62650148D01*
X144352984Y-62685432D01*
X144417933Y-62754294D01*
X144418093Y-62758827D01*
X144389374Y-62807964D01*
X144288843Y-62836036D01*
X144094941Y-62847488D01*
X143983374Y-62848411D01*
X143731393Y-62838903D01*
X143584101Y-62811493D01*
X143548656Y-62779401D01*
X143586045Y-62698828D01*
X143683478Y-62557497D01*
X143802849Y-62406785D01*
X144057043Y-62103178D01*
X143833901Y-62103178D01*
X143670862Y-62084043D01*
X143611623Y-62022457D01*
X143610758Y-62010024D01*
X143637707Y-61957773D01*
X143734002Y-61928731D01*
X143922813Y-61917552D01*
X144014426Y-61916870D01*
X144251304Y-61924822D01*
G37*
G36*
X144674819Y-62352136D02*
G01*
X144785885Y-62120464D01*
X144873133Y-61985280D01*
X144952579Y-61925427D01*
X145004328Y-61916870D01*
X145082903Y-61938602D01*
X145157557Y-62018019D01*
X145243373Y-62176454D01*
X145333629Y-62382641D01*
X145528043Y-62848411D01*
X145376736Y-62848411D01*
X145254829Y-62815308D01*
X145225428Y-62755257D01*
X145176702Y-62685357D01*
X145022838Y-62662133D01*
X145014713Y-62662103D01*
X144845092Y-62689439D01*
X144768251Y-62755257D01*
X144703534Y-62814111D01*
X144597631Y-62849127D01*
X144506070Y-62848226D01*
X144480196Y-62817906D01*
X144503797Y-62750608D01*
X144566272Y-62600116D01*
X144635227Y-62441973D01*
X144880663Y-62441973D01*
X144927981Y-62473937D01*
X144974832Y-62475795D01*
X145076567Y-62456576D01*
X145100272Y-62429218D01*
X145069713Y-62340849D01*
X145044844Y-62296622D01*
X144992510Y-62252990D01*
X144935079Y-62315048D01*
X144919405Y-62343199D01*
X144880663Y-62441973D01*
X144635227Y-62441973D01*
X144655132Y-62396321D01*
X144674819Y-62352136D01*
G37*
G36*
X146023639Y-61929278D02*
G01*
X146211510Y-61953552D01*
X146305906Y-62003430D01*
X146333340Y-62064877D01*
X146330802Y-62144492D01*
X146257595Y-62154877D01*
X146188886Y-62139996D01*
X145980969Y-62126367D01*
X145831504Y-62187007D01*
X145758383Y-62300140D01*
X145779500Y-62443994D01*
X145854945Y-62546387D01*
X145991163Y-62637902D01*
X146092580Y-62615473D01*
X146145762Y-62486456D01*
X146209205Y-62373268D01*
X146285493Y-62351589D01*
X146375417Y-62399828D01*
X146410687Y-62514453D01*
X146391328Y-62650328D01*
X146317364Y-62762318D01*
X146285257Y-62784123D01*
X146069084Y-62843645D01*
X145838195Y-62823392D01*
X145667214Y-62739731D01*
X145528821Y-62552933D01*
X145497303Y-62333106D01*
X145576350Y-62116359D01*
X145600151Y-62083554D01*
X145702797Y-61975647D01*
X145816847Y-61929967D01*
X145994488Y-61927502D01*
X146023639Y-61929278D01*
G37*
G36*
X146858729Y-61916870D02*
G01*
X147059239Y-61930186D01*
X147212538Y-61964255D01*
X147262396Y-61991394D01*
X147324041Y-62123958D01*
X147330400Y-62297223D01*
X147281000Y-62441942D01*
X147265585Y-62460185D01*
X147231626Y-62543983D01*
X147284483Y-62668719D01*
X147298068Y-62689965D01*
X147363994Y-62800561D01*
X147349907Y-62842107D01*
X147249382Y-62848411D01*
X147106289Y-62801118D01*
X147057458Y-62724205D01*
X146975117Y-62623260D01*
X146898016Y-62600000D01*
X146797218Y-62645931D01*
X146777995Y-62724205D01*
X146734082Y-62827998D01*
X146653790Y-62848411D01*
X146590285Y-62837410D01*
X146553025Y-62787248D01*
X146535144Y-62672185D01*
X146529780Y-62466482D01*
X146529585Y-62382641D01*
X146529585Y-62227384D01*
X146777995Y-62227384D01*
X146814383Y-62324781D01*
X146933252Y-62351589D01*
X147054999Y-62322479D01*
X147088509Y-62227384D01*
X147052121Y-62129987D01*
X146933252Y-62103178D01*
X146811506Y-62132289D01*
X146777995Y-62227384D01*
X146529585Y-62227384D01*
X146529585Y-61916870D01*
X146858729Y-61916870D01*
G37*
G36*
X148112205Y-61924024D02*
G01*
X148228369Y-61949385D01*
X148267725Y-61998800D01*
X148268460Y-62010024D01*
X148227441Y-62074797D01*
X148091465Y-62101488D01*
X148020049Y-62103178D01*
X147847322Y-62118561D01*
X147776147Y-62169551D01*
X147771638Y-62196332D01*
X147818773Y-62265231D01*
X147969202Y-62289318D01*
X147988998Y-62289486D01*
X148149761Y-62309687D01*
X148205964Y-62374156D01*
X148206357Y-62382641D01*
X148159223Y-62451539D01*
X148008794Y-62475626D01*
X147988998Y-62475795D01*
X147828235Y-62495995D01*
X147772031Y-62560465D01*
X147771638Y-62568949D01*
X147812658Y-62633721D01*
X147948633Y-62660412D01*
X148020049Y-62662103D01*
X148192777Y-62677485D01*
X148263952Y-62728476D01*
X148268460Y-62755257D01*
X148239844Y-62809347D01*
X148138401Y-62838388D01*
X147940740Y-62848227D01*
X147895844Y-62848411D01*
X147523228Y-62848411D01*
X147523228Y-61916870D01*
X147895844Y-61916870D01*
X148112205Y-61924024D01*
G37*
G36*
X148726626Y-61916870D02*
G01*
X148982402Y-61940953D01*
X149141117Y-62009150D01*
X149194026Y-62115384D01*
X149158571Y-62217064D01*
X149129438Y-62342763D01*
X149176711Y-62447861D01*
X149227268Y-62561902D01*
X149192353Y-62669704D01*
X149164440Y-62711797D01*
X149082752Y-62794663D01*
X148962215Y-62835988D01*
X148763085Y-62848290D01*
X148730709Y-62848411D01*
X148392665Y-62848411D01*
X148392665Y-62573268D01*
X148641076Y-62573268D01*
X148687032Y-62638862D01*
X148788644Y-62650506D01*
X148891529Y-62611857D01*
X148936375Y-62553423D01*
X148905770Y-62492770D01*
X148801508Y-62475795D01*
X148671287Y-62508341D01*
X148641076Y-62573268D01*
X148392665Y-62573268D01*
X148392665Y-62200652D01*
X148641076Y-62200652D01*
X148687032Y-62266246D01*
X148788644Y-62277890D01*
X148891529Y-62239241D01*
X148936375Y-62180807D01*
X148905770Y-62120154D01*
X148801508Y-62103178D01*
X148671287Y-62135725D01*
X148641076Y-62200652D01*
X148392665Y-62200652D01*
X148392665Y-61916870D01*
X148726626Y-61916870D01*
G37*
G36*
X150139068Y-61930594D02*
G01*
X150176548Y-61990776D01*
X150191474Y-62125935D01*
X150193643Y-62285965D01*
X150186132Y-62505164D01*
X150156153Y-62638350D01*
X150092544Y-62723197D01*
X150055620Y-62751735D01*
X149843829Y-62837300D01*
X149624275Y-62825487D01*
X149448411Y-62724205D01*
X149368093Y-62604529D01*
X149330606Y-62429658D01*
X149324206Y-62258435D01*
X149329597Y-62061045D01*
X149352906Y-61958217D01*
X149404836Y-61920513D01*
X149448411Y-61916870D01*
X149523633Y-61933649D01*
X149560701Y-62004509D01*
X149572240Y-62160241D01*
X149572616Y-62219780D01*
X149596227Y-62454293D01*
X149661017Y-62600104D01*
X149757922Y-62644879D01*
X149852079Y-62600000D01*
X149918554Y-62473433D01*
X149944985Y-62248183D01*
X149945233Y-62219780D01*
X149952112Y-62036330D01*
X149981168Y-61945929D01*
X150045025Y-61917788D01*
X150069438Y-61916870D01*
X150139068Y-61930594D01*
G37*
G36*
X151774730Y-62129417D02*
G01*
X151871927Y-61982007D01*
X151939346Y-61930239D01*
X151944268Y-61931137D01*
X152006757Y-61997146D01*
X152091204Y-62141275D01*
X152182528Y-62329164D01*
X152265650Y-62526454D01*
X152325489Y-62698783D01*
X152346965Y-62811792D01*
X152340434Y-62833813D01*
X152274192Y-62827852D01*
X152215583Y-62770685D01*
X152106904Y-62698106D01*
X151946747Y-62663625D01*
X151784384Y-62669226D01*
X151669085Y-62716893D01*
X151647321Y-62747810D01*
X151575048Y-62792996D01*
X151420699Y-62825462D01*
X151218954Y-62844371D01*
X151004495Y-62848888D01*
X150812003Y-62838177D01*
X150676159Y-62811403D01*
X150631010Y-62772296D01*
X150671047Y-62685991D01*
X150772056Y-62543616D01*
X150879670Y-62413692D01*
X151125681Y-62134230D01*
X150897402Y-62103178D01*
X150741670Y-62063778D01*
X150649890Y-62006369D01*
X150643567Y-61994499D01*
X150666906Y-61948652D01*
X150784676Y-61923876D01*
X150995803Y-61916870D01*
X151226685Y-61926834D01*
X151345596Y-61966644D01*
X151358249Y-62051177D01*
X151270354Y-62195309D01*
X151156235Y-62334757D01*
X151035081Y-62482571D01*
X150956175Y-62590876D01*
X150938876Y-62625398D01*
X150993471Y-62649837D01*
X151127409Y-62661848D01*
X151152570Y-62662103D01*
X151308852Y-62680713D01*
X151405060Y-62726113D01*
X151409485Y-62732035D01*
X151453515Y-62714260D01*
X151531985Y-62601655D01*
X151631713Y-62414103D01*
X151649900Y-62375730D01*
X151811611Y-62375730D01*
X151856754Y-62459893D01*
X151932519Y-62475795D01*
X152033575Y-62461026D01*
X152056724Y-62440660D01*
X152030566Y-62364257D01*
X151987946Y-62277014D01*
X151926924Y-62193419D01*
X151875806Y-62218125D01*
X151864692Y-62234519D01*
X151811611Y-62375730D01*
X151649900Y-62375730D01*
X151660285Y-62353819D01*
X151774730Y-62129417D01*
G37*
G36*
X153122141Y-61990241D02*
G01*
X153147177Y-62008049D01*
X153216837Y-62073892D01*
X153192918Y-62105674D01*
X153063419Y-62109932D01*
X152969611Y-62104750D01*
X152766599Y-62135364D01*
X152647370Y-62256596D01*
X152615648Y-62423297D01*
X152650670Y-62579408D01*
X152753063Y-62654835D01*
X152932633Y-62685021D01*
X153062908Y-62639479D01*
X153112470Y-62530654D01*
X153139911Y-62433740D01*
X153174572Y-62413692D01*
X153225771Y-62463197D01*
X153237184Y-62577752D01*
X153213447Y-62706418D01*
X153159195Y-62798255D01*
X153138442Y-62810715D01*
X152888647Y-62844249D01*
X152648047Y-62758640D01*
X152592972Y-62719698D01*
X152461717Y-62555780D01*
X152429426Y-62373225D01*
X152478092Y-62195155D01*
X152589705Y-62044697D01*
X152746257Y-61944976D01*
X152929738Y-61919115D01*
X153122141Y-61990241D01*
G37*
G36*
X153702445Y-61929639D02*
G01*
X153900363Y-61938948D01*
X154053702Y-61987661D01*
X154067299Y-61996585D01*
X154150622Y-62114070D01*
X154182100Y-62272056D01*
X154157096Y-62415324D01*
X154107464Y-62474960D01*
X154062486Y-62538619D01*
X154100157Y-62650877D01*
X154104733Y-62659524D01*
X154149422Y-62792757D01*
X154115002Y-62839824D01*
X154023951Y-62786018D01*
X153982133Y-62739731D01*
X153854739Y-62633487D01*
X153727040Y-62600518D01*
X153634430Y-62642296D01*
X153609291Y-62724205D01*
X153575618Y-62828658D01*
X153504623Y-62838215D01*
X153448731Y-62763829D01*
X153434142Y-62658727D01*
X153430242Y-62475243D01*
X153435154Y-62313584D01*
X153438002Y-62258435D01*
X153609291Y-62258435D01*
X153623308Y-62369149D01*
X153690543Y-62406805D01*
X153811125Y-62402101D01*
X153957309Y-62368014D01*
X154010657Y-62290844D01*
X154012959Y-62258435D01*
X153980472Y-62165343D01*
X153863429Y-62121229D01*
X153811125Y-62114769D01*
X153672468Y-62112729D01*
X153617856Y-62161804D01*
X153609291Y-62258435D01*
X153438002Y-62258435D01*
X153454035Y-61947922D01*
X153702445Y-61929639D01*
G37*
G36*
X154922410Y-61926843D02*
G01*
X155017783Y-61961370D01*
X155037653Y-62010024D01*
X154996634Y-62074797D01*
X154860659Y-62101488D01*
X154789242Y-62103178D01*
X154616515Y-62118561D01*
X154545340Y-62169551D01*
X154540832Y-62196332D01*
X154587966Y-62265231D01*
X154738395Y-62289318D01*
X154758191Y-62289486D01*
X154918954Y-62309687D01*
X154975158Y-62374156D01*
X154975550Y-62382641D01*
X154928416Y-62451539D01*
X154777987Y-62475626D01*
X154758191Y-62475795D01*
X154597428Y-62495995D01*
X154541225Y-62560465D01*
X154540832Y-62568949D01*
X154581851Y-62633721D01*
X154717826Y-62660412D01*
X154789242Y-62662103D01*
X154961970Y-62677485D01*
X155033145Y-62728476D01*
X155037653Y-62755257D01*
X155004411Y-62813838D01*
X154889320Y-62842450D01*
X154727140Y-62848411D01*
X154416626Y-62848411D01*
X154416626Y-61916870D01*
X154727140Y-61916870D01*
X154922410Y-61926843D01*
G37*
G36*
X155498987Y-61916870D02*
G01*
X155722826Y-61944658D01*
X155881207Y-62017601D01*
X155956282Y-62120073D01*
X155930203Y-62236445D01*
X155901992Y-62269744D01*
X155870666Y-62362949D01*
X155917065Y-62468687D01*
X155968440Y-62625217D01*
X155904222Y-62740840D01*
X155726927Y-62813082D01*
X155543604Y-62836130D01*
X155223961Y-62854902D01*
X155223961Y-62600000D01*
X155410269Y-62600000D01*
X155422278Y-62692089D01*
X155480698Y-62718477D01*
X155619124Y-62691436D01*
X155643154Y-62685063D01*
X155763286Y-62620312D01*
X155775436Y-62542908D01*
X155687017Y-62486150D01*
X155596577Y-62475795D01*
X155460206Y-62495313D01*
X155412191Y-62567938D01*
X155410269Y-62600000D01*
X155223961Y-62600000D01*
X155223961Y-62200457D01*
X155410269Y-62200457D01*
X155458641Y-62263418D01*
X155568811Y-62280462D01*
X155688358Y-62254470D01*
X155764863Y-62188324D01*
X155767746Y-62180807D01*
X155735321Y-62121711D01*
X155601753Y-62103178D01*
X155454295Y-62127663D01*
X155410269Y-62200457D01*
X155223961Y-62200457D01*
X155223961Y-61916870D01*
X155498987Y-61916870D01*
G37*
G36*
X157244457Y-61970616D02*
G01*
X157277298Y-62107261D01*
X157280139Y-62289920D01*
X157254398Y-62481708D01*
X157201494Y-62645738D01*
X157149145Y-62724205D01*
X156976102Y-62824733D01*
X156777117Y-62839175D01*
X156602615Y-62766609D01*
X156568794Y-62734841D01*
X156507901Y-62613837D01*
X156471498Y-62437092D01*
X156460025Y-62242041D01*
X156473923Y-62066121D01*
X156513633Y-61946768D01*
X156559169Y-61916870D01*
X156615570Y-61947765D01*
X156644472Y-62056045D01*
X156652323Y-62255349D01*
X156678023Y-62510529D01*
X156753758Y-62656402D01*
X156877486Y-62690454D01*
X156976759Y-62654652D01*
X157045090Y-62585563D01*
X157078938Y-62452217D01*
X157087042Y-62256250D01*
X157095503Y-62051009D01*
X157125170Y-61945691D01*
X157180196Y-61916870D01*
X157244457Y-61970616D01*
G37*
G36*
X158224987Y-61944151D02*
G01*
X158252985Y-62040247D01*
X158265355Y-62226545D01*
X158266993Y-62382641D01*
X158257457Y-62653886D01*
X158223907Y-62805395D01*
X158158927Y-62840519D01*
X158055103Y-62762613D01*
X157905019Y-62575029D01*
X157889379Y-62553423D01*
X157677017Y-62258435D01*
X157658089Y-62553423D01*
X157630944Y-62751589D01*
X157579246Y-62840462D01*
X157549409Y-62848411D01*
X157501664Y-62821131D01*
X157473666Y-62725034D01*
X157461296Y-62538736D01*
X157459658Y-62382641D01*
X157469194Y-62111395D01*
X157502744Y-61959886D01*
X157567724Y-61924762D01*
X157671548Y-62002668D01*
X157821632Y-62190252D01*
X157837272Y-62211858D01*
X158049634Y-62506846D01*
X158068562Y-62211858D01*
X158095707Y-62013692D01*
X158147405Y-61924819D01*
X158177242Y-61916870D01*
X158224987Y-61944151D01*
G37*
G36*
X158608798Y-61974664D02*
G01*
X158630609Y-62131108D01*
X158639551Y-62360798D01*
X158639609Y-62382641D01*
X158631903Y-62617330D01*
X158611044Y-62780910D01*
X158580419Y-62847975D01*
X158577506Y-62848411D01*
X158546215Y-62790617D01*
X158524404Y-62634173D01*
X158515462Y-62404483D01*
X158515404Y-62382641D01*
X158523110Y-62147951D01*
X158543969Y-61984371D01*
X158574594Y-61917306D01*
X158577506Y-61916870D01*
X158608798Y-61974664D01*
G37*
G36*
X158921916Y-61970370D02*
G01*
X159004061Y-62107045D01*
X159048405Y-62211858D01*
X159135011Y-62431393D01*
X159198763Y-62535723D01*
X159252859Y-62528503D01*
X159310500Y-62413384D01*
X159351695Y-62295794D01*
X159446937Y-62055821D01*
X159533217Y-61934444D01*
X159608775Y-61934072D01*
X159613191Y-61938211D01*
X159614042Y-62015155D01*
X159570117Y-62166598D01*
X159496399Y-62358152D01*
X159407871Y-62555432D01*
X159319514Y-62724049D01*
X159246313Y-62829619D01*
X159216604Y-62848411D01*
X159138922Y-62796226D01*
X159056252Y-62667146D01*
X159040108Y-62631051D01*
X158951080Y-62416025D01*
X158859917Y-62195868D01*
X158856969Y-62188748D01*
X158790786Y-62024631D01*
X158771162Y-61944933D01*
X158797520Y-61919158D01*
X158851832Y-61916870D01*
X158921916Y-61970370D01*
G37*
G36*
X160305006Y-61925234D02*
G01*
X160411055Y-61954579D01*
X160440587Y-62010024D01*
X160399568Y-62074797D01*
X160263593Y-62101488D01*
X160192176Y-62103178D01*
X160019449Y-62118561D01*
X159948274Y-62169551D01*
X159943766Y-62196332D01*
X159990900Y-62265231D01*
X160141329Y-62289318D01*
X160161125Y-62289486D01*
X160321888Y-62309687D01*
X160378092Y-62374156D01*
X160378484Y-62382641D01*
X160331350Y-62451539D01*
X160180921Y-62475626D01*
X160161125Y-62475795D01*
X160000362Y-62495995D01*
X159944159Y-62560465D01*
X159943766Y-62568949D01*
X159984785Y-62633721D01*
X160120760Y-62660412D01*
X160192176Y-62662103D01*
X160364904Y-62677485D01*
X160436079Y-62728476D01*
X160440587Y-62755257D01*
X160409922Y-62811434D01*
X160302321Y-62840357D01*
X160099022Y-62848411D01*
X159757458Y-62848411D01*
X159757458Y-61916870D01*
X160099022Y-61916870D01*
X160305006Y-61925234D01*
G37*
G36*
X160861488Y-61916870D02*
G01*
X161110838Y-61953252D01*
X161281250Y-62051450D01*
X161359544Y-62195043D01*
X161332538Y-62367610D01*
X161285949Y-62445705D01*
X161232713Y-62550726D01*
X161261474Y-62654617D01*
X161293092Y-62705986D01*
X161352049Y-62808570D01*
X161335722Y-62844751D01*
X161288301Y-62848411D01*
X161183567Y-62798917D01*
X161123717Y-62724205D01*
X161021267Y-62624707D01*
X160935224Y-62600000D01*
X160832970Y-62644984D01*
X160813203Y-62724205D01*
X160774372Y-62825358D01*
X160720049Y-62848411D01*
X160670913Y-62824012D01*
X160642071Y-62735842D01*
X160629030Y-62561439D01*
X160626895Y-62382641D01*
X160626895Y-62262560D01*
X160813203Y-62262560D01*
X160831103Y-62376117D01*
X160910538Y-62407436D01*
X160983986Y-62402291D01*
X161124414Y-62350833D01*
X161174613Y-62242909D01*
X161169710Y-62144474D01*
X161093954Y-62107269D01*
X161003831Y-62103178D01*
X160868922Y-62118778D01*
X160818586Y-62186706D01*
X160813203Y-62262560D01*
X160626895Y-62262560D01*
X160626895Y-61916870D01*
X160861488Y-61916870D01*
G37*
G36*
X162109790Y-61972981D02*
G01*
X162170953Y-62046027D01*
X162129387Y-62101848D01*
X162006569Y-62122891D01*
X161933786Y-62116827D01*
X161789187Y-62116822D01*
X161749437Y-62164403D01*
X161812484Y-62243915D01*
X161962103Y-62333045D01*
X162125782Y-62454711D01*
X162183582Y-62600507D01*
X162128257Y-62748074D01*
X162104939Y-62773887D01*
X161970493Y-62834787D01*
X161785640Y-62838662D01*
X161610776Y-62784614D01*
X161605013Y-62781334D01*
X161506308Y-62701127D01*
X161522212Y-62650201D01*
X161645055Y-62636030D01*
X161744744Y-62645138D01*
X161924375Y-62648846D01*
X161992636Y-62606837D01*
X161946724Y-62533719D01*
X161783839Y-62444102D01*
X161783327Y-62443888D01*
X161596559Y-62330342D01*
X161526897Y-62198629D01*
X161577610Y-62055999D01*
X161597615Y-62032095D01*
X161753192Y-61940604D01*
X161950227Y-61921768D01*
X162109790Y-61972981D01*
G37*
G36*
X162443399Y-61932396D02*
G01*
X162491986Y-62011836D01*
X162517106Y-62210902D01*
X162521027Y-62382641D01*
X162509458Y-62652109D01*
X162474575Y-62801059D01*
X162443399Y-62832885D01*
X162401788Y-62811943D01*
X162377088Y-62704693D01*
X162366595Y-62495468D01*
X162365771Y-62382641D01*
X162371446Y-62129322D01*
X162390275Y-61984099D01*
X162424958Y-61931305D01*
X162443399Y-61932396D01*
G37*
G36*
X164162523Y-61940034D02*
G01*
X164166749Y-61972634D01*
X164138068Y-62055068D01*
X164064973Y-62203065D01*
X164012240Y-62298673D01*
X163920617Y-62485994D01*
X163864824Y-62652148D01*
X163856983Y-62708680D01*
X163832997Y-62817761D01*
X163794132Y-62848411D01*
X163744612Y-62796099D01*
X163732030Y-62717084D01*
X163708534Y-62607553D01*
X163648895Y-62454892D01*
X163569378Y-62289934D01*
X163486255Y-62143506D01*
X163415792Y-62046441D01*
X163374259Y-62029569D01*
X163371912Y-62034631D01*
X163299078Y-62091875D01*
X163230033Y-62103178D01*
X163163359Y-62118263D01*
X163127330Y-62182249D01*
X163112970Y-62323232D01*
X163111003Y-62475795D01*
X163103849Y-62692156D01*
X163078488Y-62808319D01*
X163029073Y-62847676D01*
X163017849Y-62848411D01*
X162963484Y-62819535D01*
X162934452Y-62717302D01*
X162924830Y-62518303D01*
X162924695Y-62480114D01*
X162920204Y-62273081D01*
X162899359Y-62159415D01*
X162851098Y-62108389D01*
X162784964Y-62091972D01*
X162657820Y-62059486D01*
X162640483Y-62019791D01*
X162719387Y-61980045D01*
X162880967Y-61947403D01*
X163092506Y-61929735D01*
X163324766Y-61922491D01*
X163465559Y-61931063D01*
X163547501Y-61965672D01*
X163603204Y-62036536D01*
X163637500Y-62100518D01*
X163733552Y-62247817D01*
X163817703Y-62274294D01*
X163906250Y-62180087D01*
X163949389Y-62103178D01*
X164035715Y-61975220D01*
X164115243Y-61915743D01*
X164162523Y-61940034D01*
G37*
G36*
X141851585Y-61585959D02*
G01*
X141915972Y-61814759D01*
X141924852Y-61950277D01*
X141862482Y-62016901D01*
X141713120Y-62039016D01*
X141557791Y-62041076D01*
X141181595Y-62041076D01*
X141480162Y-61694638D01*
X141778729Y-61348201D01*
X141851585Y-61585959D01*
G37*
G36*
X144178746Y-60370522D02*
G01*
X144304593Y-60392744D01*
X144353035Y-60436316D01*
X144355991Y-60457457D01*
X144304216Y-60533321D01*
X144231785Y-60550611D01*
X144162414Y-60564207D01*
X144124929Y-60623931D01*
X144109863Y-60758189D01*
X144107580Y-60923227D01*
X144104292Y-61129736D01*
X144086329Y-61241230D01*
X144041537Y-61286875D01*
X143957765Y-61295835D01*
X143952323Y-61295843D01*
X143866278Y-61287954D01*
X143819822Y-61244841D01*
X143800803Y-61137341D01*
X143797070Y-60936288D01*
X143797066Y-60923227D01*
X143792534Y-60715114D01*
X143772626Y-60602660D01*
X143727874Y-60557461D01*
X143672861Y-60550611D01*
X143571709Y-60511780D01*
X143548656Y-60457457D01*
X143575605Y-60405206D01*
X143671899Y-60376164D01*
X143860711Y-60364985D01*
X143952323Y-60364303D01*
X144178746Y-60370522D01*
G37*
G36*
X145009561Y-60372048D02*
G01*
X145126538Y-60398731D01*
X145163208Y-60449528D01*
X145163326Y-60453708D01*
X145104551Y-60525272D01*
X144935241Y-60562388D01*
X144755521Y-60598188D01*
X144680238Y-60652755D01*
X144712415Y-60705387D01*
X144855077Y-60735383D01*
X144909740Y-60736919D01*
X145092994Y-60760625D01*
X145170949Y-60816000D01*
X145140562Y-60879431D01*
X144998796Y-60927303D01*
X144935241Y-60935004D01*
X144748115Y-60971607D01*
X144677536Y-61026283D01*
X144722856Y-61078595D01*
X144883424Y-61108112D01*
X144940791Y-61109535D01*
X145126860Y-61121302D01*
X145212744Y-61161447D01*
X145225428Y-61202689D01*
X145198479Y-61254941D01*
X145102185Y-61283983D01*
X144913373Y-61295161D01*
X144821761Y-61295843D01*
X144418093Y-61295843D01*
X144418093Y-60364303D01*
X144790709Y-60364303D01*
X145009561Y-60372048D01*
G37*
G36*
X146158371Y-60375304D02*
G01*
X146195631Y-60425466D01*
X146213512Y-60540529D01*
X146218876Y-60746232D01*
X146219071Y-60830073D01*
X146215963Y-61068619D01*
X146202239Y-61208616D01*
X146171303Y-61275655D01*
X146116555Y-61295327D01*
X146098991Y-61295843D01*
X145999402Y-61251715D01*
X145959260Y-61125061D01*
X145914781Y-60992048D01*
X145797304Y-60938533D01*
X145768827Y-60934628D01*
X145649269Y-60935108D01*
X145604092Y-60998540D01*
X145598044Y-61105410D01*
X145579451Y-61243619D01*
X145509750Y-61293373D01*
X145473839Y-61295843D01*
X145410334Y-61284843D01*
X145373074Y-61234680D01*
X145355193Y-61119618D01*
X145349828Y-60913915D01*
X145349634Y-60830073D01*
X145352567Y-60591931D01*
X145365944Y-60452203D01*
X145396627Y-60385150D01*
X145451481Y-60365034D01*
X145473839Y-60364303D01*
X145564753Y-60393581D01*
X145596763Y-60502518D01*
X145598044Y-60550611D01*
X145613433Y-60682573D01*
X145686020Y-60731212D01*
X145784352Y-60736919D01*
X145916314Y-60721531D01*
X145964953Y-60648944D01*
X145970661Y-60550611D01*
X145990179Y-60414239D01*
X146062804Y-60366225D01*
X146094866Y-60364303D01*
X146158371Y-60375304D01*
G37*
G36*
X147215950Y-60376211D02*
G01*
X147252199Y-60429009D01*
X147269563Y-60548311D01*
X147274676Y-60759730D01*
X147274817Y-60830073D01*
X147271623Y-61068838D01*
X147257725Y-61208979D01*
X147226652Y-61276005D01*
X147171931Y-61295426D01*
X147156635Y-61295843D01*
X147049520Y-61250357D01*
X146912936Y-61135059D01*
X146848204Y-61062958D01*
X146657955Y-60830073D01*
X146655872Y-61062958D01*
X146642280Y-61219426D01*
X146593472Y-61285652D01*
X146529585Y-61295843D01*
X146466080Y-61284843D01*
X146428819Y-61234680D01*
X146410939Y-61119618D01*
X146405574Y-60913915D01*
X146405379Y-60830073D01*
X146409036Y-60589935D01*
X146423880Y-60449042D01*
X146455726Y-60382551D01*
X146510387Y-60365618D01*
X146514059Y-60365629D01*
X146610024Y-60413976D01*
X146735608Y-60536040D01*
X146809047Y-60629566D01*
X146995355Y-60892176D01*
X147014451Y-60628240D01*
X147037941Y-60457146D01*
X147086159Y-60379533D01*
X147154182Y-60364303D01*
X147215950Y-60376211D01*
G37*
G36*
X147648835Y-60375304D02*
G01*
X147686096Y-60425466D01*
X147703977Y-60540529D01*
X147709341Y-60746232D01*
X147709536Y-60830073D01*
X147706602Y-61068216D01*
X147693226Y-61207944D01*
X147662542Y-61274996D01*
X147607688Y-61295113D01*
X147585330Y-61295843D01*
X147521826Y-61284843D01*
X147484565Y-61234680D01*
X147466684Y-61119618D01*
X147461320Y-60913915D01*
X147461125Y-60830073D01*
X147464059Y-60591931D01*
X147477435Y-60452203D01*
X147508119Y-60385150D01*
X147562973Y-60365034D01*
X147585330Y-60364303D01*
X147648835Y-60375304D01*
G37*
G36*
X148471659Y-60386305D02*
G01*
X148599690Y-60434491D01*
X148662548Y-60506280D01*
X148638565Y-60584689D01*
X148543171Y-60639272D01*
X148448247Y-60609224D01*
X148296477Y-60580812D01*
X148172020Y-60643103D01*
X148095416Y-60762777D01*
X148087207Y-60906516D01*
X148167934Y-61041003D01*
X148177145Y-61048959D01*
X148290095Y-61096025D01*
X148420840Y-61060043D01*
X148551353Y-61024387D01*
X148637471Y-61074193D01*
X148640370Y-61077633D01*
X148659202Y-61162908D01*
X148585516Y-61232077D01*
X148450663Y-61278221D01*
X148285991Y-61294416D01*
X148122849Y-61273742D01*
X148003664Y-61218215D01*
X147867539Y-61045227D01*
X147823598Y-60830917D01*
X147871705Y-60617052D01*
X148006182Y-60449541D01*
X148143938Y-60387212D01*
X148309419Y-60368339D01*
X148471659Y-60386305D01*
G37*
G36*
X148978184Y-60391411D02*
G01*
X149011389Y-60494417D01*
X149013692Y-60562794D01*
X149013692Y-60761284D01*
X149224485Y-60556975D01*
X149375212Y-60436749D01*
X149506249Y-60375903D01*
X149545418Y-60374011D01*
X149606994Y-60398472D01*
X149596406Y-60453723D01*
X149506950Y-60568040D01*
X149496548Y-60580163D01*
X149337539Y-60764972D01*
X149520164Y-61030408D01*
X149702789Y-61295843D01*
X149545980Y-61295843D01*
X149377784Y-61237542D01*
X149287444Y-61140587D01*
X149198711Y-61029852D01*
X149131938Y-60985330D01*
X149078470Y-61037943D01*
X149039194Y-61140587D01*
X148964757Y-61267507D01*
X148882754Y-61295843D01*
X148822513Y-61283048D01*
X148787153Y-61227679D01*
X148770250Y-61104260D01*
X148765378Y-60887315D01*
X148765282Y-60830073D01*
X148768215Y-60591931D01*
X148781592Y-60452203D01*
X148812275Y-60385150D01*
X148867129Y-60365034D01*
X148889487Y-60364303D01*
X148978184Y-60391411D01*
G37*
G36*
X149871344Y-60448894D02*
G01*
X149877748Y-60443907D01*
X150065494Y-60370216D01*
X150286106Y-60382124D01*
X150488209Y-60473964D01*
X150538031Y-60516737D01*
X150666077Y-60714373D01*
X150671015Y-60924947D01*
X150561752Y-61132212D01*
X150392521Y-61256027D01*
X150171211Y-61299840D01*
X149944490Y-61258987D01*
X149841942Y-61204138D01*
X149704812Y-61041840D01*
X149665082Y-60838944D01*
X149670203Y-60819838D01*
X149945233Y-60819838D01*
X149988040Y-60989125D01*
X150092860Y-61086707D01*
X150224289Y-61102149D01*
X150346923Y-61025015D01*
X150392451Y-60951646D01*
X150430596Y-60820667D01*
X150383883Y-60716898D01*
X150336583Y-60665950D01*
X150224522Y-60580804D01*
X150120486Y-60587805D01*
X150077004Y-60608665D01*
X149970512Y-60721714D01*
X149945233Y-60819838D01*
X149670203Y-60819838D01*
X149721133Y-60629835D01*
X149871344Y-60448894D01*
G37*
G36*
X151280419Y-60406915D02*
G01*
X151336306Y-60516821D01*
X151389459Y-60693226D01*
X151443500Y-60842860D01*
X151512415Y-61016381D01*
X151618833Y-60705868D01*
X151701734Y-60506507D01*
X151787734Y-60403939D01*
X151866854Y-60374603D01*
X151966793Y-60378042D01*
X151986013Y-60408212D01*
X151954918Y-60490184D01*
X151894356Y-60654375D01*
X151817078Y-60866197D01*
X151812354Y-60879208D01*
X151725627Y-61101439D01*
X151655590Y-61228613D01*
X151584883Y-61285123D01*
X151515829Y-61295843D01*
X151371798Y-61241315D01*
X151316287Y-61156112D01*
X151262782Y-61019660D01*
X151184577Y-60821759D01*
X151132422Y-60690342D01*
X151002791Y-60364303D01*
X151150409Y-60364303D01*
X151280419Y-60406915D01*
G37*
G36*
X152813035Y-60386885D02*
G01*
X152859921Y-60426658D01*
X152864059Y-60454494D01*
X152826389Y-60520604D01*
X152698572Y-60548338D01*
X152615648Y-60550611D01*
X152442921Y-60565993D01*
X152371746Y-60616984D01*
X152367238Y-60643765D01*
X152414372Y-60712664D01*
X152564801Y-60736751D01*
X152584597Y-60736919D01*
X152745360Y-60757120D01*
X152801563Y-60821589D01*
X152801956Y-60830073D01*
X152754822Y-60898972D01*
X152604393Y-60923059D01*
X152584597Y-60923227D01*
X152423834Y-60943428D01*
X152367630Y-61007897D01*
X152367238Y-61016381D01*
X152408257Y-61081154D01*
X152544232Y-61107845D01*
X152615648Y-61109535D01*
X152788376Y-61124918D01*
X152859551Y-61175908D01*
X152864059Y-61202689D01*
X152837241Y-61254790D01*
X152741358Y-61283828D01*
X152553263Y-61295108D01*
X152457671Y-61295843D01*
X152051283Y-61295843D01*
X152069529Y-60845599D01*
X152087775Y-60395354D01*
X152475917Y-60376865D01*
X152693476Y-60371976D01*
X152813035Y-60386885D01*
G37*
G36*
X153181841Y-60377899D02*
G01*
X153219326Y-60437623D01*
X153234392Y-60571881D01*
X153236675Y-60736919D01*
X153236675Y-61109535D01*
X153422983Y-61109535D01*
X153570894Y-61137309D01*
X153609291Y-61202689D01*
X153576050Y-61261271D01*
X153460958Y-61289882D01*
X153298778Y-61295843D01*
X152988264Y-61295843D01*
X152988264Y-60830073D01*
X152991198Y-60591931D01*
X153004575Y-60452203D01*
X153035258Y-60385150D01*
X153090112Y-60365034D01*
X153112470Y-60364303D01*
X153181841Y-60377899D01*
G37*
G36*
X154322474Y-60371457D02*
G01*
X154438637Y-60396818D01*
X154477994Y-60446233D01*
X154478729Y-60457457D01*
X154437710Y-60522230D01*
X154301734Y-60548921D01*
X154230318Y-60550611D01*
X154057591Y-60565993D01*
X153986416Y-60616984D01*
X153981907Y-60643765D01*
X154029042Y-60712664D01*
X154179471Y-60736751D01*
X154199267Y-60736919D01*
X154360030Y-60757120D01*
X154416233Y-60821589D01*
X154416626Y-60830073D01*
X154369492Y-60898972D01*
X154219063Y-60923059D01*
X154199267Y-60923227D01*
X154038504Y-60943428D01*
X153982300Y-61007897D01*
X153981907Y-61016381D01*
X154022927Y-61081154D01*
X154158902Y-61107845D01*
X154230318Y-61109535D01*
X154403046Y-61124918D01*
X154474221Y-61175908D01*
X154478729Y-61202689D01*
X154450113Y-61256780D01*
X154348670Y-61285821D01*
X154151009Y-61295660D01*
X154106113Y-61295843D01*
X153733497Y-61295843D01*
X153733497Y-60364303D01*
X154106113Y-60364303D01*
X154322474Y-60371457D01*
G37*
G36*
X155421112Y-60379764D02*
G01*
X155458420Y-60446089D01*
X155471427Y-60593190D01*
X155472372Y-60692050D01*
X155445985Y-60984447D01*
X155361410Y-61174616D01*
X155210527Y-61273995D01*
X155043757Y-61295843D01*
X154823101Y-61258736D01*
X154705714Y-61182274D01*
X154632399Y-61029215D01*
X154603613Y-60774587D01*
X154602934Y-60716504D01*
X154608183Y-60515038D01*
X154630551Y-60408693D01*
X154679966Y-60368590D01*
X154724041Y-60364303D01*
X154794224Y-60381405D01*
X154834618Y-60451601D01*
X154856328Y-60603228D01*
X154863772Y-60720790D01*
X154882125Y-60930344D01*
X154916259Y-61044951D01*
X154976593Y-61093757D01*
X154999160Y-61099517D01*
X155117333Y-61084009D01*
X155189208Y-60975366D01*
X155220547Y-60762261D01*
X155223010Y-60659291D01*
X155230911Y-60478721D01*
X155261864Y-60390919D01*
X155329040Y-60364843D01*
X155348167Y-60364303D01*
X155421112Y-60379764D01*
G37*
G36*
X156237028Y-60387445D02*
G01*
X156363730Y-60437452D01*
X156424845Y-60510058D01*
X156401401Y-60584689D01*
X156306007Y-60639272D01*
X156211083Y-60609224D01*
X156059313Y-60580812D01*
X155934856Y-60643103D01*
X155858252Y-60762777D01*
X155850043Y-60906516D01*
X155930771Y-61041003D01*
X155939981Y-61048959D01*
X156052931Y-61096025D01*
X156183676Y-61060043D01*
X156314190Y-61024387D01*
X156400307Y-61074193D01*
X156403206Y-61077633D01*
X156425985Y-61165653D01*
X156355262Y-61234281D01*
X156220988Y-61277789D01*
X156053113Y-61290449D01*
X155881587Y-61266535D01*
X155741697Y-61204138D01*
X155604568Y-61041840D01*
X155564838Y-60838944D01*
X155620888Y-60629835D01*
X155771099Y-60448894D01*
X155777504Y-60443907D01*
X155912505Y-60383585D01*
X156076149Y-60367127D01*
X156237028Y-60387445D01*
G37*
G36*
X156715828Y-60375304D02*
G01*
X156753089Y-60425466D01*
X156770969Y-60540529D01*
X156776334Y-60746232D01*
X156776528Y-60830073D01*
X156773595Y-61068216D01*
X156760218Y-61207944D01*
X156729535Y-61274996D01*
X156674681Y-61295113D01*
X156652323Y-61295843D01*
X156588818Y-61284843D01*
X156551558Y-61234680D01*
X156533677Y-61119618D01*
X156528313Y-60913915D01*
X156528118Y-60830073D01*
X156531051Y-60591931D01*
X156544428Y-60452203D01*
X156575111Y-60385150D01*
X156629965Y-60365034D01*
X156652323Y-60364303D01*
X156715828Y-60375304D01*
G37*
G36*
X157156413Y-60377899D02*
G01*
X157193898Y-60437623D01*
X157208964Y-60571881D01*
X157211247Y-60736919D01*
X157211247Y-61109535D01*
X157397555Y-61109535D01*
X157545466Y-61137309D01*
X157583863Y-61202689D01*
X157550622Y-61261271D01*
X157435531Y-61289882D01*
X157273350Y-61295843D01*
X156962837Y-61295843D01*
X156962837Y-60830073D01*
X156965770Y-60591931D01*
X156979147Y-60452203D01*
X157009830Y-60385150D01*
X157064684Y-60365034D01*
X157087042Y-60364303D01*
X157156413Y-60377899D01*
G37*
G36*
X157895779Y-60375304D02*
G01*
X157933040Y-60425466D01*
X157950920Y-60540529D01*
X157956285Y-60746232D01*
X157956480Y-60830073D01*
X157953546Y-61068216D01*
X157940169Y-61207944D01*
X157909486Y-61274996D01*
X157854632Y-61295113D01*
X157832274Y-61295843D01*
X157768770Y-61284843D01*
X157731509Y-61234680D01*
X157713628Y-61119618D01*
X157708264Y-60913915D01*
X157708069Y-60830073D01*
X157711002Y-60591931D01*
X157724379Y-60452203D01*
X157755062Y-60385150D01*
X157809916Y-60365034D01*
X157832274Y-60364303D01*
X157895779Y-60375304D01*
G37*
G36*
X158637631Y-60378036D02*
G01*
X158768999Y-60436486D01*
X158815961Y-60512091D01*
X158815513Y-60586306D01*
X158753987Y-60606599D01*
X158614663Y-60586905D01*
X158451361Y-60573039D01*
X158397623Y-60606533D01*
X158452948Y-60677191D01*
X158616833Y-60774819D01*
X158624083Y-60778382D01*
X158811149Y-60903460D01*
X158874554Y-61035205D01*
X158814104Y-61173144D01*
X158793532Y-61195152D01*
X158657783Y-61263282D01*
X158461886Y-61293125D01*
X158265084Y-61280643D01*
X158149264Y-61239058D01*
X158093442Y-61141918D01*
X158101765Y-61082074D01*
X158157142Y-61014489D01*
X158259433Y-61043393D01*
X158261989Y-61044755D01*
X158404706Y-61098298D01*
X158480270Y-61109535D01*
X158569020Y-61083118D01*
X158561410Y-61020755D01*
X158469117Y-60947776D01*
X158389887Y-60913465D01*
X158201087Y-60809247D01*
X158126294Y-60672999D01*
X158170025Y-60513839D01*
X158182616Y-60494824D01*
X158301030Y-60406021D01*
X158467171Y-60367486D01*
X158637631Y-60378036D01*
G37*
G36*
X159580213Y-60370522D02*
G01*
X159706060Y-60392744D01*
X159754502Y-60436316D01*
X159757458Y-60457457D01*
X159703472Y-60532379D01*
X159602201Y-60550611D01*
X159516156Y-60558501D01*
X159469700Y-60601613D01*
X159450681Y-60709113D01*
X159446948Y-60910167D01*
X159446944Y-60923227D01*
X159442412Y-61131341D01*
X159422504Y-61243795D01*
X159377752Y-61288993D01*
X159322739Y-61295843D01*
X159253368Y-61282248D01*
X159215883Y-61222523D01*
X159200817Y-61088266D01*
X159198533Y-60923227D01*
X159194001Y-60715114D01*
X159174093Y-60602660D01*
X159129341Y-60557461D01*
X159074328Y-60550611D01*
X158973176Y-60511780D01*
X158950123Y-60457457D01*
X158977072Y-60405206D01*
X159073366Y-60376164D01*
X159262178Y-60364985D01*
X159353790Y-60364303D01*
X159580213Y-60370522D01*
G37*
G36*
X160408538Y-60371457D02*
G01*
X160524701Y-60396818D01*
X160564058Y-60446233D01*
X160564793Y-60457457D01*
X160523773Y-60522230D01*
X160387798Y-60548921D01*
X160316382Y-60550611D01*
X160143654Y-60565993D01*
X160072479Y-60616984D01*
X160067971Y-60643765D01*
X160115105Y-60712664D01*
X160265534Y-60736751D01*
X160285330Y-60736919D01*
X160446093Y-60757120D01*
X160502297Y-60821589D01*
X160502690Y-60830073D01*
X160455556Y-60898972D01*
X160305127Y-60923059D01*
X160285330Y-60923227D01*
X160124568Y-60943428D01*
X160068364Y-61007897D01*
X160067971Y-61016381D01*
X160108990Y-61081154D01*
X160244966Y-61107845D01*
X160316382Y-61109535D01*
X160489109Y-61124918D01*
X160560284Y-61175908D01*
X160564793Y-61202689D01*
X160536176Y-61256780D01*
X160434733Y-61285821D01*
X160237072Y-61295660D01*
X160192176Y-61295843D01*
X159819560Y-61295843D01*
X159819560Y-60364303D01*
X160192176Y-60364303D01*
X160408538Y-60371457D01*
G37*
G36*
X161814442Y-60378060D02*
G01*
X161851920Y-60438363D01*
X161866809Y-60573759D01*
X161868949Y-60732483D01*
X161851006Y-61003885D01*
X161795485Y-61168244D01*
X161771359Y-61198254D01*
X161631762Y-61269830D01*
X161440280Y-61293987D01*
X161251950Y-61270792D01*
X161121811Y-61200310D01*
X161119380Y-61197464D01*
X161070556Y-61084075D01*
X161029737Y-60894012D01*
X161011158Y-60731694D01*
X160999911Y-60526932D01*
X161009556Y-60416765D01*
X161048380Y-60372224D01*
X161116253Y-60364303D01*
X161199522Y-60381290D01*
X161238034Y-60454065D01*
X161247889Y-60615353D01*
X161247922Y-60631896D01*
X161274327Y-60865118D01*
X161345488Y-61027534D01*
X161449320Y-61098654D01*
X161518404Y-61090524D01*
X161581285Y-61032671D01*
X161612867Y-60903092D01*
X161620538Y-60707817D01*
X161625868Y-60509742D01*
X161648937Y-60406300D01*
X161700363Y-60368123D01*
X161744744Y-60364303D01*
X161814442Y-60378060D01*
G37*
G36*
X148508280Y-60086314D02*
G01*
X148488930Y-60172464D01*
X148442348Y-60227677D01*
X148300429Y-60298073D01*
X148157512Y-60262771D01*
X148082152Y-60177995D01*
X148047219Y-60081298D01*
X148094815Y-60053825D01*
X148098598Y-60053790D01*
X148212942Y-60094373D01*
X148256039Y-60128313D01*
X148317576Y-60171519D01*
X148330563Y-60128313D01*
X148380653Y-60062285D01*
X148423717Y-60053790D01*
X148508280Y-60086314D01*
G37*
G36*
X156271116Y-60086314D02*
G01*
X156251766Y-60172464D01*
X156205184Y-60227677D01*
X156063265Y-60298073D01*
X155920348Y-60262771D01*
X155844988Y-60177995D01*
X155810055Y-60081298D01*
X155857651Y-60053825D01*
X155861434Y-60053790D01*
X155975778Y-60094373D01*
X156018876Y-60128313D01*
X156080412Y-60171519D01*
X156093399Y-60128313D01*
X156143489Y-60062285D01*
X156186553Y-60053790D01*
X156271116Y-60086314D01*
G37*
G36*
X158731806Y-60071731D02*
G01*
X158706304Y-60146537D01*
X158687299Y-60177995D01*
X158575828Y-60274548D01*
X158439945Y-60297334D01*
X158329238Y-60243492D01*
X158303227Y-60200158D01*
X158286795Y-60087180D01*
X158344963Y-60066803D01*
X158415220Y-60110058D01*
X158508686Y-60148646D01*
X158544591Y-60118908D01*
X158636324Y-60059032D01*
X158674852Y-60053790D01*
X158731806Y-60071731D01*
G37*
D14*
%TO.C,R7*%
X139600000Y-108040000D02*
X139600000Y-107270000D01*
X140970000Y-100730000D02*
X138230000Y-100730000D01*
X139600000Y-99960000D02*
X139600000Y-100730000D01*
X138230000Y-107270000D02*
X140970000Y-107270000D01*
X140970000Y-107270000D02*
X140970000Y-100730000D01*
X138230000Y-100730000D02*
X138230000Y-107270000D01*
%TO.C,C4*%
X128163000Y-109890000D02*
X120723000Y-109890000D01*
X128163000Y-107150000D02*
X120723000Y-107150000D01*
X128163000Y-109890000D02*
X128163000Y-107150000D01*
X120723000Y-109890000D02*
X120723000Y-107150000D01*
D11*
%TO.C,B2*%
X90000000Y-129250000D02*
X113000000Y-129250000D01*
X113000000Y-129250000D02*
X113000000Y-140750000D01*
X113000000Y-140750000D02*
X90000000Y-140750000D01*
X90000000Y-140750000D02*
X90000000Y-129250000D01*
D14*
%TO.C,C1*%
X118830000Y-124480000D02*
X118830000Y-131920000D01*
X121570000Y-124480000D02*
X121570000Y-131920000D01*
X121570000Y-131920000D02*
X118830000Y-131920000D01*
X121570000Y-124480000D02*
X118830000Y-124480000D01*
D11*
%TO.C,B4*%
X187500000Y-140250000D02*
X164500000Y-140250000D01*
X164500000Y-140250000D02*
X164500000Y-128750000D01*
X164500000Y-128750000D02*
X187500000Y-128750000D01*
X187500000Y-128750000D02*
X187500000Y-140250000D01*
%TO.C,B3*%
X187500000Y-75184785D02*
X164500000Y-75184785D01*
X164500000Y-75184785D02*
X164500000Y-63684785D01*
X164500000Y-63684785D02*
X187500000Y-63684785D01*
X187500000Y-63684785D02*
X187500000Y-75184785D01*
D15*
%TO.C,RV1*%
X108531500Y-108242000D02*
X108531500Y-97066000D01*
X99641500Y-97066000D02*
X95831500Y-97066000D01*
X108531500Y-97066000D02*
X105737500Y-97066000D01*
X95831500Y-97066000D02*
X95831500Y-98336000D01*
X99641500Y-107734000D02*
X95831500Y-107734000D01*
X95831500Y-106464000D02*
X95831500Y-107734000D01*
X108531500Y-108242000D02*
X105737500Y-108242000D01*
D14*
%TO.C,R4*%
X139600000Y-86960000D02*
X139600000Y-87730000D01*
X140970000Y-94270000D02*
X140970000Y-87730000D01*
X140970000Y-87730000D02*
X138230000Y-87730000D01*
X139600000Y-95040000D02*
X139600000Y-94270000D01*
X138230000Y-87730000D02*
X138230000Y-94270000D01*
X138230000Y-94270000D02*
X140970000Y-94270000D01*
%TO.C,J3*%
X145711332Y-139530000D02*
X145711332Y-142070000D01*
X142155332Y-139530000D02*
X142155332Y-142070000D01*
X145711332Y-139530000D02*
G75*
G03*
X142155332Y-139530000I-1778000J0D01*
G01*
X142155332Y-142070000D02*
G75*
G03*
X145711332Y-142070000I1778000J0D01*
G01*
%TO.C,R2*%
X98230000Y-88770000D02*
X104770000Y-88770000D01*
X105540000Y-87400000D02*
X104770000Y-87400000D01*
X97460000Y-87400000D02*
X98230000Y-87400000D01*
X98230000Y-86030000D02*
X98230000Y-88770000D01*
X104770000Y-86030000D02*
X98230000Y-86030000D01*
X104770000Y-88770000D02*
X104770000Y-86030000D01*
%TO.C,C6*%
X132430000Y-84800000D02*
X132430000Y-92240000D01*
X135170000Y-84800000D02*
X135170000Y-92240000D01*
X135170000Y-92240000D02*
X132430000Y-92240000D01*
X135170000Y-84800000D02*
X132430000Y-84800000D01*
%TO.C,R3*%
X114770000Y-107270000D02*
X114770000Y-100730000D01*
X113400000Y-99960000D02*
X113400000Y-100730000D01*
X112030000Y-107270000D02*
X114770000Y-107270000D01*
X112030000Y-100730000D02*
X112030000Y-107270000D01*
X113400000Y-108040000D02*
X113400000Y-107270000D01*
X114770000Y-100730000D02*
X112030000Y-100730000D01*
%TO.C,D2*%
X183920000Y-98955000D02*
X178480000Y-98955000D01*
X183920000Y-107270000D02*
X183920000Y-97530000D01*
X183920000Y-99195000D02*
X178480000Y-99195000D01*
X178480000Y-97530000D02*
X178480000Y-107270000D01*
X181200000Y-108180000D02*
X181200000Y-107270000D01*
X183920000Y-99075000D02*
X178480000Y-99075000D01*
X178480000Y-107270000D02*
X183920000Y-107270000D01*
X181200000Y-96620000D02*
X181200000Y-97530000D01*
X183920000Y-97530000D02*
X178480000Y-97530000D01*
%TO.C,J4*%
X156778000Y-139530000D02*
X156778000Y-142070000D01*
X153222000Y-139530000D02*
X153222000Y-142070000D01*
X153222000Y-142070000D02*
G75*
G03*
X156778000Y-142070000I1778000J0D01*
G01*
X156778000Y-139530000D02*
G75*
G03*
X153222000Y-139530000I-1778000J0D01*
G01*
%TO.C,R6*%
X135170000Y-107270000D02*
X135170000Y-100730000D01*
X133800000Y-108040000D02*
X133800000Y-107270000D01*
X135170000Y-100730000D02*
X132430000Y-100730000D01*
X132430000Y-100730000D02*
X132430000Y-107270000D01*
X133800000Y-99960000D02*
X133800000Y-100730000D01*
X132430000Y-107270000D02*
X135170000Y-107270000D01*
%TO.C,J1*%
X120022000Y-139530000D02*
X120022000Y-142070000D01*
X123578000Y-139530000D02*
X123578000Y-142070000D01*
X123578000Y-139530000D02*
G75*
G03*
X120022000Y-139530000I-1778000J0D01*
G01*
X120022000Y-142070000D02*
G75*
G03*
X123578000Y-142070000I1778000J0D01*
G01*
D12*
%TO.C,Q1*%
X174000000Y-83200000D02*
X144000000Y-83200000D01*
X144000000Y-121600000D02*
X144000000Y-83200000D01*
X174000000Y-121600000D02*
X144000000Y-121600000D01*
X174000000Y-121600000D02*
X174000000Y-83200000D01*
D11*
%TO.C,B1*%
X90000000Y-64184785D02*
X113000000Y-64184785D01*
X113000000Y-64184785D02*
X113000000Y-75684785D01*
X113000000Y-75684785D02*
X90000000Y-75684785D01*
X90000000Y-75684785D02*
X90000000Y-64184785D01*
D14*
%TO.C,R1*%
X104770000Y-118770000D02*
X104770000Y-116030000D01*
X98230000Y-116030000D02*
X98230000Y-118770000D01*
X98230000Y-118770000D02*
X104770000Y-118770000D01*
X105540000Y-117400000D02*
X104770000Y-117400000D01*
X97460000Y-117400000D02*
X98230000Y-117400000D01*
X104770000Y-116030000D02*
X98230000Y-116030000D01*
%TO.C,C5*%
X123303000Y-75135733D02*
X117544000Y-75135733D01*
X132186000Y-74735733D02*
X126183000Y-74735733D01*
X133098000Y-72415733D02*
X116388000Y-72415733D01*
X128618000Y-78135733D02*
X120868000Y-78135733D01*
X133270000Y-71415733D02*
X116216000Y-71415733D01*
X129256000Y-77775733D02*
X120230000Y-77775733D01*
X129503000Y-77615733D02*
X119983000Y-77615733D01*
X132739000Y-73575733D02*
X126183000Y-73575733D01*
X131725000Y-75455733D02*
X126183000Y-75455733D01*
X131422000Y-75855733D02*
X118064000Y-75855733D01*
X132517000Y-74095733D02*
X126183000Y-74095733D01*
X123303000Y-74255733D02*
X117045000Y-74255733D01*
X133181000Y-72015733D02*
X116305000Y-72015733D01*
X128538000Y-78175733D02*
X120948000Y-78175733D01*
X123303000Y-73975733D02*
X116914000Y-73975733D01*
X126013000Y-78974733D02*
X123473000Y-78974733D01*
X132536000Y-74055733D02*
X126183000Y-74055733D01*
X123303000Y-75095733D02*
X117518000Y-75095733D01*
X133240000Y-71655733D02*
X116246000Y-71655733D01*
X130565000Y-76775733D02*
X118921000Y-76775733D01*
X129578000Y-61230267D02*
X129578000Y-62930267D01*
X130650000Y-76695733D02*
X118836000Y-76695733D01*
X133209000Y-71855733D02*
X116277000Y-71855733D01*
X128771000Y-78055733D02*
X120715000Y-78055733D01*
X128198000Y-78335733D02*
X121288000Y-78335733D01*
X131454000Y-75815733D02*
X118032000Y-75815733D01*
X133059000Y-72575733D02*
X116427000Y-72575733D01*
X129897000Y-77335733D02*
X119589000Y-77335733D01*
X123303000Y-74415733D02*
X117126000Y-74415733D01*
X132590000Y-73935733D02*
X126183000Y-73935733D01*
X133300000Y-71094733D02*
X116186000Y-71094733D01*
X123303000Y-72935733D02*
X116527000Y-72935733D01*
X131863000Y-75255733D02*
X126183000Y-75255733D01*
X133323000Y-70574733D02*
X116163000Y-70574733D01*
X123303000Y-74095733D02*
X116969000Y-74095733D01*
X126456000Y-78894733D02*
X123030000Y-78894733D01*
X133308000Y-70974733D02*
X116178000Y-70974733D01*
X131291000Y-76015733D02*
X118195000Y-76015733D01*
X123303000Y-74495733D02*
X117168000Y-74495733D01*
X130969000Y-76375733D02*
X118517000Y-76375733D01*
X130433000Y-76895733D02*
X119053000Y-76895733D01*
X130296000Y-77015733D02*
X119190000Y-77015733D01*
X123303000Y-74895733D02*
X117394000Y-74895733D01*
X132092000Y-74895733D02*
X126183000Y-74895733D01*
X129563000Y-77575733D02*
X119923000Y-77575733D01*
X123303000Y-74015733D02*
X116932000Y-74015733D01*
X123303000Y-72975733D02*
X116539000Y-72975733D01*
X132947000Y-72975733D02*
X126183000Y-72975733D01*
X132828000Y-73335733D02*
X126183000Y-73335733D01*
X133133000Y-72255733D02*
X116353000Y-72255733D01*
X123303000Y-74055733D02*
X116950000Y-74055733D01*
X133158000Y-72135733D02*
X116328000Y-72135733D01*
X132983000Y-72855733D02*
X126183000Y-72855733D01*
X131608000Y-75615733D02*
X126183000Y-75615733D01*
X133174000Y-72055733D02*
X116312000Y-72055733D01*
X123303000Y-73535733D02*
X116732000Y-73535733D01*
X123303000Y-75215733D02*
X117596000Y-75215733D01*
X132231000Y-74655733D02*
X126183000Y-74655733D01*
X133318000Y-70774733D02*
X116168000Y-70774733D01*
X123303000Y-73175733D02*
X116603000Y-73175733D01*
X132935000Y-73015733D02*
X126183000Y-73015733D01*
X123303000Y-72895733D02*
X116515000Y-72895733D01*
X127101000Y-78734733D02*
X122385000Y-78734733D01*
X132896000Y-73135733D02*
X126183000Y-73135733D01*
X123303000Y-73415733D02*
X116687000Y-73415733D01*
X133195000Y-71935733D02*
X116291000Y-71935733D01*
X133250000Y-71575733D02*
X116236000Y-71575733D01*
X129443000Y-77655733D02*
X120043000Y-77655733D01*
X127914000Y-78455733D02*
X121572000Y-78455733D01*
X133265000Y-71455733D02*
X116221000Y-71455733D01*
X133142000Y-72215733D02*
X116344000Y-72215733D01*
X133293000Y-71175733D02*
X116193000Y-71175733D01*
X131152000Y-76175733D02*
X118334000Y-76175733D01*
X123303000Y-74655733D02*
X117255000Y-74655733D01*
X123303000Y-75495733D02*
X117789000Y-75495733D01*
X132607000Y-73895733D02*
X126183000Y-73895733D01*
X132068000Y-74935733D02*
X126183000Y-74935733D01*
X131668000Y-75535733D02*
X126183000Y-75535733D01*
X133125000Y-72295733D02*
X116361000Y-72295733D01*
X128011000Y-78415733D02*
X121475000Y-78415733D01*
X132994000Y-72815733D02*
X126183000Y-72815733D01*
X123303000Y-73695733D02*
X116795000Y-73695733D01*
X129789000Y-77415733D02*
X119697000Y-77415733D01*
X123303000Y-74855733D02*
X117370000Y-74855733D01*
X132909000Y-73095733D02*
X126183000Y-73095733D01*
X123303000Y-73495733D02*
X116716000Y-73495733D01*
X131968000Y-75095733D02*
X126183000Y-75095733D01*
X133319000Y-70734733D02*
X116167000Y-70734733D01*
X132339000Y-74455733D02*
X126183000Y-74455733D01*
X133107000Y-72375733D02*
X116379000Y-72375733D01*
X126251000Y-78934733D02*
X123235000Y-78934733D01*
X131517000Y-75735733D02*
X117969000Y-75735733D01*
X131117000Y-76215733D02*
X118369000Y-76215733D01*
X133017000Y-72735733D02*
X116469000Y-72735733D01*
X133312000Y-70894733D02*
X116174000Y-70894733D01*
X133323000Y-70494733D02*
X116163000Y-70494733D01*
X132441000Y-74255733D02*
X126183000Y-74255733D01*
X128373000Y-78255733D02*
X121113000Y-78255733D01*
X132019000Y-75015733D02*
X126183000Y-75015733D01*
X132554000Y-74015733D02*
X126183000Y-74015733D01*
X123303000Y-74215733D02*
X117026000Y-74215733D01*
X123303000Y-73015733D02*
X116551000Y-73015733D01*
X130388000Y-76935733D02*
X119098000Y-76935733D01*
X133314000Y-70854733D02*
X116172000Y-70854733D01*
X129057000Y-77895733D02*
X120429000Y-77895733D01*
X131044000Y-76295733D02*
X118442000Y-76295733D01*
X132116000Y-74855733D02*
X126183000Y-74855733D01*
X132723000Y-73615733D02*
X126183000Y-73615733D01*
X130102000Y-77175733D02*
X119384000Y-77175733D01*
X123303000Y-74175733D02*
X117007000Y-74175733D01*
X131754000Y-75415733D02*
X126183000Y-75415733D01*
X133278000Y-71335733D02*
X116208000Y-71335733D01*
X133202000Y-71895733D02*
X116284000Y-71895733D01*
X129734000Y-77455733D02*
X119752000Y-77455733D01*
X132253000Y-74615733D02*
X126183000Y-74615733D01*
X123303000Y-73455733D02*
X116701000Y-73455733D01*
X129949000Y-77295733D02*
X119537000Y-77295733D01*
X126805000Y-78814733D02*
X122681000Y-78814733D01*
X133321000Y-70654733D02*
X116165000Y-70654733D01*
X123303000Y-73135733D02*
X116590000Y-73135733D01*
X133322000Y-70614733D02*
X116164000Y-70614733D01*
X132043000Y-74975733D02*
X126183000Y-74975733D01*
X133297000Y-71134733D02*
X116189000Y-71134733D01*
X123303000Y-74775733D02*
X117323000Y-74775733D01*
X123303000Y-73815733D02*
X116844000Y-73815733D01*
X129319000Y-77735733D02*
X120167000Y-77735733D01*
X132814000Y-73375733D02*
X126183000Y-73375733D01*
X132297000Y-74535733D02*
X126183000Y-74535733D01*
X132479000Y-74175733D02*
X126183000Y-74175733D01*
X133222000Y-71775733D02*
X116264000Y-71775733D01*
X133256000Y-71535733D02*
X116230000Y-71535733D01*
X132642000Y-73815733D02*
X126183000Y-73815733D01*
X123303000Y-75455733D02*
X117761000Y-75455733D01*
X129124000Y-77855733D02*
X120362000Y-77855733D01*
X133166000Y-72095733D02*
X116320000Y-72095733D01*
X131390000Y-75895733D02*
X118096000Y-75895733D01*
X133261000Y-71495733D02*
X116225000Y-71495733D01*
X133324000Y-70454733D02*
X116162000Y-70454733D01*
X133188000Y-71975733D02*
X116298000Y-71975733D01*
X133069000Y-72535733D02*
X116417000Y-72535733D01*
X130478000Y-76855733D02*
X119008000Y-76855733D01*
X133027000Y-72695733D02*
X116459000Y-72695733D01*
X131916000Y-75175733D02*
X126183000Y-75175733D01*
X130931000Y-76415733D02*
X118555000Y-76415733D01*
X123303000Y-73335733D02*
X116658000Y-73335733D01*
X123303000Y-74535733D02*
X117189000Y-74535733D01*
X130001000Y-77255733D02*
X119485000Y-77255733D01*
X123303000Y-73095733D02*
X116577000Y-73095733D01*
X132658000Y-73775733D02*
X126183000Y-73775733D01*
X123303000Y-75335733D02*
X117677000Y-75335733D01*
X131578000Y-75655733D02*
X117908000Y-75655733D01*
X132163000Y-74775733D02*
X126183000Y-74775733D01*
X129621000Y-77535733D02*
X119865000Y-77535733D01*
X131809000Y-75335733D02*
X126183000Y-75335733D01*
X123303000Y-74975733D02*
X117443000Y-74975733D01*
X131638000Y-75575733D02*
X126183000Y-75575733D01*
X128106000Y-78375733D02*
X121380000Y-78375733D01*
X123303000Y-74375733D02*
X117105000Y-74375733D01*
X131994000Y-75055733D02*
X126183000Y-75055733D01*
X132675000Y-73735733D02*
X126183000Y-73735733D01*
X133079000Y-72495733D02*
X116407000Y-72495733D01*
X131324000Y-75975733D02*
X118162000Y-75975733D01*
X130428000Y-62080267D02*
X128728000Y-62080267D01*
X133274000Y-71375733D02*
X116212000Y-71375733D01*
X132959000Y-72935733D02*
X126183000Y-72935733D01*
X131222000Y-76095733D02*
X118264000Y-76095733D01*
X123303000Y-75375733D02*
X117705000Y-75375733D01*
X130522000Y-76815733D02*
X118964000Y-76815733D01*
X123303000Y-73055733D02*
X116564000Y-73055733D01*
X132381000Y-74375733D02*
X126183000Y-74375733D01*
X123303000Y-74935733D02*
X117418000Y-74935733D01*
X133286000Y-71255733D02*
X116200000Y-71255733D01*
X123303000Y-73255733D02*
X116630000Y-73255733D01*
X123303000Y-72775733D02*
X116481000Y-72775733D01*
X123303000Y-72815733D02*
X116492000Y-72815733D01*
X133282000Y-71295733D02*
X116204000Y-71295733D01*
X131697000Y-75495733D02*
X126183000Y-75495733D01*
X123303000Y-74335733D02*
X117085000Y-74335733D01*
X133048000Y-72615733D02*
X116438000Y-72615733D01*
X132856000Y-73255733D02*
X126183000Y-73255733D01*
X132870000Y-73215733D02*
X126183000Y-73215733D01*
X131187000Y-76135733D02*
X118299000Y-76135733D01*
X131080000Y-76255733D02*
X118406000Y-76255733D01*
X126958000Y-78774733D02*
X122528000Y-78774733D01*
X130248000Y-77055733D02*
X119238000Y-77055733D01*
X132572000Y-73975733D02*
X126183000Y-73975733D01*
X123303000Y-73215733D02*
X116616000Y-73215733D01*
X123303000Y-74135733D02*
X116988000Y-74135733D01*
X127812000Y-78495733D02*
X121674000Y-78495733D01*
X132498000Y-74135733D02*
X126183000Y-74135733D01*
X131257000Y-76055733D02*
X118229000Y-76055733D01*
X123303000Y-75255733D02*
X117623000Y-75255733D01*
X132770000Y-73495733D02*
X126183000Y-73495733D01*
X127482000Y-78615733D02*
X122004000Y-78615733D01*
X130342000Y-76975733D02*
X119144000Y-76975733D01*
X130608000Y-76735733D02*
X118878000Y-76735733D01*
X129843000Y-77375733D02*
X119643000Y-77375733D01*
X132785000Y-73455733D02*
X126183000Y-73455733D01*
X132625000Y-73855733D02*
X126183000Y-73855733D01*
X133310000Y-70934733D02*
X116176000Y-70934733D01*
X133088000Y-72455733D02*
X116398000Y-72455733D01*
X132691000Y-73695733D02*
X126183000Y-73695733D01*
X123303000Y-74615733D02*
X117233000Y-74615733D01*
X128988000Y-77935733D02*
X120498000Y-77935733D01*
X130152000Y-77135733D02*
X119334000Y-77135733D01*
X131781000Y-75375733D02*
X126183000Y-75375733D01*
X129382000Y-77695733D02*
X120104000Y-77695733D01*
X130814000Y-76535733D02*
X118672000Y-76535733D01*
X132360000Y-74415733D02*
X126183000Y-74415733D01*
X123303000Y-74695733D02*
X117277000Y-74695733D01*
X132140000Y-74815733D02*
X126183000Y-74815733D01*
X128695000Y-78095733D02*
X120791000Y-78095733D01*
X133305000Y-71014733D02*
X116181000Y-71014733D01*
X123303000Y-74735733D02*
X117300000Y-74735733D01*
X123303000Y-73575733D02*
X116747000Y-73575733D01*
X127597000Y-78575733D02*
X121889000Y-78575733D01*
X123303000Y-73375733D02*
X116672000Y-73375733D01*
X123303000Y-73775733D02*
X116828000Y-73775733D01*
X132460000Y-74215733D02*
X126183000Y-74215733D01*
X133303000Y-71054733D02*
X116183000Y-71054733D01*
X132401000Y-74335733D02*
X126183000Y-74335733D01*
X127706000Y-78535733D02*
X121780000Y-78535733D01*
X123303000Y-74455733D02*
X117147000Y-74455733D01*
X123303000Y-74815733D02*
X117346000Y-74815733D01*
X133245000Y-71615733D02*
X116241000Y-71615733D01*
X123303000Y-73655733D02*
X116778000Y-73655733D01*
X132883000Y-73175733D02*
X126183000Y-73175733D01*
X130733000Y-76615733D02*
X118753000Y-76615733D01*
X131890000Y-75215733D02*
X126183000Y-75215733D01*
X133323000Y-70534733D02*
X116163000Y-70534733D01*
X123303000Y-74295733D02*
X117065000Y-74295733D01*
X123303000Y-73855733D02*
X116861000Y-73855733D01*
X133320000Y-70694733D02*
X116166000Y-70694733D01*
X133228000Y-71735733D02*
X116258000Y-71735733D01*
X123303000Y-75175733D02*
X117570000Y-75175733D01*
X132799000Y-73415733D02*
X126183000Y-73415733D01*
X123303000Y-75575733D02*
X117848000Y-75575733D01*
X133234000Y-71695733D02*
X116252000Y-71695733D01*
X130893000Y-76455733D02*
X118593000Y-76455733D01*
X123303000Y-73295733D02*
X116644000Y-73295733D01*
X132971000Y-72895733D02*
X126183000Y-72895733D01*
X127235000Y-78694733D02*
X122251000Y-78694733D01*
X123303000Y-75535733D02*
X117818000Y-75535733D01*
X123303000Y-75015733D02*
X117467000Y-75015733D01*
X130200000Y-77095733D02*
X119286000Y-77095733D01*
X131357000Y-75935733D02*
X118129000Y-75935733D01*
X128457000Y-78215733D02*
X121029000Y-78215733D01*
X132754000Y-73535733D02*
X126183000Y-73535733D01*
X131486000Y-75775733D02*
X118000000Y-75775733D01*
X130052000Y-77215733D02*
X119434000Y-77215733D01*
X131007000Y-76335733D02*
X118479000Y-76335733D01*
X132275000Y-74575733D02*
X126183000Y-74575733D01*
X133216000Y-71815733D02*
X116270000Y-71815733D01*
X123303000Y-75295733D02*
X117650000Y-75295733D01*
X125719000Y-79014733D02*
X123767000Y-79014733D01*
X129678000Y-77495733D02*
X119808000Y-77495733D01*
X123303000Y-73615733D02*
X116763000Y-73615733D01*
X131942000Y-75135733D02*
X126183000Y-75135733D01*
X123303000Y-73935733D02*
X116896000Y-73935733D01*
X123303000Y-73895733D02*
X116879000Y-73895733D01*
X132842000Y-73295733D02*
X126183000Y-73295733D01*
X133005000Y-72775733D02*
X126183000Y-72775733D01*
X132708000Y-73655733D02*
X126183000Y-73655733D01*
X132209000Y-74695733D02*
X126183000Y-74695733D01*
X127361000Y-78654733D02*
X122125000Y-78654733D01*
X123303000Y-72855733D02*
X116503000Y-72855733D01*
X128287000Y-78295733D02*
X121199000Y-78295733D01*
X123303000Y-75415733D02*
X117732000Y-75415733D01*
X123303000Y-75055733D02*
X117492000Y-75055733D01*
X130854000Y-76495733D02*
X118632000Y-76495733D01*
X133150000Y-72175733D02*
X116336000Y-72175733D01*
X133316000Y-70814733D02*
X116170000Y-70814733D01*
X126639000Y-78854733D02*
X122847000Y-78854733D01*
X133290000Y-71215733D02*
X116196000Y-71215733D01*
X125290000Y-79054733D02*
X124196000Y-79054733D01*
X123303000Y-74575733D02*
X117211000Y-74575733D01*
X129191000Y-77815733D02*
X120295000Y-77815733D01*
X123303000Y-73735733D02*
X116811000Y-73735733D01*
X128845000Y-78015733D02*
X120641000Y-78015733D01*
X128917000Y-77975733D02*
X120569000Y-77975733D01*
X132421000Y-74295733D02*
X126183000Y-74295733D01*
X133116000Y-72335733D02*
X116370000Y-72335733D01*
X123303000Y-75615733D02*
X117878000Y-75615733D01*
X132922000Y-73055733D02*
X126183000Y-73055733D01*
X131836000Y-75295733D02*
X126183000Y-75295733D01*
X131548000Y-75695733D02*
X117938000Y-75695733D01*
X132318000Y-74495733D02*
X126183000Y-74495733D01*
X133038000Y-72655733D02*
X116448000Y-72655733D01*
X130692000Y-76655733D02*
X118794000Y-76655733D01*
X130774000Y-76575733D02*
X118712000Y-76575733D01*
X133363000Y-70454733D02*
G75*
G03*
X133363000Y-70454733I-8620000J0D01*
G01*
%TO.C,C2*%
X128830000Y-124480000D02*
X128830000Y-131920000D01*
X131570000Y-131920000D02*
X128830000Y-131920000D01*
X131570000Y-124480000D02*
X131570000Y-131920000D01*
X131570000Y-124480000D02*
X128830000Y-124480000D01*
%TO.C,J2*%
X134644666Y-139530000D02*
X134644666Y-142070000D01*
X131088666Y-139530000D02*
X131088666Y-142070000D01*
X131088666Y-142070000D02*
G75*
G03*
X134644666Y-142070000I1778000J0D01*
G01*
X134644666Y-139530000D02*
G75*
G03*
X131088666Y-139530000I-1778000J0D01*
G01*
%TO.C,C3*%
X141570000Y-124480000D02*
X141570000Y-131920000D01*
X141570000Y-131920000D02*
X138830000Y-131920000D01*
X138830000Y-124480000D02*
X138830000Y-131920000D01*
X141570000Y-124480000D02*
X138830000Y-124480000D01*
%TO.C,J5*%
X132725000Y-116790000D02*
X134055000Y-116790000D01*
X131455000Y-116790000D02*
X131455000Y-119450000D01*
X126315000Y-116790000D02*
X126315000Y-119450000D01*
X131455000Y-116790000D02*
X126315000Y-116790000D01*
X134055000Y-116790000D02*
X134055000Y-118120000D01*
X131455000Y-119450000D02*
X126315000Y-119450000D01*
%TO.C,U1*%
X123753000Y-82190000D02*
X122503000Y-82190000D01*
X119503000Y-82130000D02*
X119503000Y-102690000D01*
X127003000Y-102630000D02*
X127003000Y-82190000D01*
X122503000Y-102630000D02*
X127003000Y-102630000D01*
X127003000Y-82190000D02*
X125753000Y-82190000D01*
X119503000Y-102690000D02*
X130003000Y-102690000D01*
X130003000Y-82130000D02*
X119503000Y-82130000D01*
X122503000Y-82190000D02*
X122503000Y-102630000D01*
X130003000Y-102690000D02*
X130003000Y-82130000D01*
X123753000Y-82190000D02*
G75*
G03*
X125753000Y-82190000I1000000J0D01*
G01*
%TD*%
M02*
