%TF.GenerationSoftware,KiCad,Pcbnew,(6.0.0)*%
%TF.CreationDate,2022-02-15T10:17:48+01:00*%
%TF.ProjectId,Tranzistorski_pretvara_,5472616e-7a69-4737-946f-72736b695f70,rev?*%
%TF.SameCoordinates,Original*%
%TF.FileFunction,Copper,L1,Top*%
%TF.FilePolarity,Positive*%
%FSLAX46Y46*%
G04 Gerber Fmt 4.6, Leading zero omitted, Abs format (unit mm)*
G04 Created by KiCad (PCBNEW (6.0.0)) date 2022-02-15 10:17:48*
%MOMM*%
%LPD*%
G01*
G04 APERTURE LIST*
%TA.AperFunction,ComponentPad*%
%ADD10C,1.600000*%
%TD*%
%TA.AperFunction,ComponentPad*%
%ADD11O,1.600000X1.600000*%
%TD*%
%TA.AperFunction,ComponentPad*%
%ADD12R,2.600000X2.600000*%
%TD*%
%TA.AperFunction,ComponentPad*%
%ADD13C,2.600000*%
%TD*%
%TA.AperFunction,ComponentPad*%
%ADD14O,5.000000X3.000000*%
%TD*%
%TA.AperFunction,ComponentPad*%
%ADD15O,3.000000X2.000000*%
%TD*%
%TA.AperFunction,ComponentPad*%
%ADD16C,1.700000*%
%TD*%
%TA.AperFunction,ComponentPad*%
%ADD17O,1.700000X1.700000*%
%TD*%
%TA.AperFunction,ComponentPad*%
%ADD18R,1.600000X1.600000*%
%TD*%
%TA.AperFunction,ComponentPad*%
%ADD19R,3.200000X3.200000*%
%TD*%
%TA.AperFunction,ComponentPad*%
%ADD20O,3.200000X3.200000*%
%TD*%
%TA.AperFunction,ComponentPad*%
%ADD21R,1.905000X2.000000*%
%TD*%
%TA.AperFunction,ComponentPad*%
%ADD22O,1.905000X2.000000*%
%TD*%
%TA.AperFunction,ComponentPad*%
%ADD23C,7.000000*%
%TD*%
%TA.AperFunction,ComponentPad*%
%ADD24R,2.400000X2.400000*%
%TD*%
%TA.AperFunction,ComponentPad*%
%ADD25C,2.400000*%
%TD*%
%TA.AperFunction,ComponentPad*%
%ADD26R,1.700000X1.700000*%
%TD*%
%TA.AperFunction,ComponentPad*%
%ADD27R,2.400000X1.600000*%
%TD*%
%TA.AperFunction,ComponentPad*%
%ADD28O,2.400000X1.600000*%
%TD*%
%TA.AperFunction,Conductor*%
%ADD29C,0.762000*%
%TD*%
%TA.AperFunction,Conductor*%
%ADD30C,1.270000*%
%TD*%
G04 APERTURE END LIST*
D10*
%TO.P,R7,1*%
%TO.N,Net-(Q1-Pad1)*%
X143500000Y-65920000D03*
D11*
%TO.P,R7,2*%
%TO.N,Net-(R6-Pad1)*%
X143500000Y-76080000D03*
%TD*%
D10*
%TO.P,R5,1*%
%TO.N,VDD*%
X137000000Y-65920000D03*
D11*
%TO.P,R5,2*%
%TO.N,Net-(R5-Pad2)*%
X137000000Y-76080000D03*
%TD*%
D10*
%TO.P,C4,1*%
%TO.N,Net-(C4-Pad1)*%
X133600000Y-109500000D03*
%TO.P,C4,2*%
%TO.N,GND*%
X133600000Y-114500000D03*
%TD*%
D12*
%TO.P,J2,1,Pin_1*%
%TO.N,GND*%
X102945000Y-114750000D03*
D13*
%TO.P,J2,2,Pin_2*%
X102945000Y-119750000D03*
%TD*%
D10*
%TO.P,C1,1*%
%TO.N,Net-(C1-Pad1)*%
X113750000Y-121750000D03*
%TO.P,C1,2*%
%TO.N,GND*%
X113750000Y-126750000D03*
%TD*%
D12*
%TO.P,J5,1,Pin_1*%
%TO.N,GND*%
X180000000Y-121000000D03*
D13*
%TO.P,J5,2,Pin_2*%
%TO.N,Net-(D2-Pad2)*%
X180000000Y-116000000D03*
%TO.P,J5,3,Pin_3*%
%TO.N,VDD*%
X180000000Y-111000000D03*
%TD*%
D14*
%TO.P,RV1,*%
%TO.N,*%
X107000000Y-89450000D03*
X107000000Y-99050000D03*
D15*
%TO.P,RV1,1,1*%
%TO.N,Net-(R2-Pad2)*%
X100000000Y-91750000D03*
%TO.P,RV1,2,2*%
%TO.N,Net-(RV1-Pad2)*%
X100000000Y-94250000D03*
%TO.P,RV1,3,3*%
%TO.N,Net-(R1-Pad1)*%
X100000000Y-96750000D03*
%TD*%
D10*
%TO.P,R4,1*%
%TO.N,VDD*%
X130400000Y-65920000D03*
D11*
%TO.P,R4,2*%
%TO.N,Net-(J6-Pad1)*%
X130400000Y-76080000D03*
%TD*%
D16*
%TO.P,J6,1,Pin_1*%
%TO.N,Net-(J6-Pad1)*%
X144000000Y-123730000D03*
D17*
X144000000Y-126270000D03*
%TD*%
D10*
%TO.P,R2,1*%
%TO.N,/+5V_REF*%
X110937000Y-82750000D03*
D11*
%TO.P,R2,2*%
%TO.N,Net-(R2-Pad2)*%
X100777000Y-82750000D03*
%TD*%
D18*
%TO.P,U2,1*%
%TO.N,Net-(R5-Pad2)*%
X143700000Y-109725000D03*
D11*
%TO.P,U2,2*%
%TO.N,Net-(J6-Pad1)*%
X143700000Y-112265000D03*
%TO.P,U2,3*%
%TO.N,Net-(R6-Pad1)*%
X151320000Y-112265000D03*
%TO.P,U2,4*%
%TO.N,/+5V_REF*%
X151320000Y-109725000D03*
%TD*%
D10*
%TO.P,C6,1*%
%TO.N,VDD*%
X138750000Y-89500000D03*
%TO.P,C6,2*%
%TO.N,GND*%
X138750000Y-94500000D03*
%TD*%
%TO.P,R3,1*%
%TO.N,Net-(R3-Pad1)*%
X118750000Y-100980000D03*
D11*
%TO.P,R3,2*%
%TO.N,GND*%
X118750000Y-90820000D03*
%TD*%
D19*
%TO.P,D2,1,K*%
%TO.N,VDD*%
X168190000Y-107780000D03*
D20*
%TO.P,D2,2,A*%
%TO.N,Net-(D2-Pad2)*%
X168190000Y-123020000D03*
%TD*%
D17*
%TO.P,J8,1,Pin_1*%
%TO.N,GND*%
X152000000Y-126290000D03*
D16*
X152000000Y-123750000D03*
%TD*%
D10*
%TO.P,R6,1*%
%TO.N,Net-(R6-Pad1)*%
X152580000Y-116750000D03*
D11*
%TO.P,R6,2*%
%TO.N,GND*%
X142420000Y-116750000D03*
%TD*%
D16*
%TO.P,J4,1,Pin_1*%
%TO.N,Net-(D2-Pad2)*%
X160000000Y-123750000D03*
D17*
X160000000Y-126290000D03*
%TD*%
D21*
%TO.P,Q1,1,G*%
%TO.N,Net-(Q1-Pad1)*%
X165500000Y-76950000D03*
D22*
%TO.P,Q1,2,D*%
%TO.N,Net-(D2-Pad2)*%
X162960000Y-76950000D03*
D23*
X162960000Y-91840000D03*
D22*
%TO.P,Q1,3,S*%
%TO.N,GND*%
X160420000Y-76950000D03*
%TD*%
D12*
%TO.P,J1,1,Pin_1*%
%TO.N,VDD*%
X103250000Y-68500007D03*
D13*
%TO.P,J1,2,Pin_2*%
X103250000Y-73500007D03*
%TD*%
D10*
%TO.P,R1,1*%
%TO.N,Net-(R1-Pad1)*%
X100777000Y-105750000D03*
D11*
%TO.P,R1,2*%
%TO.N,GND*%
X110937000Y-105750000D03*
%TD*%
D24*
%TO.P,C5,1*%
%TO.N,VDD*%
X118400000Y-68684785D03*
D25*
%TO.P,C5,2*%
%TO.N,GND*%
X118400000Y-73684785D03*
%TD*%
D10*
%TO.P,C2,1*%
%TO.N,/CT*%
X121750000Y-121750000D03*
%TO.P,C2,2*%
%TO.N,GND*%
X121750000Y-126750000D03*
%TD*%
D16*
%TO.P,J7,1,Pin_1*%
%TO.N,/CT*%
X136000000Y-123800000D03*
D17*
X136000000Y-126340000D03*
%TD*%
D10*
%TO.P,C3,1*%
%TO.N,Net-(C3-Pad1)*%
X129750000Y-121750000D03*
%TO.P,C3,2*%
%TO.N,GND*%
X129750000Y-126750000D03*
%TD*%
D26*
%TO.P,J3,1,Pin_1*%
%TO.N,Net-(C3-Pad1)*%
X124275000Y-113500000D03*
D17*
%TO.P,J3,2,Pin_2*%
%TO.N,/CT*%
X121735000Y-113500000D03*
%TO.P,J3,3,Pin_3*%
%TO.N,Net-(C1-Pad1)*%
X119195000Y-113500000D03*
%TD*%
D27*
%TO.P,U1,1,INV._INPUT*%
%TO.N,Net-(C4-Pad1)*%
X126000000Y-87000000D03*
D28*
%TO.P,U1,2,NON_INV._INPUT*%
%TO.N,Net-(RV1-Pad2)*%
X126000000Y-89540000D03*
%TO.P,U1,3,OSC./SYNC.*%
%TO.N,unconnected-(U1-Pad3)*%
X126000000Y-92080000D03*
%TO.P,U1,4,C.L.(+)SENSE*%
%TO.N,unconnected-(U1-Pad4)*%
X126000000Y-94620000D03*
%TO.P,U1,5,C.L.(-)SENSE*%
%TO.N,unconnected-(U1-Pad5)*%
X126000000Y-97160000D03*
%TO.P,U1,6,RT*%
%TO.N,Net-(R3-Pad1)*%
X126000000Y-99700000D03*
%TO.P,U1,7,CT*%
%TO.N,/CT*%
X126000000Y-102240000D03*
%TO.P,U1,8,GROUND*%
%TO.N,GND*%
X126000000Y-104780000D03*
%TO.P,U1,9,COMPENSATION*%
%TO.N,Net-(C4-Pad1)*%
X133620000Y-104780000D03*
%TO.P,U1,10,SHUTDOWN*%
%TO.N,unconnected-(U1-Pad10)*%
X133620000Y-102240000D03*
%TO.P,U1,11,EMITTER_A*%
%TO.N,GND*%
X133620000Y-99700000D03*
%TO.P,U1,12,COLLECTOR_A*%
%TO.N,Net-(J6-Pad1)*%
X133620000Y-97160000D03*
%TO.P,U1,13,COLLECTOR_B*%
X133620000Y-94620000D03*
%TO.P,U1,14,EMITTER_B*%
%TO.N,GND*%
X133620000Y-92080000D03*
%TO.P,U1,15,+Vi*%
%TO.N,VDD*%
X133620000Y-89540000D03*
%TO.P,U1,16,+5V_REF*%
%TO.N,/+5V_REF*%
X133620000Y-87000000D03*
%TD*%
D29*
%TO.N,Net-(C1-Pad1)*%
X119195000Y-113500000D02*
X113750000Y-118945000D01*
X113750000Y-118945000D02*
X113750000Y-121750000D01*
%TO.N,Net-(C3-Pad1)*%
X129750000Y-121750000D02*
X129750000Y-118975000D01*
X129750000Y-118975000D02*
X124275000Y-113500000D01*
%TO.N,Net-(C4-Pad1)*%
X126000000Y-87000000D02*
X127400000Y-87000000D01*
X133600000Y-109500000D02*
X133600000Y-104800000D01*
X129000000Y-102400000D02*
X131380000Y-104780000D01*
X131380000Y-104780000D02*
X133620000Y-104780000D01*
X133600000Y-104800000D02*
X133620000Y-104780000D01*
X129000000Y-88600000D02*
X129000000Y-102400000D01*
X127400000Y-87000000D02*
X129000000Y-88600000D01*
D30*
%TO.N,VDD*%
X138750000Y-85550000D02*
X133600000Y-80400000D01*
X125000000Y-78200000D02*
X125000000Y-72400000D01*
X133620000Y-89540000D02*
X138710000Y-89540000D01*
X125000000Y-72400000D02*
X121284785Y-68684785D01*
X138750000Y-89500000D02*
X138750000Y-85550000D01*
X138710000Y-89540000D02*
X138750000Y-89500000D01*
X133600000Y-80400000D02*
X127200000Y-80400000D01*
X121284785Y-68684785D02*
X118400000Y-68684785D01*
X127200000Y-80400000D02*
X125000000Y-78200000D01*
D29*
%TO.N,/CT*%
X121735000Y-108735000D02*
X121735000Y-109735000D01*
X129000000Y-110800000D02*
X126935000Y-108735000D01*
X136000000Y-123800000D02*
X136000000Y-126340000D01*
X136000000Y-121400000D02*
X129000000Y-114400000D01*
X121735000Y-109735000D02*
X121735000Y-113500000D01*
X121735000Y-107735000D02*
X121735000Y-108735000D01*
X129000000Y-114400000D02*
X129000000Y-110800000D01*
X122735000Y-108735000D02*
X121735000Y-109735000D01*
X123760000Y-102240000D02*
X121735000Y-104265000D01*
X126935000Y-108735000D02*
X122735000Y-108735000D01*
X126000000Y-102240000D02*
X123760000Y-102240000D01*
X122735000Y-108735000D02*
X121735000Y-108735000D01*
X136000000Y-123800000D02*
X136000000Y-121400000D01*
X121735000Y-113500000D02*
X121735000Y-121735000D01*
X121735000Y-104265000D02*
X121735000Y-107735000D01*
X121735000Y-121735000D02*
X121750000Y-121750000D01*
X122735000Y-108735000D02*
X121735000Y-107735000D01*
%TO.N,Net-(R1-Pad1)*%
X100000000Y-104973000D02*
X100777000Y-105750000D01*
X100000000Y-96750000D02*
X100000000Y-104973000D01*
%TO.N,Net-(R2-Pad2)*%
X100000000Y-91750000D02*
X100000000Y-83527000D01*
X100000000Y-83527000D02*
X100777000Y-82750000D01*
%TO.N,Net-(R3-Pad1)*%
X126000000Y-99700000D02*
X120030000Y-99700000D01*
X120030000Y-99700000D02*
X118750000Y-100980000D01*
%TO.N,Net-(RV1-Pad2)*%
X116750000Y-87750000D02*
X121750000Y-87750000D01*
X100000000Y-94250000D02*
X112500000Y-94250000D01*
X121750000Y-87750000D02*
X123540000Y-89540000D01*
X115000000Y-91750000D02*
X115000000Y-89500000D01*
X123540000Y-89540000D02*
X126000000Y-89540000D01*
X112500000Y-94250000D02*
X115000000Y-91750000D01*
X115000000Y-89500000D02*
X116750000Y-87750000D01*
%TO.N,Net-(J6-Pad1)*%
X138250000Y-112500000D02*
X138250000Y-113500000D01*
X136160000Y-97160000D02*
X138250000Y-99250000D01*
X139235000Y-112265000D02*
X138250000Y-113250000D01*
X138250000Y-113500000D02*
X138250000Y-117980000D01*
X133620000Y-97160000D02*
X136160000Y-97160000D01*
X139235000Y-112265000D02*
X139235000Y-112235000D01*
X138250000Y-111250000D02*
X138250000Y-112500000D01*
X139235000Y-112265000D02*
X138485000Y-112265000D01*
D30*
X133620000Y-94620000D02*
X133620000Y-97160000D01*
D29*
X144000000Y-123750000D02*
X144000000Y-126290000D01*
X138250000Y-117980000D02*
X144000000Y-123730000D01*
X143700000Y-112265000D02*
X139235000Y-112265000D01*
X138250000Y-99250000D02*
X138250000Y-110500000D01*
X138485000Y-112265000D02*
X138250000Y-112500000D01*
X138250000Y-113250000D02*
X138250000Y-113500000D01*
X139235000Y-112235000D02*
X138250000Y-111250000D01*
X138250000Y-110500000D02*
X138250000Y-111250000D01*
%TO.N,Net-(R5-Pad2)*%
X143700000Y-106900000D02*
X143700000Y-109725000D01*
X142800000Y-84380000D02*
X142800000Y-106000000D01*
X137000000Y-78580000D02*
X142800000Y-84380000D01*
X142800000Y-106000000D02*
X143700000Y-106900000D01*
X137000000Y-76080000D02*
X137000000Y-78580000D01*
%TO.N,Net-(R6-Pad1)*%
X143500000Y-80700000D02*
X143500000Y-76080000D01*
X148400000Y-105800000D02*
X146500000Y-103900000D01*
X151320000Y-112265000D02*
X151320000Y-115490000D01*
X152400000Y-105800000D02*
X148400000Y-105800000D01*
X154500000Y-107900000D02*
X152400000Y-105800000D01*
X153135000Y-112265000D02*
X154500000Y-110900000D01*
X146500000Y-83700000D02*
X143500000Y-80700000D01*
X146500000Y-103900000D02*
X146500000Y-83700000D01*
X154500000Y-110900000D02*
X154500000Y-107900000D01*
X151320000Y-112265000D02*
X153135000Y-112265000D01*
X151320000Y-115490000D02*
X152580000Y-116750000D01*
%TO.N,/+5V_REF*%
X133620000Y-87000000D02*
X133620000Y-85370000D01*
X133620000Y-85370000D02*
X132250000Y-84000000D01*
X132250000Y-84000000D02*
X112187000Y-84000000D01*
X112187000Y-84000000D02*
X110937000Y-82750000D01*
%TD*%
%TA.AperFunction,Conductor*%
%TO.N,VDD*%
G36*
X176760885Y-57000198D02*
G01*
X177086192Y-57018466D01*
X177100224Y-57020047D01*
X177259087Y-57047039D01*
X177417946Y-57074031D01*
X177431721Y-57077175D01*
X177741398Y-57166392D01*
X177754735Y-57171059D01*
X177936494Y-57246345D01*
X178052478Y-57294387D01*
X178065201Y-57300514D01*
X178281491Y-57420053D01*
X178347266Y-57456406D01*
X178359230Y-57463924D01*
X178622054Y-57650409D01*
X178633100Y-57659218D01*
X178876055Y-57876335D01*
X178881191Y-57881191D01*
X184124293Y-63124293D01*
X184129123Y-63129399D01*
X184345095Y-63370919D01*
X184353861Y-63381897D01*
X184539561Y-63643093D01*
X184547043Y-63654968D01*
X184702500Y-63935205D01*
X184708618Y-63947847D01*
X184744510Y-64033962D01*
X184831910Y-64243655D01*
X184836584Y-64256906D01*
X184926170Y-64564589D01*
X184929340Y-64578277D01*
X184984113Y-64894027D01*
X184985739Y-64907984D01*
X185005228Y-65231384D01*
X185005455Y-65238408D01*
X185194352Y-108117965D01*
X185194175Y-108125213D01*
X185176423Y-108458949D01*
X185174822Y-108473354D01*
X185119468Y-108799267D01*
X185116223Y-108813394D01*
X185023805Y-109130796D01*
X185018959Y-109144456D01*
X184890703Y-109449139D01*
X184884321Y-109462152D01*
X184721923Y-109750091D01*
X184714089Y-109762285D01*
X184519692Y-110029678D01*
X184510508Y-110040892D01*
X184284236Y-110286857D01*
X184279184Y-110292041D01*
X183375454Y-111167529D01*
X182875038Y-111652307D01*
X182869936Y-111656985D01*
X182628782Y-111866183D01*
X182617848Y-111874662D01*
X182358054Y-112054167D01*
X182346249Y-112061399D01*
X182068351Y-112211307D01*
X182055823Y-112217201D01*
X181763135Y-112335723D01*
X181750038Y-112340206D01*
X181598084Y-112383052D01*
X181446123Y-112425901D01*
X181432625Y-112428917D01*
X181121130Y-112480753D01*
X181107377Y-112482272D01*
X180810223Y-112498621D01*
X180788614Y-112499810D01*
X180781692Y-112500000D01*
X176212063Y-112500000D01*
X176202177Y-112499612D01*
X175962546Y-112480753D01*
X175949940Y-112479761D01*
X175930413Y-112476668D01*
X175689219Y-112418762D01*
X175670424Y-112412655D01*
X175441254Y-112317729D01*
X175423649Y-112308759D01*
X175212144Y-112179149D01*
X175196151Y-112167529D01*
X174999999Y-111999999D01*
X174500000Y-111500000D01*
X167212063Y-111500000D01*
X167202177Y-111499612D01*
X167168030Y-111496925D01*
X166949940Y-111479761D01*
X166930413Y-111476668D01*
X166689219Y-111418762D01*
X166670424Y-111412655D01*
X166441254Y-111317729D01*
X166423649Y-111308759D01*
X166212144Y-111179149D01*
X166196158Y-111167535D01*
X166007538Y-111006438D01*
X165993560Y-110992460D01*
X165832465Y-110803842D01*
X165820849Y-110787854D01*
X165691241Y-110576351D01*
X165682271Y-110558746D01*
X165587345Y-110329576D01*
X165581237Y-110310777D01*
X165576135Y-110289523D01*
X165523332Y-110069586D01*
X165520239Y-110050059D01*
X165500388Y-109797823D01*
X165500000Y-109787937D01*
X165500000Y-106712063D01*
X165500388Y-106702177D01*
X165520239Y-106449941D01*
X165523332Y-106430413D01*
X165581237Y-106189223D01*
X165587347Y-106170419D01*
X165682271Y-105941254D01*
X165691241Y-105923649D01*
X165820851Y-105712144D01*
X165832465Y-105696158D01*
X165993562Y-105507538D01*
X166007540Y-105493560D01*
X166196158Y-105332465D01*
X166212146Y-105320849D01*
X166423649Y-105191241D01*
X166441254Y-105182271D01*
X166670424Y-105087345D01*
X166689219Y-105081238D01*
X166930414Y-105023332D01*
X166949940Y-105020239D01*
X167202177Y-105000388D01*
X167212063Y-105000000D01*
X179000000Y-105000000D01*
X180000000Y-104000000D01*
X180000000Y-66000000D01*
X177500000Y-63500000D01*
X140000000Y-63500000D01*
X140000000Y-64935218D01*
X139999730Y-64943459D01*
X139978633Y-65265331D01*
X139976482Y-65281671D01*
X139914359Y-65593987D01*
X139910093Y-65609907D01*
X139807735Y-65911443D01*
X139801428Y-65926670D01*
X139660590Y-66212262D01*
X139652349Y-66226536D01*
X139475438Y-66491301D01*
X139465405Y-66504376D01*
X139255445Y-66743790D01*
X139243790Y-66755445D01*
X139004376Y-66965405D01*
X138991301Y-66975438D01*
X138726536Y-67152349D01*
X138712262Y-67160590D01*
X138426670Y-67301428D01*
X138411443Y-67307735D01*
X138109907Y-67410093D01*
X138093987Y-67414359D01*
X137781671Y-67476482D01*
X137765331Y-67478633D01*
X137443459Y-67499730D01*
X137435218Y-67500000D01*
X124500000Y-67500000D01*
X123850000Y-68250000D01*
X123461972Y-68697724D01*
X123461969Y-68697728D01*
X123200000Y-69000000D01*
X123200000Y-69399974D01*
X123199946Y-69400549D01*
X123182661Y-69576047D01*
X123177845Y-69600265D01*
X123130092Y-69757685D01*
X123120643Y-69780495D01*
X123043103Y-69925561D01*
X123029380Y-69946099D01*
X122921079Y-70078064D01*
X122912775Y-70087225D01*
X122703503Y-70296497D01*
X122696250Y-70303202D01*
X122503842Y-70467535D01*
X122487856Y-70479149D01*
X122276351Y-70608759D01*
X122258746Y-70617729D01*
X122029576Y-70712655D01*
X122010781Y-70718762D01*
X121769587Y-70776668D01*
X121750060Y-70779761D01*
X121531970Y-70796925D01*
X121497823Y-70799612D01*
X121487937Y-70800000D01*
X106600000Y-70800000D01*
X105600000Y-71800000D01*
X105577914Y-72506762D01*
X105577840Y-72509119D01*
X105577840Y-72509124D01*
X105522234Y-74288494D01*
X105521579Y-74297971D01*
X105494458Y-74551296D01*
X105491020Y-74569969D01*
X105427355Y-74811736D01*
X105421151Y-74829680D01*
X105321878Y-75059142D01*
X105313047Y-75075951D01*
X105180423Y-75287889D01*
X105169167Y-75303179D01*
X105006334Y-75492630D01*
X104992612Y-75506310D01*
X104803842Y-75667535D01*
X104787856Y-75679149D01*
X104576351Y-75808759D01*
X104558746Y-75817729D01*
X104329576Y-75912655D01*
X104310781Y-75918762D01*
X104069587Y-75976668D01*
X104050060Y-75979761D01*
X103831970Y-75996925D01*
X103797823Y-75999612D01*
X103787937Y-76000000D01*
X102212063Y-76000000D01*
X102202177Y-75999612D01*
X102168030Y-75996925D01*
X101949940Y-75979761D01*
X101930413Y-75976668D01*
X101689219Y-75918762D01*
X101670424Y-75912655D01*
X101441254Y-75817729D01*
X101423649Y-75808759D01*
X101212144Y-75679149D01*
X101196158Y-75667535D01*
X101007538Y-75506438D01*
X100993560Y-75492460D01*
X100832465Y-75303842D01*
X100820849Y-75287854D01*
X100691241Y-75076351D01*
X100682271Y-75058746D01*
X100587345Y-74829576D01*
X100581237Y-74810777D01*
X100523332Y-74569587D01*
X100520239Y-74550059D01*
X100500388Y-74297823D01*
X100500000Y-74287937D01*
X100500000Y-68746180D01*
X100500198Y-68739115D01*
X100518466Y-68413812D01*
X100520048Y-68399771D01*
X100574031Y-68082054D01*
X100577175Y-68068279D01*
X100666392Y-67758602D01*
X100671059Y-67745265D01*
X100794385Y-67447526D01*
X100800516Y-67434795D01*
X100814169Y-67410093D01*
X100956406Y-67152734D01*
X100963924Y-67140770D01*
X101150409Y-66877946D01*
X101159218Y-66866900D01*
X101376335Y-66623945D01*
X101381191Y-66618809D01*
X110118809Y-57881191D01*
X110123945Y-57876335D01*
X110366900Y-57659218D01*
X110377946Y-57650409D01*
X110640770Y-57463924D01*
X110652734Y-57456406D01*
X110718509Y-57420053D01*
X110934799Y-57300514D01*
X110947522Y-57294387D01*
X111063506Y-57246345D01*
X111245265Y-57171059D01*
X111258602Y-57166392D01*
X111568279Y-57077175D01*
X111582054Y-57074031D01*
X111740913Y-57047039D01*
X111899776Y-57020047D01*
X111913808Y-57018466D01*
X112239115Y-57000198D01*
X112246180Y-57000000D01*
X176753820Y-57000000D01*
X176760885Y-57000198D01*
G37*
%TD.AperFunction*%
%TD*%
%TA.AperFunction,Conductor*%
%TO.N,Net-(D2-Pad2)*%
G36*
X163506163Y-75750607D02*
G01*
X163633350Y-75763134D01*
X163699182Y-75789717D01*
X163740192Y-75847671D01*
X163747000Y-75888527D01*
X163747001Y-78037836D01*
X163747274Y-78042589D01*
X163787673Y-78217577D01*
X163865836Y-78379266D01*
X163977880Y-78519620D01*
X164118234Y-78631664D01*
X164124577Y-78634730D01*
X164124578Y-78634731D01*
X164205440Y-78673821D01*
X164279923Y-78709827D01*
X164286784Y-78711411D01*
X164402344Y-78738090D01*
X164464219Y-78772904D01*
X164497451Y-78835643D01*
X164500000Y-78860861D01*
X164500000Y-81000000D01*
X168202725Y-84702725D01*
X168211029Y-84711886D01*
X168323597Y-84849050D01*
X168337320Y-84869588D01*
X168418029Y-85020584D01*
X168427482Y-85043403D01*
X168477185Y-85207256D01*
X168482002Y-85231476D01*
X168499393Y-85408051D01*
X168500000Y-85420401D01*
X168500000Y-99769140D01*
X168499230Y-99783052D01*
X168477165Y-99981676D01*
X168471059Y-100008820D01*
X168408230Y-100191120D01*
X168396315Y-100216262D01*
X168295011Y-100380325D01*
X168277869Y-100402240D01*
X168138120Y-100545088D01*
X168127844Y-100554491D01*
X163000000Y-104750000D01*
X163000000Y-112000000D01*
X166000000Y-114500000D01*
X181711760Y-114500000D01*
X181729143Y-114501205D01*
X181826695Y-114514793D01*
X181860134Y-114524292D01*
X181942197Y-114560465D01*
X181971771Y-114578743D01*
X182040822Y-114635963D01*
X182064272Y-114661622D01*
X182120058Y-114742808D01*
X182128905Y-114757810D01*
X182141160Y-114782320D01*
X182146915Y-114795718D01*
X182218250Y-114992523D01*
X182224944Y-115020884D01*
X182249154Y-115228811D01*
X182250000Y-115243383D01*
X182250000Y-116543108D01*
X182249392Y-116555471D01*
X182235003Y-116701408D01*
X182230175Y-116725654D01*
X182189372Y-116860014D01*
X182179900Y-116882855D01*
X182113643Y-117006656D01*
X182099893Y-117027205D01*
X182010737Y-117135681D01*
X181993241Y-117153149D01*
X181879778Y-117246086D01*
X181869847Y-117253436D01*
X181757061Y-117328626D01*
X181746477Y-117334956D01*
X181590193Y-117418315D01*
X181567409Y-117427734D01*
X181403826Y-117477264D01*
X181379645Y-117482065D01*
X181203378Y-117499395D01*
X181191050Y-117500000D01*
X175500000Y-117500000D01*
X175202249Y-117812638D01*
X175202239Y-117812648D01*
X170777928Y-122458175D01*
X170777922Y-122458182D01*
X170500000Y-122750000D01*
X170500000Y-123829599D01*
X170499393Y-123841949D01*
X170482002Y-124018524D01*
X170477185Y-124042744D01*
X170427482Y-124206596D01*
X170418029Y-124229416D01*
X170337320Y-124380412D01*
X170323597Y-124400950D01*
X170211029Y-124538114D01*
X170202725Y-124547275D01*
X169797275Y-124952725D01*
X169788114Y-124961029D01*
X169650950Y-125073597D01*
X169630412Y-125087320D01*
X169479416Y-125168029D01*
X169456597Y-125177482D01*
X169292744Y-125227185D01*
X169268527Y-125232001D01*
X169091949Y-125249393D01*
X169079599Y-125250000D01*
X163500000Y-125250000D01*
X161297275Y-127452725D01*
X161288114Y-127461029D01*
X161150950Y-127573597D01*
X161130412Y-127587320D01*
X160979416Y-127668029D01*
X160956597Y-127677482D01*
X160792744Y-127727185D01*
X160768527Y-127732001D01*
X160592284Y-127749360D01*
X160591949Y-127749393D01*
X160579599Y-127750000D01*
X159082043Y-127750000D01*
X159069363Y-127749360D01*
X158925805Y-127734839D01*
X158900958Y-127729761D01*
X158812263Y-127702089D01*
X158769299Y-127688684D01*
X158745978Y-127678735D01*
X158680095Y-127642396D01*
X158625216Y-127612126D01*
X158604356Y-127597705D01*
X158494515Y-127504120D01*
X158485283Y-127495414D01*
X158257292Y-127257606D01*
X158257291Y-127257605D01*
X158250000Y-127250000D01*
X157797275Y-126797275D01*
X157788971Y-126788114D01*
X157676403Y-126650950D01*
X157662680Y-126630412D01*
X157581971Y-126479416D01*
X157572518Y-126456596D01*
X157522815Y-126292744D01*
X157517998Y-126268524D01*
X157500607Y-126091949D01*
X157500000Y-126079599D01*
X157500000Y-84960482D01*
X157500714Y-84947089D01*
X157521165Y-84755777D01*
X157526827Y-84729596D01*
X157585136Y-84553341D01*
X157596204Y-84528949D01*
X157690454Y-84369000D01*
X157706429Y-84347498D01*
X157836937Y-84206130D01*
X157846546Y-84196773D01*
X161155988Y-81301011D01*
X161155994Y-81301005D01*
X161158505Y-81298808D01*
X161500000Y-81000000D01*
X161500000Y-78439785D01*
X161520002Y-78371664D01*
X161542099Y-78345782D01*
X161681046Y-78221767D01*
X161681048Y-78221765D01*
X161684538Y-78218650D01*
X161851146Y-78018326D01*
X161986314Y-77795577D01*
X162087072Y-77555295D01*
X162151208Y-77302759D01*
X162173000Y-77086348D01*
X162173000Y-76836360D01*
X162158606Y-76642664D01*
X162101102Y-76388535D01*
X162099409Y-76384181D01*
X162008361Y-76150051D01*
X162008360Y-76150049D01*
X162006668Y-76145698D01*
X161956972Y-76058747D01*
X161940535Y-75989679D01*
X161964049Y-75922689D01*
X162006969Y-75885102D01*
X162106371Y-75831971D01*
X162129191Y-75822518D01*
X162293043Y-75772815D01*
X162317260Y-75767999D01*
X162493837Y-75750607D01*
X162506187Y-75750000D01*
X163493813Y-75750000D01*
X163506163Y-75750607D01*
G37*
%TD.AperFunction*%
%TD*%
M02*
