%TF.GenerationSoftware,KiCad,Pcbnew,(6.0.0)*%
%TF.CreationDate,2022-03-11T10:11:19+01:00*%
%TF.ProjectId,Tranzistorski_pretvara_,5472616e-7a69-4737-946f-72736b695f70,rev?*%
%TF.SameCoordinates,Original*%
%TF.FileFunction,Legend,Top*%
%TF.FilePolarity,Positive*%
%FSLAX46Y46*%
G04 Gerber Fmt 4.6, Leading zero omitted, Abs format (unit mm)*
G04 Created by KiCad (PCBNEW (6.0.0)) date 2022-03-11 10:11:19*
%MOMM*%
%LPD*%
G01*
G04 APERTURE LIST*
%ADD10C,0.500000*%
%ADD11C,0.150000*%
%ADD12C,0.254000*%
%ADD13C,0.300000*%
%ADD14C,0.120000*%
%ADD15C,0.200000*%
G04 APERTURE END LIST*
D10*
X180400000Y-124957142D02*
X180971428Y-124957142D01*
X181257142Y-125100000D01*
X181542857Y-125385714D01*
X181685714Y-125957142D01*
X181685714Y-126957142D01*
X181542857Y-127528571D01*
X181257142Y-127814285D01*
X180971428Y-127957142D01*
X180400000Y-127957142D01*
X180114285Y-127814285D01*
X179828571Y-127528571D01*
X179685714Y-126957142D01*
X179685714Y-125957142D01*
X179828571Y-125385714D01*
X180114285Y-125100000D01*
X180400000Y-124957142D01*
X182971428Y-124957142D02*
X182971428Y-127385714D01*
X183114285Y-127671428D01*
X183257142Y-127814285D01*
X183542857Y-127957142D01*
X184114285Y-127957142D01*
X184400000Y-127814285D01*
X184542857Y-127671428D01*
X184685714Y-127385714D01*
X184685714Y-124957142D01*
X185685714Y-124957142D02*
X187400000Y-124957142D01*
X186542857Y-127957142D02*
X186542857Y-124957142D01*
X179600000Y-76957142D02*
X180600000Y-79957142D01*
X181600000Y-76957142D01*
X182600000Y-79957142D02*
X182600000Y-76957142D01*
X183314285Y-76957142D01*
X183742857Y-77100000D01*
X184028571Y-77385714D01*
X184171428Y-77671428D01*
X184314285Y-78242857D01*
X184314285Y-78671428D01*
X184171428Y-79242857D01*
X184028571Y-79528571D01*
X183742857Y-79814285D01*
X183314285Y-79957142D01*
X182600000Y-79957142D01*
X185600000Y-79957142D02*
X185600000Y-76957142D01*
X186314285Y-76957142D01*
X186742857Y-77100000D01*
X187028571Y-77385714D01*
X187171428Y-77671428D01*
X187314285Y-78242857D01*
X187314285Y-78671428D01*
X187171428Y-79242857D01*
X187028571Y-79528571D01*
X186742857Y-79814285D01*
X186314285Y-79957142D01*
X185600000Y-79957142D01*
X91714285Y-125100000D02*
X91428571Y-124957142D01*
X91000000Y-124957142D01*
X90571428Y-125100000D01*
X90285714Y-125385714D01*
X90142857Y-125671428D01*
X90000000Y-126242857D01*
X90000000Y-126671428D01*
X90142857Y-127242857D01*
X90285714Y-127528571D01*
X90571428Y-127814285D01*
X91000000Y-127957142D01*
X91285714Y-127957142D01*
X91714285Y-127814285D01*
X91857142Y-127671428D01*
X91857142Y-126671428D01*
X91285714Y-126671428D01*
X93142857Y-127957142D02*
X93142857Y-124957142D01*
X94857142Y-127957142D01*
X94857142Y-124957142D01*
X96285714Y-127957142D02*
X96285714Y-124957142D01*
X97000000Y-124957142D01*
X97428571Y-125100000D01*
X97714285Y-125385714D01*
X97857142Y-125671428D01*
X98000000Y-126242857D01*
X98000000Y-126671428D01*
X97857142Y-127242857D01*
X97714285Y-127528571D01*
X97428571Y-127814285D01*
X97000000Y-127957142D01*
X96285714Y-127957142D01*
X90200000Y-76957142D02*
X91200000Y-79957142D01*
X92200000Y-76957142D01*
X93200000Y-79957142D02*
X93200000Y-76957142D01*
X93914285Y-76957142D01*
X94342857Y-77100000D01*
X94628571Y-77385714D01*
X94771428Y-77671428D01*
X94914285Y-78242857D01*
X94914285Y-78671428D01*
X94771428Y-79242857D01*
X94628571Y-79528571D01*
X94342857Y-79814285D01*
X93914285Y-79957142D01*
X93200000Y-79957142D01*
X96200000Y-79957142D02*
X96200000Y-76957142D01*
X96914285Y-76957142D01*
X97342857Y-77100000D01*
X97628571Y-77385714D01*
X97771428Y-77671428D01*
X97914285Y-78242857D01*
X97914285Y-78671428D01*
X97771428Y-79242857D01*
X97628571Y-79528571D01*
X97342857Y-79814285D01*
X96914285Y-79957142D01*
X96200000Y-79957142D01*
D11*
X95900185Y-145200000D02*
G75*
G03*
X95900185Y-145200000I-3400368J0D01*
G01*
X188649634Y-59600000D02*
G75*
G03*
X188649634Y-59600000I-3400368J0D01*
G01*
X188650185Y-145200000D02*
G75*
G03*
X188650185Y-145200000I-3400368J0D01*
G01*
X95800001Y-59600000D02*
G75*
G03*
X95800001Y-59600000I-3400368J0D01*
G01*
D12*
X169535714Y-144678571D02*
X169892857Y-145678571D01*
X170250000Y-144678571D01*
X170750000Y-144321428D02*
X170821428Y-144250000D01*
X170964285Y-144178571D01*
X171321428Y-144178571D01*
X171464285Y-144250000D01*
X171535714Y-144321428D01*
X171607142Y-144464285D01*
X171607142Y-144607142D01*
X171535714Y-144821428D01*
X170678571Y-145678571D01*
X171607142Y-145678571D01*
X172250000Y-145678571D02*
X172250000Y-144678571D01*
X172250000Y-144964285D02*
X172321428Y-144821428D01*
X172392857Y-144750000D01*
X172535714Y-144678571D01*
X172678571Y-144678571D01*
X173750000Y-145607142D02*
X173607142Y-145678571D01*
X173321428Y-145678571D01*
X173178571Y-145607142D01*
X173107142Y-145464285D01*
X173107142Y-144892857D01*
X173178571Y-144750000D01*
X173321428Y-144678571D01*
X173607142Y-144678571D01*
X173750000Y-144750000D01*
X173821428Y-144892857D01*
X173821428Y-145035714D01*
X173107142Y-145178571D01*
X174321428Y-144678571D02*
X174678571Y-145678571D01*
X175035714Y-144678571D01*
X176392857Y-145678571D02*
X175535714Y-145678571D01*
X175964285Y-145678571D02*
X175964285Y-144178571D01*
X175821428Y-144392857D01*
X175678571Y-144535714D01*
X175535714Y-144607142D01*
X166378571Y-109328572D02*
X167450000Y-109328572D01*
X167664285Y-109400001D01*
X167807142Y-109542858D01*
X167878571Y-109757143D01*
X167878571Y-109900001D01*
X167878571Y-107900001D02*
X167878571Y-108614286D01*
X166378571Y-108614286D01*
X167735714Y-106542858D02*
X167807142Y-106614286D01*
X167878571Y-106828572D01*
X167878571Y-106971429D01*
X167807142Y-107185715D01*
X167664285Y-107328572D01*
X167521428Y-107400001D01*
X167235714Y-107471429D01*
X167021428Y-107471429D01*
X166735714Y-107400001D01*
X166592857Y-107328572D01*
X166450000Y-107185715D01*
X166378571Y-106971429D01*
X166378571Y-106828572D01*
X166450000Y-106614286D01*
X166521428Y-106542858D01*
X166378571Y-105471429D02*
X167450000Y-105471429D01*
X167664285Y-105542858D01*
X167807142Y-105685715D01*
X167878571Y-105900001D01*
X167878571Y-106042858D01*
X167878571Y-104042858D02*
X167878571Y-104757143D01*
X166378571Y-104757143D01*
X167735714Y-102685715D02*
X167807142Y-102757143D01*
X167878571Y-102971429D01*
X167878571Y-103114286D01*
X167807142Y-103328572D01*
X167664285Y-103471429D01*
X167521428Y-103542858D01*
X167235714Y-103614286D01*
X167021428Y-103614286D01*
X166735714Y-103542858D01*
X166592857Y-103471429D01*
X166450000Y-103328572D01*
X166378571Y-103114286D01*
X166378571Y-102971429D01*
X166450000Y-102757143D01*
X166521428Y-102685715D01*
X166378571Y-101614286D02*
X167450000Y-101614286D01*
X167664285Y-101685715D01*
X167807142Y-101828572D01*
X167878571Y-102042858D01*
X167878571Y-102185715D01*
X167878571Y-100185715D02*
X167878571Y-100900001D01*
X166378571Y-100900001D01*
X167735714Y-98828572D02*
X167807142Y-98900001D01*
X167878571Y-99114286D01*
X167878571Y-99257143D01*
X167807142Y-99471429D01*
X167664285Y-99614286D01*
X167521428Y-99685715D01*
X167235714Y-99757143D01*
X167021428Y-99757143D01*
X166735714Y-99685715D01*
X166592857Y-99614286D01*
X166450000Y-99471429D01*
X166378571Y-99257143D01*
X166378571Y-99114286D01*
X166450000Y-98900001D01*
X166521428Y-98828572D01*
X166378571Y-97757143D02*
X167450000Y-97757143D01*
X167664285Y-97828572D01*
X167807142Y-97971429D01*
X167878571Y-98185715D01*
X167878571Y-98328572D01*
X167878571Y-96328572D02*
X167878571Y-97042858D01*
X166378571Y-97042858D01*
X167735714Y-94971429D02*
X167807142Y-95042858D01*
X167878571Y-95257143D01*
X167878571Y-95400001D01*
X167807142Y-95614286D01*
X167664285Y-95757143D01*
X167521428Y-95828572D01*
X167235714Y-95900001D01*
X167021428Y-95900001D01*
X166735714Y-95828572D01*
X166592857Y-95757143D01*
X166450000Y-95614286D01*
X166378571Y-95400001D01*
X166378571Y-95257143D01*
X166450000Y-95042858D01*
X166521428Y-94971429D01*
D13*
X143000000Y-144778571D02*
X143285714Y-144778571D01*
X143428571Y-144850000D01*
X143571428Y-144992857D01*
X143642857Y-145278571D01*
X143642857Y-145778571D01*
X143571428Y-146064285D01*
X143428571Y-146207142D01*
X143285714Y-146278571D01*
X143000000Y-146278571D01*
X142857142Y-146207142D01*
X142714285Y-146064285D01*
X142642857Y-145778571D01*
X142642857Y-145278571D01*
X142714285Y-144992857D01*
X142857142Y-144850000D01*
X143000000Y-144778571D01*
X144285714Y-144778571D02*
X144285714Y-145992857D01*
X144357142Y-146135714D01*
X144428571Y-146207142D01*
X144571428Y-146278571D01*
X144857142Y-146278571D01*
X145000000Y-146207142D01*
X145071428Y-146135714D01*
X145142857Y-145992857D01*
X145142857Y-144778571D01*
X145642857Y-144778571D02*
X146500000Y-144778571D01*
X146071428Y-146278571D02*
X146071428Y-144778571D01*
X117714285Y-132928571D02*
X117857142Y-132928571D01*
X118000000Y-133000000D01*
X118071428Y-133071428D01*
X118142857Y-133214285D01*
X118214285Y-133500000D01*
X118214285Y-133857142D01*
X118142857Y-134142857D01*
X118071428Y-134285714D01*
X118000000Y-134357142D01*
X117857142Y-134428571D01*
X117714285Y-134428571D01*
X117571428Y-134357142D01*
X117500000Y-134285714D01*
X117428571Y-134142857D01*
X117357142Y-133857142D01*
X117357142Y-133500000D01*
X117428571Y-133214285D01*
X117500000Y-133071428D01*
X117571428Y-133000000D01*
X117714285Y-132928571D01*
X118857142Y-134285714D02*
X118928571Y-134357142D01*
X118857142Y-134428571D01*
X118785714Y-134357142D01*
X118857142Y-134285714D01*
X118857142Y-134428571D01*
X120214285Y-133428571D02*
X120214285Y-134428571D01*
X119857142Y-132857142D02*
X119500000Y-133928571D01*
X120428571Y-133928571D01*
X120857142Y-132928571D02*
X121857142Y-132928571D01*
X121214285Y-134428571D01*
X123071428Y-133428571D02*
X123071428Y-134428571D01*
X122428571Y-133428571D02*
X122428571Y-134214285D01*
X122500000Y-134357142D01*
X122642857Y-134428571D01*
X122857142Y-134428571D01*
X123000000Y-134357142D01*
X123071428Y-134285714D01*
X122692857Y-146135714D02*
X122621428Y-146207142D01*
X122407142Y-146278571D01*
X122264285Y-146278571D01*
X122050000Y-146207142D01*
X121907142Y-146064285D01*
X121835714Y-145921428D01*
X121764285Y-145635714D01*
X121764285Y-145421428D01*
X121835714Y-145135714D01*
X121907142Y-144992857D01*
X122050000Y-144850000D01*
X122264285Y-144778571D01*
X122407142Y-144778571D01*
X122621428Y-144850000D01*
X122692857Y-144921428D01*
X123121428Y-144778571D02*
X123978571Y-144778571D01*
X123550000Y-146278571D02*
X123550000Y-144778571D01*
X132571428Y-146135714D02*
X132500000Y-146207142D01*
X132285714Y-146278571D01*
X132142857Y-146278571D01*
X131928571Y-146207142D01*
X131785714Y-146064285D01*
X131714285Y-145921428D01*
X131642857Y-145635714D01*
X131642857Y-145421428D01*
X131714285Y-145135714D01*
X131785714Y-144992857D01*
X131928571Y-144850000D01*
X132142857Y-144778571D01*
X132285714Y-144778571D01*
X132500000Y-144850000D01*
X132571428Y-144921428D01*
X133500000Y-144778571D02*
X133785714Y-144778571D01*
X133928571Y-144850000D01*
X134071428Y-144992857D01*
X134142857Y-145278571D01*
X134142857Y-145778571D01*
X134071428Y-146064285D01*
X133928571Y-146207142D01*
X133785714Y-146278571D01*
X133500000Y-146278571D01*
X133357142Y-146207142D01*
X133214285Y-146064285D01*
X133142857Y-145778571D01*
X133142857Y-145278571D01*
X133214285Y-144992857D01*
X133357142Y-144850000D01*
X133500000Y-144778571D01*
X135500000Y-146278571D02*
X134785714Y-146278571D01*
X134785714Y-144778571D01*
X130000000Y-134428571D02*
X129142857Y-134428571D01*
X129571428Y-134428571D02*
X129571428Y-132928571D01*
X129428571Y-133142857D01*
X129285714Y-133285714D01*
X129142857Y-133357142D01*
X131285714Y-133428571D02*
X131285714Y-134428571D01*
X130642857Y-133428571D02*
X130642857Y-134214285D01*
X130714285Y-134357142D01*
X130857142Y-134428571D01*
X131071428Y-134428571D01*
X131214285Y-134357142D01*
X131285714Y-134285714D01*
X153857142Y-144850000D02*
X153714285Y-144778571D01*
X153500000Y-144778571D01*
X153285714Y-144850000D01*
X153142857Y-144992857D01*
X153071428Y-145135714D01*
X153000000Y-145421428D01*
X153000000Y-145635714D01*
X153071428Y-145921428D01*
X153142857Y-146064285D01*
X153285714Y-146207142D01*
X153500000Y-146278571D01*
X153642857Y-146278571D01*
X153857142Y-146207142D01*
X153928571Y-146135714D01*
X153928571Y-145635714D01*
X153642857Y-145635714D01*
X154571428Y-146278571D02*
X154571428Y-144778571D01*
X155428571Y-146278571D01*
X155428571Y-144778571D01*
X156142857Y-146278571D02*
X156142857Y-144778571D01*
X156500000Y-144778571D01*
X156714285Y-144850000D01*
X156857142Y-144992857D01*
X156928571Y-145135714D01*
X157000000Y-145421428D01*
X157000000Y-145635714D01*
X156928571Y-145921428D01*
X156857142Y-146064285D01*
X156714285Y-146207142D01*
X156500000Y-146278571D01*
X156142857Y-146278571D01*
X140000000Y-134428571D02*
X139142857Y-134428571D01*
X139571428Y-134428571D02*
X139571428Y-132928571D01*
X139428571Y-133142857D01*
X139285714Y-133285714D01*
X139142857Y-133357142D01*
X141285714Y-133428571D02*
X141285714Y-134428571D01*
X140642857Y-133428571D02*
X140642857Y-134214285D01*
X140714285Y-134357142D01*
X140857142Y-134428571D01*
X141071428Y-134428571D01*
X141214285Y-134357142D01*
X141285714Y-134285714D01*
D11*
%TO.C,R7*%
X142552380Y-104166666D02*
X142076190Y-104500000D01*
X142552380Y-104738095D02*
X141552380Y-104738095D01*
X141552380Y-104357142D01*
X141600000Y-104261904D01*
X141647619Y-104214285D01*
X141742857Y-104166666D01*
X141885714Y-104166666D01*
X141980952Y-104214285D01*
X142028571Y-104261904D01*
X142076190Y-104357142D01*
X142076190Y-104738095D01*
X141552380Y-103833333D02*
X141552380Y-103166666D01*
X142552380Y-103595238D01*
%TO.C,C4*%
X124276333Y-111377142D02*
X124228714Y-111424761D01*
X124085857Y-111472380D01*
X123990619Y-111472380D01*
X123847761Y-111424761D01*
X123752523Y-111329523D01*
X123704904Y-111234285D01*
X123657285Y-111043809D01*
X123657285Y-110900952D01*
X123704904Y-110710476D01*
X123752523Y-110615238D01*
X123847761Y-110520000D01*
X123990619Y-110472380D01*
X124085857Y-110472380D01*
X124228714Y-110520000D01*
X124276333Y-110567619D01*
X125133476Y-110805714D02*
X125133476Y-111472380D01*
X124895380Y-110424761D02*
X124657285Y-111139047D01*
X125276333Y-111139047D01*
%TO.C,J2*%
X100666666Y-133702380D02*
X100666666Y-134416666D01*
X100619047Y-134559523D01*
X100523809Y-134654761D01*
X100380952Y-134702380D01*
X100285714Y-134702380D01*
X101095238Y-133797619D02*
X101142857Y-133750000D01*
X101238095Y-133702380D01*
X101476190Y-133702380D01*
X101571428Y-133750000D01*
X101619047Y-133797619D01*
X101666666Y-133892857D01*
X101666666Y-133988095D01*
X101619047Y-134130952D01*
X101047619Y-134702380D01*
X101666666Y-134702380D01*
%TO.C,C1*%
X118007142Y-128316666D02*
X118054761Y-128364285D01*
X118102380Y-128507142D01*
X118102380Y-128602380D01*
X118054761Y-128745238D01*
X117959523Y-128840476D01*
X117864285Y-128888095D01*
X117673809Y-128935714D01*
X117530952Y-128935714D01*
X117340476Y-128888095D01*
X117245238Y-128840476D01*
X117150000Y-128745238D01*
X117102380Y-128602380D01*
X117102380Y-128507142D01*
X117150000Y-128364285D01*
X117197619Y-128316666D01*
X118102380Y-127364285D02*
X118102380Y-127935714D01*
X118102380Y-127650000D02*
X117102380Y-127650000D01*
X117245238Y-127745238D01*
X117340476Y-127840476D01*
X117388095Y-127935714D01*
%TO.C,J9*%
X176166666Y-134702380D02*
X176166666Y-135416666D01*
X176119047Y-135559523D01*
X176023809Y-135654761D01*
X175880952Y-135702380D01*
X175785714Y-135702380D01*
X176690476Y-135702380D02*
X176880952Y-135702380D01*
X176976190Y-135654761D01*
X177023809Y-135607142D01*
X177119047Y-135464285D01*
X177166666Y-135273809D01*
X177166666Y-134892857D01*
X177119047Y-134797619D01*
X177071428Y-134750000D01*
X176976190Y-134702380D01*
X176785714Y-134702380D01*
X176690476Y-134750000D01*
X176642857Y-134797619D01*
X176595238Y-134892857D01*
X176595238Y-135130952D01*
X176642857Y-135226190D01*
X176690476Y-135273809D01*
X176785714Y-135321428D01*
X176976190Y-135321428D01*
X177071428Y-135273809D01*
X177119047Y-135226190D01*
X177166666Y-135130952D01*
%TO.C,J5*%
X176166666Y-69637165D02*
X176166666Y-70351451D01*
X176119047Y-70494308D01*
X176023809Y-70589546D01*
X175880952Y-70637165D01*
X175785714Y-70637165D01*
X177119047Y-69637165D02*
X176642857Y-69637165D01*
X176595238Y-70113356D01*
X176642857Y-70065737D01*
X176738095Y-70018118D01*
X176976190Y-70018118D01*
X177071428Y-70065737D01*
X177119047Y-70113356D01*
X177166666Y-70208594D01*
X177166666Y-70446689D01*
X177119047Y-70541927D01*
X177071428Y-70589546D01*
X176976190Y-70637165D01*
X176738095Y-70637165D01*
X176642857Y-70589546D01*
X176595238Y-70541927D01*
%TO.C,R4*%
X137552380Y-91166666D02*
X137076190Y-91500000D01*
X137552380Y-91738095D02*
X136552380Y-91738095D01*
X136552380Y-91357142D01*
X136600000Y-91261904D01*
X136647619Y-91214285D01*
X136742857Y-91166666D01*
X136885714Y-91166666D01*
X136980952Y-91214285D01*
X137028571Y-91261904D01*
X137076190Y-91357142D01*
X137076190Y-91738095D01*
X136885714Y-90309523D02*
X137552380Y-90309523D01*
X136504761Y-90547619D02*
X137219047Y-90785714D01*
X137219047Y-90166666D01*
%TO.C,R2*%
X101333333Y-85602380D02*
X101000000Y-85126190D01*
X100761904Y-85602380D02*
X100761904Y-84602380D01*
X101142857Y-84602380D01*
X101238095Y-84650000D01*
X101285714Y-84697619D01*
X101333333Y-84792857D01*
X101333333Y-84935714D01*
X101285714Y-85030952D01*
X101238095Y-85078571D01*
X101142857Y-85126190D01*
X100761904Y-85126190D01*
X101714285Y-84697619D02*
X101761904Y-84650000D01*
X101857142Y-84602380D01*
X102095238Y-84602380D01*
X102190476Y-84650000D01*
X102238095Y-84697619D01*
X102285714Y-84792857D01*
X102285714Y-84888095D01*
X102238095Y-85030952D01*
X101666666Y-85602380D01*
X102285714Y-85602380D01*
%TO.C,C6*%
X133583333Y-94127142D02*
X133535714Y-94174761D01*
X133392857Y-94222380D01*
X133297619Y-94222380D01*
X133154761Y-94174761D01*
X133059523Y-94079523D01*
X133011904Y-93984285D01*
X132964285Y-93793809D01*
X132964285Y-93650952D01*
X133011904Y-93460476D01*
X133059523Y-93365238D01*
X133154761Y-93270000D01*
X133297619Y-93222380D01*
X133392857Y-93222380D01*
X133535714Y-93270000D01*
X133583333Y-93317619D01*
X134440476Y-93222380D02*
X134250000Y-93222380D01*
X134154761Y-93270000D01*
X134107142Y-93317619D01*
X134011904Y-93460476D01*
X133964285Y-93650952D01*
X133964285Y-94031904D01*
X134011904Y-94127142D01*
X134059523Y-94174761D01*
X134154761Y-94222380D01*
X134345238Y-94222380D01*
X134440476Y-94174761D01*
X134488095Y-94127142D01*
X134535714Y-94031904D01*
X134535714Y-93793809D01*
X134488095Y-93698571D01*
X134440476Y-93650952D01*
X134345238Y-93603333D01*
X134154761Y-93603333D01*
X134059523Y-93650952D01*
X134011904Y-93698571D01*
X133964285Y-93793809D01*
%TO.C,R3*%
X116102380Y-101566666D02*
X115626190Y-101900000D01*
X116102380Y-102138095D02*
X115102380Y-102138095D01*
X115102380Y-101757142D01*
X115150000Y-101661904D01*
X115197619Y-101614285D01*
X115292857Y-101566666D01*
X115435714Y-101566666D01*
X115530952Y-101614285D01*
X115578571Y-101661904D01*
X115626190Y-101757142D01*
X115626190Y-102138095D01*
X115102380Y-101233333D02*
X115102380Y-100614285D01*
X115483333Y-100947619D01*
X115483333Y-100804761D01*
X115530952Y-100709523D01*
X115578571Y-100661904D01*
X115673809Y-100614285D01*
X115911904Y-100614285D01*
X116007142Y-100661904D01*
X116054761Y-100709523D01*
X116102380Y-100804761D01*
X116102380Y-101090476D01*
X116054761Y-101185714D01*
X116007142Y-101233333D01*
%TO.C,D2*%
X177807380Y-103138095D02*
X176807380Y-103138095D01*
X176807380Y-102900000D01*
X176855000Y-102757142D01*
X176950238Y-102661904D01*
X177045476Y-102614285D01*
X177235952Y-102566666D01*
X177378809Y-102566666D01*
X177569285Y-102614285D01*
X177664523Y-102661904D01*
X177759761Y-102757142D01*
X177807380Y-102900000D01*
X177807380Y-103138095D01*
X176902619Y-102185714D02*
X176855000Y-102138095D01*
X176807380Y-102042857D01*
X176807380Y-101804761D01*
X176855000Y-101709523D01*
X176902619Y-101661904D01*
X176997857Y-101614285D01*
X177093095Y-101614285D01*
X177235952Y-101661904D01*
X177807380Y-102233333D01*
X177807380Y-101614285D01*
%TO.C,R6*%
X137002380Y-104166666D02*
X136526190Y-104500000D01*
X137002380Y-104738095D02*
X136002380Y-104738095D01*
X136002380Y-104357142D01*
X136050000Y-104261904D01*
X136097619Y-104214285D01*
X136192857Y-104166666D01*
X136335714Y-104166666D01*
X136430952Y-104214285D01*
X136478571Y-104261904D01*
X136526190Y-104357142D01*
X136526190Y-104738095D01*
X136002380Y-103309523D02*
X136002380Y-103500000D01*
X136050000Y-103595238D01*
X136097619Y-103642857D01*
X136240476Y-103738095D01*
X136430952Y-103785714D01*
X136811904Y-103785714D01*
X136907142Y-103738095D01*
X136954761Y-103690476D01*
X137002380Y-103595238D01*
X137002380Y-103404761D01*
X136954761Y-103309523D01*
X136907142Y-103261904D01*
X136811904Y-103214285D01*
X136573809Y-103214285D01*
X136478571Y-103261904D01*
X136430952Y-103309523D01*
X136383333Y-103404761D01*
X136383333Y-103595238D01*
X136430952Y-103690476D01*
X136478571Y-103738095D01*
X136573809Y-103785714D01*
%TO.C,Q1*%
X158864761Y-114957619D02*
X158769523Y-114910000D01*
X158674285Y-114814761D01*
X158531428Y-114671904D01*
X158436190Y-114624285D01*
X158340952Y-114624285D01*
X158388571Y-114862380D02*
X158293333Y-114814761D01*
X158198095Y-114719523D01*
X158150476Y-114529047D01*
X158150476Y-114195714D01*
X158198095Y-114005238D01*
X158293333Y-113910000D01*
X158388571Y-113862380D01*
X158579047Y-113862380D01*
X158674285Y-113910000D01*
X158769523Y-114005238D01*
X158817142Y-114195714D01*
X158817142Y-114529047D01*
X158769523Y-114719523D01*
X158674285Y-114814761D01*
X158579047Y-114862380D01*
X158388571Y-114862380D01*
X159769523Y-114862380D02*
X159198095Y-114862380D01*
X159483809Y-114862380D02*
X159483809Y-113862380D01*
X159388571Y-114005238D01*
X159293333Y-114100476D01*
X159198095Y-114148095D01*
%TO.C,J1*%
X100666666Y-68637165D02*
X100666666Y-69351451D01*
X100619047Y-69494308D01*
X100523809Y-69589546D01*
X100380952Y-69637165D01*
X100285714Y-69637165D01*
X101666666Y-69637165D02*
X101095238Y-69637165D01*
X101380952Y-69637165D02*
X101380952Y-68637165D01*
X101285714Y-68780023D01*
X101190476Y-68875261D01*
X101095238Y-68922880D01*
%TO.C,R1*%
X101333333Y-115602380D02*
X101000000Y-115126190D01*
X100761904Y-115602380D02*
X100761904Y-114602380D01*
X101142857Y-114602380D01*
X101238095Y-114650000D01*
X101285714Y-114697619D01*
X101333333Y-114792857D01*
X101333333Y-114935714D01*
X101285714Y-115030952D01*
X101238095Y-115078571D01*
X101142857Y-115126190D01*
X100761904Y-115126190D01*
X102285714Y-115602380D02*
X101714285Y-115602380D01*
X102000000Y-115602380D02*
X102000000Y-114602380D01*
X101904761Y-114745238D01*
X101809523Y-114840476D01*
X101714285Y-114888095D01*
%TO.C,C5*%
X124776333Y-78191927D02*
X124728714Y-78239546D01*
X124585857Y-78287165D01*
X124490619Y-78287165D01*
X124347761Y-78239546D01*
X124252523Y-78144308D01*
X124204904Y-78049070D01*
X124157285Y-77858594D01*
X124157285Y-77715737D01*
X124204904Y-77525261D01*
X124252523Y-77430023D01*
X124347761Y-77334785D01*
X124490619Y-77287165D01*
X124585857Y-77287165D01*
X124728714Y-77334785D01*
X124776333Y-77382404D01*
X125681095Y-77287165D02*
X125204904Y-77287165D01*
X125157285Y-77763356D01*
X125204904Y-77715737D01*
X125300142Y-77668118D01*
X125538238Y-77668118D01*
X125633476Y-77715737D01*
X125681095Y-77763356D01*
X125728714Y-77858594D01*
X125728714Y-78096689D01*
X125681095Y-78191927D01*
X125633476Y-78239546D01*
X125538238Y-78287165D01*
X125300142Y-78287165D01*
X125204904Y-78239546D01*
X125157285Y-78191927D01*
%TO.C,C2*%
X128007142Y-128316666D02*
X128054761Y-128364285D01*
X128102380Y-128507142D01*
X128102380Y-128602380D01*
X128054761Y-128745238D01*
X127959523Y-128840476D01*
X127864285Y-128888095D01*
X127673809Y-128935714D01*
X127530952Y-128935714D01*
X127340476Y-128888095D01*
X127245238Y-128840476D01*
X127150000Y-128745238D01*
X127102380Y-128602380D01*
X127102380Y-128507142D01*
X127150000Y-128364285D01*
X127197619Y-128316666D01*
X127197619Y-127935714D02*
X127150000Y-127888095D01*
X127102380Y-127792857D01*
X127102380Y-127554761D01*
X127150000Y-127459523D01*
X127197619Y-127411904D01*
X127292857Y-127364285D01*
X127388095Y-127364285D01*
X127530952Y-127411904D01*
X128102380Y-127983333D01*
X128102380Y-127364285D01*
%TO.C,C3*%
X138007142Y-128316666D02*
X138054761Y-128364285D01*
X138102380Y-128507142D01*
X138102380Y-128602380D01*
X138054761Y-128745238D01*
X137959523Y-128840476D01*
X137864285Y-128888095D01*
X137673809Y-128935714D01*
X137530952Y-128935714D01*
X137340476Y-128888095D01*
X137245238Y-128840476D01*
X137150000Y-128745238D01*
X137102380Y-128602380D01*
X137102380Y-128507142D01*
X137150000Y-128364285D01*
X137197619Y-128316666D01*
X137102380Y-127983333D02*
X137102380Y-127364285D01*
X137483333Y-127697619D01*
X137483333Y-127554761D01*
X137530952Y-127459523D01*
X137578571Y-127411904D01*
X137673809Y-127364285D01*
X137911904Y-127364285D01*
X138007142Y-127411904D01*
X138054761Y-127459523D01*
X138102380Y-127554761D01*
X138102380Y-127840476D01*
X138054761Y-127935714D01*
X138007142Y-127983333D01*
%TO.C,J3*%
X129866666Y-114822380D02*
X129866666Y-115536666D01*
X129819047Y-115679523D01*
X129723809Y-115774761D01*
X129580952Y-115822380D01*
X129485714Y-115822380D01*
X130247619Y-114822380D02*
X130866666Y-114822380D01*
X130533333Y-115203333D01*
X130676190Y-115203333D01*
X130771428Y-115250952D01*
X130819047Y-115298571D01*
X130866666Y-115393809D01*
X130866666Y-115631904D01*
X130819047Y-115727142D01*
X130771428Y-115774761D01*
X130676190Y-115822380D01*
X130390476Y-115822380D01*
X130295238Y-115774761D01*
X130247619Y-115727142D01*
%TO.C,U1*%
X123991095Y-103472380D02*
X123991095Y-104281904D01*
X124038714Y-104377142D01*
X124086333Y-104424761D01*
X124181571Y-104472380D01*
X124372047Y-104472380D01*
X124467285Y-104424761D01*
X124514904Y-104377142D01*
X124562523Y-104281904D01*
X124562523Y-103472380D01*
X125562523Y-104472380D02*
X124991095Y-104472380D01*
X125276809Y-104472380D02*
X125276809Y-103472380D01*
X125181571Y-103615238D01*
X125086333Y-103710476D01*
X124991095Y-103758095D01*
D14*
%TO.C,R7*%
X139600000Y-99960000D02*
X139600000Y-100730000D01*
X138230000Y-107270000D02*
X140970000Y-107270000D01*
X139600000Y-108040000D02*
X139600000Y-107270000D01*
X140970000Y-100730000D02*
X138230000Y-100730000D01*
X138230000Y-100730000D02*
X138230000Y-107270000D01*
X140970000Y-107270000D02*
X140970000Y-100730000D01*
%TO.C,C4*%
X128163000Y-109890000D02*
X120723000Y-109890000D01*
X128163000Y-107150000D02*
X120723000Y-107150000D01*
X128163000Y-109890000D02*
X128163000Y-107150000D01*
X120723000Y-109890000D02*
X120723000Y-107150000D01*
D12*
%TO.C,J2*%
X90000000Y-129250000D02*
X113000000Y-129250000D01*
X113000000Y-129250000D02*
X113000000Y-140750000D01*
X113000000Y-140750000D02*
X90000000Y-140750000D01*
X90000000Y-140750000D02*
X90000000Y-129250000D01*
D14*
%TO.C,C1*%
X121570000Y-124480000D02*
X118830000Y-124480000D01*
X121570000Y-131920000D02*
X118830000Y-131920000D01*
X121570000Y-124480000D02*
X121570000Y-131920000D01*
X118830000Y-124480000D02*
X118830000Y-131920000D01*
D12*
%TO.C,J9*%
X187500000Y-140250000D02*
X164500000Y-140250000D01*
X164500000Y-140250000D02*
X164500000Y-128750000D01*
X164500000Y-128750000D02*
X187500000Y-128750000D01*
X187500000Y-128750000D02*
X187500000Y-140250000D01*
%TO.C,J5*%
X187500000Y-75184785D02*
X164500000Y-75184785D01*
X164500000Y-75184785D02*
X164500000Y-63684785D01*
X164500000Y-63684785D02*
X187500000Y-63684785D01*
X187500000Y-63684785D02*
X187500000Y-75184785D01*
D15*
%TO.C,RV1*%
X108531500Y-108242000D02*
X105737500Y-108242000D01*
X95831500Y-106464000D02*
X95831500Y-107734000D01*
X99641500Y-107734000D02*
X95831500Y-107734000D01*
X95831500Y-97066000D02*
X95831500Y-98336000D01*
X108531500Y-97066000D02*
X105737500Y-97066000D01*
X99641500Y-97066000D02*
X95831500Y-97066000D01*
X108531500Y-108242000D02*
X108531500Y-97066000D01*
D14*
%TO.C,R4*%
X139600000Y-86960000D02*
X139600000Y-87730000D01*
X140970000Y-94270000D02*
X140970000Y-87730000D01*
X140970000Y-87730000D02*
X138230000Y-87730000D01*
X139600000Y-95040000D02*
X139600000Y-94270000D01*
X138230000Y-87730000D02*
X138230000Y-94270000D01*
X138230000Y-94270000D02*
X140970000Y-94270000D01*
%TO.C,J6*%
X131755333Y-142070000D02*
G75*
G03*
X135311333Y-142070000I1778000J0D01*
G01*
X135311333Y-139530000D02*
G75*
G03*
X131755333Y-139530000I-1778000J0D01*
G01*
X131755333Y-139530000D02*
X131755333Y-142070000D01*
X135311333Y-139530000D02*
X135311333Y-142070000D01*
%TO.C,R2*%
X98230000Y-88770000D02*
X104770000Y-88770000D01*
X105540000Y-87400000D02*
X104770000Y-87400000D01*
X97460000Y-87400000D02*
X98230000Y-87400000D01*
X98230000Y-86030000D02*
X98230000Y-88770000D01*
X104770000Y-86030000D02*
X98230000Y-86030000D01*
X104770000Y-88770000D02*
X104770000Y-86030000D01*
%TO.C,C6*%
X132430000Y-84800000D02*
X132430000Y-92240000D01*
X135170000Y-84800000D02*
X135170000Y-92240000D01*
X135170000Y-92240000D02*
X132430000Y-92240000D01*
X135170000Y-84800000D02*
X132430000Y-84800000D01*
%TO.C,R3*%
X114770000Y-104670000D02*
X114770000Y-98130000D01*
X113400000Y-97360000D02*
X113400000Y-98130000D01*
X112030000Y-104670000D02*
X114770000Y-104670000D01*
X112030000Y-98130000D02*
X112030000Y-104670000D01*
X113400000Y-105440000D02*
X113400000Y-104670000D01*
X114770000Y-98130000D02*
X112030000Y-98130000D01*
%TO.C,D2*%
X183920000Y-97530000D02*
X178480000Y-97530000D01*
X181200000Y-96620000D02*
X181200000Y-97530000D01*
X178480000Y-107270000D02*
X183920000Y-107270000D01*
X183920000Y-99075000D02*
X178480000Y-99075000D01*
X181200000Y-108180000D02*
X181200000Y-107270000D01*
X178480000Y-97530000D02*
X178480000Y-107270000D01*
X183920000Y-99195000D02*
X178480000Y-99195000D01*
X183920000Y-107270000D02*
X183920000Y-97530000D01*
X183920000Y-98955000D02*
X178480000Y-98955000D01*
%TO.C,J8*%
X156778000Y-139530000D02*
G75*
G03*
X153222000Y-139530000I-1778000J0D01*
G01*
X153222000Y-142070000D02*
G75*
G03*
X156778000Y-142070000I1778000J0D01*
G01*
X153222000Y-139530000D02*
X153222000Y-142070000D01*
X156778000Y-139530000D02*
X156778000Y-142070000D01*
%TO.C,R6*%
X135170000Y-107270000D02*
X135170000Y-100730000D01*
X133800000Y-108040000D02*
X133800000Y-107270000D01*
X135170000Y-100730000D02*
X132430000Y-100730000D01*
X132430000Y-100730000D02*
X132430000Y-107270000D01*
X133800000Y-99960000D02*
X133800000Y-100730000D01*
X132430000Y-107270000D02*
X135170000Y-107270000D01*
%TO.C,J4*%
X142488666Y-142070000D02*
G75*
G03*
X146044666Y-142070000I1778000J0D01*
G01*
X146044666Y-139530000D02*
G75*
G03*
X142488666Y-139530000I-1778000J0D01*
G01*
X146044666Y-139530000D02*
X146044666Y-142070000D01*
X142488666Y-139530000D02*
X142488666Y-142070000D01*
D10*
%TO.C,Q1*%
X174000000Y-121600000D02*
X174000000Y-83200000D01*
X174000000Y-121600000D02*
X144000000Y-121600000D01*
X144000000Y-121600000D02*
X144000000Y-83200000D01*
X174000000Y-83200000D02*
X144000000Y-83200000D01*
D12*
%TO.C,J1*%
X90000000Y-64184785D02*
X113000000Y-64184785D01*
X113000000Y-64184785D02*
X113000000Y-75684785D01*
X113000000Y-75684785D02*
X90000000Y-75684785D01*
X90000000Y-75684785D02*
X90000000Y-64184785D01*
D14*
%TO.C,R1*%
X104770000Y-118770000D02*
X104770000Y-116030000D01*
X98230000Y-116030000D02*
X98230000Y-118770000D01*
X98230000Y-118770000D02*
X104770000Y-118770000D01*
X105540000Y-117400000D02*
X104770000Y-117400000D01*
X97460000Y-117400000D02*
X98230000Y-117400000D01*
X104770000Y-116030000D02*
X98230000Y-116030000D01*
%TO.C,C5*%
X123303000Y-73600570D02*
X119151000Y-73600570D01*
X130857000Y-72560570D02*
X126183000Y-72560570D01*
X129614000Y-74560570D02*
X119872000Y-74560570D01*
X127227000Y-76240570D02*
X122259000Y-76240570D01*
X123303000Y-72640570D02*
X118661000Y-72640570D01*
X129787000Y-74360570D02*
X119699000Y-74360570D01*
X130739000Y-72840570D02*
X126183000Y-72840570D01*
X123303000Y-74000570D02*
X119419000Y-74000570D01*
X130431000Y-73440570D02*
X126183000Y-73440570D01*
X130664000Y-73000570D02*
X126183000Y-73000570D01*
X130152000Y-73880570D02*
X126183000Y-73880570D01*
X123303000Y-71640570D02*
X118339000Y-71640570D01*
X130721000Y-72880570D02*
X126183000Y-72880570D01*
X123303000Y-73960570D02*
X119390000Y-73960570D01*
X127024000Y-76320570D02*
X122462000Y-76320570D01*
X129978000Y-74120570D02*
X119508000Y-74120570D01*
X130206000Y-73800570D02*
X126183000Y-73800570D01*
X129885000Y-74240570D02*
X119601000Y-74240570D01*
X131323000Y-70159570D02*
X118163000Y-70159570D01*
X130008000Y-74080570D02*
X119478000Y-74080570D01*
X130702000Y-72920570D02*
X126183000Y-72920570D01*
X125593000Y-76680570D02*
X123893000Y-76680570D01*
X131137000Y-71680570D02*
X126183000Y-71680570D01*
X131039000Y-72040570D02*
X126183000Y-72040570D01*
X130961000Y-72280570D02*
X126183000Y-72280570D01*
X130808000Y-72680570D02*
X126183000Y-72680570D01*
X131270000Y-70960570D02*
X118216000Y-70960570D01*
X123303000Y-73120570D02*
X118881000Y-73120570D01*
X131147000Y-71640570D02*
X126183000Y-71640570D01*
X123303000Y-71560570D02*
X118321000Y-71560570D01*
X123303000Y-73160570D02*
X118902000Y-73160570D01*
X123303000Y-72160570D02*
X118485000Y-72160570D01*
X130918000Y-72400570D02*
X126183000Y-72400570D01*
X123303000Y-72440570D02*
X118582000Y-72440570D01*
X123303000Y-72400570D02*
X118568000Y-72400570D01*
X128800000Y-75320570D02*
X120686000Y-75320570D01*
X123303000Y-71880570D02*
X118401000Y-71880570D01*
X123303000Y-73480570D02*
X119079000Y-73480570D01*
X130259000Y-73720570D02*
X126183000Y-73720570D01*
X130645000Y-73040570D02*
X126183000Y-73040570D01*
X123303000Y-73840570D02*
X119307000Y-73840570D01*
X123303000Y-73040570D02*
X118841000Y-73040570D01*
X130933000Y-72360570D02*
X126183000Y-72360570D01*
X123303000Y-72240570D02*
X118511000Y-72240570D01*
X130563000Y-73200570D02*
X126183000Y-73200570D01*
X128900000Y-75240570D02*
X120586000Y-75240570D01*
X123303000Y-72000570D02*
X118435000Y-72000570D01*
X126798000Y-76400570D02*
X122688000Y-76400570D01*
X123303000Y-71520570D02*
X118312000Y-71520570D01*
X131051000Y-72000570D02*
X126183000Y-72000570D01*
X123303000Y-73080570D02*
X118861000Y-73080570D01*
X130605000Y-73120570D02*
X126183000Y-73120570D01*
X128996000Y-75160570D02*
X120490000Y-75160570D01*
X130454000Y-73400570D02*
X126183000Y-73400570D01*
X129853000Y-74280570D02*
X119633000Y-74280570D01*
X127895000Y-75920570D02*
X121591000Y-75920570D01*
X131085000Y-71880570D02*
X126183000Y-71880570D01*
X130096000Y-73960570D02*
X126183000Y-73960570D01*
X131241000Y-71160570D02*
X118245000Y-71160570D01*
X129577000Y-74600570D02*
X119909000Y-74600570D01*
X123303000Y-72600570D02*
X118645000Y-72600570D01*
X123303000Y-71720570D02*
X118359000Y-71720570D01*
X131259000Y-71040570D02*
X118227000Y-71040570D01*
X131174000Y-71520570D02*
X126183000Y-71520570D01*
X123303000Y-72560570D02*
X118629000Y-72560570D01*
X128476000Y-75560570D02*
X121010000Y-75560570D01*
X123303000Y-72800570D02*
X118729000Y-72800570D01*
X128104000Y-75800570D02*
X121382000Y-75800570D01*
X125218000Y-76720570D02*
X124268000Y-76720570D01*
X128418000Y-75600570D02*
X121068000Y-75600570D01*
X129917000Y-74200570D02*
X119569000Y-74200570D01*
X123303000Y-73440570D02*
X119055000Y-73440570D01*
X129720000Y-74440570D02*
X119766000Y-74440570D01*
X131254000Y-71080570D02*
X118232000Y-71080570D01*
X131296000Y-70719570D02*
X118190000Y-70719570D01*
X131096000Y-71840570D02*
X126183000Y-71840570D01*
X123303000Y-71480570D02*
X118304000Y-71480570D01*
X123303000Y-73560570D02*
X119126000Y-73560570D01*
X129464000Y-74720570D02*
X120022000Y-74720570D01*
X130625000Y-73080570D02*
X126183000Y-73080570D01*
X129108000Y-63685001D02*
X127808000Y-63685001D01*
X128458000Y-63035001D02*
X128458000Y-64335001D01*
X126237000Y-76560570D02*
X123249000Y-76560570D01*
X131275000Y-70920570D02*
X118211000Y-70920570D01*
X127501000Y-76120570D02*
X121985000Y-76120570D01*
X123303000Y-71320570D02*
X118272000Y-71320570D01*
X130335000Y-73600570D02*
X126183000Y-73600570D01*
X131127000Y-71720570D02*
X126183000Y-71720570D01*
X125850000Y-76640570D02*
X123636000Y-76640570D01*
X131165000Y-71560570D02*
X126183000Y-71560570D01*
X130683000Y-72960570D02*
X126183000Y-72960570D01*
X123303000Y-72120570D02*
X118472000Y-72120570D01*
X131322000Y-70239570D02*
X118164000Y-70239570D01*
X127128000Y-76280570D02*
X122358000Y-76280570D01*
X130384000Y-73520570D02*
X126183000Y-73520570D01*
X128589000Y-75480570D02*
X120897000Y-75480570D01*
X131027000Y-72080570D02*
X126183000Y-72080570D01*
X131235000Y-71200570D02*
X126183000Y-71200570D01*
X128170000Y-75760570D02*
X121316000Y-75760570D01*
X131303000Y-70639570D02*
X118183000Y-70639570D01*
X127585000Y-76080570D02*
X121901000Y-76080570D01*
X123303000Y-72960570D02*
X118803000Y-72960570D01*
X130521000Y-73280570D02*
X126183000Y-73280570D01*
X130792000Y-72720570D02*
X126183000Y-72720570D01*
X131248000Y-71120570D02*
X118238000Y-71120570D01*
X131191000Y-71440570D02*
X126183000Y-71440570D01*
X129821000Y-74320570D02*
X119665000Y-74320570D01*
X123303000Y-74040570D02*
X119448000Y-74040570D01*
X131117000Y-71760570D02*
X126183000Y-71760570D01*
X128533000Y-75520570D02*
X120953000Y-75520570D01*
X128749000Y-75360570D02*
X120737000Y-75360570D01*
X123303000Y-72840570D02*
X118747000Y-72840570D01*
X123303000Y-71600570D02*
X118330000Y-71600570D01*
X123303000Y-72880570D02*
X118765000Y-72880570D01*
X131292000Y-70759570D02*
X118194000Y-70759570D01*
X131318000Y-70399570D02*
X118168000Y-70399570D01*
X129304000Y-74880570D02*
X120182000Y-74880570D01*
X130584000Y-73160570D02*
X126183000Y-73160570D01*
X131265000Y-71000570D02*
X118221000Y-71000570D01*
X123303000Y-73520570D02*
X119102000Y-73520570D01*
X126058000Y-76600570D02*
X123428000Y-76600570D01*
X131199000Y-71400570D02*
X126183000Y-71400570D01*
X128234000Y-75720570D02*
X121252000Y-75720570D01*
X130310000Y-73640570D02*
X126183000Y-73640570D01*
X123303000Y-71920570D02*
X118412000Y-71920570D01*
X127666000Y-76040570D02*
X121820000Y-76040570D01*
X123303000Y-72280570D02*
X118525000Y-72280570D01*
X123303000Y-72480570D02*
X118597000Y-72480570D01*
X123303000Y-72920570D02*
X118784000Y-72920570D01*
X131228000Y-71240570D02*
X126183000Y-71240570D01*
X127413000Y-76160570D02*
X122073000Y-76160570D01*
X123303000Y-73280570D02*
X118965000Y-73280570D01*
X123303000Y-73880570D02*
X119334000Y-73880570D01*
X130988000Y-72200570D02*
X126183000Y-72200570D01*
X126396000Y-76520570D02*
X123090000Y-76520570D01*
X123303000Y-72080570D02*
X118459000Y-72080570D01*
X123303000Y-72520570D02*
X118613000Y-72520570D01*
X131316000Y-70439570D02*
X118170000Y-70439570D01*
X131323000Y-70199570D02*
X118163000Y-70199570D01*
X123303000Y-73800570D02*
X119280000Y-73800570D01*
X123303000Y-71400570D02*
X118287000Y-71400570D01*
X123303000Y-73640570D02*
X119176000Y-73640570D01*
X131214000Y-71320570D02*
X126183000Y-71320570D01*
X123303000Y-72320570D02*
X118539000Y-72320570D01*
X129754000Y-74400570D02*
X119732000Y-74400570D01*
X131074000Y-71920570D02*
X126183000Y-71920570D01*
X130904000Y-72440570D02*
X126183000Y-72440570D01*
X129386000Y-74800570D02*
X120100000Y-74800570D01*
X123303000Y-73000570D02*
X118822000Y-73000570D01*
X129948000Y-74160570D02*
X119538000Y-74160570D01*
X131156000Y-71600570D02*
X126183000Y-71600570D01*
X123303000Y-72760570D02*
X118712000Y-72760570D01*
X130757000Y-72800570D02*
X126183000Y-72800570D01*
X123303000Y-73680570D02*
X119201000Y-73680570D01*
X130476000Y-73360570D02*
X126183000Y-73360570D01*
X128297000Y-75680570D02*
X121189000Y-75680570D01*
X131206000Y-71360570D02*
X126183000Y-71360570D01*
X130067000Y-74000570D02*
X126183000Y-74000570D01*
X127745000Y-76000570D02*
X121741000Y-76000570D01*
X123303000Y-72720570D02*
X118694000Y-72720570D01*
X123303000Y-71280570D02*
X118265000Y-71280570D01*
X130825000Y-72640570D02*
X126183000Y-72640570D01*
X123303000Y-71200570D02*
X118251000Y-71200570D01*
X131319000Y-70359570D02*
X118167000Y-70359570D01*
X130360000Y-73560570D02*
X126183000Y-73560570D01*
X128851000Y-75280570D02*
X120635000Y-75280570D01*
X127821000Y-75960570D02*
X121665000Y-75960570D01*
X123303000Y-73920570D02*
X119362000Y-73920570D01*
X130774000Y-72760570D02*
X126183000Y-72760570D01*
X123303000Y-71680570D02*
X118349000Y-71680570D01*
X130499000Y-73320570D02*
X126183000Y-73320570D01*
X130124000Y-73920570D02*
X126183000Y-73920570D01*
X131311000Y-70519570D02*
X118175000Y-70519570D01*
X130873000Y-72520570D02*
X126183000Y-72520570D01*
X127322000Y-76200570D02*
X122164000Y-76200570D01*
X123303000Y-71440570D02*
X118295000Y-71440570D01*
X128643000Y-75440570D02*
X120843000Y-75440570D01*
X130975000Y-72240570D02*
X126183000Y-72240570D01*
X129177000Y-75000570D02*
X120309000Y-75000570D01*
X129133000Y-75040570D02*
X120353000Y-75040570D01*
X129425000Y-74760570D02*
X120061000Y-74760570D01*
X123303000Y-71960570D02*
X118423000Y-71960570D01*
X130407000Y-73480570D02*
X126183000Y-73480570D01*
X123303000Y-72200570D02*
X118498000Y-72200570D01*
X131309000Y-70559570D02*
X118177000Y-70559570D01*
X123303000Y-73720570D02*
X119227000Y-73720570D01*
X130841000Y-72600570D02*
X126183000Y-72600570D01*
X123303000Y-73360570D02*
X119010000Y-73360570D01*
X131014000Y-72120570D02*
X126183000Y-72120570D01*
X129503000Y-74680570D02*
X119983000Y-74680570D01*
X130285000Y-73680570D02*
X126183000Y-73680570D01*
X131107000Y-71800570D02*
X126183000Y-71800570D01*
X131314000Y-70479570D02*
X118172000Y-70479570D01*
X130947000Y-72320570D02*
X126183000Y-72320570D01*
X123303000Y-73400570D02*
X119032000Y-73400570D01*
X129685000Y-74480570D02*
X119801000Y-74480570D01*
X131063000Y-71960570D02*
X126183000Y-71960570D01*
X126541000Y-76480570D02*
X122945000Y-76480570D01*
X128948000Y-75200570D02*
X120538000Y-75200570D01*
X131300000Y-70679570D02*
X118186000Y-70679570D01*
X129540000Y-74640570D02*
X119946000Y-74640570D01*
X127966000Y-75880570D02*
X121520000Y-75880570D01*
X126674000Y-76440570D02*
X122812000Y-76440570D01*
X128036000Y-75840570D02*
X121450000Y-75840570D01*
X131221000Y-71280570D02*
X126183000Y-71280570D01*
X130038000Y-74040570D02*
X126183000Y-74040570D01*
X131284000Y-70840570D02*
X118202000Y-70840570D01*
X129650000Y-74520570D02*
X119836000Y-74520570D01*
X131280000Y-70880570D02*
X118206000Y-70880570D01*
X123303000Y-73200570D02*
X118923000Y-73200570D01*
X126914000Y-76360570D02*
X122572000Y-76360570D01*
X130179000Y-73840570D02*
X126183000Y-73840570D01*
X128358000Y-75640570D02*
X121128000Y-75640570D01*
X129088000Y-75080570D02*
X120398000Y-75080570D01*
X131288000Y-70799570D02*
X118198000Y-70799570D01*
X131322000Y-70279570D02*
X118164000Y-70279570D01*
X123303000Y-72680570D02*
X118678000Y-72680570D01*
X131323000Y-70119570D02*
X118163000Y-70119570D01*
X130889000Y-72480570D02*
X126183000Y-72480570D01*
X123303000Y-72040570D02*
X118447000Y-72040570D01*
X123303000Y-71360570D02*
X118280000Y-71360570D01*
X131182000Y-71480570D02*
X126183000Y-71480570D01*
X123303000Y-72360570D02*
X118553000Y-72360570D01*
X123303000Y-73240570D02*
X118944000Y-73240570D01*
X123303000Y-73760570D02*
X119253000Y-73760570D01*
X129345000Y-74840570D02*
X120141000Y-74840570D01*
X123303000Y-73320570D02*
X118987000Y-73320570D01*
X131001000Y-72160570D02*
X126183000Y-72160570D01*
X123303000Y-71760570D02*
X118369000Y-71760570D01*
X123303000Y-71240570D02*
X118258000Y-71240570D01*
X123303000Y-71840570D02*
X118390000Y-71840570D01*
X130233000Y-73760570D02*
X126183000Y-73760570D01*
X131320000Y-70319570D02*
X118166000Y-70319570D01*
X131306000Y-70599570D02*
X118180000Y-70599570D01*
X129220000Y-74960570D02*
X120266000Y-74960570D01*
X130542000Y-73240570D02*
X126183000Y-73240570D01*
X129042000Y-75120570D02*
X120444000Y-75120570D01*
X123303000Y-71800570D02*
X118379000Y-71800570D01*
X128697000Y-75400570D02*
X120789000Y-75400570D01*
X129262000Y-74920570D02*
X120224000Y-74920570D01*
X131363000Y-70119570D02*
G75*
G03*
X131363000Y-70119570I-6620000J0D01*
G01*
%TO.C,C2*%
X131570000Y-124480000D02*
X128830000Y-124480000D01*
X131570000Y-124480000D02*
X131570000Y-131920000D01*
X131570000Y-131920000D02*
X128830000Y-131920000D01*
X128830000Y-124480000D02*
X128830000Y-131920000D01*
%TO.C,J7*%
X124578000Y-139530000D02*
G75*
G03*
X121022000Y-139530000I-1778000J0D01*
G01*
X121022000Y-142070000D02*
G75*
G03*
X124578000Y-142070000I1778000J0D01*
G01*
X121022000Y-139530000D02*
X121022000Y-142070000D01*
X124578000Y-139530000D02*
X124578000Y-142070000D01*
%TO.C,C3*%
X141570000Y-124480000D02*
X138830000Y-124480000D01*
X138830000Y-124480000D02*
X138830000Y-131920000D01*
X141570000Y-131920000D02*
X138830000Y-131920000D01*
X141570000Y-124480000D02*
X141570000Y-131920000D01*
%TO.C,J3*%
X131455000Y-119450000D02*
X126315000Y-119450000D01*
X134055000Y-116790000D02*
X134055000Y-118120000D01*
X131455000Y-116790000D02*
X126315000Y-116790000D01*
X126315000Y-116790000D02*
X126315000Y-119450000D01*
X131455000Y-116790000D02*
X131455000Y-119450000D01*
X132725000Y-116790000D02*
X134055000Y-116790000D01*
%TO.C,U1*%
X123753000Y-82190000D02*
X122503000Y-82190000D01*
X119503000Y-82130000D02*
X119503000Y-102690000D01*
X127003000Y-102630000D02*
X127003000Y-82190000D01*
X122503000Y-102630000D02*
X127003000Y-102630000D01*
X127003000Y-82190000D02*
X125753000Y-82190000D01*
X119503000Y-102690000D02*
X130003000Y-102690000D01*
X130003000Y-82130000D02*
X119503000Y-82130000D01*
X122503000Y-82190000D02*
X122503000Y-102630000D01*
X130003000Y-102690000D02*
X130003000Y-82130000D01*
X123753000Y-82190000D02*
G75*
G03*
X125753000Y-82190000I1000000J0D01*
G01*
%TD*%
M02*
