M48
; DRILL file {KiCad 9.0.7} date 2026-02-06T14:33:54+0100
; FORMAT={-:-/ absolute / metric / decimal}
; #@! TF.CreationDate,2026-02-06T14:33:54+01:00
; #@! TF.GenerationSoftware,Kicad,Pcbnew,9.0.7
; #@! TF.FileFunction,Plated,1,2,PTH
FMAT,2
METRIC
; #@! TA.AperFunction,Plated,PTH,ComponentDrill
T1C0.800
; #@! TA.AperFunction,Plated,PTH,ComponentDrill
T2C1.000
; #@! TA.AperFunction,Plated,PTH,ComponentDrill
T3C1.200
; #@! TA.AperFunction,Plated,PTH,ComponentDrill
T4C1.500
; #@! TA.AperFunction,Plated,PTH,ComponentDrill
T5C1.600
; #@! TA.AperFunction,Plated,PTH,ComponentDrill
T6C1.940
; #@! TA.AperFunction,Plated,PTH,ComponentDrill
T7C3.200
%
G90
G05
T1
X96.42Y-87.4
X96.42Y-117.4
X106.58Y-87.4
X106.58Y-117.4
X113.4Y-98.92
X113.4Y-109.08
X120.2Y-125.7
X120.2Y-130.7
X120.943Y-83.52
X120.943Y-86.06
X120.943Y-88.6
X120.943Y-91.14
X120.943Y-93.68
X120.943Y-96.22
X120.943Y-98.76
X120.943Y-101.3
X121.943Y-108.52
X126.943Y-108.52
X128.563Y-83.52
X128.563Y-86.06
X128.563Y-88.6
X128.563Y-91.14
X128.563Y-93.68
X128.563Y-96.22
X128.563Y-98.76
X128.563Y-101.3
X130.2Y-125.7
X130.2Y-130.7
X133.8Y-86.02
X133.8Y-91.02
X133.8Y-98.92
X133.8Y-109.08
X139.6Y-85.92
X139.6Y-96.08
X139.6Y-98.92
X139.6Y-109.08
X140.2Y-125.7
X140.2Y-130.7
T2
X95.689Y-99.9
X95.689Y-102.4
X95.689Y-104.9
X121.8Y-139.53
X121.8Y-142.07
X127.645Y-118.12
X130.185Y-118.12
X132.725Y-118.12
X132.867Y-139.53
X132.867Y-142.07
X143.933Y-139.53
X143.933Y-142.07
X155.0Y-139.53
X155.0Y-142.07
T3
X124.743Y-66.705
X124.743Y-74.205
X156.42Y-95.1
X158.96Y-95.1
X161.5Y-95.1
T5
X181.2Y-94.78
X181.2Y-110.02
T6
X93.35Y-69.685
X93.35Y-134.75
X108.65Y-69.685
X108.65Y-134.75
X168.85Y-69.685
X168.85Y-134.75
X184.15Y-69.685
X184.15Y-134.75
T7
X158.96Y-109.99
T4
G00X103.189Y-97.6
M15
G01X102.189Y-97.6
M16
G05
G00X103.189Y-107.2
M15
G01X102.189Y-107.2
M16
G05
M30
