%TF.GenerationSoftware,KiCad,Pcbnew,(6.0.0)*%
%TF.CreationDate,2022-02-15T10:17:48+01:00*%
%TF.ProjectId,Tranzistorski_pretvara_,5472616e-7a69-4737-946f-72736b695f70,rev?*%
%TF.SameCoordinates,Original*%
%TF.FileFunction,Soldermask,Top*%
%TF.FilePolarity,Negative*%
%FSLAX46Y46*%
G04 Gerber Fmt 4.6, Leading zero omitted, Abs format (unit mm)*
G04 Created by KiCad (PCBNEW (6.0.0)) date 2022-02-15 10:17:48*
%MOMM*%
%LPD*%
G01*
G04 APERTURE LIST*
%ADD10C,1.600000*%
%ADD11O,1.600000X1.600000*%
%ADD12C,3.200000*%
%ADD13R,2.600000X2.600000*%
%ADD14C,2.600000*%
%ADD15O,5.000000X3.000000*%
%ADD16O,3.000000X2.000000*%
%ADD17C,1.700000*%
%ADD18O,1.700000X1.700000*%
%ADD19R,1.600000X1.600000*%
%ADD20R,3.200000X3.200000*%
%ADD21O,3.200000X3.200000*%
%ADD22R,1.905000X2.000000*%
%ADD23O,1.905000X2.000000*%
%ADD24C,7.000000*%
%ADD25R,2.400000X2.400000*%
%ADD26C,2.400000*%
%ADD27R,1.700000X1.700000*%
%ADD28R,2.400000X1.600000*%
%ADD29O,2.400000X1.600000*%
G04 APERTURE END LIST*
D10*
%TO.C,R7*%
X143500000Y-65920000D03*
D11*
X143500000Y-76080000D03*
%TD*%
D12*
%TO.C,H4*%
X97750000Y-57946833D03*
%TD*%
D10*
%TO.C,R5*%
X137000000Y-65920000D03*
D11*
X137000000Y-76080000D03*
%TD*%
D10*
%TO.C,C4*%
X133600000Y-109500000D03*
X133600000Y-114500000D03*
%TD*%
D13*
%TO.C,J2*%
X102945000Y-114750000D03*
D14*
X102945000Y-119750000D03*
%TD*%
D10*
%TO.C,C1*%
X113750000Y-121750000D03*
X113750000Y-126750000D03*
%TD*%
D12*
%TO.C,H3*%
X97803167Y-130500000D03*
%TD*%
D13*
%TO.C,J5*%
X180000000Y-121000000D03*
D14*
X180000000Y-116000000D03*
X180000000Y-111000000D03*
%TD*%
D15*
%TO.C,RV1*%
X107000000Y-89450000D03*
X107000000Y-99050000D03*
D16*
X100000000Y-91750000D03*
X100000000Y-94250000D03*
X100000000Y-96750000D03*
%TD*%
D10*
%TO.C,R4*%
X130400000Y-65920000D03*
D11*
X130400000Y-76080000D03*
%TD*%
D12*
%TO.C,H2*%
X185250000Y-58000000D03*
%TD*%
D17*
%TO.C,J6*%
X144000000Y-123730000D03*
D18*
X144000000Y-126270000D03*
%TD*%
D10*
%TO.C,R2*%
X110937000Y-82750000D03*
D11*
X100777000Y-82750000D03*
%TD*%
D19*
%TO.C,U2*%
X143700000Y-109725000D03*
D11*
X143700000Y-112265000D03*
X151320000Y-112265000D03*
X151320000Y-109725000D03*
%TD*%
D10*
%TO.C,C6*%
X138750000Y-89500000D03*
X138750000Y-94500000D03*
%TD*%
%TO.C,R3*%
X118750000Y-100980000D03*
D11*
X118750000Y-90820000D03*
%TD*%
D20*
%TO.C,D2*%
X168190000Y-107780000D03*
D21*
X168190000Y-123020000D03*
%TD*%
D18*
%TO.C,J8*%
X152000000Y-126290000D03*
D17*
X152000000Y-123750000D03*
%TD*%
D10*
%TO.C,R6*%
X152580000Y-116750000D03*
D11*
X142420000Y-116750000D03*
%TD*%
D17*
%TO.C,J4*%
X160000000Y-123750000D03*
D18*
X160000000Y-126290000D03*
%TD*%
D22*
%TO.C,Q1*%
X165500000Y-76950000D03*
D23*
X162960000Y-76950000D03*
D24*
X162960000Y-91840000D03*
D23*
X160420000Y-76950000D03*
%TD*%
D13*
%TO.C,J1*%
X103250000Y-68500007D03*
D14*
X103250000Y-73500007D03*
%TD*%
D10*
%TO.C,R1*%
X100777000Y-105750000D03*
D11*
X110937000Y-105750000D03*
%TD*%
D25*
%TO.C,C5*%
X118400000Y-68684785D03*
D26*
X118400000Y-73684785D03*
%TD*%
D10*
%TO.C,C2*%
X121750000Y-121750000D03*
X121750000Y-126750000D03*
%TD*%
D17*
%TO.C,J7*%
X136000000Y-123800000D03*
D18*
X136000000Y-126340000D03*
%TD*%
D10*
%TO.C,C3*%
X129750000Y-121750000D03*
X129750000Y-126750000D03*
%TD*%
D27*
%TO.C,J3*%
X124275000Y-113500000D03*
D18*
X121735000Y-113500000D03*
X119195000Y-113500000D03*
%TD*%
D28*
%TO.C,U1*%
X126000000Y-87000000D03*
D29*
X126000000Y-89540000D03*
X126000000Y-92080000D03*
X126000000Y-94620000D03*
X126000000Y-97160000D03*
X126000000Y-99700000D03*
X126000000Y-102240000D03*
X126000000Y-104780000D03*
X133620000Y-104780000D03*
X133620000Y-102240000D03*
X133620000Y-99700000D03*
X133620000Y-97160000D03*
X133620000Y-94620000D03*
X133620000Y-92080000D03*
X133620000Y-89540000D03*
X133620000Y-87000000D03*
%TD*%
D12*
%TO.C,H1*%
X185250000Y-130500000D03*
%TD*%
M02*
