M48
; DRILL file {KiCad (6.0.1)} date Thu Feb 10 21:15:26 2022
; FORMAT={-:-/ absolute / inch / decimal}
; #@! TF.CreationDate,2022-02-10T21:15:26+01:00
; #@! TF.GenerationSoftware,Kicad,Pcbnew,(6.0.1)
; #@! TF.FileFunction,Plated,1,2,PTH
FMAT,2
INCH
; #@! TA.AperFunction,Plated,PTH,ComponentDrill
T1C0.0315
; #@! TA.AperFunction,Plated,PTH,ComponentDrill
T2C0.0394
; #@! TA.AperFunction,Plated,PTH,ComponentDrill
T3C0.0472
; #@! TA.AperFunction,Plated,PTH,ComponentDrill
T4C0.0512
; #@! TA.AperFunction,Plated,PTH,ComponentDrill
T5C0.0591
; #@! TA.AperFunction,Plated,PTH,ComponentDrill
T6C0.0630
; #@! TA.AperFunction,Plated,PTH,ComponentDrill
T7C0.1457
%
G90
G05
T1
X3.9676Y-3.2579
X3.9676Y-4.1634
X4.3676Y-3.2579
X4.3676Y-4.1634
X4.4783Y-4.7933
X4.4783Y-4.9902
X4.6752Y-3.5756
X4.6752Y-3.9756
X4.7933Y-4.7933
X4.7933Y-4.9902
X4.8327Y-2.6937
X4.8327Y-3.0937
X4.9606Y-3.4252
X4.9606Y-3.5252
X4.9606Y-3.6252
X4.9606Y-3.7252
X4.9606Y-3.8252
X4.9606Y-3.9252
X4.9606Y-4.0252
X4.9606Y-4.1252
X5.1083Y-4.7933
X5.1083Y-4.9902
X5.1476Y-2.6937
X5.1476Y-3.0937
X5.2606Y-3.4252
X5.2606Y-3.5252
X5.2606Y-3.6252
X5.2606Y-3.7252
X5.2606Y-3.8252
X5.2606Y-3.9252
X5.2606Y-4.0252
X5.2606Y-4.1252
X5.4232Y-4.7933
X5.4232Y-4.9902
X5.4626Y-2.6937
X5.4626Y-3.0937
X5.4626Y-3.5236
X5.4626Y-3.7205
X5.6071Y-4.5965
X5.6575Y-4.3199
X5.6575Y-4.4199
X5.9575Y-4.3199
X5.9575Y-4.4199
X6.0071Y-4.5965
T2
X3.937Y-3.6122
X3.937Y-3.7106
X3.937Y-3.8091
X4.6927Y-4.4685
X4.7927Y-4.4685
X4.8927Y-4.4685
X5.6693Y-4.8713
X5.6693Y-4.9713
X5.9843Y-4.872
X5.9843Y-4.972
X6.2992Y-4.872
X6.2992Y-4.972
T3
X6.3157Y-3.0295
X6.4157Y-3.0295
X6.5157Y-3.0295
T4
X4.053Y-4.5177
X4.053Y-4.7146
X4.065Y-2.6969
X4.065Y-2.8937
X7.0866Y-4.3701
X7.0866Y-4.5669
X7.0866Y-4.7638
T6
X6.6217Y-4.2433
X6.6217Y-4.8433
T7
X6.4157Y-3.6157
T5
G00X4.2323Y-3.5217
M15
G01X4.1929Y-3.5217
M16
G05
G00X4.2323Y-3.8996
M15
G01X4.1929Y-3.8996
M16
G05
T0
M30
