M48
; DRILL file {KiCad (6.0.0)} date Mon Mar 14 12:38:50 2022
; FORMAT={-:-/ absolute / inch / decimal}
; #@! TF.CreationDate,2022-03-14T12:38:50+01:00
; #@! TF.GenerationSoftware,Kicad,Pcbnew,(6.0.0)
; #@! TF.FileFunction,Plated,1,2,PTH
FMAT,2
INCH
; #@! TA.AperFunction,Plated,PTH,ComponentDrill
T1C0.0315
; #@! TA.AperFunction,Plated,PTH,ComponentDrill
T2C0.0394
; #@! TA.AperFunction,Plated,PTH,ComponentDrill
T3C0.0472
; #@! TA.AperFunction,Plated,PTH,ComponentDrill
T4C0.0591
; #@! TA.AperFunction,Plated,PTH,ComponentDrill
T5C0.0630
; #@! TA.AperFunction,Plated,PTH,ComponentDrill
T6C0.0764
; #@! TA.AperFunction,Plated,PTH,ComponentDrill
T7C0.1260
%
G90
G05
T1
X3.7961Y-3.4409
X3.7961Y-4.622
X4.1961Y-3.4409
X4.1961Y-4.622
X4.4646Y-3.8945
X4.4646Y-4.2945
X4.7323Y-4.9488
X4.7323Y-5.1457
X4.7615Y-3.2882
X4.7615Y-3.3882
X4.7615Y-3.4882
X4.7615Y-3.5882
X4.7615Y-3.6882
X4.7615Y-3.7882
X4.7615Y-3.8882
X4.7615Y-3.9882
X4.8009Y-4.2724
X4.9978Y-4.2724
X5.0615Y-3.2882
X5.0615Y-3.3882
X5.0615Y-3.4882
X5.0615Y-3.5882
X5.0615Y-3.6882
X5.0615Y-3.7882
X5.0615Y-3.8882
X5.0615Y-3.9882
X5.126Y-4.9488
X5.126Y-5.1457
X5.2677Y-3.3866
X5.2677Y-3.5835
X5.2677Y-3.8945
X5.2677Y-4.2945
X5.4961Y-3.3827
X5.4961Y-3.7827
X5.4961Y-3.8945
X5.4961Y-4.2945
X5.5197Y-4.9488
X5.5197Y-5.1457
T2
X3.7673Y-3.9331
X3.7673Y-4.0315
X3.7673Y-4.1299
X4.8346Y-5.4933
X4.8346Y-5.5933
X5.0254Y-4.6504
X5.1254Y-4.6504
X5.2254Y-4.6504
X5.2572Y-5.4933
X5.2572Y-5.5933
X5.6798Y-5.4933
X5.6798Y-5.5933
X6.1024Y-5.4933
X6.1024Y-5.5933
T3
X4.9111Y-2.6262
X4.9111Y-2.9214
X6.1583Y-3.7441
X6.2583Y-3.7441
X6.3583Y-3.7441
T5
X7.1339Y-3.7315
X7.1339Y-4.3315
T6
X3.6752Y-2.7435
X3.6752Y-5.3051
X4.2776Y-2.7435
X4.2776Y-5.3051
X6.6476Y-2.7435
X6.6476Y-5.3051
X7.25Y-2.7435
X7.25Y-5.3051
T7
X6.2583Y-4.3303
T4
G00X4.0626Y-3.8425
M15
G01X4.0232Y-3.8425
M16
G05
G00X4.0626Y-4.2205
M15
G01X4.0232Y-4.2205
M16
G05
T0
M30
