%TF.GenerationSoftware,KiCad,Pcbnew,(6.0.0)*%
%TF.CreationDate,2022-03-14T12:38:49+01:00*%
%TF.ProjectId,Tranzistorski_pretvara_,5472616e-7a69-4737-946f-72736b695f70,rev?*%
%TF.SameCoordinates,Original*%
%TF.FileFunction,Copper,L2,Bot*%
%TF.FilePolarity,Positive*%
%FSLAX46Y46*%
G04 Gerber Fmt 4.6, Leading zero omitted, Abs format (unit mm)*
G04 Created by KiCad (PCBNEW (6.0.0)) date 2022-03-14 12:38:49*
%MOMM*%
%LPD*%
G01*
G04 APERTURE LIST*
%TA.AperFunction,ComponentPad*%
%ADD10O,1.600000X1.600000*%
%TD*%
%TA.AperFunction,ComponentPad*%
%ADD11C,1.600000*%
%TD*%
%TA.AperFunction,ComponentPad*%
%ADD12C,5.000000*%
%TD*%
%TA.AperFunction,ComponentPad*%
%ADD13O,5.000000X3.000000*%
%TD*%
%TA.AperFunction,ComponentPad*%
%ADD14O,3.000000X2.000000*%
%TD*%
%TA.AperFunction,ComponentPad*%
%ADD15C,1.700000*%
%TD*%
%TA.AperFunction,ComponentPad*%
%ADD16O,1.700000X1.700000*%
%TD*%
%TA.AperFunction,ComponentPad*%
%ADD17R,3.200000X3.200000*%
%TD*%
%TA.AperFunction,ComponentPad*%
%ADD18O,3.200000X3.200000*%
%TD*%
%TA.AperFunction,ComponentPad*%
%ADD19R,1.905000X2.000000*%
%TD*%
%TA.AperFunction,ComponentPad*%
%ADD20O,1.905000X2.000000*%
%TD*%
%TA.AperFunction,ComponentPad*%
%ADD21C,7.000000*%
%TD*%
%TA.AperFunction,ComponentPad*%
%ADD22R,2.400000X2.400000*%
%TD*%
%TA.AperFunction,ComponentPad*%
%ADD23C,2.400000*%
%TD*%
%TA.AperFunction,ComponentPad*%
%ADD24R,1.700000X1.700000*%
%TD*%
%TA.AperFunction,ComponentPad*%
%ADD25R,2.400000X1.600000*%
%TD*%
%TA.AperFunction,ComponentPad*%
%ADD26O,2.400000X1.600000*%
%TD*%
%TA.AperFunction,Conductor*%
%ADD27C,1.270000*%
%TD*%
G04 APERTURE END LIST*
D10*
%TO.P,R7,2*%
%TO.N,Net-(J6-Pad1)*%
X139600000Y-109080000D03*
D11*
%TO.P,R7,1*%
%TO.N,Net-(Q1-Pad1)*%
X139600000Y-98920000D03*
%TD*%
%TO.P,C4,1*%
%TO.N,Net-(C4-Pad1)*%
X126943000Y-108520000D03*
%TO.P,C4,2*%
%TO.N,GND*%
X121943000Y-108520000D03*
%TD*%
D12*
%TO.P,J2,1,Pin_1*%
%TO.N,GND*%
X93350000Y-134750000D03*
X108650000Y-134750000D03*
%TD*%
D11*
%TO.P,C1,1*%
%TO.N,Net-(C1-Pad1)*%
X120200000Y-125700000D03*
%TO.P,C1,2*%
%TO.N,GND*%
X120200000Y-130700000D03*
%TD*%
D12*
%TO.P,J9,1,Pin_1*%
%TO.N,Net-(D2-Pad2)*%
X168850000Y-134750000D03*
X184150000Y-134750000D03*
%TD*%
%TO.P,J5,1,Pin_1*%
%TO.N,VDD*%
X168850000Y-69684785D03*
X184150000Y-69684785D03*
%TD*%
D13*
%TO.P,RV1,*%
%TO.N,*%
X102689500Y-97600000D03*
X102689500Y-107200000D03*
D14*
%TO.P,RV1,1,1*%
%TO.N,Net-(R2-Pad2)*%
X95689500Y-99900000D03*
%TO.P,RV1,2,2*%
%TO.N,Net-(RV1-Pad2)*%
X95689500Y-102400000D03*
%TO.P,RV1,3,3*%
%TO.N,Net-(R1-Pad1)*%
X95689500Y-104900000D03*
%TD*%
D11*
%TO.P,R4,1*%
%TO.N,VDD*%
X139600000Y-85920000D03*
D10*
%TO.P,R4,2*%
%TO.N,Net-(J6-Pad1)*%
X139600000Y-96080000D03*
%TD*%
D15*
%TO.P,J6,1,Pin_1*%
%TO.N,Net-(J6-Pad1)*%
X133533333Y-139530000D03*
D16*
X133533333Y-142070000D03*
%TD*%
D11*
%TO.P,R2,1*%
%TO.N,/+5V_REF*%
X106580000Y-87400000D03*
D10*
%TO.P,R2,2*%
%TO.N,Net-(R2-Pad2)*%
X96420000Y-87400000D03*
%TD*%
D11*
%TO.P,C6,1*%
%TO.N,VDD*%
X133800000Y-86020000D03*
%TO.P,C6,2*%
%TO.N,GND*%
X133800000Y-91020000D03*
%TD*%
D10*
%TO.P,R3,2*%
%TO.N,GND*%
X113400000Y-109080000D03*
D11*
%TO.P,R3,1*%
%TO.N,Net-(R3-Pad1)*%
X113400000Y-98920000D03*
%TD*%
D17*
%TO.P,D2,1,K*%
%TO.N,VDD*%
X181200000Y-94780000D03*
D18*
%TO.P,D2,2,A*%
%TO.N,Net-(D2-Pad2)*%
X181200000Y-110020000D03*
%TD*%
D16*
%TO.P,J8,1,Pin_1*%
%TO.N,GND*%
X155000000Y-142070000D03*
D15*
X155000000Y-139530000D03*
%TD*%
D10*
%TO.P,R6,2*%
%TO.N,GND*%
X133800000Y-109080000D03*
D11*
%TO.P,R6,1*%
%TO.N,Net-(J6-Pad1)*%
X133800000Y-98920000D03*
%TD*%
D15*
%TO.P,J4,1,Pin_1*%
%TO.N,Net-(D2-Pad2)*%
X144266666Y-139530000D03*
D16*
X144266666Y-142070000D03*
%TD*%
D19*
%TO.P,Q1,1,G*%
%TO.N,Net-(Q1-Pad1)*%
X161500000Y-95100000D03*
D20*
%TO.P,Q1,2,D*%
%TO.N,Net-(D2-Pad2)*%
X158960000Y-95100000D03*
D21*
X158960000Y-109990000D03*
D20*
%TO.P,Q1,3,S*%
%TO.N,GND*%
X156420000Y-95100000D03*
%TD*%
D12*
%TO.P,J1,1,Pin_1*%
%TO.N,VDD*%
X93350000Y-69684785D03*
X108650000Y-69684785D03*
%TD*%
D11*
%TO.P,R1,1*%
%TO.N,Net-(R1-Pad1)*%
X96420000Y-117400000D03*
D10*
%TO.P,R1,2*%
%TO.N,GND*%
X106580000Y-117400000D03*
%TD*%
D22*
%TO.P,C5,1*%
%TO.N,VDD*%
X124743000Y-66704733D03*
D23*
%TO.P,C5,2*%
%TO.N,GND*%
X124743000Y-74204733D03*
%TD*%
D11*
%TO.P,C2,1*%
%TO.N,/CT*%
X130200000Y-125700000D03*
%TO.P,C2,2*%
%TO.N,GND*%
X130200000Y-130700000D03*
%TD*%
D15*
%TO.P,J7,1,Pin_1*%
%TO.N,/CT*%
X122800000Y-139530000D03*
D16*
X122800000Y-142070000D03*
%TD*%
D11*
%TO.P,C3,1*%
%TO.N,Net-(C3-Pad1)*%
X140200000Y-125700000D03*
%TO.P,C3,2*%
%TO.N,GND*%
X140200000Y-130700000D03*
%TD*%
D24*
%TO.P,J3,1,Pin_1*%
%TO.N,Net-(C3-Pad1)*%
X132725000Y-118120000D03*
D16*
%TO.P,J3,2,Pin_2*%
%TO.N,/CT*%
X130185000Y-118120000D03*
%TO.P,J3,3,Pin_3*%
%TO.N,Net-(C1-Pad1)*%
X127645000Y-118120000D03*
%TD*%
D25*
%TO.P,U1,1,INV._INPUT*%
%TO.N,Net-(C4-Pad1)*%
X120943000Y-83520000D03*
D26*
%TO.P,U1,2,NON_INV._INPUT*%
%TO.N,Net-(RV1-Pad2)*%
X120943000Y-86060000D03*
%TO.P,U1,3,OSC./SYNC.*%
%TO.N,unconnected-(U1-Pad3)*%
X120943000Y-88600000D03*
%TO.P,U1,4,C.L.(+)SENSE*%
%TO.N,unconnected-(U1-Pad4)*%
X120943000Y-91140000D03*
%TO.P,U1,5,C.L.(-)SENSE*%
%TO.N,unconnected-(U1-Pad5)*%
X120943000Y-93680000D03*
%TO.P,U1,6,RT*%
%TO.N,Net-(R3-Pad1)*%
X120943000Y-96220000D03*
%TO.P,U1,7,CT*%
%TO.N,/CT*%
X120943000Y-98760000D03*
%TO.P,U1,8,GROUND*%
%TO.N,GND*%
X120943000Y-101300000D03*
%TO.P,U1,9,COMPENSATION*%
%TO.N,Net-(C4-Pad1)*%
X128563000Y-101300000D03*
%TO.P,U1,10,SHUTDOWN*%
%TO.N,unconnected-(U1-Pad10)*%
X128563000Y-98760000D03*
%TO.P,U1,11,EMITTER_A*%
%TO.N,GND*%
X128563000Y-96220000D03*
%TO.P,U1,12,COLLECTOR_A*%
%TO.N,Net-(J6-Pad1)*%
X128563000Y-93680000D03*
%TO.P,U1,13,COLLECTOR_B*%
X128563000Y-91140000D03*
%TO.P,U1,14,EMITTER_B*%
%TO.N,GND*%
X128563000Y-88600000D03*
%TO.P,U1,15,+Vi*%
%TO.N,VDD*%
X128563000Y-86060000D03*
%TO.P,U1,16,+5V_REF*%
%TO.N,/+5V_REF*%
X128563000Y-83520000D03*
%TD*%
D27*
%TO.N,Net-(D2-Pad2)*%
X158960000Y-95100000D02*
X158960000Y-109990000D01*
%TO.N,Net-(Q1-Pad1)*%
X141480000Y-98920000D02*
X141580000Y-98920000D01*
X161500000Y-95100000D02*
X161500000Y-92900000D01*
X141380000Y-98920000D02*
X141480000Y-98920000D01*
X150200000Y-90800000D02*
X142080000Y-98920000D01*
X142080000Y-98920000D02*
X139600000Y-98920000D01*
X159400000Y-90800000D02*
X150200000Y-90800000D01*
X139600000Y-98920000D02*
X141380000Y-98920000D01*
X161500000Y-92900000D02*
X159400000Y-90800000D01*
%TD*%
%TA.AperFunction,Conductor*%
%TO.N,Net-(D2-Pad2)*%
G36*
X162015931Y-105220002D02*
G01*
X162036905Y-105236905D01*
X164000000Y-107200000D01*
X186623573Y-107200000D01*
X186691694Y-107220002D01*
X186738187Y-107273658D01*
X186749573Y-107325999D01*
X186749783Y-140073999D01*
X186729781Y-140142120D01*
X186676126Y-140188613D01*
X186623783Y-140200000D01*
X164326000Y-140200000D01*
X164257879Y-140179998D01*
X164211386Y-140126342D01*
X164200000Y-140074000D01*
X164200000Y-126200000D01*
X154236905Y-116236905D01*
X154202879Y-116174593D01*
X154200000Y-116147810D01*
X154200000Y-107252190D01*
X154220002Y-107184069D01*
X154236905Y-107163095D01*
X156163095Y-105236905D01*
X156225407Y-105202879D01*
X156252190Y-105200000D01*
X161947810Y-105200000D01*
X162015931Y-105220002D01*
G37*
%TD.AperFunction*%
%TD*%
%TA.AperFunction,Conductor*%
%TO.N,GND*%
G36*
X160442121Y-70220002D02*
G01*
X160488614Y-70273658D01*
X160500000Y-70326000D01*
X160500000Y-75200000D01*
X174874000Y-75200000D01*
X174942121Y-75220002D01*
X174988614Y-75273658D01*
X175000000Y-75326000D01*
X175000000Y-105074000D01*
X174979998Y-105142121D01*
X174926342Y-105188614D01*
X174874000Y-105200000D01*
X164880618Y-105200000D01*
X164812497Y-105179998D01*
X164791523Y-105163095D01*
X163451119Y-103822691D01*
X163449866Y-103821565D01*
X163449856Y-103821556D01*
X163293163Y-103680803D01*
X163291892Y-103679661D01*
X163270918Y-103662758D01*
X163097210Y-103537493D01*
X162846758Y-103400737D01*
X162579393Y-103301015D01*
X162550483Y-103292526D01*
X162513432Y-103281647D01*
X162513426Y-103281645D01*
X162511272Y-103281013D01*
X162509084Y-103280537D01*
X162509080Y-103280536D01*
X162359334Y-103247961D01*
X162232440Y-103220357D01*
X161947810Y-103200000D01*
X160721500Y-103200000D01*
X160653379Y-103179998D01*
X160606886Y-103126342D01*
X160595500Y-103074000D01*
X160595500Y-97226500D01*
X160615502Y-97158379D01*
X160669158Y-97111886D01*
X160721500Y-97100500D01*
X162510316Y-97100500D01*
X162513103Y-97100251D01*
X162513109Y-97100251D01*
X162598955Y-97092589D01*
X162630587Y-97089766D01*
X162825970Y-97033741D01*
X163006096Y-96939573D01*
X163150143Y-96822092D01*
X163158669Y-96815138D01*
X163163609Y-96811109D01*
X163292073Y-96653596D01*
X163296075Y-96645942D01*
X163342088Y-96557927D01*
X163386241Y-96473470D01*
X163442266Y-96278087D01*
X163451232Y-96177625D01*
X163452751Y-96160609D01*
X163452751Y-96160603D01*
X163453000Y-96157816D01*
X163453000Y-94042184D01*
X163442266Y-93921913D01*
X163386241Y-93726530D01*
X163292073Y-93546404D01*
X163276503Y-93527313D01*
X163163857Y-93389194D01*
X163136303Y-93323763D01*
X163135500Y-93309559D01*
X163135500Y-92969208D01*
X163135888Y-92959322D01*
X163140169Y-92904930D01*
X163140557Y-92900000D01*
X163135500Y-92835745D01*
X163120359Y-92643360D01*
X163119205Y-92638553D01*
X163119204Y-92638547D01*
X163061416Y-92397847D01*
X163060262Y-92393040D01*
X163055357Y-92381197D01*
X163011894Y-92276269D01*
X162997965Y-92242641D01*
X162963642Y-92159777D01*
X162963640Y-92159773D01*
X162961747Y-92155203D01*
X162827238Y-91935705D01*
X162660049Y-91739951D01*
X162614800Y-91701304D01*
X162607534Y-91694588D01*
X160605412Y-89692466D01*
X160598696Y-89685201D01*
X160563262Y-89643713D01*
X160560049Y-89639951D01*
X160432769Y-89531244D01*
X160408292Y-89510338D01*
X160368060Y-89475976D01*
X160368053Y-89475971D01*
X160364295Y-89472761D01*
X160144797Y-89338253D01*
X160140227Y-89336360D01*
X160140223Y-89336358D01*
X159911533Y-89241632D01*
X159911531Y-89241631D01*
X159906960Y-89239738D01*
X159819000Y-89218621D01*
X159661453Y-89180796D01*
X159661447Y-89180795D01*
X159656640Y-89179641D01*
X159464255Y-89164500D01*
X159400000Y-89159443D01*
X159395070Y-89159831D01*
X159340675Y-89164112D01*
X159330789Y-89164500D01*
X150269208Y-89164500D01*
X150259322Y-89164112D01*
X150204930Y-89159831D01*
X150200000Y-89159443D01*
X150135748Y-89164500D01*
X150135745Y-89164500D01*
X149943360Y-89179641D01*
X149938553Y-89180795D01*
X149938547Y-89180796D01*
X149781000Y-89218621D01*
X149693040Y-89239738D01*
X149688469Y-89241631D01*
X149688467Y-89241632D01*
X149459777Y-89336358D01*
X149459773Y-89336360D01*
X149455203Y-89338253D01*
X149235705Y-89472761D01*
X149231950Y-89475968D01*
X149231946Y-89475971D01*
X149191708Y-89510338D01*
X149167231Y-89531244D01*
X149039951Y-89639951D01*
X149036738Y-89643713D01*
X149036733Y-89643718D01*
X149001304Y-89685201D01*
X148994588Y-89692466D01*
X141439459Y-97247595D01*
X141377147Y-97281621D01*
X141350364Y-97284500D01*
X141197005Y-97284500D01*
X141128884Y-97264498D01*
X141082391Y-97210842D01*
X141072287Y-97140568D01*
X141091034Y-97090337D01*
X141091059Y-97090299D01*
X141128356Y-97032314D01*
X141184219Y-96945465D01*
X141184222Y-96945460D01*
X141186747Y-96941534D01*
X141296661Y-96697534D01*
X141297931Y-96693031D01*
X141368032Y-96444473D01*
X141368033Y-96444470D01*
X141369302Y-96439969D01*
X141387103Y-96300041D01*
X141402677Y-96177625D01*
X141402677Y-96177621D01*
X141403075Y-96174495D01*
X141405549Y-96080000D01*
X141396421Y-95957161D01*
X141386064Y-95817788D01*
X141386063Y-95817784D01*
X141385717Y-95813123D01*
X141375161Y-95766470D01*
X141333742Y-95583429D01*
X141326655Y-95552109D01*
X141293059Y-95465717D01*
X141231355Y-95307044D01*
X141231354Y-95307042D01*
X141229662Y-95302691D01*
X141221698Y-95288756D01*
X141179963Y-95215736D01*
X141096868Y-95070350D01*
X140931190Y-94860189D01*
X140736269Y-94676825D01*
X140516385Y-94524286D01*
X140512194Y-94522219D01*
X140280559Y-94407989D01*
X140280556Y-94407988D01*
X140276371Y-94405924D01*
X140021497Y-94324338D01*
X139876134Y-94300665D01*
X139761976Y-94282073D01*
X139761975Y-94282073D01*
X139757364Y-94281322D01*
X139623569Y-94279571D01*
X139494451Y-94277880D01*
X139494448Y-94277880D01*
X139489774Y-94277819D01*
X139224605Y-94313907D01*
X139220118Y-94315215D01*
X139220117Y-94315215D01*
X139188817Y-94324338D01*
X138967683Y-94388792D01*
X138963430Y-94390752D01*
X138963429Y-94390753D01*
X138911512Y-94414687D01*
X138724652Y-94500831D01*
X138720743Y-94503394D01*
X138504764Y-94644996D01*
X138504759Y-94645000D01*
X138500851Y-94647562D01*
X138429172Y-94711538D01*
X138311831Y-94816269D01*
X138301197Y-94825760D01*
X138130075Y-95031512D01*
X138127652Y-95035505D01*
X138016935Y-95217961D01*
X137991244Y-95260298D01*
X137989437Y-95264606D01*
X137989437Y-95264607D01*
X137898906Y-95480500D01*
X137887755Y-95507091D01*
X137886604Y-95511623D01*
X137886603Y-95511626D01*
X137823033Y-95761933D01*
X137821881Y-95766470D01*
X137821412Y-95771126D01*
X137821412Y-95771127D01*
X137818192Y-95803109D01*
X137795070Y-96032736D01*
X137795294Y-96037403D01*
X137795294Y-96037408D01*
X137798770Y-96109774D01*
X137807909Y-96300041D01*
X137860118Y-96562512D01*
X137861698Y-96566912D01*
X137861698Y-96566913D01*
X137886823Y-96636891D01*
X137950549Y-96814383D01*
X137968514Y-96847818D01*
X138069111Y-97035038D01*
X138077215Y-97050121D01*
X138080010Y-97053864D01*
X138080012Y-97053867D01*
X138234542Y-97260807D01*
X138237335Y-97264547D01*
X138240642Y-97267825D01*
X138240647Y-97267831D01*
X138295938Y-97322641D01*
X138385445Y-97411369D01*
X138419740Y-97473531D01*
X138414985Y-97544369D01*
X138380639Y-97594855D01*
X138310610Y-97657359D01*
X138301197Y-97665760D01*
X138130075Y-97871512D01*
X138127652Y-97875505D01*
X137998662Y-98088074D01*
X137991244Y-98100298D01*
X137989437Y-98104606D01*
X137989437Y-98104607D01*
X137931004Y-98243955D01*
X137887755Y-98347091D01*
X137886604Y-98351623D01*
X137886603Y-98351626D01*
X137824026Y-98598024D01*
X137821881Y-98606470D01*
X137795070Y-98872736D01*
X137795294Y-98877403D01*
X137795294Y-98877408D01*
X137797340Y-98920000D01*
X137807909Y-99140041D01*
X137860118Y-99402512D01*
X137950549Y-99654383D01*
X137952765Y-99658507D01*
X138063215Y-99864065D01*
X138077215Y-99890121D01*
X138080010Y-99893864D01*
X138080012Y-99893867D01*
X138234313Y-100100500D01*
X138237335Y-100104547D01*
X138240642Y-100107825D01*
X138240647Y-100107831D01*
X138393331Y-100259187D01*
X138427390Y-100292950D01*
X138431156Y-100295712D01*
X138431158Y-100295713D01*
X138601678Y-100420743D01*
X138643205Y-100451192D01*
X138647340Y-100453368D01*
X138647344Y-100453370D01*
X138776918Y-100521542D01*
X138880039Y-100575797D01*
X138884458Y-100577340D01*
X139128273Y-100662484D01*
X139128279Y-100662486D01*
X139132690Y-100664026D01*
X139395606Y-100713943D01*
X139522616Y-100718933D01*
X139658345Y-100724266D01*
X139658350Y-100724266D01*
X139663013Y-100724449D01*
X139758943Y-100713943D01*
X139924382Y-100695825D01*
X139924387Y-100695824D01*
X139929035Y-100695315D01*
X140044567Y-100664898D01*
X140183309Y-100628370D01*
X140187829Y-100627180D01*
X140330854Y-100565732D01*
X140380591Y-100555500D01*
X142010789Y-100555500D01*
X142020675Y-100555888D01*
X142080000Y-100560557D01*
X142144255Y-100555500D01*
X142336640Y-100540359D01*
X142341447Y-100539205D01*
X142341453Y-100539204D01*
X142499000Y-100501379D01*
X142586960Y-100480262D01*
X142824797Y-100381747D01*
X142831398Y-100377702D01*
X142845997Y-100368756D01*
X143040076Y-100249825D01*
X143040081Y-100249821D01*
X143044295Y-100247239D01*
X143191038Y-100121908D01*
X143223620Y-100094081D01*
X143236285Y-100083264D01*
X143236287Y-100083262D01*
X143240049Y-100080049D01*
X143243262Y-100076287D01*
X143243267Y-100076282D01*
X143278696Y-100034799D01*
X143285412Y-100027534D01*
X150840541Y-92472405D01*
X150902853Y-92438379D01*
X150929636Y-92435500D01*
X158670364Y-92435500D01*
X158738485Y-92455502D01*
X158759459Y-92472405D01*
X159174432Y-92887378D01*
X159208458Y-92949690D01*
X159203393Y-93020505D01*
X159160846Y-93077341D01*
X159094326Y-93102152D01*
X159074466Y-93102003D01*
X158990755Y-93094753D01*
X158986320Y-93094997D01*
X158986316Y-93094997D01*
X158883077Y-93100679D01*
X158714599Y-93109950D01*
X158710239Y-93110817D01*
X158710233Y-93110818D01*
X158577375Y-93137245D01*
X158443339Y-93163907D01*
X158182389Y-93255547D01*
X158178438Y-93257600D01*
X158178432Y-93257602D01*
X158176698Y-93258503D01*
X157936954Y-93383040D01*
X157933339Y-93385623D01*
X157933333Y-93385627D01*
X157928766Y-93388891D01*
X157711931Y-93543844D01*
X157708704Y-93546922D01*
X157708702Y-93546924D01*
X157520426Y-93726530D01*
X157511810Y-93734749D01*
X157340585Y-93951947D01*
X157338348Y-93955799D01*
X157203906Y-94187257D01*
X157203903Y-94187263D01*
X157201672Y-94191104D01*
X157200002Y-94195227D01*
X157099515Y-94443316D01*
X157099512Y-94443324D01*
X157097842Y-94447448D01*
X157031167Y-94715865D01*
X157007000Y-94951734D01*
X157007000Y-95217961D01*
X157021545Y-95423383D01*
X157022483Y-95427738D01*
X157022483Y-95427741D01*
X157056002Y-95583429D01*
X157079756Y-95693762D01*
X157175482Y-95953241D01*
X157304914Y-96193119D01*
X157306815Y-96196643D01*
X157306057Y-96197052D01*
X157324500Y-96260529D01*
X157324500Y-103074000D01*
X157304498Y-103142121D01*
X157250842Y-103188614D01*
X157198500Y-103200000D01*
X156252190Y-103200000D01*
X156118855Y-103207146D01*
X156040128Y-103211365D01*
X156040120Y-103211366D01*
X156038434Y-103211456D01*
X156032606Y-103212082D01*
X156013331Y-103214154D01*
X156013316Y-103214156D01*
X156011651Y-103214335D01*
X155800250Y-103248591D01*
X155526454Y-103328989D01*
X155522373Y-103330853D01*
X155522367Y-103330855D01*
X155274674Y-103443977D01*
X155266886Y-103447534D01*
X155264921Y-103448607D01*
X155264913Y-103448611D01*
X155206538Y-103480487D01*
X155206527Y-103480494D01*
X155204574Y-103481560D01*
X155202693Y-103482769D01*
X155202686Y-103482773D01*
X155060729Y-103574005D01*
X154964540Y-103635823D01*
X154748881Y-103822691D01*
X152822691Y-105748881D01*
X152679661Y-105908108D01*
X152662758Y-105929082D01*
X152537493Y-106102790D01*
X152400737Y-106353242D01*
X152301015Y-106620607D01*
X152281013Y-106688728D01*
X152280537Y-106690916D01*
X152280536Y-106690920D01*
X152255551Y-106805777D01*
X152220357Y-106967560D01*
X152200000Y-107252190D01*
X152200000Y-116147810D01*
X152201932Y-116183857D01*
X152210725Y-116347918D01*
X152211456Y-116361566D01*
X152214335Y-116388349D01*
X152248591Y-116599750D01*
X152328989Y-116873546D01*
X152330853Y-116877627D01*
X152330855Y-116877633D01*
X152428358Y-117091127D01*
X152447534Y-117133114D01*
X152448607Y-117135079D01*
X152448611Y-117135087D01*
X152480487Y-117193462D01*
X152480494Y-117193473D01*
X152481560Y-117195426D01*
X152482769Y-117197307D01*
X152482773Y-117197314D01*
X152548749Y-117299972D01*
X152635823Y-117435460D01*
X152822691Y-117651119D01*
X162163095Y-126991523D01*
X162197121Y-127053835D01*
X162200000Y-127080618D01*
X162200000Y-140074000D01*
X162205095Y-140216667D01*
X162205575Y-140220003D01*
X162205575Y-140220007D01*
X162209018Y-140243953D01*
X162245704Y-140499120D01*
X162257090Y-140551462D01*
X162292399Y-140689803D01*
X162392120Y-140957168D01*
X162528877Y-141207620D01*
X162531578Y-141211228D01*
X162698539Y-141434264D01*
X162698547Y-141434273D01*
X162699884Y-141436060D01*
X162746377Y-141489716D01*
X162948160Y-141691499D01*
X162951756Y-141694191D01*
X162951763Y-141694197D01*
X163104583Y-141808596D01*
X163176600Y-141862507D01*
X163427052Y-141999263D01*
X163694417Y-142098985D01*
X163719715Y-142106413D01*
X163760378Y-142118353D01*
X163760384Y-142118355D01*
X163762538Y-142118987D01*
X163764726Y-142119463D01*
X163764730Y-142119464D01*
X163817701Y-142130987D01*
X164041370Y-142179643D01*
X164326000Y-142200000D01*
X183203885Y-142200000D01*
X183272006Y-142220002D01*
X183318499Y-142273658D01*
X183328603Y-142343932D01*
X183299109Y-142408512D01*
X183279890Y-142426495D01*
X183051800Y-142598998D01*
X183049318Y-142601337D01*
X183049312Y-142601342D01*
X182855531Y-142783953D01*
X182783750Y-142851596D01*
X182544548Y-143131665D01*
X182542629Y-143134477D01*
X182542626Y-143134482D01*
X182524895Y-143160475D01*
X182336992Y-143435931D01*
X182257376Y-143585039D01*
X182205866Y-143681509D01*
X182163511Y-143760832D01*
X182162236Y-143764004D01*
X182162234Y-143764008D01*
X182100693Y-143917098D01*
X182026134Y-144102569D01*
X182025215Y-144105837D01*
X182025213Y-144105844D01*
X181927388Y-144453865D01*
X181926467Y-144457143D01*
X181925905Y-144460500D01*
X181925905Y-144460501D01*
X181923961Y-144472121D01*
X181865677Y-144820408D01*
X181844476Y-145188113D01*
X181844648Y-145191508D01*
X181844648Y-145191509D01*
X181846499Y-145228057D01*
X181863110Y-145555957D01*
X181863647Y-145559312D01*
X181863648Y-145559318D01*
X181903877Y-145810472D01*
X181921362Y-145919637D01*
X182018551Y-146274899D01*
X182153539Y-146617587D01*
X182155122Y-146620602D01*
X182323164Y-146940675D01*
X182323169Y-146940683D01*
X182324748Y-146943691D01*
X182326642Y-146946509D01*
X182326647Y-146946518D01*
X182347154Y-146977035D01*
X182530174Y-147249398D01*
X182556240Y-147280352D01*
X182735171Y-147492840D01*
X182763749Y-147557831D01*
X182752654Y-147627956D01*
X182705408Y-147680949D01*
X182638791Y-147700000D01*
X95109245Y-147700000D01*
X95041124Y-147679998D01*
X94994631Y-147626342D01*
X94984527Y-147556068D01*
X95013720Y-147491836D01*
X95197850Y-147277765D01*
X95217346Y-147249398D01*
X95404536Y-146977035D01*
X95404541Y-146977028D01*
X95406466Y-146974226D01*
X95408078Y-146971232D01*
X95408083Y-146971224D01*
X95579459Y-146652945D01*
X95581081Y-146649933D01*
X95672229Y-146425461D01*
X95718370Y-146311830D01*
X95718372Y-146311825D01*
X95719650Y-146308677D01*
X95730210Y-146271608D01*
X95751227Y-146197827D01*
X95820554Y-145954453D01*
X95827081Y-145916271D01*
X95882039Y-145594750D01*
X95882039Y-145594748D01*
X95882611Y-145591403D01*
X95884574Y-145559318D01*
X95904986Y-145225571D01*
X95905096Y-145223774D01*
X95905179Y-145200000D01*
X95885261Y-144832223D01*
X95825740Y-144468748D01*
X95727312Y-144113828D01*
X95726054Y-144110666D01*
X95726051Y-144110658D01*
X95592387Y-143774778D01*
X95591128Y-143771614D01*
X95464759Y-143532944D01*
X95420381Y-143449128D01*
X95420377Y-143449121D01*
X95418782Y-143446109D01*
X95416875Y-143443293D01*
X95416870Y-143443284D01*
X95214202Y-143143945D01*
X95212290Y-143141121D01*
X94974067Y-142860218D01*
X94706900Y-142606686D01*
X94704193Y-142604624D01*
X94704185Y-142604617D01*
X94501877Y-142450501D01*
X94413914Y-142383491D01*
X94224341Y-142269133D01*
X94101460Y-142195006D01*
X94101451Y-142195001D01*
X94098538Y-142193244D01*
X94095448Y-142191810D01*
X94095443Y-142191807D01*
X93767555Y-142039607D01*
X93767553Y-142039606D01*
X93764459Y-142038170D01*
X93761224Y-142037075D01*
X93761219Y-142037073D01*
X93686334Y-142011726D01*
X120945688Y-142011726D01*
X120949455Y-142107595D01*
X120952890Y-142195006D01*
X120955977Y-142273582D01*
X121003058Y-142531376D01*
X121085994Y-142779965D01*
X121126094Y-142860218D01*
X121165018Y-142938116D01*
X121203128Y-143014387D01*
X121205657Y-143018046D01*
X121284184Y-143131665D01*
X121352124Y-143229967D01*
X121458230Y-143344751D01*
X121473321Y-143361076D01*
X121530010Y-143422402D01*
X121533464Y-143425214D01*
X121729778Y-143585039D01*
X121729782Y-143585042D01*
X121733235Y-143587853D01*
X121957745Y-143723019D01*
X122047043Y-143760832D01*
X122194962Y-143823468D01*
X122194966Y-143823469D01*
X122199060Y-143825203D01*
X122203352Y-143826341D01*
X122203355Y-143826342D01*
X122304125Y-143853061D01*
X122452365Y-143892366D01*
X122456789Y-143892890D01*
X122456791Y-143892890D01*
X122607572Y-143910736D01*
X122712607Y-143923167D01*
X122974592Y-143916993D01*
X122978986Y-143916262D01*
X122978993Y-143916261D01*
X123228692Y-143874700D01*
X123228696Y-143874699D01*
X123233094Y-143873967D01*
X123397061Y-143822111D01*
X123478709Y-143796289D01*
X123478711Y-143796288D01*
X123482955Y-143794946D01*
X123486966Y-143793020D01*
X123486971Y-143793018D01*
X123715169Y-143683439D01*
X123715170Y-143683438D01*
X123719188Y-143681509D01*
X123863566Y-143585039D01*
X123933380Y-143538391D01*
X123933384Y-143538388D01*
X123937082Y-143535917D01*
X124132287Y-143361076D01*
X124242496Y-143229967D01*
X124298043Y-143163886D01*
X124298045Y-143163884D01*
X124300910Y-143160475D01*
X124439586Y-142938116D01*
X124472874Y-142862821D01*
X124543749Y-142702503D01*
X124545547Y-142698436D01*
X124616681Y-142446216D01*
X124639858Y-142273658D01*
X124651139Y-142189673D01*
X124651140Y-142189665D01*
X124651566Y-142186491D01*
X124652936Y-142142903D01*
X124655126Y-142073222D01*
X124655126Y-142073217D01*
X124655227Y-142070000D01*
X124651101Y-142011726D01*
X131679021Y-142011726D01*
X131682788Y-142107595D01*
X131686223Y-142195006D01*
X131689310Y-142273582D01*
X131736391Y-142531376D01*
X131819327Y-142779965D01*
X131859427Y-142860218D01*
X131898351Y-142938116D01*
X131936461Y-143014387D01*
X131938990Y-143018046D01*
X132017517Y-143131665D01*
X132085457Y-143229967D01*
X132191563Y-143344751D01*
X132206654Y-143361076D01*
X132263343Y-143422402D01*
X132266797Y-143425214D01*
X132463111Y-143585039D01*
X132463115Y-143585042D01*
X132466568Y-143587853D01*
X132691078Y-143723019D01*
X132780376Y-143760832D01*
X132928295Y-143823468D01*
X132928299Y-143823469D01*
X132932393Y-143825203D01*
X132936685Y-143826341D01*
X132936688Y-143826342D01*
X133037458Y-143853061D01*
X133185698Y-143892366D01*
X133190122Y-143892890D01*
X133190124Y-143892890D01*
X133340905Y-143910736D01*
X133445940Y-143923167D01*
X133707925Y-143916993D01*
X133712319Y-143916262D01*
X133712326Y-143916261D01*
X133962025Y-143874700D01*
X133962029Y-143874699D01*
X133966427Y-143873967D01*
X134130394Y-143822111D01*
X134212042Y-143796289D01*
X134212044Y-143796288D01*
X134216288Y-143794946D01*
X134220299Y-143793020D01*
X134220304Y-143793018D01*
X134448502Y-143683439D01*
X134448503Y-143683438D01*
X134452521Y-143681509D01*
X134596899Y-143585039D01*
X134666713Y-143538391D01*
X134666717Y-143538388D01*
X134670415Y-143535917D01*
X134865620Y-143361076D01*
X134975829Y-143229967D01*
X135031376Y-143163886D01*
X135031378Y-143163884D01*
X135034243Y-143160475D01*
X135172919Y-142938116D01*
X135206207Y-142862821D01*
X135277082Y-142702503D01*
X135278880Y-142698436D01*
X135350014Y-142446216D01*
X135373191Y-142273658D01*
X135384472Y-142189673D01*
X135384473Y-142189665D01*
X135384899Y-142186491D01*
X135386269Y-142142903D01*
X135388459Y-142073222D01*
X135388459Y-142073217D01*
X135388560Y-142070000D01*
X135384434Y-142011726D01*
X142412354Y-142011726D01*
X142416121Y-142107595D01*
X142419556Y-142195006D01*
X142422643Y-142273582D01*
X142469724Y-142531376D01*
X142552660Y-142779965D01*
X142592760Y-142860218D01*
X142631684Y-142938116D01*
X142669794Y-143014387D01*
X142672323Y-143018046D01*
X142750850Y-143131665D01*
X142818790Y-143229967D01*
X142924896Y-143344751D01*
X142939987Y-143361076D01*
X142996676Y-143422402D01*
X143000130Y-143425214D01*
X143196444Y-143585039D01*
X143196448Y-143585042D01*
X143199901Y-143587853D01*
X143424411Y-143723019D01*
X143513709Y-143760832D01*
X143661628Y-143823468D01*
X143661632Y-143823469D01*
X143665726Y-143825203D01*
X143670018Y-143826341D01*
X143670021Y-143826342D01*
X143770791Y-143853061D01*
X143919031Y-143892366D01*
X143923455Y-143892890D01*
X143923457Y-143892890D01*
X144074238Y-143910736D01*
X144179273Y-143923167D01*
X144441258Y-143916993D01*
X144445652Y-143916262D01*
X144445659Y-143916261D01*
X144695358Y-143874700D01*
X144695362Y-143874699D01*
X144699760Y-143873967D01*
X144863727Y-143822111D01*
X144945375Y-143796289D01*
X144945377Y-143796288D01*
X144949621Y-143794946D01*
X144953632Y-143793020D01*
X144953637Y-143793018D01*
X145181835Y-143683439D01*
X145181836Y-143683438D01*
X145185854Y-143681509D01*
X145330232Y-143585039D01*
X145400046Y-143538391D01*
X145400050Y-143538388D01*
X145403748Y-143535917D01*
X145598953Y-143361076D01*
X145709162Y-143229967D01*
X145764709Y-143163886D01*
X145764711Y-143163884D01*
X145767576Y-143160475D01*
X145906252Y-142938116D01*
X145939540Y-142862821D01*
X146010415Y-142702503D01*
X146012213Y-142698436D01*
X146083347Y-142446216D01*
X146106524Y-142273658D01*
X146117805Y-142189673D01*
X146117806Y-142189665D01*
X146118232Y-142186491D01*
X146119602Y-142142903D01*
X146121792Y-142073222D01*
X146121792Y-142073217D01*
X146121893Y-142070000D01*
X146103385Y-141808596D01*
X146048229Y-141552408D01*
X146029276Y-141501032D01*
X145959067Y-141310724D01*
X145957526Y-141306547D01*
X145833086Y-141075920D01*
X145830440Y-141072337D01*
X145682401Y-140871907D01*
X145658019Y-140805228D01*
X145673556Y-140735953D01*
X145687302Y-140715973D01*
X145764711Y-140623883D01*
X145767576Y-140620475D01*
X145906252Y-140398116D01*
X145974407Y-140243953D01*
X146010415Y-140162503D01*
X146012213Y-140158436D01*
X146083347Y-139906216D01*
X146105946Y-139737962D01*
X146117805Y-139649673D01*
X146117806Y-139649665D01*
X146118232Y-139646491D01*
X146121893Y-139530000D01*
X146103385Y-139268596D01*
X146048229Y-139012408D01*
X146029276Y-138961032D01*
X145959067Y-138770724D01*
X145957526Y-138766547D01*
X145833086Y-138535920D01*
X145799949Y-138491055D01*
X145680036Y-138328706D01*
X145677392Y-138325126D01*
X145493550Y-138138374D01*
X145425002Y-138086060D01*
X145288773Y-137982093D01*
X145288769Y-137982090D01*
X145285228Y-137979388D01*
X145056583Y-137851340D01*
X145052434Y-137849735D01*
X145052430Y-137849733D01*
X144904862Y-137792644D01*
X144812178Y-137756787D01*
X144807857Y-137755785D01*
X144807849Y-137755783D01*
X144639735Y-137716817D01*
X144556887Y-137697614D01*
X144295807Y-137675002D01*
X144291372Y-137675246D01*
X144291368Y-137675246D01*
X144038587Y-137689157D01*
X144038580Y-137689158D01*
X144034144Y-137689402D01*
X143777122Y-137740527D01*
X143772912Y-137742005D01*
X143772910Y-137742006D01*
X143628163Y-137792838D01*
X143529867Y-137827357D01*
X143525916Y-137829410D01*
X143525910Y-137829412D01*
X143398560Y-137895566D01*
X143297313Y-137948159D01*
X143293698Y-137950742D01*
X143293692Y-137950746D01*
X143087721Y-138097935D01*
X143087717Y-138097938D01*
X143084100Y-138100523D01*
X142894482Y-138281409D01*
X142732244Y-138487208D01*
X142730012Y-138491050D01*
X142730009Y-138491055D01*
X142602852Y-138709972D01*
X142600621Y-138713813D01*
X142598956Y-138717925D01*
X142598953Y-138717930D01*
X142503914Y-138952570D01*
X142502240Y-138956703D01*
X142439065Y-139211032D01*
X142412354Y-139471726D01*
X142422643Y-139733582D01*
X142469724Y-139991376D01*
X142552660Y-140239965D01*
X142554653Y-140243953D01*
X142631684Y-140398116D01*
X142669794Y-140474387D01*
X142818790Y-140689967D01*
X142842521Y-140715638D01*
X142874072Y-140779237D01*
X142866231Y-140849800D01*
X142848945Y-140879171D01*
X142735004Y-141023705D01*
X142734994Y-141023719D01*
X142732244Y-141027208D01*
X142730012Y-141031050D01*
X142730009Y-141031055D01*
X142629749Y-141203666D01*
X142600621Y-141253813D01*
X142598956Y-141257925D01*
X142598953Y-141257930D01*
X142526803Y-141436060D01*
X142502240Y-141496703D01*
X142439065Y-141751032D01*
X142412354Y-142011726D01*
X135384434Y-142011726D01*
X135370052Y-141808596D01*
X135314896Y-141552408D01*
X135295943Y-141501032D01*
X135225734Y-141310724D01*
X135224193Y-141306547D01*
X135099753Y-141075920D01*
X135097107Y-141072337D01*
X134949068Y-140871907D01*
X134924686Y-140805228D01*
X134940223Y-140735953D01*
X134953969Y-140715973D01*
X135031378Y-140623883D01*
X135034243Y-140620475D01*
X135172919Y-140398116D01*
X135241074Y-140243953D01*
X135277082Y-140162503D01*
X135278880Y-140158436D01*
X135350014Y-139906216D01*
X135372613Y-139737962D01*
X135384472Y-139649673D01*
X135384473Y-139649665D01*
X135384899Y-139646491D01*
X135388560Y-139530000D01*
X135370052Y-139268596D01*
X135314896Y-139012408D01*
X135295943Y-138961032D01*
X135225734Y-138770724D01*
X135224193Y-138766547D01*
X135099753Y-138535920D01*
X135066616Y-138491055D01*
X134946703Y-138328706D01*
X134944059Y-138325126D01*
X134760217Y-138138374D01*
X134691669Y-138086060D01*
X134555440Y-137982093D01*
X134555436Y-137982090D01*
X134551895Y-137979388D01*
X134323250Y-137851340D01*
X134319101Y-137849735D01*
X134319097Y-137849733D01*
X134171529Y-137792644D01*
X134078845Y-137756787D01*
X134074524Y-137755785D01*
X134074516Y-137755783D01*
X133906402Y-137716817D01*
X133823554Y-137697614D01*
X133562474Y-137675002D01*
X133558039Y-137675246D01*
X133558035Y-137675246D01*
X133305254Y-137689157D01*
X133305247Y-137689158D01*
X133300811Y-137689402D01*
X133043789Y-137740527D01*
X133039579Y-137742005D01*
X133039577Y-137742006D01*
X132894830Y-137792838D01*
X132796534Y-137827357D01*
X132792583Y-137829410D01*
X132792577Y-137829412D01*
X132665227Y-137895566D01*
X132563980Y-137948159D01*
X132560365Y-137950742D01*
X132560359Y-137950746D01*
X132354388Y-138097935D01*
X132354384Y-138097938D01*
X132350767Y-138100523D01*
X132161149Y-138281409D01*
X131998911Y-138487208D01*
X131996679Y-138491050D01*
X131996676Y-138491055D01*
X131869519Y-138709972D01*
X131867288Y-138713813D01*
X131865623Y-138717925D01*
X131865620Y-138717930D01*
X131770581Y-138952570D01*
X131768907Y-138956703D01*
X131705732Y-139211032D01*
X131679021Y-139471726D01*
X131689310Y-139733582D01*
X131736391Y-139991376D01*
X131819327Y-140239965D01*
X131821320Y-140243953D01*
X131898351Y-140398116D01*
X131936461Y-140474387D01*
X132085457Y-140689967D01*
X132109188Y-140715638D01*
X132140739Y-140779237D01*
X132132898Y-140849800D01*
X132115612Y-140879171D01*
X132001671Y-141023705D01*
X132001661Y-141023719D01*
X131998911Y-141027208D01*
X131996679Y-141031050D01*
X131996676Y-141031055D01*
X131896416Y-141203666D01*
X131867288Y-141253813D01*
X131865623Y-141257925D01*
X131865620Y-141257930D01*
X131793470Y-141436060D01*
X131768907Y-141496703D01*
X131705732Y-141751032D01*
X131679021Y-142011726D01*
X124651101Y-142011726D01*
X124636719Y-141808596D01*
X124581563Y-141552408D01*
X124562610Y-141501032D01*
X124492401Y-141310724D01*
X124490860Y-141306547D01*
X124366420Y-141075920D01*
X124363774Y-141072337D01*
X124215735Y-140871907D01*
X124191353Y-140805228D01*
X124206890Y-140735953D01*
X124220636Y-140715973D01*
X124298045Y-140623883D01*
X124300910Y-140620475D01*
X124439586Y-140398116D01*
X124507741Y-140243953D01*
X124543749Y-140162503D01*
X124545547Y-140158436D01*
X124616681Y-139906216D01*
X124639280Y-139737962D01*
X124651139Y-139649673D01*
X124651140Y-139649665D01*
X124651566Y-139646491D01*
X124655227Y-139530000D01*
X124636719Y-139268596D01*
X124581563Y-139012408D01*
X124562610Y-138961032D01*
X124492401Y-138770724D01*
X124490860Y-138766547D01*
X124366420Y-138535920D01*
X124333283Y-138491055D01*
X124213370Y-138328706D01*
X124210726Y-138325126D01*
X124026884Y-138138374D01*
X123958336Y-138086060D01*
X123822107Y-137982093D01*
X123822103Y-137982090D01*
X123818562Y-137979388D01*
X123589917Y-137851340D01*
X123585768Y-137849735D01*
X123585764Y-137849733D01*
X123438196Y-137792644D01*
X123345512Y-137756787D01*
X123341191Y-137755785D01*
X123341183Y-137755783D01*
X123173069Y-137716817D01*
X123090221Y-137697614D01*
X122829141Y-137675002D01*
X122824706Y-137675246D01*
X122824702Y-137675246D01*
X122571921Y-137689157D01*
X122571914Y-137689158D01*
X122567478Y-137689402D01*
X122310456Y-137740527D01*
X122306246Y-137742005D01*
X122306244Y-137742006D01*
X122161497Y-137792838D01*
X122063201Y-137827357D01*
X122059250Y-137829410D01*
X122059244Y-137829412D01*
X121931894Y-137895566D01*
X121830647Y-137948159D01*
X121827032Y-137950742D01*
X121827026Y-137950746D01*
X121621055Y-138097935D01*
X121621051Y-138097938D01*
X121617434Y-138100523D01*
X121427816Y-138281409D01*
X121265578Y-138487208D01*
X121263346Y-138491050D01*
X121263343Y-138491055D01*
X121136186Y-138709972D01*
X121133955Y-138713813D01*
X121132290Y-138717925D01*
X121132287Y-138717930D01*
X121037248Y-138952570D01*
X121035574Y-138956703D01*
X120972399Y-139211032D01*
X120945688Y-139471726D01*
X120955977Y-139733582D01*
X121003058Y-139991376D01*
X121085994Y-140239965D01*
X121087987Y-140243953D01*
X121165018Y-140398116D01*
X121203128Y-140474387D01*
X121352124Y-140689967D01*
X121375855Y-140715638D01*
X121407406Y-140779237D01*
X121399565Y-140849800D01*
X121382279Y-140879171D01*
X121268338Y-141023705D01*
X121268328Y-141023719D01*
X121265578Y-141027208D01*
X121263346Y-141031050D01*
X121263343Y-141031055D01*
X121163083Y-141203666D01*
X121133955Y-141253813D01*
X121132290Y-141257925D01*
X121132287Y-141257930D01*
X121060137Y-141436060D01*
X121035574Y-141496703D01*
X120972399Y-141751032D01*
X120945688Y-142011726D01*
X93686334Y-142011726D01*
X93418821Y-141921178D01*
X93415586Y-141920083D01*
X93401256Y-141916906D01*
X93360738Y-141907924D01*
X93056001Y-141840365D01*
X92926948Y-141826117D01*
X92693290Y-141800321D01*
X92693285Y-141800321D01*
X92689909Y-141799948D01*
X92686510Y-141799942D01*
X92686509Y-141799942D01*
X92512821Y-141799639D01*
X92321594Y-141799305D01*
X92234657Y-141808596D01*
X91958748Y-141838082D01*
X91958742Y-141838083D01*
X91955364Y-141838444D01*
X91952041Y-141839168D01*
X91952038Y-141839169D01*
X91857388Y-141859806D01*
X91595502Y-141916906D01*
X91246220Y-142033774D01*
X91243140Y-142035190D01*
X91243134Y-142035193D01*
X90914697Y-142186258D01*
X90914690Y-142186262D01*
X90911602Y-142187682D01*
X90908679Y-142189431D01*
X90908674Y-142189434D01*
X90775507Y-142269133D01*
X90595563Y-142376827D01*
X90301800Y-142598998D01*
X90299318Y-142601337D01*
X90299312Y-142601342D01*
X90237613Y-142659485D01*
X90103925Y-142785467D01*
X90040632Y-142817628D01*
X89969998Y-142810465D01*
X89914449Y-142766251D01*
X89891513Y-142693755D01*
X89893183Y-125652736D01*
X118395070Y-125652736D01*
X118407909Y-125920041D01*
X118460118Y-126182512D01*
X118550549Y-126434383D01*
X118552765Y-126438507D01*
X118620982Y-126565465D01*
X118677215Y-126670121D01*
X118680010Y-126673864D01*
X118680012Y-126673867D01*
X118764199Y-126786607D01*
X118837335Y-126884547D01*
X118840642Y-126887825D01*
X118840647Y-126887831D01*
X119008107Y-127053835D01*
X119027390Y-127072950D01*
X119243205Y-127231192D01*
X119247340Y-127233368D01*
X119247344Y-127233370D01*
X119376918Y-127301542D01*
X119480039Y-127355797D01*
X119484458Y-127357340D01*
X119728273Y-127442484D01*
X119728279Y-127442486D01*
X119732690Y-127444026D01*
X119995606Y-127493943D01*
X120122616Y-127498933D01*
X120258345Y-127504266D01*
X120258350Y-127504266D01*
X120263013Y-127504449D01*
X120358943Y-127493943D01*
X120524382Y-127475825D01*
X120524387Y-127475824D01*
X120529035Y-127475315D01*
X120644567Y-127444898D01*
X120783309Y-127408370D01*
X120787829Y-127407180D01*
X120912501Y-127353617D01*
X121029407Y-127303391D01*
X121029410Y-127303389D01*
X121033710Y-127301542D01*
X121037690Y-127299079D01*
X121037694Y-127299077D01*
X121257302Y-127163179D01*
X121257306Y-127163176D01*
X121261275Y-127160720D01*
X121275010Y-127149092D01*
X121461960Y-126990828D01*
X121461961Y-126990827D01*
X121465526Y-126987809D01*
X121559365Y-126880807D01*
X121638894Y-126790122D01*
X121638898Y-126790117D01*
X121641976Y-126786607D01*
X121644506Y-126782674D01*
X121784219Y-126565465D01*
X121784222Y-126565460D01*
X121786747Y-126561534D01*
X121896661Y-126317534D01*
X121969302Y-126059969D01*
X121987103Y-125920041D01*
X122002677Y-125797625D01*
X122002677Y-125797621D01*
X122003075Y-125794495D01*
X122005549Y-125700000D01*
X122002037Y-125652736D01*
X128395070Y-125652736D01*
X128407909Y-125920041D01*
X128460118Y-126182512D01*
X128550549Y-126434383D01*
X128552765Y-126438507D01*
X128620982Y-126565465D01*
X128677215Y-126670121D01*
X128680010Y-126673864D01*
X128680012Y-126673867D01*
X128764199Y-126786607D01*
X128837335Y-126884547D01*
X128840642Y-126887825D01*
X128840647Y-126887831D01*
X129008107Y-127053835D01*
X129027390Y-127072950D01*
X129243205Y-127231192D01*
X129247340Y-127233368D01*
X129247344Y-127233370D01*
X129376918Y-127301542D01*
X129480039Y-127355797D01*
X129484458Y-127357340D01*
X129728273Y-127442484D01*
X129728279Y-127442486D01*
X129732690Y-127444026D01*
X129995606Y-127493943D01*
X130122616Y-127498933D01*
X130258345Y-127504266D01*
X130258350Y-127504266D01*
X130263013Y-127504449D01*
X130358943Y-127493943D01*
X130524382Y-127475825D01*
X130524387Y-127475824D01*
X130529035Y-127475315D01*
X130644567Y-127444898D01*
X130783309Y-127408370D01*
X130787829Y-127407180D01*
X130912501Y-127353617D01*
X131029407Y-127303391D01*
X131029410Y-127303389D01*
X131033710Y-127301542D01*
X131037690Y-127299079D01*
X131037694Y-127299077D01*
X131257302Y-127163179D01*
X131257306Y-127163176D01*
X131261275Y-127160720D01*
X131275010Y-127149092D01*
X131461960Y-126990828D01*
X131461961Y-126990827D01*
X131465526Y-126987809D01*
X131559365Y-126880807D01*
X131638894Y-126790122D01*
X131638898Y-126790117D01*
X131641976Y-126786607D01*
X131644506Y-126782674D01*
X131784219Y-126565465D01*
X131784222Y-126565460D01*
X131786747Y-126561534D01*
X131896661Y-126317534D01*
X131969302Y-126059969D01*
X131987103Y-125920041D01*
X132002677Y-125797625D01*
X132002677Y-125797621D01*
X132003075Y-125794495D01*
X132005549Y-125700000D01*
X132002037Y-125652736D01*
X138395070Y-125652736D01*
X138407909Y-125920041D01*
X138460118Y-126182512D01*
X138550549Y-126434383D01*
X138552765Y-126438507D01*
X138620982Y-126565465D01*
X138677215Y-126670121D01*
X138680010Y-126673864D01*
X138680012Y-126673867D01*
X138764199Y-126786607D01*
X138837335Y-126884547D01*
X138840642Y-126887825D01*
X138840647Y-126887831D01*
X139008107Y-127053835D01*
X139027390Y-127072950D01*
X139243205Y-127231192D01*
X139247340Y-127233368D01*
X139247344Y-127233370D01*
X139376918Y-127301542D01*
X139480039Y-127355797D01*
X139484458Y-127357340D01*
X139728273Y-127442484D01*
X139728279Y-127442486D01*
X139732690Y-127444026D01*
X139995606Y-127493943D01*
X140122616Y-127498933D01*
X140258345Y-127504266D01*
X140258350Y-127504266D01*
X140263013Y-127504449D01*
X140358943Y-127493943D01*
X140524382Y-127475825D01*
X140524387Y-127475824D01*
X140529035Y-127475315D01*
X140644567Y-127444898D01*
X140783309Y-127408370D01*
X140787829Y-127407180D01*
X140912501Y-127353617D01*
X141029407Y-127303391D01*
X141029410Y-127303389D01*
X141033710Y-127301542D01*
X141037690Y-127299079D01*
X141037694Y-127299077D01*
X141257302Y-127163179D01*
X141257306Y-127163176D01*
X141261275Y-127160720D01*
X141275010Y-127149092D01*
X141461960Y-126990828D01*
X141461961Y-126990827D01*
X141465526Y-126987809D01*
X141559365Y-126880807D01*
X141638894Y-126790122D01*
X141638898Y-126790117D01*
X141641976Y-126786607D01*
X141644506Y-126782674D01*
X141784219Y-126565465D01*
X141784222Y-126565460D01*
X141786747Y-126561534D01*
X141896661Y-126317534D01*
X141969302Y-126059969D01*
X141987103Y-125920041D01*
X142002677Y-125797625D01*
X142002677Y-125797621D01*
X142003075Y-125794495D01*
X142005549Y-125700000D01*
X141985717Y-125433123D01*
X141975161Y-125386470D01*
X141927686Y-125176666D01*
X141926655Y-125172109D01*
X141829662Y-124922691D01*
X141696868Y-124690350D01*
X141531190Y-124480189D01*
X141336269Y-124296825D01*
X141116385Y-124144286D01*
X141112194Y-124142219D01*
X140880559Y-124027989D01*
X140880556Y-124027988D01*
X140876371Y-124025924D01*
X140621497Y-123944338D01*
X140476134Y-123920665D01*
X140361976Y-123902073D01*
X140361975Y-123902073D01*
X140357364Y-123901322D01*
X140223569Y-123899571D01*
X140094451Y-123897880D01*
X140094448Y-123897880D01*
X140089774Y-123897819D01*
X139824605Y-123933907D01*
X139820118Y-123935215D01*
X139820117Y-123935215D01*
X139788817Y-123944338D01*
X139567683Y-124008792D01*
X139563430Y-124010752D01*
X139563429Y-124010753D01*
X139511512Y-124034687D01*
X139324652Y-124120831D01*
X139320743Y-124123394D01*
X139104764Y-124264996D01*
X139104759Y-124265000D01*
X139100851Y-124267562D01*
X138901197Y-124445760D01*
X138730075Y-124651512D01*
X138591244Y-124880298D01*
X138487755Y-125127091D01*
X138486604Y-125131623D01*
X138486603Y-125131626D01*
X138423033Y-125381933D01*
X138421881Y-125386470D01*
X138395070Y-125652736D01*
X132002037Y-125652736D01*
X131985717Y-125433123D01*
X131975161Y-125386470D01*
X131927686Y-125176666D01*
X131926655Y-125172109D01*
X131829662Y-124922691D01*
X131696868Y-124690350D01*
X131531190Y-124480189D01*
X131336269Y-124296825D01*
X131116385Y-124144286D01*
X131112194Y-124142219D01*
X130880559Y-124027989D01*
X130880556Y-124027988D01*
X130876371Y-124025924D01*
X130621497Y-123944338D01*
X130476134Y-123920665D01*
X130361976Y-123902073D01*
X130361975Y-123902073D01*
X130357364Y-123901322D01*
X130223569Y-123899571D01*
X130094451Y-123897880D01*
X130094448Y-123897880D01*
X130089774Y-123897819D01*
X129824605Y-123933907D01*
X129820118Y-123935215D01*
X129820117Y-123935215D01*
X129788817Y-123944338D01*
X129567683Y-124008792D01*
X129563430Y-124010752D01*
X129563429Y-124010753D01*
X129511512Y-124034687D01*
X129324652Y-124120831D01*
X129320743Y-124123394D01*
X129104764Y-124264996D01*
X129104759Y-124265000D01*
X129100851Y-124267562D01*
X128901197Y-124445760D01*
X128730075Y-124651512D01*
X128591244Y-124880298D01*
X128487755Y-125127091D01*
X128486604Y-125131623D01*
X128486603Y-125131626D01*
X128423033Y-125381933D01*
X128421881Y-125386470D01*
X128395070Y-125652736D01*
X122002037Y-125652736D01*
X121985717Y-125433123D01*
X121975161Y-125386470D01*
X121927686Y-125176666D01*
X121926655Y-125172109D01*
X121829662Y-124922691D01*
X121696868Y-124690350D01*
X121531190Y-124480189D01*
X121336269Y-124296825D01*
X121116385Y-124144286D01*
X121112194Y-124142219D01*
X120880559Y-124027989D01*
X120880556Y-124027988D01*
X120876371Y-124025924D01*
X120621497Y-123944338D01*
X120476134Y-123920665D01*
X120361976Y-123902073D01*
X120361975Y-123902073D01*
X120357364Y-123901322D01*
X120223569Y-123899571D01*
X120094451Y-123897880D01*
X120094448Y-123897880D01*
X120089774Y-123897819D01*
X119824605Y-123933907D01*
X119820118Y-123935215D01*
X119820117Y-123935215D01*
X119788817Y-123944338D01*
X119567683Y-124008792D01*
X119563430Y-124010752D01*
X119563429Y-124010753D01*
X119511512Y-124034687D01*
X119324652Y-124120831D01*
X119320743Y-124123394D01*
X119104764Y-124264996D01*
X119104759Y-124265000D01*
X119100851Y-124267562D01*
X118901197Y-124445760D01*
X118730075Y-124651512D01*
X118591244Y-124880298D01*
X118487755Y-125127091D01*
X118486604Y-125131623D01*
X118486603Y-125131626D01*
X118423033Y-125381933D01*
X118421881Y-125386470D01*
X118395070Y-125652736D01*
X89893183Y-125652736D01*
X89893997Y-117352736D01*
X94615070Y-117352736D01*
X94615294Y-117357403D01*
X94615294Y-117357408D01*
X94621727Y-117491338D01*
X94627909Y-117620041D01*
X94680118Y-117882512D01*
X94770549Y-118134383D01*
X94772765Y-118138507D01*
X94840982Y-118265465D01*
X94897215Y-118370121D01*
X94900010Y-118373864D01*
X94900012Y-118373867D01*
X94984199Y-118486607D01*
X95057335Y-118584547D01*
X95060642Y-118587825D01*
X95060647Y-118587831D01*
X95244074Y-118769663D01*
X95247390Y-118772950D01*
X95251156Y-118775712D01*
X95251158Y-118775713D01*
X95362977Y-118857702D01*
X95463205Y-118931192D01*
X95467340Y-118933368D01*
X95467344Y-118933370D01*
X95596918Y-119001542D01*
X95700039Y-119055797D01*
X95735115Y-119068046D01*
X95948273Y-119142484D01*
X95948279Y-119142486D01*
X95952690Y-119144026D01*
X96215606Y-119193943D01*
X96342616Y-119198933D01*
X96478345Y-119204266D01*
X96478350Y-119204266D01*
X96483013Y-119204449D01*
X96578943Y-119193943D01*
X96744382Y-119175825D01*
X96744387Y-119175824D01*
X96749035Y-119175315D01*
X96864567Y-119144898D01*
X97003309Y-119108370D01*
X97007829Y-119107180D01*
X97132501Y-119053617D01*
X97249407Y-119003391D01*
X97249410Y-119003389D01*
X97253710Y-119001542D01*
X97257690Y-118999079D01*
X97257694Y-118999077D01*
X97477302Y-118863179D01*
X97477306Y-118863176D01*
X97481275Y-118860720D01*
X97522600Y-118825736D01*
X97681960Y-118690828D01*
X97681961Y-118690827D01*
X97685526Y-118687809D01*
X97782707Y-118576996D01*
X97858894Y-118490122D01*
X97858898Y-118490117D01*
X97861976Y-118486607D01*
X97864506Y-118482674D01*
X98004219Y-118265465D01*
X98004222Y-118265460D01*
X98006747Y-118261534D01*
X98096754Y-118061726D01*
X125790688Y-118061726D01*
X125790863Y-118066177D01*
X125798372Y-118257273D01*
X125800977Y-118323582D01*
X125848058Y-118581376D01*
X125930994Y-118829965D01*
X125947590Y-118863179D01*
X126042747Y-119053617D01*
X126048128Y-119064387D01*
X126197124Y-119279967D01*
X126375010Y-119472402D01*
X126378464Y-119475214D01*
X126574778Y-119635039D01*
X126574782Y-119635042D01*
X126578235Y-119637853D01*
X126582057Y-119640154D01*
X126756445Y-119745144D01*
X126802745Y-119773019D01*
X126889070Y-119809573D01*
X127039962Y-119873468D01*
X127039966Y-119873469D01*
X127044060Y-119875203D01*
X127048352Y-119876341D01*
X127048355Y-119876342D01*
X127140535Y-119900783D01*
X127297365Y-119942366D01*
X127301789Y-119942890D01*
X127301791Y-119942890D01*
X127444380Y-119959766D01*
X127557607Y-119973167D01*
X127819592Y-119966993D01*
X127823986Y-119966262D01*
X127823993Y-119966261D01*
X128073692Y-119924700D01*
X128073696Y-119924699D01*
X128078094Y-119923967D01*
X128242061Y-119872111D01*
X128323709Y-119846289D01*
X128323711Y-119846288D01*
X128327955Y-119844946D01*
X128331966Y-119843020D01*
X128331971Y-119843018D01*
X128560169Y-119733439D01*
X128560170Y-119733438D01*
X128564188Y-119731509D01*
X128708566Y-119635039D01*
X128778374Y-119588395D01*
X128778378Y-119588392D01*
X128782082Y-119585917D01*
X128785398Y-119582946D01*
X128785403Y-119582943D01*
X128831606Y-119541560D01*
X128895694Y-119511011D01*
X128966125Y-119519960D01*
X128995221Y-119537704D01*
X129114778Y-119635039D01*
X129114782Y-119635042D01*
X129118235Y-119637853D01*
X129122057Y-119640154D01*
X129296445Y-119745144D01*
X129342745Y-119773019D01*
X129429070Y-119809573D01*
X129579962Y-119873468D01*
X129579966Y-119873469D01*
X129584060Y-119875203D01*
X129588352Y-119876341D01*
X129588355Y-119876342D01*
X129680535Y-119900783D01*
X129837365Y-119942366D01*
X129841789Y-119942890D01*
X129841791Y-119942890D01*
X129984380Y-119959766D01*
X130097607Y-119973167D01*
X130359592Y-119966993D01*
X130363986Y-119966262D01*
X130363993Y-119966261D01*
X130613692Y-119924700D01*
X130613696Y-119924699D01*
X130618094Y-119923967D01*
X130782061Y-119872111D01*
X130863709Y-119846289D01*
X130863711Y-119846288D01*
X130867955Y-119844946D01*
X130871966Y-119843020D01*
X130871971Y-119843018D01*
X131100167Y-119733440D01*
X131100169Y-119733439D01*
X131100405Y-119733325D01*
X131100407Y-119733325D01*
X131104188Y-119731509D01*
X131104584Y-119732334D01*
X131169424Y-119716963D01*
X131236394Y-119740534D01*
X131242389Y-119745130D01*
X131321404Y-119809573D01*
X131501530Y-119903741D01*
X131696913Y-119959766D01*
X131728545Y-119962589D01*
X131814391Y-119970251D01*
X131814397Y-119970251D01*
X131817184Y-119970500D01*
X133632816Y-119970500D01*
X133635603Y-119970251D01*
X133635609Y-119970251D01*
X133721455Y-119962589D01*
X133753087Y-119959766D01*
X133948470Y-119903741D01*
X134128596Y-119809573D01*
X134213247Y-119740534D01*
X134281169Y-119685138D01*
X134286109Y-119681109D01*
X134323683Y-119635039D01*
X134410541Y-119528540D01*
X134410542Y-119528539D01*
X134414573Y-119523596D01*
X134508741Y-119343470D01*
X134564766Y-119148087D01*
X134575500Y-119027816D01*
X134575500Y-117212184D01*
X134574005Y-117195426D01*
X134565299Y-117097886D01*
X134564766Y-117091913D01*
X134508741Y-116896530D01*
X134414573Y-116716404D01*
X134391355Y-116687935D01*
X134290138Y-116563831D01*
X134286109Y-116558891D01*
X134226240Y-116510063D01*
X134133540Y-116434459D01*
X134133539Y-116434458D01*
X134128596Y-116430427D01*
X133948470Y-116336259D01*
X133753087Y-116280234D01*
X133721455Y-116277411D01*
X133635609Y-116269749D01*
X133635603Y-116269749D01*
X133632816Y-116269500D01*
X131817184Y-116269500D01*
X131814397Y-116269749D01*
X131814391Y-116269749D01*
X131728545Y-116277411D01*
X131696913Y-116280234D01*
X131501530Y-116336259D01*
X131321404Y-116430427D01*
X131238829Y-116497773D01*
X131173400Y-116525326D01*
X131097632Y-116510064D01*
X130974917Y-116441340D01*
X130970772Y-116439736D01*
X130970769Y-116439735D01*
X130833601Y-116386669D01*
X130730512Y-116346787D01*
X130726191Y-116345785D01*
X130726183Y-116345783D01*
X130558069Y-116306817D01*
X130475221Y-116287614D01*
X130214141Y-116265002D01*
X130209706Y-116265246D01*
X130209702Y-116265246D01*
X129956921Y-116279157D01*
X129956914Y-116279158D01*
X129952478Y-116279402D01*
X129695456Y-116330527D01*
X129691246Y-116332005D01*
X129691244Y-116332006D01*
X129546497Y-116382838D01*
X129448201Y-116417357D01*
X129444250Y-116419410D01*
X129444244Y-116419412D01*
X129316894Y-116485566D01*
X129215647Y-116538159D01*
X129212032Y-116540742D01*
X129212026Y-116540746D01*
X129006055Y-116687935D01*
X129006051Y-116687938D01*
X129002434Y-116690523D01*
X128999215Y-116693594D01*
X128995777Y-116696438D01*
X128994900Y-116695378D01*
X128937117Y-116725172D01*
X128866441Y-116718429D01*
X128836820Y-116701614D01*
X128667107Y-116572093D01*
X128667103Y-116572090D01*
X128663562Y-116569388D01*
X128434917Y-116441340D01*
X128430768Y-116439735D01*
X128430764Y-116439733D01*
X128283196Y-116382644D01*
X128190512Y-116346787D01*
X128186191Y-116345785D01*
X128186183Y-116345783D01*
X128018069Y-116306817D01*
X127935221Y-116287614D01*
X127674141Y-116265002D01*
X127669706Y-116265246D01*
X127669702Y-116265246D01*
X127416921Y-116279157D01*
X127416914Y-116279158D01*
X127412478Y-116279402D01*
X127155456Y-116330527D01*
X127151246Y-116332005D01*
X127151244Y-116332006D01*
X127006497Y-116382838D01*
X126908201Y-116417357D01*
X126904250Y-116419410D01*
X126904244Y-116419412D01*
X126776894Y-116485566D01*
X126675647Y-116538159D01*
X126672032Y-116540742D01*
X126672026Y-116540746D01*
X126466055Y-116687935D01*
X126466051Y-116687938D01*
X126462434Y-116690523D01*
X126272816Y-116871409D01*
X126270060Y-116874905D01*
X126248174Y-116902668D01*
X126110578Y-117077208D01*
X126108346Y-117081050D01*
X126108343Y-117081055D01*
X126033800Y-117209391D01*
X125978955Y-117303813D01*
X125977290Y-117307925D01*
X125977287Y-117307930D01*
X125900453Y-117497625D01*
X125880574Y-117546703D01*
X125817399Y-117801032D01*
X125790688Y-118061726D01*
X98096754Y-118061726D01*
X98116661Y-118017534D01*
X98156034Y-117877927D01*
X98188032Y-117764473D01*
X98188033Y-117764470D01*
X98189302Y-117759969D01*
X98207103Y-117620041D01*
X98222677Y-117497625D01*
X98222677Y-117497621D01*
X98223075Y-117494495D01*
X98225549Y-117400000D01*
X98218116Y-117299972D01*
X98206064Y-117137788D01*
X98206063Y-117137784D01*
X98205717Y-117133123D01*
X98195161Y-117086470D01*
X98147686Y-116876666D01*
X98146655Y-116872109D01*
X98127471Y-116822776D01*
X98051355Y-116627044D01*
X98051354Y-116627042D01*
X98049662Y-116622691D01*
X98034328Y-116595861D01*
X97919187Y-116394408D01*
X97916868Y-116390350D01*
X97751190Y-116180189D01*
X97556269Y-115996825D01*
X97336385Y-115844286D01*
X97332194Y-115842219D01*
X97100559Y-115727989D01*
X97100556Y-115727988D01*
X97096371Y-115725924D01*
X96841497Y-115644338D01*
X96696134Y-115620665D01*
X96581976Y-115602073D01*
X96581975Y-115602073D01*
X96577364Y-115601322D01*
X96443569Y-115599570D01*
X96314451Y-115597880D01*
X96314448Y-115597880D01*
X96309774Y-115597819D01*
X96044605Y-115633907D01*
X96040118Y-115635215D01*
X96040117Y-115635215D01*
X96008817Y-115644338D01*
X95787683Y-115708792D01*
X95783430Y-115710752D01*
X95783429Y-115710753D01*
X95731512Y-115734687D01*
X95544652Y-115820831D01*
X95540743Y-115823394D01*
X95324764Y-115964996D01*
X95324759Y-115965000D01*
X95320851Y-115967562D01*
X95121197Y-116145760D01*
X95118204Y-116149359D01*
X94964225Y-116334499D01*
X94950075Y-116351512D01*
X94947652Y-116355505D01*
X94819187Y-116567209D01*
X94811244Y-116580298D01*
X94809437Y-116584606D01*
X94809437Y-116584607D01*
X94749151Y-116728374D01*
X94707755Y-116827091D01*
X94706604Y-116831623D01*
X94706603Y-116831626D01*
X94688561Y-116902668D01*
X94641881Y-117086470D01*
X94615070Y-117352736D01*
X89893997Y-117352736D01*
X89894977Y-107357318D01*
X99189000Y-107357318D01*
X99228434Y-107669473D01*
X99229420Y-107673312D01*
X99305694Y-107970383D01*
X99305697Y-107970391D01*
X99306681Y-107974225D01*
X99308138Y-107977905D01*
X99308139Y-107977908D01*
X99346346Y-108074408D01*
X99422506Y-108266766D01*
X99574084Y-108542484D01*
X99576412Y-108545688D01*
X99576415Y-108545693D01*
X99736819Y-108766470D01*
X99759022Y-108797030D01*
X99974406Y-109026390D01*
X100216837Y-109226947D01*
X100482493Y-109395537D01*
X100486072Y-109397221D01*
X100486079Y-109397225D01*
X100763595Y-109527814D01*
X100763599Y-109527816D01*
X100767185Y-109529503D01*
X101066421Y-109626731D01*
X101375485Y-109685688D01*
X101468989Y-109691571D01*
X101608922Y-109700375D01*
X101608938Y-109700376D01*
X101610917Y-109700500D01*
X103768083Y-109700500D01*
X103770062Y-109700376D01*
X103770078Y-109700375D01*
X103910011Y-109691571D01*
X104003515Y-109685688D01*
X104312579Y-109626731D01*
X104611815Y-109529503D01*
X104615401Y-109527816D01*
X104615405Y-109527814D01*
X104892921Y-109397225D01*
X104892928Y-109397221D01*
X104896507Y-109395537D01*
X105162163Y-109226947D01*
X105404594Y-109026390D01*
X105619978Y-108797030D01*
X105642181Y-108766470D01*
X105802585Y-108545693D01*
X105802588Y-108545688D01*
X105804916Y-108542484D01*
X105843260Y-108472736D01*
X125138070Y-108472736D01*
X125150909Y-108740041D01*
X125203118Y-109002512D01*
X125204698Y-109006912D01*
X125204698Y-109006913D01*
X125215647Y-109037408D01*
X125293549Y-109254383D01*
X125295765Y-109258507D01*
X125395688Y-109444473D01*
X125420215Y-109490121D01*
X125423010Y-109493864D01*
X125423012Y-109493867D01*
X125577313Y-109700500D01*
X125580335Y-109704547D01*
X125583642Y-109707825D01*
X125583647Y-109707831D01*
X125691134Y-109814383D01*
X125770390Y-109892950D01*
X125986205Y-110051192D01*
X125990340Y-110053368D01*
X125990344Y-110053370D01*
X126119918Y-110121542D01*
X126223039Y-110175797D01*
X126227458Y-110177340D01*
X126471273Y-110262484D01*
X126471279Y-110262486D01*
X126475690Y-110264026D01*
X126738606Y-110313943D01*
X126865616Y-110318933D01*
X127001345Y-110324266D01*
X127001350Y-110324266D01*
X127006013Y-110324449D01*
X127101943Y-110313943D01*
X127267382Y-110295825D01*
X127267387Y-110295824D01*
X127272035Y-110295315D01*
X127387567Y-110264898D01*
X127526309Y-110228370D01*
X127530829Y-110227180D01*
X127680972Y-110162674D01*
X127772407Y-110123391D01*
X127772410Y-110123389D01*
X127776710Y-110121542D01*
X127780690Y-110119079D01*
X127780694Y-110119077D01*
X128000302Y-109983179D01*
X128000306Y-109983176D01*
X128004275Y-109980720D01*
X128055597Y-109937273D01*
X128204960Y-109810828D01*
X128204961Y-109810827D01*
X128208526Y-109807809D01*
X128299085Y-109704547D01*
X128381894Y-109610122D01*
X128381898Y-109610117D01*
X128384976Y-109606607D01*
X128435657Y-109527814D01*
X128527219Y-109385465D01*
X128527222Y-109385460D01*
X128529747Y-109381534D01*
X128639661Y-109137534D01*
X128669217Y-109032736D01*
X137795070Y-109032736D01*
X137795294Y-109037403D01*
X137795294Y-109037408D01*
X137800308Y-109141798D01*
X137807909Y-109300041D01*
X137860118Y-109562512D01*
X137950549Y-109814383D01*
X137952765Y-109818507D01*
X138020982Y-109945465D01*
X138077215Y-110050121D01*
X138080010Y-110053864D01*
X138080012Y-110053867D01*
X138210320Y-110228370D01*
X138237335Y-110264547D01*
X138240642Y-110267825D01*
X138240647Y-110267831D01*
X138424074Y-110449663D01*
X138427390Y-110452950D01*
X138643205Y-110611192D01*
X138647340Y-110613368D01*
X138647344Y-110613370D01*
X138776918Y-110681542D01*
X138880039Y-110735797D01*
X138884458Y-110737340D01*
X139128273Y-110822484D01*
X139128279Y-110822486D01*
X139132690Y-110824026D01*
X139395606Y-110873943D01*
X139522616Y-110878933D01*
X139658345Y-110884266D01*
X139658350Y-110884266D01*
X139663013Y-110884449D01*
X139758943Y-110873943D01*
X139924382Y-110855825D01*
X139924387Y-110855824D01*
X139929035Y-110855315D01*
X140044567Y-110824898D01*
X140183309Y-110788370D01*
X140187829Y-110787180D01*
X140312501Y-110733617D01*
X140429407Y-110683391D01*
X140429410Y-110683389D01*
X140433710Y-110681542D01*
X140437690Y-110679079D01*
X140437694Y-110679077D01*
X140657302Y-110543179D01*
X140657306Y-110543176D01*
X140661275Y-110540720D01*
X140675010Y-110529092D01*
X140861960Y-110370828D01*
X140861961Y-110370827D01*
X140865526Y-110367809D01*
X140913529Y-110313072D01*
X141038894Y-110170122D01*
X141038898Y-110170117D01*
X141041976Y-110166607D01*
X141044506Y-110162674D01*
X141184219Y-109945465D01*
X141184222Y-109945460D01*
X141186747Y-109941534D01*
X141296661Y-109697534D01*
X141369302Y-109439969D01*
X141387103Y-109300041D01*
X141402677Y-109177625D01*
X141402677Y-109177621D01*
X141403075Y-109174495D01*
X141405549Y-109080000D01*
X141391019Y-108884473D01*
X141386064Y-108817788D01*
X141386063Y-108817784D01*
X141385717Y-108813123D01*
X141382076Y-108797030D01*
X141327686Y-108556666D01*
X141326655Y-108552109D01*
X141322912Y-108542484D01*
X141231355Y-108307044D01*
X141231354Y-108307042D01*
X141229662Y-108302691D01*
X141096868Y-108070350D01*
X140931190Y-107860189D01*
X140736269Y-107676825D01*
X140516385Y-107524286D01*
X140512194Y-107522219D01*
X140280559Y-107407989D01*
X140280556Y-107407988D01*
X140276371Y-107405924D01*
X140021497Y-107324338D01*
X139853565Y-107296989D01*
X139761976Y-107282073D01*
X139761975Y-107282073D01*
X139757364Y-107281322D01*
X139623569Y-107279570D01*
X139494451Y-107277880D01*
X139494448Y-107277880D01*
X139489774Y-107277819D01*
X139224605Y-107313907D01*
X139220118Y-107315215D01*
X139220117Y-107315215D01*
X139188817Y-107324338D01*
X138967683Y-107388792D01*
X138963430Y-107390752D01*
X138963429Y-107390753D01*
X138911512Y-107414687D01*
X138724652Y-107500831D01*
X138720743Y-107503394D01*
X138504764Y-107644996D01*
X138504759Y-107645000D01*
X138500851Y-107647562D01*
X138301197Y-107825760D01*
X138130075Y-108031512D01*
X138127652Y-108035505D01*
X137998369Y-108248557D01*
X137991244Y-108260298D01*
X137887755Y-108507091D01*
X137886604Y-108511623D01*
X137886603Y-108511626D01*
X137823033Y-108761933D01*
X137821881Y-108766470D01*
X137795070Y-109032736D01*
X128669217Y-109032736D01*
X128712302Y-108879969D01*
X128730103Y-108740041D01*
X128745677Y-108617625D01*
X128745677Y-108617621D01*
X128746075Y-108614495D01*
X128748549Y-108520000D01*
X128732724Y-108307044D01*
X128729064Y-108257788D01*
X128729063Y-108257784D01*
X128728717Y-108253123D01*
X128718161Y-108206470D01*
X128696158Y-108109235D01*
X128669655Y-107992109D01*
X128619781Y-107863857D01*
X128574355Y-107747044D01*
X128574354Y-107747042D01*
X128572662Y-107742691D01*
X128439868Y-107510350D01*
X128274190Y-107300189D01*
X128079269Y-107116825D01*
X127859385Y-106964286D01*
X127855194Y-106962219D01*
X127623559Y-106847989D01*
X127623556Y-106847988D01*
X127619371Y-106845924D01*
X127557051Y-106825975D01*
X127368942Y-106765761D01*
X127368944Y-106765761D01*
X127364497Y-106764338D01*
X127156886Y-106730527D01*
X127104976Y-106722073D01*
X127104975Y-106722073D01*
X127100364Y-106721322D01*
X126966569Y-106719570D01*
X126837451Y-106717880D01*
X126837448Y-106717880D01*
X126832774Y-106717819D01*
X126567605Y-106753907D01*
X126563118Y-106755215D01*
X126563117Y-106755215D01*
X126531817Y-106764338D01*
X126310683Y-106828792D01*
X126306430Y-106830752D01*
X126306429Y-106830753D01*
X126254512Y-106854687D01*
X126067652Y-106940831D01*
X126063743Y-106943394D01*
X125847764Y-107084996D01*
X125847759Y-107085000D01*
X125843851Y-107087562D01*
X125644197Y-107265760D01*
X125473075Y-107471512D01*
X125470652Y-107475505D01*
X125346547Y-107680024D01*
X125334244Y-107700298D01*
X125230755Y-107947091D01*
X125229604Y-107951623D01*
X125229603Y-107951626D01*
X125166033Y-108201933D01*
X125164881Y-108206470D01*
X125138070Y-108472736D01*
X105843260Y-108472736D01*
X105956494Y-108266766D01*
X106032654Y-108074408D01*
X106070861Y-107977908D01*
X106070862Y-107977905D01*
X106072319Y-107974225D01*
X106073303Y-107970391D01*
X106073306Y-107970383D01*
X106149580Y-107673312D01*
X106150566Y-107669473D01*
X106190000Y-107357318D01*
X106190000Y-107042682D01*
X106150566Y-106730527D01*
X106105767Y-106556045D01*
X106073306Y-106429617D01*
X106073303Y-106429609D01*
X106072319Y-106425775D01*
X105956494Y-106133234D01*
X105941656Y-106106243D01*
X105854621Y-105947928D01*
X105804916Y-105857516D01*
X105732496Y-105757837D01*
X105622306Y-105606174D01*
X105622305Y-105606172D01*
X105619978Y-105602970D01*
X105404594Y-105373610D01*
X105162163Y-105173053D01*
X104896507Y-105004463D01*
X104892928Y-105002779D01*
X104892921Y-105002775D01*
X104615405Y-104872186D01*
X104615401Y-104872184D01*
X104611815Y-104870497D01*
X104592020Y-104864065D01*
X104316355Y-104774496D01*
X104316356Y-104774496D01*
X104312579Y-104773269D01*
X104003515Y-104714312D01*
X103910011Y-104708429D01*
X103770078Y-104699625D01*
X103770062Y-104699624D01*
X103768083Y-104699500D01*
X101610917Y-104699500D01*
X101608938Y-104699624D01*
X101608922Y-104699625D01*
X101468989Y-104708429D01*
X101375485Y-104714312D01*
X101066421Y-104773269D01*
X101062644Y-104774496D01*
X101062645Y-104774496D01*
X100786981Y-104864065D01*
X100767185Y-104870497D01*
X100763599Y-104872184D01*
X100763595Y-104872186D01*
X100486079Y-105002775D01*
X100486072Y-105002779D01*
X100482493Y-105004463D01*
X100216837Y-105173053D01*
X99974406Y-105373610D01*
X99759022Y-105602970D01*
X99756695Y-105606172D01*
X99756694Y-105606174D01*
X99646505Y-105757837D01*
X99574084Y-105857516D01*
X99524379Y-105947928D01*
X99437345Y-106106243D01*
X99422506Y-106133234D01*
X99306681Y-106425775D01*
X99305697Y-106429609D01*
X99305694Y-106429617D01*
X99273233Y-106556045D01*
X99228434Y-106730527D01*
X99189000Y-107042682D01*
X99189000Y-107357318D01*
X89894977Y-107357318D01*
X89895221Y-104868497D01*
X93184137Y-104868497D01*
X93184381Y-104872932D01*
X93184381Y-104872936D01*
X93195447Y-105074000D01*
X93199705Y-105151370D01*
X93254974Y-105429226D01*
X93256450Y-105433429D01*
X93277681Y-105493885D01*
X93348842Y-105696524D01*
X93350895Y-105700477D01*
X93350898Y-105700483D01*
X93424860Y-105842865D01*
X93479436Y-105947928D01*
X93482019Y-105951543D01*
X93482023Y-105951549D01*
X93514676Y-105997242D01*
X93644151Y-106178424D01*
X93647229Y-106181651D01*
X93647231Y-106181653D01*
X93689855Y-106226334D01*
X93839699Y-106383412D01*
X94062180Y-106558801D01*
X94168587Y-106620607D01*
X94303307Y-106698859D01*
X94303313Y-106698862D01*
X94307154Y-106701093D01*
X94311277Y-106702763D01*
X94466812Y-106765761D01*
X94569732Y-106807448D01*
X94574045Y-106808519D01*
X94574050Y-106808521D01*
X94840356Y-106874672D01*
X94840361Y-106874673D01*
X94844677Y-106875745D01*
X94849105Y-106876199D01*
X94849107Y-106876199D01*
X94924807Y-106883955D01*
X95086290Y-106900500D01*
X96261670Y-106900500D01*
X96472093Y-106885601D01*
X96476448Y-106884663D01*
X96476451Y-106884663D01*
X96744700Y-106826911D01*
X96744702Y-106826911D01*
X96749047Y-106825975D01*
X97014837Y-106727920D01*
X97033444Y-106717880D01*
X97260244Y-106595506D01*
X97264160Y-106593393D01*
X97492040Y-106425078D01*
X97560735Y-106357454D01*
X97690749Y-106229465D01*
X97693930Y-106226334D01*
X97696631Y-106222794D01*
X97696637Y-106222788D01*
X97863102Y-106004667D01*
X97863105Y-106004663D01*
X97865804Y-106001126D01*
X97906893Y-105927756D01*
X98002052Y-105757837D01*
X98002055Y-105757832D01*
X98004230Y-105753947D01*
X98026446Y-105696524D01*
X98104841Y-105493885D01*
X98104843Y-105493879D01*
X98106448Y-105489730D01*
X98170418Y-105213747D01*
X98194863Y-104931503D01*
X98191640Y-104872936D01*
X98179540Y-104653073D01*
X98179539Y-104653066D01*
X98179295Y-104648630D01*
X98124026Y-104370774D01*
X98102779Y-104310270D01*
X98031636Y-104107684D01*
X98031635Y-104107681D01*
X98030158Y-104103476D01*
X98028105Y-104099523D01*
X98028102Y-104099517D01*
X97901616Y-103856023D01*
X97899564Y-103852072D01*
X97807832Y-103723705D01*
X97784500Y-103656652D01*
X97801123Y-103587629D01*
X97810184Y-103574005D01*
X97838050Y-103537493D01*
X97865804Y-103501126D01*
X97978228Y-103300378D01*
X98002052Y-103257837D01*
X98002055Y-103257832D01*
X98004230Y-103253947D01*
X98006303Y-103248591D01*
X98104841Y-102993885D01*
X98104843Y-102993879D01*
X98106448Y-102989730D01*
X98170418Y-102713747D01*
X98194863Y-102431503D01*
X98193275Y-102402641D01*
X98179540Y-102153073D01*
X98179539Y-102153066D01*
X98179295Y-102148630D01*
X98124026Y-101870774D01*
X98102779Y-101810270D01*
X98031636Y-101607684D01*
X98031635Y-101607681D01*
X98030158Y-101603476D01*
X98028105Y-101599523D01*
X98028102Y-101599517D01*
X97932180Y-101414860D01*
X97929773Y-101410226D01*
X126360819Y-101410226D01*
X126396907Y-101675395D01*
X126471792Y-101932317D01*
X126583831Y-102175348D01*
X126616072Y-102224524D01*
X126727996Y-102395236D01*
X126728000Y-102395241D01*
X126730562Y-102399149D01*
X126908760Y-102598803D01*
X127114512Y-102769925D01*
X127118505Y-102772348D01*
X127339306Y-102906334D01*
X127339310Y-102906336D01*
X127343298Y-102908756D01*
X127347606Y-102910563D01*
X127347607Y-102910563D01*
X127585776Y-103010436D01*
X127585781Y-103010438D01*
X127590091Y-103012245D01*
X127594623Y-103013396D01*
X127594626Y-103013397D01*
X127844933Y-103076967D01*
X127844936Y-103076968D01*
X127849470Y-103078119D01*
X127854126Y-103078588D01*
X127854127Y-103078588D01*
X128068602Y-103100184D01*
X128068603Y-103100184D01*
X128071741Y-103100500D01*
X129030944Y-103100500D01*
X129033267Y-103100327D01*
X129033277Y-103100327D01*
X129225212Y-103086064D01*
X129225216Y-103086063D01*
X129229877Y-103085717D01*
X129234441Y-103084684D01*
X129234443Y-103084684D01*
X129373765Y-103053158D01*
X129490891Y-103026655D01*
X129524984Y-103013397D01*
X129735956Y-102931355D01*
X129735958Y-102931354D01*
X129740309Y-102929662D01*
X129748722Y-102924854D01*
X129826730Y-102880268D01*
X129972650Y-102796868D01*
X130182811Y-102631190D01*
X130366175Y-102436269D01*
X130518714Y-102216385D01*
X130582888Y-102086253D01*
X130635011Y-101980559D01*
X130635012Y-101980556D01*
X130637076Y-101976371D01*
X130718662Y-101721497D01*
X130761678Y-101457364D01*
X130765181Y-101189774D01*
X130729093Y-100924605D01*
X130654208Y-100667683D01*
X130542169Y-100424652D01*
X130432165Y-100256868D01*
X130398004Y-100204764D01*
X130398000Y-100204759D01*
X130395438Y-100200851D01*
X130362307Y-100163731D01*
X130318576Y-100114734D01*
X130288138Y-100050593D01*
X130297210Y-99980178D01*
X130320804Y-99944500D01*
X130362976Y-99899670D01*
X130362978Y-99899667D01*
X130366175Y-99896269D01*
X130518714Y-99676385D01*
X130520781Y-99672194D01*
X130635011Y-99440559D01*
X130635012Y-99440556D01*
X130637076Y-99436371D01*
X130641197Y-99423499D01*
X130717239Y-99185942D01*
X130718662Y-99181497D01*
X130761678Y-98917364D01*
X130762262Y-98872736D01*
X131995070Y-98872736D01*
X131995294Y-98877403D01*
X131995294Y-98877408D01*
X131997340Y-98920000D01*
X132007909Y-99140041D01*
X132060118Y-99402512D01*
X132150549Y-99654383D01*
X132152765Y-99658507D01*
X132263215Y-99864065D01*
X132277215Y-99890121D01*
X132280010Y-99893864D01*
X132280012Y-99893867D01*
X132434313Y-100100500D01*
X132437335Y-100104547D01*
X132440642Y-100107825D01*
X132440647Y-100107831D01*
X132593331Y-100259187D01*
X132627390Y-100292950D01*
X132631156Y-100295712D01*
X132631158Y-100295713D01*
X132801678Y-100420743D01*
X132843205Y-100451192D01*
X132847340Y-100453368D01*
X132847344Y-100453370D01*
X132976918Y-100521542D01*
X133080039Y-100575797D01*
X133084458Y-100577340D01*
X133328273Y-100662484D01*
X133328279Y-100662486D01*
X133332690Y-100664026D01*
X133595606Y-100713943D01*
X133722616Y-100718933D01*
X133858345Y-100724266D01*
X133858350Y-100724266D01*
X133863013Y-100724449D01*
X133958943Y-100713943D01*
X134124382Y-100695825D01*
X134124387Y-100695824D01*
X134129035Y-100695315D01*
X134244567Y-100664898D01*
X134383309Y-100628370D01*
X134387829Y-100627180D01*
X134530854Y-100565732D01*
X134629407Y-100523391D01*
X134629410Y-100523389D01*
X134633710Y-100521542D01*
X134637690Y-100519079D01*
X134637694Y-100519077D01*
X134857302Y-100383179D01*
X134857306Y-100383176D01*
X134861275Y-100380720D01*
X134878268Y-100366334D01*
X135061960Y-100210828D01*
X135061961Y-100210827D01*
X135065526Y-100207809D01*
X135100820Y-100167564D01*
X135238894Y-100010122D01*
X135238898Y-100010117D01*
X135241976Y-100006607D01*
X135281432Y-99945266D01*
X135384219Y-99785465D01*
X135384222Y-99785460D01*
X135386747Y-99781534D01*
X135496661Y-99537534D01*
X135537617Y-99392317D01*
X135568032Y-99284473D01*
X135568033Y-99284470D01*
X135569302Y-99279969D01*
X135587103Y-99140041D01*
X135602677Y-99017625D01*
X135602677Y-99017621D01*
X135603075Y-99014495D01*
X135605549Y-98920000D01*
X135585717Y-98653123D01*
X135575161Y-98606470D01*
X135527686Y-98396666D01*
X135526655Y-98392109D01*
X135521992Y-98380117D01*
X135431355Y-98147044D01*
X135431354Y-98147042D01*
X135429662Y-98142691D01*
X135296868Y-97910350D01*
X135131190Y-97700189D01*
X134936269Y-97516825D01*
X134716385Y-97364286D01*
X134707025Y-97359670D01*
X134480559Y-97247989D01*
X134480556Y-97247988D01*
X134476371Y-97245924D01*
X134221497Y-97164338D01*
X134013886Y-97130527D01*
X133961976Y-97122073D01*
X133961975Y-97122073D01*
X133957364Y-97121322D01*
X133823569Y-97119571D01*
X133694451Y-97117880D01*
X133694448Y-97117880D01*
X133689774Y-97117819D01*
X133424605Y-97153907D01*
X133420118Y-97155215D01*
X133420117Y-97155215D01*
X133388817Y-97164338D01*
X133167683Y-97228792D01*
X133163430Y-97230752D01*
X133163429Y-97230753D01*
X133111512Y-97254687D01*
X132924652Y-97340831D01*
X132920743Y-97343394D01*
X132704764Y-97484996D01*
X132704759Y-97485000D01*
X132700851Y-97487562D01*
X132642299Y-97539822D01*
X132510610Y-97657359D01*
X132501197Y-97665760D01*
X132330075Y-97871512D01*
X132327652Y-97875505D01*
X132198662Y-98088074D01*
X132191244Y-98100298D01*
X132189437Y-98104606D01*
X132189437Y-98104607D01*
X132131004Y-98243955D01*
X132087755Y-98347091D01*
X132086604Y-98351623D01*
X132086603Y-98351626D01*
X132024026Y-98598024D01*
X132021881Y-98606470D01*
X131995070Y-98872736D01*
X130762262Y-98872736D01*
X130765181Y-98649774D01*
X130729093Y-98384605D01*
X130725498Y-98372269D01*
X130655519Y-98132182D01*
X130654208Y-98127683D01*
X130542169Y-97884652D01*
X130423634Y-97703857D01*
X130398004Y-97664764D01*
X130398000Y-97664759D01*
X130395438Y-97660851D01*
X130291474Y-97544369D01*
X130220357Y-97464689D01*
X130220355Y-97464687D01*
X130217240Y-97461197D01*
X130011488Y-97290075D01*
X129969419Y-97264547D01*
X129786694Y-97153666D01*
X129786690Y-97153664D01*
X129782702Y-97151244D01*
X129756413Y-97140220D01*
X129540224Y-97049564D01*
X129540219Y-97049562D01*
X129535909Y-97047755D01*
X129531377Y-97046604D01*
X129531374Y-97046603D01*
X129281067Y-96983033D01*
X129281064Y-96983032D01*
X129276530Y-96981881D01*
X129271874Y-96981412D01*
X129271873Y-96981412D01*
X129057398Y-96959816D01*
X129057397Y-96959816D01*
X129054259Y-96959500D01*
X128095056Y-96959500D01*
X128092733Y-96959673D01*
X128092723Y-96959673D01*
X127900788Y-96973936D01*
X127900784Y-96973937D01*
X127896123Y-96974283D01*
X127891559Y-96975316D01*
X127891557Y-96975316D01*
X127752235Y-97006842D01*
X127635109Y-97033345D01*
X127630757Y-97035037D01*
X127630755Y-97035038D01*
X127390044Y-97128645D01*
X127390042Y-97128646D01*
X127385691Y-97130338D01*
X127381637Y-97132655D01*
X127381635Y-97132656D01*
X127344454Y-97153907D01*
X127153350Y-97263132D01*
X126943189Y-97428810D01*
X126759825Y-97623731D01*
X126607286Y-97843615D01*
X126605220Y-97847804D01*
X126605219Y-97847806D01*
X126494012Y-98073312D01*
X126488924Y-98083629D01*
X126407338Y-98338503D01*
X126364322Y-98602636D01*
X126363437Y-98670228D01*
X126361057Y-98852072D01*
X126360819Y-98870226D01*
X126396907Y-99135395D01*
X126398215Y-99139882D01*
X126398215Y-99139883D01*
X126409002Y-99176891D01*
X126471792Y-99392317D01*
X126583831Y-99635348D01*
X126616072Y-99684524D01*
X126727996Y-99855236D01*
X126728000Y-99855241D01*
X126730562Y-99859149D01*
X126754528Y-99886001D01*
X126807424Y-99945266D01*
X126837862Y-100009407D01*
X126828790Y-100079822D01*
X126805196Y-100115500D01*
X126775633Y-100146927D01*
X126759825Y-100163731D01*
X126607286Y-100383615D01*
X126605220Y-100387804D01*
X126605219Y-100387806D01*
X126517476Y-100565732D01*
X126488924Y-100623629D01*
X126407338Y-100878503D01*
X126364322Y-101142636D01*
X126364261Y-101147313D01*
X126361529Y-101356023D01*
X126360819Y-101410226D01*
X97929773Y-101410226D01*
X97899564Y-101352072D01*
X97807832Y-101223705D01*
X97784500Y-101156652D01*
X97801123Y-101087629D01*
X97810184Y-101074005D01*
X97863102Y-101004666D01*
X97865804Y-101001126D01*
X98004230Y-100753947D01*
X98019707Y-100713943D01*
X98104841Y-100493885D01*
X98104843Y-100493879D01*
X98106448Y-100489730D01*
X98170418Y-100213747D01*
X98194863Y-99931503D01*
X98191640Y-99872936D01*
X98179540Y-99653073D01*
X98179539Y-99653066D01*
X98179295Y-99648630D01*
X98134514Y-99423499D01*
X98124896Y-99375146D01*
X98124895Y-99375141D01*
X98124026Y-99370774D01*
X98102779Y-99310270D01*
X98031636Y-99107684D01*
X98031635Y-99107681D01*
X98030158Y-99103476D01*
X98028105Y-99099523D01*
X98028102Y-99099517D01*
X97907880Y-98868081D01*
X97899564Y-98852072D01*
X97896981Y-98848457D01*
X97896977Y-98848451D01*
X97767142Y-98666766D01*
X97734849Y-98621576D01*
X97720439Y-98606470D01*
X97542376Y-98419811D01*
X97542373Y-98419808D01*
X97539301Y-98416588D01*
X97316820Y-98241199D01*
X97140243Y-98138635D01*
X97075693Y-98101141D01*
X97075687Y-98101138D01*
X97071846Y-98098907D01*
X97045101Y-98088074D01*
X96813394Y-97994223D01*
X96813391Y-97994222D01*
X96809268Y-97992552D01*
X96804955Y-97991481D01*
X96804950Y-97991479D01*
X96538644Y-97925328D01*
X96538639Y-97925327D01*
X96534323Y-97924255D01*
X96529895Y-97923801D01*
X96529893Y-97923801D01*
X96447282Y-97915337D01*
X96292710Y-97899500D01*
X95117330Y-97899500D01*
X94906907Y-97914399D01*
X94902552Y-97915337D01*
X94902549Y-97915337D01*
X94634300Y-97973089D01*
X94634298Y-97973089D01*
X94629953Y-97974025D01*
X94364163Y-98072080D01*
X94114840Y-98206607D01*
X93886960Y-98374922D01*
X93883781Y-98378051D01*
X93883778Y-98378054D01*
X93847434Y-98413832D01*
X93685070Y-98573666D01*
X93682369Y-98577206D01*
X93682363Y-98577212D01*
X93515898Y-98795333D01*
X93513196Y-98798874D01*
X93511021Y-98802758D01*
X93445363Y-98920000D01*
X93374770Y-99046053D01*
X93373162Y-99050211D01*
X93373159Y-99050216D01*
X93282532Y-99284473D01*
X93272552Y-99310270D01*
X93208582Y-99586253D01*
X93184137Y-99868497D01*
X93184381Y-99872932D01*
X93184381Y-99872936D01*
X93198084Y-100121908D01*
X93199705Y-100151370D01*
X93214736Y-100226936D01*
X93253287Y-100420743D01*
X93254974Y-100429226D01*
X93256450Y-100433429D01*
X93340294Y-100672182D01*
X93348842Y-100696524D01*
X93350895Y-100700477D01*
X93350898Y-100700483D01*
X93424860Y-100842865D01*
X93479436Y-100947928D01*
X93538871Y-101031100D01*
X93571168Y-101076295D01*
X93594500Y-101143348D01*
X93577877Y-101212371D01*
X93568819Y-101225991D01*
X93513196Y-101298874D01*
X93511021Y-101302758D01*
X93453456Y-101405549D01*
X93374770Y-101546053D01*
X93373162Y-101550211D01*
X93373159Y-101550216D01*
X93305176Y-101725942D01*
X93272552Y-101810270D01*
X93208582Y-102086253D01*
X93184137Y-102368497D01*
X93184381Y-102372932D01*
X93184381Y-102372936D01*
X93196977Y-102601796D01*
X93199705Y-102651370D01*
X93222693Y-102766936D01*
X93251262Y-102910563D01*
X93254974Y-102929226D01*
X93256450Y-102933429D01*
X93343039Y-103179998D01*
X93348842Y-103196524D01*
X93350895Y-103200477D01*
X93350898Y-103200483D01*
X93416995Y-103327724D01*
X93479436Y-103447928D01*
X93538871Y-103531100D01*
X93571168Y-103576295D01*
X93594500Y-103643348D01*
X93577877Y-103712371D01*
X93568819Y-103725991D01*
X93513196Y-103798874D01*
X93374770Y-104046053D01*
X93373162Y-104050211D01*
X93373159Y-104050216D01*
X93274159Y-104306115D01*
X93272552Y-104310270D01*
X93208582Y-104586253D01*
X93184137Y-104868497D01*
X89895221Y-104868497D01*
X89895918Y-97757318D01*
X99189000Y-97757318D01*
X99228434Y-98069473D01*
X99236349Y-98100298D01*
X99305694Y-98370383D01*
X99305697Y-98370391D01*
X99306681Y-98374225D01*
X99422506Y-98666766D01*
X99574084Y-98942484D01*
X99576412Y-98945688D01*
X99576415Y-98945693D01*
X99750966Y-99185942D01*
X99759022Y-99197030D01*
X99974406Y-99426390D01*
X100216837Y-99626947D01*
X100482493Y-99795537D01*
X100486072Y-99797221D01*
X100486079Y-99797225D01*
X100763595Y-99927814D01*
X100763599Y-99927816D01*
X100767185Y-99929503D01*
X100770957Y-99930729D01*
X100770958Y-99930729D01*
X100813341Y-99944500D01*
X101066421Y-100026731D01*
X101375485Y-100085688D01*
X101462938Y-100091190D01*
X101608922Y-100100375D01*
X101608938Y-100100376D01*
X101610917Y-100100500D01*
X103768083Y-100100500D01*
X103770062Y-100100376D01*
X103770078Y-100100375D01*
X103916062Y-100091190D01*
X104003515Y-100085688D01*
X104312579Y-100026731D01*
X104565659Y-99944500D01*
X104608042Y-99930729D01*
X104608043Y-99930729D01*
X104611815Y-99929503D01*
X104615401Y-99927816D01*
X104615405Y-99927814D01*
X104892921Y-99797225D01*
X104892928Y-99797221D01*
X104896507Y-99795537D01*
X105162163Y-99626947D01*
X105404594Y-99426390D01*
X105619978Y-99197030D01*
X105628034Y-99185942D01*
X105802585Y-98945693D01*
X105802588Y-98945688D01*
X105804916Y-98942484D01*
X105843260Y-98872736D01*
X111595070Y-98872736D01*
X111595294Y-98877403D01*
X111595294Y-98877408D01*
X111597340Y-98920000D01*
X111607909Y-99140041D01*
X111660118Y-99402512D01*
X111750549Y-99654383D01*
X111752765Y-99658507D01*
X111863215Y-99864065D01*
X111877215Y-99890121D01*
X111880010Y-99893864D01*
X111880012Y-99893867D01*
X112034313Y-100100500D01*
X112037335Y-100104547D01*
X112040642Y-100107825D01*
X112040647Y-100107831D01*
X112193331Y-100259187D01*
X112227390Y-100292950D01*
X112231156Y-100295712D01*
X112231158Y-100295713D01*
X112401678Y-100420743D01*
X112443205Y-100451192D01*
X112447340Y-100453368D01*
X112447344Y-100453370D01*
X112576918Y-100521542D01*
X112680039Y-100575797D01*
X112684458Y-100577340D01*
X112928273Y-100662484D01*
X112928279Y-100662486D01*
X112932690Y-100664026D01*
X113195606Y-100713943D01*
X113322616Y-100718933D01*
X113458345Y-100724266D01*
X113458350Y-100724266D01*
X113463013Y-100724449D01*
X113558943Y-100713943D01*
X113724382Y-100695825D01*
X113724387Y-100695824D01*
X113729035Y-100695315D01*
X113844567Y-100664898D01*
X113983309Y-100628370D01*
X113987829Y-100627180D01*
X114130854Y-100565732D01*
X114229407Y-100523391D01*
X114229410Y-100523389D01*
X114233710Y-100521542D01*
X114237690Y-100519079D01*
X114237694Y-100519077D01*
X114457302Y-100383179D01*
X114457306Y-100383176D01*
X114461275Y-100380720D01*
X114478268Y-100366334D01*
X114661960Y-100210828D01*
X114661961Y-100210827D01*
X114665526Y-100207809D01*
X114700820Y-100167564D01*
X114838894Y-100010122D01*
X114838898Y-100010117D01*
X114841976Y-100006607D01*
X114881432Y-99945266D01*
X114984219Y-99785465D01*
X114984222Y-99785460D01*
X114986747Y-99781534D01*
X115096661Y-99537534D01*
X115137617Y-99392317D01*
X115168032Y-99284473D01*
X115168033Y-99284470D01*
X115169302Y-99279969D01*
X115187103Y-99140041D01*
X115202677Y-99017625D01*
X115202677Y-99017621D01*
X115203075Y-99014495D01*
X115205549Y-98920000D01*
X115201850Y-98870226D01*
X118740819Y-98870226D01*
X118776907Y-99135395D01*
X118778215Y-99139882D01*
X118778215Y-99139883D01*
X118789002Y-99176891D01*
X118851792Y-99392317D01*
X118963831Y-99635348D01*
X118996072Y-99684524D01*
X119107996Y-99855236D01*
X119108000Y-99855241D01*
X119110562Y-99859149D01*
X119171848Y-99927814D01*
X119267336Y-100034799D01*
X119288760Y-100058803D01*
X119494512Y-100229925D01*
X119498505Y-100232348D01*
X119719306Y-100366334D01*
X119719310Y-100366336D01*
X119723298Y-100368756D01*
X119727606Y-100370563D01*
X119727607Y-100370563D01*
X119965776Y-100470436D01*
X119965781Y-100470438D01*
X119970091Y-100472245D01*
X119974623Y-100473396D01*
X119974626Y-100473397D01*
X120224933Y-100536967D01*
X120224936Y-100536968D01*
X120229470Y-100538119D01*
X120234126Y-100538588D01*
X120234127Y-100538588D01*
X120448602Y-100560184D01*
X120448603Y-100560184D01*
X120451741Y-100560500D01*
X121410944Y-100560500D01*
X121413267Y-100560327D01*
X121413277Y-100560327D01*
X121605212Y-100546064D01*
X121605216Y-100546063D01*
X121609877Y-100545717D01*
X121614441Y-100544684D01*
X121614443Y-100544684D01*
X121838939Y-100493885D01*
X121870891Y-100486655D01*
X121887331Y-100480262D01*
X122115956Y-100391355D01*
X122115958Y-100391354D01*
X122120309Y-100389662D01*
X122130846Y-100383640D01*
X122284685Y-100295713D01*
X122352650Y-100256868D01*
X122562811Y-100091190D01*
X122746175Y-99896269D01*
X122898714Y-99676385D01*
X122900781Y-99672194D01*
X123015011Y-99440559D01*
X123015012Y-99440556D01*
X123017076Y-99436371D01*
X123021197Y-99423499D01*
X123097239Y-99185942D01*
X123098662Y-99181497D01*
X123141678Y-98917364D01*
X123145181Y-98649774D01*
X123109093Y-98384605D01*
X123105498Y-98372269D01*
X123035519Y-98132182D01*
X123034208Y-98127683D01*
X122922169Y-97884652D01*
X122803634Y-97703857D01*
X122778004Y-97664764D01*
X122778000Y-97664759D01*
X122775438Y-97660851D01*
X122742307Y-97623731D01*
X122698576Y-97574734D01*
X122668138Y-97510593D01*
X122677210Y-97440178D01*
X122700804Y-97404500D01*
X122742976Y-97359670D01*
X122742978Y-97359667D01*
X122746175Y-97356269D01*
X122898714Y-97136385D01*
X122906142Y-97121322D01*
X123015011Y-96900559D01*
X123015012Y-96900556D01*
X123017076Y-96896371D01*
X123098662Y-96641497D01*
X123141678Y-96377364D01*
X123143730Y-96220587D01*
X123145120Y-96114451D01*
X123145120Y-96114448D01*
X123145181Y-96109774D01*
X123109093Y-95844605D01*
X123034208Y-95587683D01*
X123027464Y-95573053D01*
X122999145Y-95511626D01*
X122922169Y-95344652D01*
X122840565Y-95220185D01*
X122778004Y-95124764D01*
X122778000Y-95124759D01*
X122775438Y-95120851D01*
X122742307Y-95083731D01*
X122698576Y-95034734D01*
X122668138Y-94970593D01*
X122677210Y-94900178D01*
X122700804Y-94864500D01*
X122742976Y-94819670D01*
X122742978Y-94819667D01*
X122746175Y-94816269D01*
X122898714Y-94596385D01*
X122932957Y-94526947D01*
X123015011Y-94360559D01*
X123015012Y-94360556D01*
X123017076Y-94356371D01*
X123098662Y-94101497D01*
X123141678Y-93837364D01*
X123142295Y-93790226D01*
X126360819Y-93790226D01*
X126396907Y-94055395D01*
X126471792Y-94312317D01*
X126583831Y-94555348D01*
X126616072Y-94604524D01*
X126727996Y-94775236D01*
X126728000Y-94775241D01*
X126730562Y-94779149D01*
X126769382Y-94822643D01*
X126881746Y-94948536D01*
X126908760Y-94978803D01*
X127114512Y-95149925D01*
X127118505Y-95152348D01*
X127339306Y-95286334D01*
X127339310Y-95286336D01*
X127343298Y-95288756D01*
X127347606Y-95290563D01*
X127347607Y-95290563D01*
X127585776Y-95390436D01*
X127585781Y-95390438D01*
X127590091Y-95392245D01*
X127594623Y-95393396D01*
X127594626Y-95393397D01*
X127844933Y-95456967D01*
X127844936Y-95456968D01*
X127849470Y-95458119D01*
X127854126Y-95458588D01*
X127854127Y-95458588D01*
X128068602Y-95480184D01*
X128068603Y-95480184D01*
X128071741Y-95480500D01*
X129030944Y-95480500D01*
X129033267Y-95480327D01*
X129033277Y-95480327D01*
X129225212Y-95466064D01*
X129225216Y-95466063D01*
X129229877Y-95465717D01*
X129234441Y-95464684D01*
X129234443Y-95464684D01*
X129397705Y-95427741D01*
X129490891Y-95406655D01*
X129496528Y-95404463D01*
X129735956Y-95311355D01*
X129735958Y-95311354D01*
X129740309Y-95309662D01*
X129759603Y-95298635D01*
X129826730Y-95260268D01*
X129972650Y-95176868D01*
X130182811Y-95011190D01*
X130366175Y-94816269D01*
X130518714Y-94596385D01*
X130552957Y-94526947D01*
X130635011Y-94360559D01*
X130635012Y-94360556D01*
X130637076Y-94356371D01*
X130718662Y-94101497D01*
X130761678Y-93837364D01*
X130765181Y-93569774D01*
X130729093Y-93304605D01*
X130654208Y-93047683D01*
X130542169Y-92804652D01*
X130436421Y-92643360D01*
X130398004Y-92584764D01*
X130398000Y-92584759D01*
X130395438Y-92580851D01*
X130362307Y-92543731D01*
X130318576Y-92494734D01*
X130288138Y-92430593D01*
X130297210Y-92360178D01*
X130320804Y-92324500D01*
X130362976Y-92279670D01*
X130362978Y-92279667D01*
X130366175Y-92276269D01*
X130518714Y-92056385D01*
X130541045Y-92011102D01*
X130635011Y-91820559D01*
X130635012Y-91820556D01*
X130637076Y-91816371D01*
X130718662Y-91561497D01*
X130761678Y-91297364D01*
X130765181Y-91029774D01*
X130729093Y-90764605D01*
X130654208Y-90507683D01*
X130542169Y-90264652D01*
X130509928Y-90215476D01*
X130398004Y-90044764D01*
X130398000Y-90044759D01*
X130395438Y-90040851D01*
X130306339Y-89941024D01*
X130220357Y-89844689D01*
X130220355Y-89844687D01*
X130217240Y-89841197D01*
X130011488Y-89670075D01*
X129961845Y-89639951D01*
X129786694Y-89533666D01*
X129786690Y-89533664D01*
X129782702Y-89531244D01*
X129756413Y-89520220D01*
X129540224Y-89429564D01*
X129540219Y-89429562D01*
X129535909Y-89427755D01*
X129531377Y-89426604D01*
X129531374Y-89426603D01*
X129281067Y-89363033D01*
X129281064Y-89363032D01*
X129276530Y-89361881D01*
X129271874Y-89361412D01*
X129271873Y-89361412D01*
X129057398Y-89339816D01*
X129057397Y-89339816D01*
X129054259Y-89339500D01*
X128095056Y-89339500D01*
X128092733Y-89339673D01*
X128092723Y-89339673D01*
X127900788Y-89353936D01*
X127900784Y-89353937D01*
X127896123Y-89354283D01*
X127891559Y-89355316D01*
X127891557Y-89355316D01*
X127752235Y-89386842D01*
X127635109Y-89413345D01*
X127630757Y-89415037D01*
X127630755Y-89415038D01*
X127390044Y-89508645D01*
X127390042Y-89508646D01*
X127385691Y-89510338D01*
X127381637Y-89512655D01*
X127381635Y-89512656D01*
X127299270Y-89559732D01*
X127153350Y-89643132D01*
X126943189Y-89808810D01*
X126759825Y-90003731D01*
X126607286Y-90223615D01*
X126488924Y-90463629D01*
X126407338Y-90718503D01*
X126364322Y-90982636D01*
X126360819Y-91250226D01*
X126396907Y-91515395D01*
X126471792Y-91772317D01*
X126583831Y-92015348D01*
X126616072Y-92064524D01*
X126727996Y-92235236D01*
X126728000Y-92235241D01*
X126730562Y-92239149D01*
X126733679Y-92242641D01*
X126807424Y-92325266D01*
X126837862Y-92389407D01*
X126828790Y-92459822D01*
X126805196Y-92495500D01*
X126759825Y-92543731D01*
X126607286Y-92763615D01*
X126605220Y-92767804D01*
X126605219Y-92767806D01*
X126505899Y-92969208D01*
X126488924Y-93003629D01*
X126487502Y-93008072D01*
X126487501Y-93008074D01*
X126459755Y-93094753D01*
X126407338Y-93258503D01*
X126364322Y-93522636D01*
X126360819Y-93790226D01*
X123142295Y-93790226D01*
X123145181Y-93569774D01*
X123109093Y-93304605D01*
X123034208Y-93047683D01*
X122922169Y-92804652D01*
X122816421Y-92643360D01*
X122778004Y-92584764D01*
X122778000Y-92584759D01*
X122775438Y-92580851D01*
X122742307Y-92543731D01*
X122698576Y-92494734D01*
X122668138Y-92430593D01*
X122677210Y-92360178D01*
X122700804Y-92324500D01*
X122742976Y-92279670D01*
X122742978Y-92279667D01*
X122746175Y-92276269D01*
X122898714Y-92056385D01*
X122921045Y-92011102D01*
X123015011Y-91820559D01*
X123015012Y-91820556D01*
X123017076Y-91816371D01*
X123098662Y-91561497D01*
X123141678Y-91297364D01*
X123145181Y-91029774D01*
X123109093Y-90764605D01*
X123034208Y-90507683D01*
X122922169Y-90264652D01*
X122889928Y-90215476D01*
X122778004Y-90044764D01*
X122778000Y-90044759D01*
X122775438Y-90040851D01*
X122742307Y-90003731D01*
X122698576Y-89954734D01*
X122668138Y-89890593D01*
X122677210Y-89820178D01*
X122700804Y-89784500D01*
X122742976Y-89739670D01*
X122742978Y-89739667D01*
X122746175Y-89736269D01*
X122898714Y-89516385D01*
X122921045Y-89471102D01*
X123015011Y-89280559D01*
X123015012Y-89280556D01*
X123017076Y-89276371D01*
X123040099Y-89204449D01*
X123071235Y-89107180D01*
X123098662Y-89021497D01*
X123141678Y-88757364D01*
X123145181Y-88489774D01*
X123109093Y-88224605D01*
X123034208Y-87967683D01*
X122922169Y-87724652D01*
X122881410Y-87662484D01*
X122778004Y-87504764D01*
X122778000Y-87504759D01*
X122775438Y-87500851D01*
X122742307Y-87463731D01*
X122698576Y-87414734D01*
X122668138Y-87350593D01*
X122677210Y-87280178D01*
X122700804Y-87244500D01*
X122742976Y-87199670D01*
X122742978Y-87199667D01*
X122746175Y-87196269D01*
X122898714Y-86976385D01*
X122921045Y-86931102D01*
X123015011Y-86740559D01*
X123015012Y-86740556D01*
X123017076Y-86736371D01*
X123098662Y-86481497D01*
X123137985Y-86240041D01*
X123140927Y-86221976D01*
X123140927Y-86221975D01*
X123141678Y-86217364D01*
X123142295Y-86170226D01*
X126360819Y-86170226D01*
X126396907Y-86435395D01*
X126471792Y-86692317D01*
X126583831Y-86935348D01*
X126616072Y-86984524D01*
X126727996Y-87155236D01*
X126728000Y-87155241D01*
X126730562Y-87159149D01*
X126767743Y-87200807D01*
X126838585Y-87280178D01*
X126908760Y-87358803D01*
X126954507Y-87396850D01*
X127104433Y-87521542D01*
X127114512Y-87529925D01*
X127118505Y-87532348D01*
X127339306Y-87666334D01*
X127339310Y-87666336D01*
X127343298Y-87668756D01*
X127347606Y-87670563D01*
X127347607Y-87670563D01*
X127585776Y-87770436D01*
X127585781Y-87770438D01*
X127590091Y-87772245D01*
X127594623Y-87773396D01*
X127594626Y-87773397D01*
X127844933Y-87836967D01*
X127844936Y-87836968D01*
X127849470Y-87838119D01*
X127854126Y-87838588D01*
X127854127Y-87838588D01*
X128068602Y-87860184D01*
X128068603Y-87860184D01*
X128071741Y-87860500D01*
X129030944Y-87860500D01*
X129033267Y-87860327D01*
X129033277Y-87860327D01*
X129225212Y-87846064D01*
X129225216Y-87846063D01*
X129229877Y-87845717D01*
X129234441Y-87844684D01*
X129234443Y-87844684D01*
X129374146Y-87813072D01*
X129490891Y-87786655D01*
X129524984Y-87773397D01*
X129735956Y-87691355D01*
X129735958Y-87691354D01*
X129740309Y-87689662D01*
X129781125Y-87666334D01*
X129849630Y-87627180D01*
X129972650Y-87556868D01*
X130182811Y-87391190D01*
X130366175Y-87196269D01*
X130518714Y-86976385D01*
X130541045Y-86931102D01*
X130635011Y-86740559D01*
X130635012Y-86740556D01*
X130637076Y-86736371D01*
X130718662Y-86481497D01*
X130757985Y-86240041D01*
X130760927Y-86221976D01*
X130760927Y-86221975D01*
X130761678Y-86217364D01*
X130764819Y-85977408D01*
X130764880Y-85972736D01*
X131995070Y-85972736D01*
X131995294Y-85977403D01*
X131995294Y-85977408D01*
X131997189Y-86016850D01*
X132007909Y-86240041D01*
X132060118Y-86502512D01*
X132150549Y-86754383D01*
X132152765Y-86758507D01*
X132267583Y-86972194D01*
X132277215Y-86990121D01*
X132280010Y-86993864D01*
X132280012Y-86993867D01*
X132433692Y-87199669D01*
X132437335Y-87204547D01*
X132440642Y-87207825D01*
X132440647Y-87207831D01*
X132595963Y-87361796D01*
X132627390Y-87392950D01*
X132631156Y-87395712D01*
X132631158Y-87395713D01*
X132719285Y-87460330D01*
X132843205Y-87551192D01*
X132847340Y-87553368D01*
X132847344Y-87553370D01*
X132974065Y-87620041D01*
X133080039Y-87675797D01*
X133137391Y-87695825D01*
X133328273Y-87762484D01*
X133328279Y-87762486D01*
X133332690Y-87764026D01*
X133595606Y-87813943D01*
X133722616Y-87818933D01*
X133858345Y-87824266D01*
X133858350Y-87824266D01*
X133863013Y-87824449D01*
X133958943Y-87813943D01*
X134124382Y-87795825D01*
X134124387Y-87795824D01*
X134129035Y-87795315D01*
X134168359Y-87784962D01*
X134383309Y-87728370D01*
X134387829Y-87727180D01*
X134529453Y-87666334D01*
X134629407Y-87623391D01*
X134629410Y-87623389D01*
X134633710Y-87621542D01*
X134637690Y-87619079D01*
X134637694Y-87619077D01*
X134857302Y-87483179D01*
X134857306Y-87483176D01*
X134861275Y-87480720D01*
X134952893Y-87403160D01*
X135061960Y-87310828D01*
X135061961Y-87310827D01*
X135065526Y-87307809D01*
X135121047Y-87244500D01*
X135238894Y-87110122D01*
X135238898Y-87110117D01*
X135241976Y-87106607D01*
X135251933Y-87091127D01*
X135384219Y-86885465D01*
X135384222Y-86885460D01*
X135386747Y-86881534D01*
X135496661Y-86637534D01*
X135497931Y-86633031D01*
X135568032Y-86384473D01*
X135568033Y-86384470D01*
X135569302Y-86379969D01*
X135587103Y-86240041D01*
X135602677Y-86117625D01*
X135602677Y-86117621D01*
X135603075Y-86114495D01*
X135605549Y-86020000D01*
X135600678Y-85954451D01*
X135594606Y-85872736D01*
X137795070Y-85872736D01*
X137795294Y-85877403D01*
X137795294Y-85877408D01*
X137800902Y-85994166D01*
X137807909Y-86140041D01*
X137860118Y-86402512D01*
X137861698Y-86406912D01*
X137861698Y-86406913D01*
X137886823Y-86476891D01*
X137950549Y-86654383D01*
X137952765Y-86658507D01*
X138070312Y-86877273D01*
X138077215Y-86890121D01*
X138080010Y-86893864D01*
X138080012Y-86893867D01*
X138164199Y-87006607D01*
X138237335Y-87104547D01*
X138240642Y-87107825D01*
X138240647Y-87107831D01*
X138378515Y-87244500D01*
X138427390Y-87292950D01*
X138431156Y-87295712D01*
X138431158Y-87295713D01*
X138594527Y-87415500D01*
X138643205Y-87451192D01*
X138647340Y-87453368D01*
X138647344Y-87453370D01*
X138776918Y-87521542D01*
X138880039Y-87575797D01*
X138884458Y-87577340D01*
X139128273Y-87662484D01*
X139128279Y-87662486D01*
X139132690Y-87664026D01*
X139137283Y-87664898D01*
X139276634Y-87691355D01*
X139395606Y-87713943D01*
X139522616Y-87718933D01*
X139658345Y-87724266D01*
X139658350Y-87724266D01*
X139663013Y-87724449D01*
X139758943Y-87713943D01*
X139924382Y-87695825D01*
X139924387Y-87695824D01*
X139929035Y-87695315D01*
X140023050Y-87670563D01*
X140183309Y-87628370D01*
X140187829Y-87627180D01*
X140351486Y-87556868D01*
X140429407Y-87523391D01*
X140429410Y-87523389D01*
X140433710Y-87521542D01*
X140437690Y-87519079D01*
X140437694Y-87519077D01*
X140657302Y-87383179D01*
X140657306Y-87383176D01*
X140661275Y-87380720D01*
X140694331Y-87352736D01*
X140861960Y-87210828D01*
X140861961Y-87210827D01*
X140865526Y-87207809D01*
X140908200Y-87159149D01*
X141038894Y-87010122D01*
X141038898Y-87010117D01*
X141041976Y-87006607D01*
X141058949Y-86980220D01*
X141184219Y-86785465D01*
X141184222Y-86785460D01*
X141186747Y-86781534D01*
X141296661Y-86537534D01*
X141307831Y-86497927D01*
X141368032Y-86284473D01*
X141368033Y-86284470D01*
X141369302Y-86279969D01*
X141387103Y-86140041D01*
X141402677Y-86017625D01*
X141402677Y-86017621D01*
X141403075Y-86014495D01*
X141405549Y-85920000D01*
X141392809Y-85748557D01*
X141386064Y-85657788D01*
X141386063Y-85657784D01*
X141385717Y-85653123D01*
X141383560Y-85643588D01*
X141327686Y-85396666D01*
X141326655Y-85392109D01*
X141268550Y-85242691D01*
X141231355Y-85147044D01*
X141231354Y-85147042D01*
X141229662Y-85142691D01*
X141213909Y-85115128D01*
X141173933Y-85045186D01*
X141096868Y-84910350D01*
X140931190Y-84700189D01*
X140736269Y-84516825D01*
X140516385Y-84364286D01*
X140479151Y-84345924D01*
X140280559Y-84247989D01*
X140280556Y-84247988D01*
X140276371Y-84245924D01*
X140190543Y-84218450D01*
X140025942Y-84165761D01*
X140025944Y-84165761D01*
X140021497Y-84164338D01*
X139876134Y-84140665D01*
X139761976Y-84122073D01*
X139761975Y-84122073D01*
X139757364Y-84121322D01*
X139623569Y-84119570D01*
X139494451Y-84117880D01*
X139494448Y-84117880D01*
X139489774Y-84117819D01*
X139224605Y-84153907D01*
X139220118Y-84155215D01*
X139220117Y-84155215D01*
X139188817Y-84164338D01*
X138967683Y-84228792D01*
X138963430Y-84230752D01*
X138963429Y-84230753D01*
X138914571Y-84253277D01*
X138724652Y-84340831D01*
X138716884Y-84345924D01*
X138504764Y-84484996D01*
X138504759Y-84485000D01*
X138500851Y-84487562D01*
X138401024Y-84576661D01*
X138311831Y-84656269D01*
X138301197Y-84665760D01*
X138130075Y-84871512D01*
X138127652Y-84875505D01*
X138048052Y-85006682D01*
X137991244Y-85100298D01*
X137989437Y-85104606D01*
X137989437Y-85104607D01*
X137931534Y-85242691D01*
X137887755Y-85347091D01*
X137886604Y-85351623D01*
X137886603Y-85351626D01*
X137823918Y-85598450D01*
X137821881Y-85606470D01*
X137821412Y-85611126D01*
X137821412Y-85611127D01*
X137818192Y-85643109D01*
X137795070Y-85872736D01*
X135594606Y-85872736D01*
X135586064Y-85757788D01*
X135586063Y-85757784D01*
X135585717Y-85753123D01*
X135579563Y-85725924D01*
X135527686Y-85496666D01*
X135526655Y-85492109D01*
X135499947Y-85423429D01*
X135431355Y-85247044D01*
X135431354Y-85247042D01*
X135429662Y-85242691D01*
X135296868Y-85010350D01*
X135131190Y-84800189D01*
X134936269Y-84616825D01*
X134716385Y-84464286D01*
X134712194Y-84462219D01*
X134480559Y-84347989D01*
X134480556Y-84347988D01*
X134476371Y-84345924D01*
X134468468Y-84343394D01*
X134225942Y-84265761D01*
X134225944Y-84265761D01*
X134221497Y-84264338D01*
X134015274Y-84230753D01*
X133961976Y-84222073D01*
X133961975Y-84222073D01*
X133957364Y-84221322D01*
X133823569Y-84219570D01*
X133694451Y-84217880D01*
X133694448Y-84217880D01*
X133689774Y-84217819D01*
X133424605Y-84253907D01*
X133420118Y-84255215D01*
X133420117Y-84255215D01*
X133388817Y-84264338D01*
X133167683Y-84328792D01*
X133163430Y-84330752D01*
X133163429Y-84330753D01*
X133111512Y-84354687D01*
X132924652Y-84440831D01*
X132920743Y-84443394D01*
X132704764Y-84584996D01*
X132704759Y-84585000D01*
X132700851Y-84587562D01*
X132501197Y-84765760D01*
X132330075Y-84971512D01*
X132327652Y-84975505D01*
X132198162Y-85188898D01*
X132191244Y-85200298D01*
X132189437Y-85204606D01*
X132189437Y-85204607D01*
X132094007Y-85432182D01*
X132087755Y-85447091D01*
X132086604Y-85451623D01*
X132086603Y-85451626D01*
X132028574Y-85680117D01*
X132021881Y-85706470D01*
X131995070Y-85972736D01*
X130764880Y-85972736D01*
X130765120Y-85954451D01*
X130765120Y-85954448D01*
X130765181Y-85949774D01*
X130729093Y-85684605D01*
X130654208Y-85427683D01*
X130542169Y-85184652D01*
X130462101Y-85062528D01*
X130398004Y-84964764D01*
X130398000Y-84964759D01*
X130395438Y-84960851D01*
X130362307Y-84923731D01*
X130318576Y-84874734D01*
X130288138Y-84810593D01*
X130297210Y-84740178D01*
X130320804Y-84704500D01*
X130362976Y-84659670D01*
X130362978Y-84659667D01*
X130366175Y-84656269D01*
X130518714Y-84436385D01*
X130552957Y-84366947D01*
X130635011Y-84200559D01*
X130635012Y-84200556D01*
X130637076Y-84196371D01*
X130718662Y-83941497D01*
X130761678Y-83677364D01*
X130765181Y-83409774D01*
X130729093Y-83144605D01*
X130654208Y-82887683D01*
X130542169Y-82644652D01*
X130471031Y-82536149D01*
X130398004Y-82424764D01*
X130398000Y-82424759D01*
X130395438Y-82420851D01*
X130217240Y-82221197D01*
X130011488Y-82050075D01*
X129943619Y-82008891D01*
X129786694Y-81913666D01*
X129786690Y-81913664D01*
X129782702Y-81911244D01*
X129702163Y-81877471D01*
X129540224Y-81809564D01*
X129540219Y-81809562D01*
X129535909Y-81807755D01*
X129531377Y-81806604D01*
X129531374Y-81806603D01*
X129281067Y-81743033D01*
X129281064Y-81743032D01*
X129276530Y-81741881D01*
X129271874Y-81741412D01*
X129271873Y-81741412D01*
X129057398Y-81719816D01*
X129057397Y-81719816D01*
X129054259Y-81719500D01*
X128095056Y-81719500D01*
X128092733Y-81719673D01*
X128092723Y-81719673D01*
X127900788Y-81733936D01*
X127900784Y-81733937D01*
X127896123Y-81734283D01*
X127891559Y-81735316D01*
X127891557Y-81735316D01*
X127752235Y-81766842D01*
X127635109Y-81793345D01*
X127630757Y-81795037D01*
X127630755Y-81795038D01*
X127390044Y-81888645D01*
X127390042Y-81888646D01*
X127385691Y-81890338D01*
X127381637Y-81892655D01*
X127381635Y-81892656D01*
X127299270Y-81939732D01*
X127153350Y-82023132D01*
X126943189Y-82188810D01*
X126759825Y-82383731D01*
X126607286Y-82603615D01*
X126488924Y-82843629D01*
X126407338Y-83098503D01*
X126364322Y-83362636D01*
X126360819Y-83630226D01*
X126396907Y-83895395D01*
X126471792Y-84152317D01*
X126583831Y-84395348D01*
X126613651Y-84440831D01*
X126727996Y-84615236D01*
X126728000Y-84615241D01*
X126730562Y-84619149D01*
X126733679Y-84622641D01*
X126807424Y-84705266D01*
X126837862Y-84769407D01*
X126828790Y-84839822D01*
X126805196Y-84875500D01*
X126772413Y-84910350D01*
X126759825Y-84923731D01*
X126607286Y-85143615D01*
X126605220Y-85147804D01*
X126605219Y-85147806D01*
X126506943Y-85347091D01*
X126488924Y-85383629D01*
X126487502Y-85388072D01*
X126487501Y-85388074D01*
X126484751Y-85396666D01*
X126407338Y-85638503D01*
X126406588Y-85643109D01*
X126368431Y-85877408D01*
X126364322Y-85902636D01*
X126363766Y-85945140D01*
X126361508Y-86117625D01*
X126360819Y-86170226D01*
X123142295Y-86170226D01*
X123144819Y-85977408D01*
X123145120Y-85954451D01*
X123145120Y-85954448D01*
X123145181Y-85949774D01*
X123109093Y-85684605D01*
X123034208Y-85427683D01*
X122922169Y-85184652D01*
X122919609Y-85180747D01*
X122919606Y-85180742D01*
X122886642Y-85130464D01*
X122866019Y-85062528D01*
X122885399Y-84994228D01*
X122894371Y-84981744D01*
X122978537Y-84878545D01*
X122978538Y-84878543D01*
X122982573Y-84873596D01*
X122985542Y-84867918D01*
X123037067Y-84769359D01*
X123076741Y-84693470D01*
X123132766Y-84498087D01*
X123138647Y-84432194D01*
X123143251Y-84380609D01*
X123143251Y-84380603D01*
X123143500Y-84377816D01*
X123143500Y-82662184D01*
X123141936Y-82644652D01*
X123133299Y-82547886D01*
X123132766Y-82541913D01*
X123076741Y-82346530D01*
X122982573Y-82166404D01*
X122890136Y-82053064D01*
X122858138Y-82013831D01*
X122854109Y-82008891D01*
X122732166Y-81909437D01*
X122701540Y-81884459D01*
X122701539Y-81884458D01*
X122696596Y-81880427D01*
X122516470Y-81786259D01*
X122321087Y-81730234D01*
X122289455Y-81727411D01*
X122203609Y-81719749D01*
X122203603Y-81719749D01*
X122200816Y-81719500D01*
X119685184Y-81719500D01*
X119682397Y-81719749D01*
X119682391Y-81719749D01*
X119596545Y-81727411D01*
X119564913Y-81730234D01*
X119369530Y-81786259D01*
X119189404Y-81880427D01*
X119184461Y-81884458D01*
X119184460Y-81884459D01*
X119153834Y-81909437D01*
X119031891Y-82008891D01*
X119027862Y-82013831D01*
X118995865Y-82053064D01*
X118903427Y-82166404D01*
X118809259Y-82346530D01*
X118753234Y-82541913D01*
X118752701Y-82547886D01*
X118744065Y-82644652D01*
X118742500Y-82662184D01*
X118742500Y-84377816D01*
X118742749Y-84380603D01*
X118742749Y-84380609D01*
X118747353Y-84432194D01*
X118753234Y-84498087D01*
X118809259Y-84693470D01*
X118848933Y-84769359D01*
X118900459Y-84867918D01*
X118903427Y-84873596D01*
X118907462Y-84878543D01*
X118907463Y-84878545D01*
X118990007Y-84979755D01*
X119017561Y-85045186D01*
X119005365Y-85115128D01*
X118995894Y-85131206D01*
X118989951Y-85139773D01*
X118987286Y-85143615D01*
X118985219Y-85147806D01*
X118985218Y-85147808D01*
X118886943Y-85347091D01*
X118868924Y-85383629D01*
X118867502Y-85388072D01*
X118867501Y-85388074D01*
X118864751Y-85396666D01*
X118787338Y-85638503D01*
X118786588Y-85643109D01*
X118748431Y-85877408D01*
X118744322Y-85902636D01*
X118743766Y-85945140D01*
X118741508Y-86117625D01*
X118740819Y-86170226D01*
X118776907Y-86435395D01*
X118851792Y-86692317D01*
X118963831Y-86935348D01*
X118996072Y-86984524D01*
X119107996Y-87155236D01*
X119108000Y-87155241D01*
X119110562Y-87159149D01*
X119113679Y-87162641D01*
X119187424Y-87245266D01*
X119217862Y-87309407D01*
X119208790Y-87379822D01*
X119185196Y-87415500D01*
X119149572Y-87453370D01*
X119139825Y-87463731D01*
X118987286Y-87683615D01*
X118985220Y-87687804D01*
X118985219Y-87687806D01*
X118889201Y-87882512D01*
X118868924Y-87923629D01*
X118787338Y-88178503D01*
X118786588Y-88183109D01*
X118755522Y-88373867D01*
X118744322Y-88442636D01*
X118740819Y-88710226D01*
X118776907Y-88975395D01*
X118851792Y-89232317D01*
X118963831Y-89475348D01*
X118996072Y-89524524D01*
X119107996Y-89695236D01*
X119108000Y-89695241D01*
X119110562Y-89699149D01*
X119113679Y-89702641D01*
X119187424Y-89785266D01*
X119217862Y-89849407D01*
X119208790Y-89919822D01*
X119185196Y-89955500D01*
X119139825Y-90003731D01*
X118987286Y-90223615D01*
X118868924Y-90463629D01*
X118787338Y-90718503D01*
X118744322Y-90982636D01*
X118740819Y-91250226D01*
X118776907Y-91515395D01*
X118851792Y-91772317D01*
X118963831Y-92015348D01*
X118996072Y-92064524D01*
X119107996Y-92235236D01*
X119108000Y-92235241D01*
X119110562Y-92239149D01*
X119113679Y-92242641D01*
X119187424Y-92325266D01*
X119217862Y-92389407D01*
X119208790Y-92459822D01*
X119185196Y-92495500D01*
X119139825Y-92543731D01*
X118987286Y-92763615D01*
X118985220Y-92767804D01*
X118985219Y-92767806D01*
X118885899Y-92969208D01*
X118868924Y-93003629D01*
X118867502Y-93008072D01*
X118867501Y-93008074D01*
X118839755Y-93094753D01*
X118787338Y-93258503D01*
X118744322Y-93522636D01*
X118740819Y-93790226D01*
X118776907Y-94055395D01*
X118851792Y-94312317D01*
X118963831Y-94555348D01*
X118996072Y-94604524D01*
X119107996Y-94775236D01*
X119108000Y-94775241D01*
X119110562Y-94779149D01*
X119113679Y-94782641D01*
X119187424Y-94865266D01*
X119217862Y-94929407D01*
X119208790Y-94999822D01*
X119185196Y-95035500D01*
X119152413Y-95070350D01*
X119139825Y-95083731D01*
X118987286Y-95303615D01*
X118985220Y-95307804D01*
X118985219Y-95307806D01*
X118886943Y-95507091D01*
X118868924Y-95543629D01*
X118867502Y-95548072D01*
X118867501Y-95548074D01*
X118864751Y-95556666D01*
X118787338Y-95798503D01*
X118786588Y-95803109D01*
X118748431Y-96037408D01*
X118744322Y-96062636D01*
X118742899Y-96171338D01*
X118741502Y-96278087D01*
X118740819Y-96330226D01*
X118776907Y-96595395D01*
X118851792Y-96852317D01*
X118963831Y-97095348D01*
X118993479Y-97140568D01*
X119107996Y-97315236D01*
X119108000Y-97315241D01*
X119110562Y-97319149D01*
X119113679Y-97322641D01*
X119187424Y-97405266D01*
X119217862Y-97469407D01*
X119208790Y-97539822D01*
X119185196Y-97575500D01*
X119139825Y-97623731D01*
X118987286Y-97843615D01*
X118985220Y-97847804D01*
X118985219Y-97847806D01*
X118874012Y-98073312D01*
X118868924Y-98083629D01*
X118787338Y-98338503D01*
X118744322Y-98602636D01*
X118743437Y-98670228D01*
X118741057Y-98852072D01*
X118740819Y-98870226D01*
X115201850Y-98870226D01*
X115185717Y-98653123D01*
X115175161Y-98606470D01*
X115127686Y-98396666D01*
X115126655Y-98392109D01*
X115121992Y-98380117D01*
X115031355Y-98147044D01*
X115031354Y-98147042D01*
X115029662Y-98142691D01*
X114896868Y-97910350D01*
X114731190Y-97700189D01*
X114536269Y-97516825D01*
X114316385Y-97364286D01*
X114307025Y-97359670D01*
X114080559Y-97247989D01*
X114080556Y-97247988D01*
X114076371Y-97245924D01*
X113821497Y-97164338D01*
X113613886Y-97130527D01*
X113561976Y-97122073D01*
X113561975Y-97122073D01*
X113557364Y-97121322D01*
X113423569Y-97119571D01*
X113294451Y-97117880D01*
X113294448Y-97117880D01*
X113289774Y-97117819D01*
X113024605Y-97153907D01*
X113020118Y-97155215D01*
X113020117Y-97155215D01*
X112988817Y-97164338D01*
X112767683Y-97228792D01*
X112763430Y-97230752D01*
X112763429Y-97230753D01*
X112711512Y-97254687D01*
X112524652Y-97340831D01*
X112520743Y-97343394D01*
X112304764Y-97484996D01*
X112304759Y-97485000D01*
X112300851Y-97487562D01*
X112242299Y-97539822D01*
X112110610Y-97657359D01*
X112101197Y-97665760D01*
X111930075Y-97871512D01*
X111927652Y-97875505D01*
X111798662Y-98088074D01*
X111791244Y-98100298D01*
X111789437Y-98104606D01*
X111789437Y-98104607D01*
X111731004Y-98243955D01*
X111687755Y-98347091D01*
X111686604Y-98351623D01*
X111686603Y-98351626D01*
X111624026Y-98598024D01*
X111621881Y-98606470D01*
X111595070Y-98872736D01*
X105843260Y-98872736D01*
X105956494Y-98666766D01*
X106072319Y-98374225D01*
X106073303Y-98370391D01*
X106073306Y-98370383D01*
X106142651Y-98100298D01*
X106150566Y-98069473D01*
X106190000Y-97757318D01*
X106190000Y-97442682D01*
X106154743Y-97163588D01*
X106151063Y-97134459D01*
X106151062Y-97134455D01*
X106150566Y-97130527D01*
X106103050Y-96945465D01*
X106073306Y-96829617D01*
X106073303Y-96829609D01*
X106072319Y-96825775D01*
X106069442Y-96818507D01*
X105968086Y-96562512D01*
X105956494Y-96533234D01*
X105804916Y-96257516D01*
X105760987Y-96197052D01*
X105622306Y-96006174D01*
X105622305Y-96006172D01*
X105619978Y-96002970D01*
X105437412Y-95808557D01*
X105407309Y-95776501D01*
X105407308Y-95776500D01*
X105404594Y-95773610D01*
X105162163Y-95573053D01*
X104896507Y-95404463D01*
X104892928Y-95402779D01*
X104892921Y-95402775D01*
X104615405Y-95272186D01*
X104615401Y-95272184D01*
X104611815Y-95270497D01*
X104312579Y-95173269D01*
X104003515Y-95114312D01*
X103910011Y-95108429D01*
X103770078Y-95099625D01*
X103770062Y-95099624D01*
X103768083Y-95099500D01*
X101610917Y-95099500D01*
X101608938Y-95099624D01*
X101608922Y-95099625D01*
X101468989Y-95108429D01*
X101375485Y-95114312D01*
X101066421Y-95173269D01*
X100767185Y-95270497D01*
X100763599Y-95272184D01*
X100763595Y-95272186D01*
X100486079Y-95402775D01*
X100486072Y-95402779D01*
X100482493Y-95404463D01*
X100216837Y-95573053D01*
X99974406Y-95773610D01*
X99971692Y-95776500D01*
X99971691Y-95776501D01*
X99941588Y-95808557D01*
X99759022Y-96002970D01*
X99756695Y-96006172D01*
X99756694Y-96006174D01*
X99618014Y-96197052D01*
X99574084Y-96257516D01*
X99422506Y-96533234D01*
X99410914Y-96562512D01*
X99309559Y-96818507D01*
X99306681Y-96825775D01*
X99305697Y-96829609D01*
X99305694Y-96829617D01*
X99275950Y-96945465D01*
X99228434Y-97130527D01*
X99227938Y-97134455D01*
X99227937Y-97134459D01*
X99224257Y-97163588D01*
X99189000Y-97442682D01*
X99189000Y-97757318D01*
X89895918Y-97757318D01*
X89896938Y-87352736D01*
X94615070Y-87352736D01*
X94615294Y-87357403D01*
X94615294Y-87357408D01*
X94620238Y-87460330D01*
X94627909Y-87620041D01*
X94628821Y-87624626D01*
X94638566Y-87673617D01*
X94680118Y-87882512D01*
X94681698Y-87886912D01*
X94681698Y-87886913D01*
X94696476Y-87928074D01*
X94770549Y-88134383D01*
X94772765Y-88138507D01*
X94840982Y-88265465D01*
X94897215Y-88370121D01*
X94900010Y-88373864D01*
X94900012Y-88373867D01*
X94983104Y-88485140D01*
X95057335Y-88584547D01*
X95060642Y-88587825D01*
X95060647Y-88587831D01*
X95226949Y-88752687D01*
X95247390Y-88772950D01*
X95463205Y-88931192D01*
X95467340Y-88933368D01*
X95467344Y-88933370D01*
X95596918Y-89001542D01*
X95700039Y-89055797D01*
X95704458Y-89057340D01*
X95948273Y-89142484D01*
X95948279Y-89142486D01*
X95952690Y-89144026D01*
X96215606Y-89193943D01*
X96342616Y-89198933D01*
X96478345Y-89204266D01*
X96478350Y-89204266D01*
X96483013Y-89204449D01*
X96578943Y-89193943D01*
X96744382Y-89175825D01*
X96744387Y-89175824D01*
X96749035Y-89175315D01*
X96790110Y-89164501D01*
X97003309Y-89108370D01*
X97007829Y-89107180D01*
X97196917Y-89025942D01*
X97249407Y-89003391D01*
X97249410Y-89003389D01*
X97253710Y-89001542D01*
X97257690Y-88999079D01*
X97257694Y-88999077D01*
X97477302Y-88863179D01*
X97477306Y-88863176D01*
X97481275Y-88860720D01*
X97495010Y-88849092D01*
X97681960Y-88690828D01*
X97681961Y-88690827D01*
X97685526Y-88687809D01*
X97779365Y-88580807D01*
X97858894Y-88490122D01*
X97858898Y-88490117D01*
X97861976Y-88486607D01*
X97890259Y-88442636D01*
X98004219Y-88265465D01*
X98004222Y-88265460D01*
X98006747Y-88261534D01*
X98116661Y-88017534D01*
X98129452Y-87972182D01*
X98188032Y-87764473D01*
X98188033Y-87764470D01*
X98189302Y-87759969D01*
X98207226Y-87619077D01*
X98222677Y-87497625D01*
X98222677Y-87497621D01*
X98223075Y-87494495D01*
X98223372Y-87483179D01*
X98225466Y-87403160D01*
X98225549Y-87400000D01*
X98225315Y-87396850D01*
X98222037Y-87352736D01*
X104775070Y-87352736D01*
X104775294Y-87357403D01*
X104775294Y-87357408D01*
X104780238Y-87460330D01*
X104787909Y-87620041D01*
X104788821Y-87624626D01*
X104798566Y-87673617D01*
X104840118Y-87882512D01*
X104841698Y-87886912D01*
X104841698Y-87886913D01*
X104856476Y-87928074D01*
X104930549Y-88134383D01*
X104932765Y-88138507D01*
X105000982Y-88265465D01*
X105057215Y-88370121D01*
X105060010Y-88373864D01*
X105060012Y-88373867D01*
X105143104Y-88485140D01*
X105217335Y-88584547D01*
X105220642Y-88587825D01*
X105220647Y-88587831D01*
X105386949Y-88752687D01*
X105407390Y-88772950D01*
X105623205Y-88931192D01*
X105627340Y-88933368D01*
X105627344Y-88933370D01*
X105756918Y-89001542D01*
X105860039Y-89055797D01*
X105864458Y-89057340D01*
X106108273Y-89142484D01*
X106108279Y-89142486D01*
X106112690Y-89144026D01*
X106375606Y-89193943D01*
X106502616Y-89198933D01*
X106638345Y-89204266D01*
X106638350Y-89204266D01*
X106643013Y-89204449D01*
X106738943Y-89193943D01*
X106904382Y-89175825D01*
X106904387Y-89175824D01*
X106909035Y-89175315D01*
X106950110Y-89164501D01*
X107163309Y-89108370D01*
X107167829Y-89107180D01*
X107356917Y-89025942D01*
X107409407Y-89003391D01*
X107409410Y-89003389D01*
X107413710Y-89001542D01*
X107417690Y-88999079D01*
X107417694Y-88999077D01*
X107637302Y-88863179D01*
X107637306Y-88863176D01*
X107641275Y-88860720D01*
X107655010Y-88849092D01*
X107841960Y-88690828D01*
X107841961Y-88690827D01*
X107845526Y-88687809D01*
X107939365Y-88580807D01*
X108018894Y-88490122D01*
X108018898Y-88490117D01*
X108021976Y-88486607D01*
X108050259Y-88442636D01*
X108164219Y-88265465D01*
X108164222Y-88265460D01*
X108166747Y-88261534D01*
X108276661Y-88017534D01*
X108289452Y-87972182D01*
X108348032Y-87764473D01*
X108348033Y-87764470D01*
X108349302Y-87759969D01*
X108367226Y-87619077D01*
X108382677Y-87497625D01*
X108382677Y-87497621D01*
X108383075Y-87494495D01*
X108383372Y-87483179D01*
X108385466Y-87403160D01*
X108385549Y-87400000D01*
X108385315Y-87396850D01*
X108366064Y-87137788D01*
X108366063Y-87137784D01*
X108365717Y-87133123D01*
X108360513Y-87110122D01*
X108308788Y-86881534D01*
X108306655Y-86872109D01*
X108272961Y-86785465D01*
X108211355Y-86627044D01*
X108211354Y-86627042D01*
X108209662Y-86622691D01*
X108076868Y-86390350D01*
X107911190Y-86180189D01*
X107716269Y-85996825D01*
X107496385Y-85844286D01*
X107492194Y-85842219D01*
X107260559Y-85727989D01*
X107260556Y-85727988D01*
X107256371Y-85725924D01*
X107210146Y-85711127D01*
X107113270Y-85680117D01*
X107001497Y-85644338D01*
X106797570Y-85611127D01*
X106741976Y-85602073D01*
X106741975Y-85602073D01*
X106737364Y-85601322D01*
X106603569Y-85599570D01*
X106474451Y-85597880D01*
X106474448Y-85597880D01*
X106469774Y-85597819D01*
X106204605Y-85633907D01*
X106200118Y-85635215D01*
X106200117Y-85635215D01*
X106138677Y-85653123D01*
X105947683Y-85708792D01*
X105943430Y-85710752D01*
X105943429Y-85710753D01*
X105891512Y-85734687D01*
X105704652Y-85820831D01*
X105700743Y-85823394D01*
X105484764Y-85964996D01*
X105484759Y-85965000D01*
X105480851Y-85967562D01*
X105424760Y-86017625D01*
X105287605Y-86140041D01*
X105281197Y-86145760D01*
X105110075Y-86351512D01*
X105107652Y-86355505D01*
X105028501Y-86485942D01*
X104971244Y-86580298D01*
X104969437Y-86584606D01*
X104969437Y-86584607D01*
X104886859Y-86781534D01*
X104867755Y-86827091D01*
X104866604Y-86831623D01*
X104866603Y-86831626D01*
X104821271Y-87010122D01*
X104801881Y-87086470D01*
X104775070Y-87352736D01*
X98222037Y-87352736D01*
X98206064Y-87137788D01*
X98206063Y-87137784D01*
X98205717Y-87133123D01*
X98200513Y-87110122D01*
X98148788Y-86881534D01*
X98146655Y-86872109D01*
X98112961Y-86785465D01*
X98051355Y-86627044D01*
X98051354Y-86627042D01*
X98049662Y-86622691D01*
X97916868Y-86390350D01*
X97751190Y-86180189D01*
X97556269Y-85996825D01*
X97336385Y-85844286D01*
X97332194Y-85842219D01*
X97100559Y-85727989D01*
X97100556Y-85727988D01*
X97096371Y-85725924D01*
X97050146Y-85711127D01*
X96953270Y-85680117D01*
X96841497Y-85644338D01*
X96637570Y-85611127D01*
X96581976Y-85602073D01*
X96581975Y-85602073D01*
X96577364Y-85601322D01*
X96443569Y-85599570D01*
X96314451Y-85597880D01*
X96314448Y-85597880D01*
X96309774Y-85597819D01*
X96044605Y-85633907D01*
X96040118Y-85635215D01*
X96040117Y-85635215D01*
X95978677Y-85653123D01*
X95787683Y-85708792D01*
X95783430Y-85710752D01*
X95783429Y-85710753D01*
X95731512Y-85734687D01*
X95544652Y-85820831D01*
X95540743Y-85823394D01*
X95324764Y-85964996D01*
X95324759Y-85965000D01*
X95320851Y-85967562D01*
X95264760Y-86017625D01*
X95127605Y-86140041D01*
X95121197Y-86145760D01*
X94950075Y-86351512D01*
X94947652Y-86355505D01*
X94868501Y-86485942D01*
X94811244Y-86580298D01*
X94809437Y-86584606D01*
X94809437Y-86584607D01*
X94726859Y-86781534D01*
X94707755Y-86827091D01*
X94706604Y-86831623D01*
X94706603Y-86831626D01*
X94661271Y-87010122D01*
X94641881Y-87086470D01*
X94615070Y-87352736D01*
X89896938Y-87352736D01*
X89898058Y-75925988D01*
X89918067Y-75857869D01*
X89971727Y-75811381D01*
X90024058Y-75800000D01*
X117100000Y-75800000D01*
X117100000Y-70326000D01*
X117120002Y-70257879D01*
X117173658Y-70211386D01*
X117226000Y-70200000D01*
X160374000Y-70200000D01*
X160442121Y-70220002D01*
G37*
%TD.AperFunction*%
%TD*%
M02*
