%TF.GenerationSoftware,KiCad,Pcbnew,9.0.7*%
%TF.CreationDate,2026-02-06T14:33:53+01:00*%
%TF.ProjectId,Tranzistorski_pretvara_,5472616e-7a69-4737-946f-72736b695f70,rev?*%
%TF.SameCoordinates,Original*%
%TF.FileFunction,Soldermask,Bot*%
%TF.FilePolarity,Negative*%
%FSLAX46Y46*%
G04 Gerber Fmt 4.6, Leading zero omitted, Abs format (unit mm)*
G04 Created by KiCad (PCBNEW 9.0.7) date 2026-02-06 14:33:53*
%MOMM*%
%LPD*%
G01*
G04 APERTURE LIST*
%ADD10C,1.600000*%
%ADD11O,1.600000X1.600000*%
%ADD12C,3.200000*%
%ADD13C,5.000000*%
%ADD14O,5.000000X3.000000*%
%ADD15O,3.000000X2.000000*%
%ADD16C,1.700000*%
%ADD17O,1.700000X1.700000*%
%ADD18R,3.200000X3.200000*%
%ADD19O,3.200000X3.200000*%
%ADD20R,1.905000X2.000000*%
%ADD21C,7.000000*%
%ADD22O,1.905000X2.000000*%
%ADD23R,2.400000X2.400000*%
%ADD24C,2.400000*%
%ADD25R,1.700000X1.700000*%
%ADD26R,2.400000X1.600000*%
%ADD27O,2.400000X1.600000*%
G04 APERTURE END LIST*
D10*
%TO.C,R7*%
X139600000Y-98920000D03*
D11*
X139600000Y-109080000D03*
%TD*%
D12*
%TO.C,H4*%
X92399633Y-59546833D03*
%TD*%
D10*
%TO.C,C4*%
X126943000Y-108520000D03*
X121943000Y-108520000D03*
%TD*%
D13*
%TO.C,B2*%
X93350000Y-134750000D03*
X108650000Y-134750000D03*
%TD*%
D10*
%TO.C,C1*%
X120200000Y-125700000D03*
X120200000Y-130700000D03*
%TD*%
D13*
%TO.C,B4*%
X184150000Y-134750000D03*
X168850000Y-134750000D03*
%TD*%
D12*
%TO.C,H3*%
X92453351Y-145200000D03*
%TD*%
D13*
%TO.C,B3*%
X184150000Y-69684785D03*
X168850000Y-69684785D03*
%TD*%
D14*
%TO.C,RV1*%
X102689500Y-97600000D03*
X102689500Y-107200000D03*
D15*
X95689500Y-99900000D03*
X95689500Y-102400000D03*
X95689500Y-104900000D03*
%TD*%
D10*
%TO.C,R4*%
X139600000Y-85920000D03*
D11*
X139600000Y-96080000D03*
%TD*%
D12*
%TO.C,H2*%
X185249266Y-59600000D03*
%TD*%
D16*
%TO.C,J3*%
X143933332Y-139530000D03*
D17*
X143933332Y-142070000D03*
%TD*%
D10*
%TO.C,R2*%
X106580000Y-87400000D03*
D11*
X96420000Y-87400000D03*
%TD*%
D10*
%TO.C,C6*%
X133800000Y-86020000D03*
X133800000Y-91020000D03*
%TD*%
%TO.C,R3*%
X113400000Y-98920000D03*
D11*
X113400000Y-109080000D03*
%TD*%
D18*
%TO.C,D2*%
X181200000Y-94780000D03*
D19*
X181200000Y-110020000D03*
%TD*%
D16*
%TO.C,J4*%
X155000000Y-139530000D03*
D17*
X155000000Y-142070000D03*
%TD*%
D10*
%TO.C,R6*%
X133800000Y-98920000D03*
D11*
X133800000Y-109080000D03*
%TD*%
D16*
%TO.C,J1*%
X121800000Y-139530000D03*
D17*
X121800000Y-142070000D03*
%TD*%
D20*
%TO.C,Q1*%
X161500000Y-95100000D03*
D21*
X158960000Y-109990000D03*
D22*
X158960000Y-95100000D03*
X156420000Y-95100000D03*
%TD*%
D13*
%TO.C,B1*%
X93350000Y-69684785D03*
X108650000Y-69684785D03*
%TD*%
D10*
%TO.C,R1*%
X96420000Y-117400000D03*
D11*
X106580000Y-117400000D03*
%TD*%
D23*
%TO.C,C5*%
X124743000Y-66704733D03*
D24*
X124743000Y-74204733D03*
%TD*%
D10*
%TO.C,C2*%
X130200000Y-125700000D03*
X130200000Y-130700000D03*
%TD*%
D16*
%TO.C,J2*%
X132866666Y-139530000D03*
D17*
X132866666Y-142070000D03*
%TD*%
D10*
%TO.C,C3*%
X140200000Y-125700000D03*
X140200000Y-130700000D03*
%TD*%
D25*
%TO.C,J5*%
X132725000Y-118120000D03*
D17*
X130185000Y-118120000D03*
X127645000Y-118120000D03*
%TD*%
D26*
%TO.C,U1*%
X120943000Y-83520000D03*
D27*
X120943000Y-86060000D03*
X120943000Y-88600000D03*
X120943000Y-91140000D03*
X120943000Y-93680000D03*
X120943000Y-96220000D03*
X120943000Y-98760000D03*
X120943000Y-101300000D03*
X128563000Y-101300000D03*
X128563000Y-98760000D03*
X128563000Y-96220000D03*
X128563000Y-93680000D03*
X128563000Y-91140000D03*
X128563000Y-88600000D03*
X128563000Y-86060000D03*
X128563000Y-83520000D03*
%TD*%
D12*
%TO.C,H1*%
X185249817Y-145200000D03*
%TD*%
M02*
